<?xml version="1.0" encoding="UTF-8" standalone="no"?>
<!-- Created with Inkscape (http://www.inkscape.org/) -->

<svg
   xmlns:dc="http://purl.org/dc/elements/1.1/"
   xmlns:cc="http://creativecommons.org/ns#"
   xmlns:rdf="http://www.w3.org/1999/02/22-rdf-syntax-ns#"
   xmlns:svg="http://www.w3.org/2000/svg"
   xmlns="http://www.w3.org/2000/svg"
   xmlns:sodipodi="http://sodipodi.sourceforge.net/DTD/sodipodi-0.dtd"
   xmlns:inkscape="http://www.inkscape.org/namespaces/inkscape"
   width="513.17212"
   height="513.21179"
   id="svg6006"
   version="1.1"
   inkscape:version="0.48.3.1 r9886"
   sodipodi:docname="New document 3">
  <defs
     id="defs6008">
    <clipPath
       clipPathUnits="userSpaceOnUse"
       id="clipPath16">
      <path
         inkscape:connector-curvature="0"
         d="m 58.028,487.62 c -5.325,-5.325 -7.138,-12.839 -5.437,-19.648 l 0,0 2.22,0.554 c -1.51,6.063 0.097,12.737 4.837,17.476 l 0,0 c 3.594,3.593 8.294,5.385 13.004,5.386 l 0,0 c 4.711,-10e-4 9.411,-1.793 13.006,-5.386 l 0,0 c 3.592,-3.594 5.385,-8.294 5.386,-13.005 l 0,0 c -0.002,-4.712 -1.793,-9.411 -5.386,-13.005 l 0,0 c -4.788,-4.788 -11.552,-6.379 -17.664,-4.786 l 0,0 -0.578,-2.214 c 6.865,-1.791 14.478,0 19.86,5.382 l 0,0 c 8.076,8.076 8.075,21.169 0,29.246 l 0,0 c -4.039,4.038 -9.331,6.057 -14.624,6.057 l 0,0 c -5.292,0 -10.585,-2.019 -14.624,-6.057 m 3.269,-3.378 c -4.09,-4.089 -5.501,-9.849 -4.229,-15.084 l 0,0 2.224,0.539 c -1.088,4.493 0.116,9.42 3.623,12.927 l 0,0 c 2.676,2.675 6.174,4.009 9.683,4.01 l 0,0 c 3.507,-0.001 7.004,-1.335 9.681,-4.011 l 0,0 c 2.677,-2.676 4.009,-6.174 4.011,-9.681 l 0,0 c -0.002,-3.509 -1.335,-7.007 -4.01,-9.682 l 0,0 c -3.557,-3.558 -8.578,-4.744 -13.122,-3.571 l 0,0 -0.573,-2.217 0.001,0 c 5.294,-1.369 11.162,0.02 15.312,4.17 l 0,0 c 6.241,6.241 6.241,16.359 0,22.6 l 0,0 c -3.121,3.121 -7.211,4.681 -11.301,4.681 l 0,0 c -4.089,0 -8.179,-1.56 -11.3,-4.681 m 3.187,-3.187 c -2.907,-2.908 -3.927,-6.992 -3.061,-10.718 l 0,0 2.229,0.518 c -0.692,2.99 0.121,6.252 2.45,8.581 l 0,0 c 3.594,3.581 9.396,3.581 12.99,0 l 0,0 c 3.58,-3.592 3.58,-9.396 0,-12.989 l 0,0 c -2.378,-2.379 -5.729,-3.176 -8.77,-2.403 l 0,0 -0.566,-2.218 c 3.79,-0.968 7.985,0.034 10.954,3.002 l 0,0 c 4.48,4.482 4.479,11.745 0,16.227 l 0,0 c -2.241,2.24 -5.177,3.36 -8.113,3.36 l 0,0 c -2.936,0 -5.872,-1.12 -8.113,-3.36"
         id="path18" />
    </clipPath>
    <linearGradient
       x1="0"
       y1="0"
       x2="1"
       y2="0"
       gradientUnits="userSpaceOnUse"
       gradientTransform="matrix(-11.335953,-11.335953,-11.335953,11.335953,78.543945,478.88867)"
       spreadMethod="pad"
       id="linearGradient24">
      <stop
         style="stop-opacity:1;stop-color:#52a9ca"
         offset="0"
         id="stop26" />
      <stop
         style="stop-opacity:1;stop-color:#ffffff"
         offset="1"
         id="stop28" />
    </linearGradient>
  </defs>
  <sodipodi:namedview
     id="base"
     pagecolor="#ffffff"
     bordercolor="#666666"
     borderopacity="1.0"
     inkscape:pageopacity="0.0"
     inkscape:pageshadow="2"
     inkscape:zoom="0.35"
     inkscape:cx="294.44323"
     inkscape:cy="310.89161"
     inkscape:document-units="px"
     inkscape:current-layer="layer1"
     showgrid="false"
     fit-margin-top="0"
     fit-margin-left="0"
     fit-margin-right="0"
     fit-margin-bottom="0"
     inkscape:window-width="472"
     inkscape:window-height="415"
     inkscape:window-x="301"
     inkscape:window-y="343"
     inkscape:window-maximized="0" />
  <metadata
     id="metadata6011">
    <rdf:RDF>
      <cc:Work
         rdf:about="">
        <dc:format>image/svg+xml</dc:format>
        <dc:type
           rdf:resource="http://purl.org/dc/dcmitype/StillImage" />
        <dc:title></dc:title>
      </cc:Work>
    </rdf:RDF>
  </metadata>
  <g
     inkscape:label="Layer 1"
     inkscape:groupmode="layer"
     id="layer1"
     transform="translate(-80.556767,-330.042)">
    <g
       clip-path="url(#clipPath16)"
       id="g14"
       transform="matrix(0.82051997,12.381264,12.381264,-0.82051997,-5578.794,75.215574)">
      <g
         id="g20">
        <g
           id="g22">
          <path
             id="path30"
             style="fill:url(#linearGradient24);stroke:none"
             d="m 58.028,487.62 c -5.325,-5.325 -7.138,-12.839 -5.437,-19.648 l 0,0 2.22,0.554 c -1.51,6.063 0.097,12.737 4.837,17.476 l 0,0 c 3.594,3.593 8.294,5.385 13.004,5.386 l 0,0 c 4.711,-10e-4 9.411,-1.793 13.006,-5.386 l 0,0 c 3.592,-3.594 5.385,-8.294 5.386,-13.005 l 0,0 c -0.002,-4.712 -1.793,-9.411 -5.386,-13.005 l 0,0 c -4.788,-4.788 -11.552,-6.379 -17.664,-4.786 l 0,0 -0.578,-2.214 c 6.865,-1.791 14.478,0 19.86,5.382 l 0,0 c 8.076,8.076 8.075,21.169 0,29.246 l 0,0 c -4.039,4.038 -9.331,6.057 -14.624,6.057 l 0,0 c -5.292,0 -10.585,-2.019 -14.624,-6.057 m 3.269,-3.378 c -4.09,-4.089 -5.501,-9.849 -4.229,-15.084 l 0,0 2.224,0.539 c -1.088,4.493 0.116,9.42 3.623,12.927 l 0,0 c 2.676,2.675 6.174,4.009 9.683,4.01 l 0,0 c 3.507,-0.001 7.004,-1.335 9.681,-4.011 l 0,0 c 2.677,-2.676 4.009,-6.174 4.011,-9.681 l 0,0 c -0.002,-3.509 -1.335,-7.007 -4.01,-9.682 l 0,0 c -3.557,-3.558 -8.578,-4.744 -13.122,-3.571 l 0,0 -0.573,-2.217 0.001,0 c 5.294,-1.369 11.162,0.02 15.312,4.17 l 0,0 c 6.241,6.241 6.241,16.359 0,22.6 l 0,0 c -3.121,3.121 -7.211,4.681 -11.301,4.681 l 0,0 c -4.089,0 -8.179,-1.56 -11.3,-4.681 m 3.187,-3.187 c -2.907,-2.908 -3.927,-6.992 -3.061,-10.718 l 0,0 2.229,0.518 c -0.692,2.99 0.121,6.252 2.45,8.581 l 0,0 c 3.594,3.581 9.396,3.581 12.99,0 l 0,0 c 3.58,-3.592 3.58,-9.396 0,-12.989 l 0,0 c -2.378,-2.379 -5.729,-3.176 -8.77,-2.403 l 0,0 -0.566,-2.218 c 3.79,-0.968 7.985,0.034 10.954,3.002 l 0,0 c 4.48,4.482 4.479,11.745 0,16.227 l 0,0 c -2.241,2.24 -5.177,3.36 -8.113,3.36 l 0,0 c -2.936,0 -5.872,-1.12 -8.113,-3.36"
             inkscape:connector-curvature="0" />
        </g>
      </g>
    </g>
  </g>
</svg>
