<?xml version="1.0" encoding="UTF-8" standalone="no"?>
<!-- Created with Inkscape (http://www.inkscape.org/) -->

<svg
   xmlns:dc="http://purl.org/dc/elements/1.1/"
   xmlns:cc="http://creativecommons.org/ns#"
   xmlns:rdf="http://www.w3.org/1999/02/22-rdf-syntax-ns#"
   xmlns:svg="http://www.w3.org/2000/svg"
   xmlns="http://www.w3.org/2000/svg"
   xmlns:xlink="http://www.w3.org/1999/xlink"
   xmlns:sodipodi="http://sodipodi.sourceforge.net/DTD/sodipodi-0.dtd"
   xmlns:inkscape="http://www.inkscape.org/namespaces/inkscape"
   width="1318.2008"
   height="1265.2065"
   id="svg9552"
   version="1.1"
   inkscape:version="0.48.3.1 r9886"
   sodipodi:docname="satellite_dish_tower.svg">
  <defs
     id="defs9554">
    <clipPath
       clipPathUnits="userSpaceOnUse"
       id="clipPath4734">
      <path
         inkscape:connector-curvature="0"
         d="M 0,3818.73 0,0 l 5329.69,0 0,3818.73 -5329.69,0 z"
         id="path4736" />
    </clipPath>
    <clipPath
       clipPathUnits="userSpaceOnUse"
       id="clipPath4718">
      <path
         inkscape:connector-curvature="0"
         d="m 4779.95,3423.24 c -104.51,-152.08 -255.58,-229.79 -337.38,-173.57 -81.83,56.21 -63.42,225.1 41.1,377.21 104.53,152.06 255.57,229.78 337.37,173.55 81.83,-56.23 63.43,-225.1 -41.09,-377.19 l 0,0 z"
         id="path4720" />
    </clipPath>
    <radialGradient
       fx="0"
       fy="0"
       cx="0"
       cy="0"
       r="1"
       gradientUnits="userSpaceOnUse"
       gradientTransform="matrix(26.791,0,0,-26.791,463.181,352.506)"
       spreadMethod="pad"
       id="radialGradient4722">
      <stop
         style="stop-opacity:1;stop-color:#ffffff"
         offset="0"
         id="stop4724" />
      <stop
         style="stop-opacity:1;stop-color:#c2c3c4"
         offset="1"
         id="stop4726" />
    </radialGradient>
    <clipPath
       clipPathUnits="userSpaceOnUse"
       id="clipPath4700">
      <path
         inkscape:connector-curvature="0"
         d="m 4800.21,3410.61 c -104.5,-152.11 -255.57,-229.82 -337.41,-173.59 -81.81,56.22 -63.41,225.12 41.13,377.19 104.5,152.08 255.54,229.79 337.36,173.56 81.84,-56.2 63.42,-225.07 -41.08,-377.16 l 0,0 z"
         id="path4702" />
    </clipPath>
    <linearGradient
       x1="0"
       y1="0"
       x2="1"
       y2="0"
       gradientUnits="userSpaceOnUse"
       gradientTransform="matrix(37.7476,56.552,56.552,-37.7476,446.489,323.197)"
       spreadMethod="pad"
       id="linearGradient4704">
      <stop
         style="stop-opacity:1;stop-color:#0e0f0e"
         offset="0"
         id="stop4706" />
      <stop
         style="stop-opacity:1;stop-color:#d7d6d6"
         offset="0.653846"
         id="stop4708" />
      <stop
         style="stop-opacity:1;stop-color:#6a6e75"
         offset="1"
         id="stop4710" />
    </linearGradient>
    <clipPath
       clipPathUnits="userSpaceOnUse"
       id="clipPath4690">
      <path
         inkscape:connector-curvature="0"
         d="M 0,3818.73 0,0 l 5329.69,0 0,3818.73 -5329.69,0 z"
         id="path4692" />
    </clipPath>
    <clipPath
       clipPathUnits="userSpaceOnUse"
       id="clipPath4674">
      <path
         inkscape:connector-curvature="0"
         d="m 4664.57,3267.16 0,7.9 76.56,0 0,-10.25 -76.56,0 0,2.35 z"
         id="path4676" />
    </clipPath>
    <linearGradient
       x1="0"
       y1="0"
       x2="1"
       y2="0"
       gradientUnits="userSpaceOnUse"
       gradientTransform="matrix(0,-0.42589,-0.42589,0,470.285,327.285)"
       spreadMethod="pad"
       id="linearGradient4678">
      <stop
         style="stop-opacity:1;stop-color:#696c73"
         offset="0"
         id="stop4680" />
      <stop
         style="stop-opacity:1;stop-color:#1c1b1c"
         offset="1"
         id="stop4682" />
    </linearGradient>
    <clipPath
       clipPathUnits="userSpaceOnUse"
       id="clipPath4658">
      <path
         inkscape:connector-curvature="0"
         d="m 4737.8,3261.86 0,2.95 0,10.25 0,8.11 62.68,0 c -10.74,-10.14 -21.7,-19.21 -32.72,-27.18 l -29.96,0 0,5.87 z"
         id="path4660" />
    </clipPath>
    <linearGradient
       x1="0"
       y1="0"
       x2="1"
       y2="0"
       gradientUnits="userSpaceOnUse"
       gradientTransform="matrix(0,-1.13185,-1.13185,0,476.914,327.731)"
       spreadMethod="pad"
       id="linearGradient4662">
      <stop
         style="stop-opacity:1;stop-color:#696c73"
         offset="0"
         id="stop4664" />
      <stop
         style="stop-opacity:1;stop-color:#1c1b1c"
         offset="1"
         id="stop4666" />
    </linearGradient>
    <clipPath
       clipPathUnits="userSpaceOnUse"
       id="clipPath4642">
      <path
         inkscape:connector-curvature="0"
         d="m 4849.13,3436.89 c 1.4,1.4 2.27,2.04 3.51,3.05 l -0.02,0 c 3.9,3.04 7.27,4.28 9.92,4.67 4.34,0.59 6.82,-1.05 6.82,-1.05 l 10.47,-27.05 c -4.43,-9.22 -9.29,-18.43 -14.65,-27.63 l -16.5,47.57 0.45,0.44 z"
         id="path4644" />
    </clipPath>
    <linearGradient
       x1="0"
       y1="0"
       x2="1"
       y2="0"
       gradientUnits="userSpaceOnUse"
       gradientTransform="matrix(-1.65383,-0.522198,-0.522198,1.65383,487.971,342.185)"
       spreadMethod="pad"
       id="linearGradient4646">
      <stop
         style="stop-opacity:1;stop-color:#696c73"
         offset="0"
         id="stop4648" />
      <stop
         style="stop-opacity:1;stop-color:#212122"
         offset="1"
         id="stop4650" />
    </linearGradient>
    <clipPath
       clipPathUnits="userSpaceOnUse"
       id="clipPath4626">
      <path
         inkscape:connector-curvature="0"
         d="m 4832.07,3494.2 7.7,3.26 22.78,-53.61 c 0,0.02 0.01,0.02 0.01,0.02 l 0.01,-0.02 c -2.53,-0.49 -5.63,-1.78 -9.19,-4.52 l -23.01,54.15 1.7,0.72 z"
         id="path4628" />
    </clipPath>
    <linearGradient
       x1="0"
       y1="0"
       x2="1"
       y2="0"
       gradientUnits="userSpaceOnUse"
       gradientTransform="matrix(-0.391562,-0.166445,-0.166445,0.391562,484.924,346.953)"
       spreadMethod="pad"
       id="linearGradient4630">
      <stop
         style="stop-opacity:1;stop-color:#696c73"
         offset="0"
         id="stop4632" />
      <stop
         style="stop-opacity:1;stop-color:#212122"
         offset="1"
         id="stop4634" />
    </linearGradient>
    <clipPath
       clipPathUnits="userSpaceOnUse"
       id="clipPath4610">
      <path
         inkscape:connector-curvature="0"
         d="m 4768.08,3258.3 c 11.02,7.99 18.8,14.73 29.55,24.87 l 99.99,0 0,-27.18 -132.71,0 3.17,2.31 z"
         id="path4612" />
    </clipPath>
    <linearGradient
       x1="0"
       y1="0"
       x2="1"
       y2="0"
       gradientUnits="userSpaceOnUse"
       gradientTransform="matrix(0,-1.13185,-1.13185,0,483.127,327.731)"
       spreadMethod="pad"
       id="linearGradient4614">
      <stop
         style="stop-opacity:1;stop-color:#cecece"
         offset="0"
         id="stop4616" />
      <stop
         style="stop-opacity:1;stop-color:#707178"
         offset="1"
         id="stop4618" />
    </linearGradient>
    <clipPath
       clipPathUnits="userSpaceOnUse"
       id="clipPath4600">
      <path
         inkscape:connector-curvature="0"
         d="M 0,3818.73 0,0 l 5329.69,0 0,3818.73 -5329.69,0 z"
         id="path4602" />
    </clipPath>
    <clipPath
       clipPathUnits="userSpaceOnUse"
       id="clipPath4584">
      <path
         inkscape:connector-curvature="0"
         d="m 4866.61,3391.58 c 5.35,9.19 8.79,15.89 13.22,25.12 l 45.07,-116.35 -25.85,-9.04 -33.89,97.78 1.45,2.49 z"
         id="path4586" />
    </clipPath>
    <linearGradient
       x1="0"
       y1="0"
       x2="1"
       y2="0"
       gradientUnits="userSpaceOnUse"
       gradientTransform="matrix(-1.58052,-0.49905,-0.49905,1.58052,490.037,335.746)"
       spreadMethod="pad"
       id="linearGradient4588">
      <stop
         style="stop-opacity:1;stop-color:#cecece"
         offset="0"
         id="stop4590" />
      <stop
         style="stop-opacity:1;stop-color:#707178"
         offset="1"
         id="stop4592" />
    </linearGradient>
    <clipPath
       clipPathUnits="userSpaceOnUse"
       id="clipPath4568">
      <path
         inkscape:connector-curvature="0"
         d="m 4921.81,3249.64 -20.47,0 0,49.41 20.47,0 0,-49.41 0,0 z"
         id="path4570" />
    </clipPath>
    <linearGradient
       x1="0"
       y1="0"
       x2="1"
       y2="0"
       gradientUnits="userSpaceOnUse"
       gradientTransform="matrix(1.30632,0,0,-1.30632,490.541,327.435)"
       spreadMethod="pad"
       id="linearGradient4572">
      <stop
         style="stop-opacity:1;stop-color:#cecece"
         offset="0"
         id="stop4574" />
      <stop
         style="stop-opacity:1;stop-color:#707178"
         offset="1"
         id="stop4576" />
    </linearGradient>
    <clipPath
       clipPathUnits="userSpaceOnUse"
       id="clipPath4556">
      <path
         inkscape:connector-curvature="0"
         d="M 0,3818.73 0,0 l 5329.69,0 0,3818.73 -5329.69,0 z"
         id="path4558" />
    </clipPath>
    <clipPath
       clipPathUnits="userSpaceOnUse"
       id="clipPath4540">
      <path
         inkscape:connector-curvature="0"
         d="m 4824.22,3172.71 -76.64,0 -22.12,-35.82 0,-4.57 120.88,0 0,4.57 -22.12,35.82 0,0 z"
         id="path4542" />
    </clipPath>
    <linearGradient
       x1="0"
       y1="0"
       x2="1"
       y2="0"
       gradientUnits="userSpaceOnUse"
       gradientTransform="matrix(4.71883,2.8135,2.8135,-4.71883,476.371,313.269)"
       spreadMethod="pad"
       id="linearGradient4544">
      <stop
         style="stop-opacity:1;stop-color:#aeacad"
         offset="0"
         id="stop4546" />
      <stop
         style="stop-opacity:1;stop-color:#707178"
         offset="1"
         id="stop4548" />
    </linearGradient>
    <clipPath
       clipPathUnits="userSpaceOnUse"
       id="clipPath4524">
      <path
         inkscape:connector-curvature="0"
         d="m 4731.75,3129.7 0,3.31 108.33,0 0,-5.58 -108.33,0 0,2.27 z"
         id="path4526" />
    </clipPath>
    <linearGradient
       x1="0"
       y1="0"
       x2="1"
       y2="0"
       gradientUnits="userSpaceOnUse"
       gradientTransform="matrix(3.93673,0,0,-3.93673,478.593,313.022)"
       spreadMethod="pad"
       id="linearGradient4528">
      <stop
         style="stop-opacity:1;stop-color:#3b3c40"
         offset="0"
         id="stop4530" />
      <stop
         style="stop-opacity:1;stop-color:#242324"
         offset="1"
         id="stop4532" />
    </linearGradient>
    <clipPath
       clipPathUnits="userSpaceOnUse"
       id="clipPath4508">
      <path
         inkscape:connector-curvature="0"
         d="m 4824,3158.51 -76.23,0 0,126.01 76.23,0 0,-126.01 0,0 z"
         id="path4510" />
    </clipPath>
    <radialGradient
       fx="0"
       fy="0"
       cx="0"
       cy="0"
       r="1"
       gradientUnits="userSpaceOnUse"
       gradientTransform="matrix(7.18741,0,0,-7.18741,474.51,321.554)"
       spreadMethod="pad"
       id="radialGradient4512">
      <stop
         style="stop-opacity:1;stop-color:#cde155"
         offset="0"
         id="stop4514" />
      <stop
         style="stop-opacity:1;stop-color:#73a42e"
         offset="1"
         id="stop4516" />
    </radialGradient>
    <clipPath
       clipPathUnits="userSpaceOnUse"
       id="clipPath4498">
      <path
         inkscape:connector-curvature="0"
         d="M 0,3818.73 0,0 l 5329.69,0 0,3818.73 -5329.69,0 z"
         id="path4500" />
    </clipPath>
    <clipPath
       clipPathUnits="userSpaceOnUse"
       id="clipPath4480">
      <path
         inkscape:connector-curvature="0"
         d="m 4788.54,3115.54 0,147.91 -8.64,0 0,-147.91 c 0,-115.42 -30.23,-252.5 -30.23,-252.5 l 69.12,0 c 0,0 -30.25,137.08 -30.25,252.5 z"
         id="path4482" />
    </clipPath>
    <linearGradient
       x1="0"
       y1="0"
       x2="1"
       y2="0"
       gradientUnits="userSpaceOnUse"
       gradientTransform="matrix(2.47134,16.1529,16.1529,-2.47134,476.828,286.019)"
       spreadMethod="pad"
       id="linearGradient4484">
      <stop
         style="stop-opacity:1;stop-color:#46464e"
         offset="0"
         id="stop4486" />
      <stop
         style="stop-opacity:1;stop-color:#f7f6fb"
         offset="0.692308"
         id="stop4488" />
      <stop
         style="stop-opacity:1;stop-color:#93949b"
         offset="1"
         id="stop4490" />
    </linearGradient>
    <clipPath
       clipPathUnits="userSpaceOnUse"
       id="clipPath4464">
      <path
         inkscape:connector-curvature="0"
         d="m 4811.51,3254.82 c 0,0 2.15,-247.05 139.15,-350.61 l -75.51,0 c 0,0 -56.08,85.22 -70.12,349.54 l 6.48,1.07 z"
         id="path4466" />
    </clipPath>
    <linearGradient
       x1="0"
       y1="0"
       x2="1"
       y2="0"
       gradientUnits="userSpaceOnUse"
       gradientTransform="matrix(-5.58544,15.4283,15.4283,5.58544,490.471,292.177)"
       spreadMethod="pad"
       id="linearGradient4468">
      <stop
         style="stop-opacity:1;stop-color:#46464e"
         offset="0"
         id="stop4470" />
      <stop
         style="stop-opacity:1;stop-color:#93949b"
         offset="1"
         id="stop4472" />
    </linearGradient>
    <clipPath
       clipPathUnits="userSpaceOnUse"
       id="clipPath4446">
      <path
         inkscape:connector-curvature="0"
         d="m 4756.94,3254.82 c 0,0 -2.16,-247.05 -139.16,-350.61 l 75.49,0 c 0,0 56.11,85.22 70.16,349.54 l -6.49,1.07 z"
         id="path4448" />
    </clipPath>
    <linearGradient
       x1="0"
       y1="0"
       x2="1"
       y2="0"
       gradientUnits="userSpaceOnUse"
       gradientTransform="matrix(7.02291,13.939,13.939,-7.02291,464.247,291.506)"
       spreadMethod="pad"
       id="linearGradient4450">
      <stop
         style="stop-opacity:1;stop-color:#46464e"
         offset="0"
         id="stop4452" />
      <stop
         style="stop-opacity:1;stop-color:#d1d1d4"
         offset="0.692308"
         id="stop4454" />
      <stop
         style="stop-opacity:1;stop-color:#93949b"
         offset="1"
         id="stop4456" />
    </linearGradient>
    <clipPath
       clipPathUnits="userSpaceOnUse"
       id="clipPath4434">
      <path
         inkscape:connector-curvature="0"
         d="M 0,3818.73 0,0 l 5329.69,0 0,3818.73 -5329.69,0 z"
         id="path4436" />
    </clipPath>
    <clipPath
       clipPathUnits="userSpaceOnUse"
       id="clipPath66">
      <path
         inkscape:connector-curvature="0"
         d="m 5250,2926.88 c 0,-42.93 -236.61,-77.72 -528.49,-77.72 -291.88,0 -528.5,34.79 -528.5,77.72 0,42.92 236.62,77.73 528.5,77.73 291.88,0 528.49,-34.81 528.49,-77.73 z"
         id="path68" />
    </clipPath>
    <radialGradient
       fx="0"
       fy="0"
       cx="0"
       cy="0"
       r="1"
       gradientUnits="userSpaceOnUse"
       gradientTransform="matrix(52.842,0,0,-7.77306,472.15,292.688)"
       spreadMethod="pad"
       id="radialGradient70">
      <stop
         style="stop-opacity:1;stop-color:#e0dfde"
         offset="0"
         id="stop72" />
      <stop
         style="stop-opacity:1;stop-color:#ffffff"
         offset="1"
         id="stop74" />
    </radialGradient>
    <radialGradient
       r="1"
       fy="0"
       fx="0"
       cy="0"
       cx="0"
       spreadMethod="pad"
       gradientTransform="matrix(52.842,0,0,-7.77306,472.15,292.688)"
       gradientUnits="userSpaceOnUse"
       id="radialGradient9550"
       xlink:href="#radialGradient70"
       inkscape:collect="always" />
    <clipPath
       clipPathUnits="userSpaceOnUse"
       id="clipPath16">
      <path
         inkscape:connector-curvature="0"
         d="m 58.028,487.62 c -5.325,-5.325 -7.138,-12.839 -5.437,-19.648 l 0,0 2.22,0.554 c -1.51,6.063 0.097,12.737 4.837,17.476 l 0,0 c 3.594,3.593 8.294,5.385 13.004,5.386 l 0,0 c 4.711,-10e-4 9.411,-1.793 13.006,-5.386 l 0,0 c 3.592,-3.594 5.385,-8.294 5.386,-13.005 l 0,0 c -0.002,-4.712 -1.793,-9.411 -5.386,-13.005 l 0,0 c -4.788,-4.788 -11.552,-6.379 -17.664,-4.786 l 0,0 -0.578,-2.214 c 6.865,-1.791 14.478,0 19.86,5.382 l 0,0 c 8.076,8.076 8.075,21.169 0,29.246 l 0,0 c -4.039,4.038 -9.331,6.057 -14.624,6.057 l 0,0 c -5.292,0 -10.585,-2.019 -14.624,-6.057 m 3.269,-3.378 c -4.09,-4.089 -5.501,-9.849 -4.229,-15.084 l 0,0 2.224,0.539 c -1.088,4.493 0.116,9.42 3.623,12.927 l 0,0 c 2.676,2.675 6.174,4.009 9.683,4.01 l 0,0 c 3.507,-0.001 7.004,-1.335 9.681,-4.011 l 0,0 c 2.677,-2.676 4.009,-6.174 4.011,-9.681 l 0,0 c -0.002,-3.509 -1.335,-7.007 -4.01,-9.682 l 0,0 c -3.557,-3.558 -8.578,-4.744 -13.122,-3.571 l 0,0 -0.573,-2.217 0.001,0 c 5.294,-1.369 11.162,0.02 15.312,4.17 l 0,0 c 6.241,6.241 6.241,16.359 0,22.6 l 0,0 c -3.121,3.121 -7.211,4.681 -11.301,4.681 l 0,0 c -4.089,0 -8.179,-1.56 -11.3,-4.681 m 3.187,-3.187 c -2.907,-2.908 -3.927,-6.992 -3.061,-10.718 l 0,0 2.229,0.518 c -0.692,2.99 0.121,6.252 2.45,8.581 l 0,0 c 3.594,3.581 9.396,3.581 12.99,0 l 0,0 c 3.58,-3.592 3.58,-9.396 0,-12.989 l 0,0 c -2.378,-2.379 -5.729,-3.176 -8.77,-2.403 l 0,0 -0.566,-2.218 c 3.79,-0.968 7.985,0.034 10.954,3.002 l 0,0 c 4.48,4.482 4.479,11.745 0,16.227 l 0,0 c -2.241,2.24 -5.177,3.36 -8.113,3.36 l 0,0 c -2.936,0 -5.872,-1.12 -8.113,-3.36"
         id="path18" />
    </clipPath>
    <linearGradient
       x1="0"
       y1="0"
       x2="1"
       y2="0"
       gradientUnits="userSpaceOnUse"
       gradientTransform="matrix(-11.335953,-11.335953,-11.335953,11.335953,78.543945,478.88867)"
       spreadMethod="pad"
       id="linearGradient24">
      <stop
         style="stop-opacity:1;stop-color:#52a9ca"
         offset="0"
         id="stop26" />
      <stop
         style="stop-opacity:1;stop-color:#ffffff"
         offset="1"
         id="stop28" />
    </linearGradient>
  </defs>
  <sodipodi:namedview
     id="base"
     pagecolor="#ffffff"
     bordercolor="#666666"
     borderopacity="1.0"
     inkscape:pageopacity="0.0"
     inkscape:pageshadow="2"
     inkscape:zoom="0.35"
     inkscape:cx="463.38188"
     inkscape:cy="386.31234"
     inkscape:document-units="px"
     inkscape:current-layer="layer1"
     showgrid="false"
     fit-margin-top="0"
     fit-margin-left="0"
     fit-margin-right="0"
     fit-margin-bottom="0"
     inkscape:window-width="1024"
     inkscape:window-height="576"
     inkscape:window-x="0"
     inkscape:window-y="24"
     inkscape:window-maximized="1" />
  <metadata
     id="metadata9557">
    <rdf:RDF>
      <cc:Work
         rdf:about="">
        <dc:format>image/svg+xml</dc:format>
        <dc:type
           rdf:resource="http://purl.org/dc/dcmitype/StillImage" />
        <dc:title></dc:title>
      </cc:Work>
    </rdf:RDF>
  </metadata>
  <g
     inkscape:label="Layer 1"
     inkscape:groupmode="layer"
     id="layer1"
     transform="translate(-25.903834,689.38912)">
    <g
       id="g64"
       clip-path="url(#clipPath66)"
       transform="matrix(1.031388,0,0,-1.031388,-4070.6823,3514.4068)">
      <path
         d="m 5250,2926.88 c 0,-42.93 -236.61,-77.72 -528.49,-77.72 -291.88,0 -528.5,34.79 -528.5,77.72 0,42.92 236.62,77.73 528.5,77.73 291.88,0 528.49,-34.81 528.49,-77.73"
         style="fill:url(#radialGradient9550);fill-opacity:1;fill-rule:nonzero;stroke:none"
         id="path76"
         inkscape:connector-curvature="0" />
    </g>
    <g
       id="g4432"
       clip-path="url(#clipPath4434)"
       transform="matrix(1.031388,0,0,-1.031388,-4070.6823,3514.4068)">
      <path
         d="m 4790.98,2912.84 75.54,45.32 -84.39,47.61 43.4,60.15 -51.69,34.31 45.05,20.13 4.31,-9.63 -27.57,-12.31 44.87,-29.78 -42.92,-59.48 89.95,-50.71 -91.12,-54.66 0,-0.01 -5.43,9.06 0,0"
         style="fill:#202020;fill-opacity:1;fill-rule:nonzero;stroke:none"
         id="path4438"
         inkscape:connector-curvature="0" />
      <path
         d="m 4679.04,2958.45 89.93,50.71 -42.9,59.48 44.86,29.76 -27.56,12.33 4.3,9.63 45.08,-20.13 -51.71,-34.31 43.39,-60.16 -84.39,-47.6 75.55,-45.31 0,0 -5.44,-9.06 -91.11,54.66 0,0"
         style="fill:#686b72;fill-opacity:1;fill-rule:nonzero;stroke:none"
         id="path4440"
         inkscape:connector-curvature="0" />
    </g>
    <g
       id="g4444"
       clip-path="url(#clipPath4446)"
       transform="matrix(1.031388,0,0,-1.031388,-4070.6823,3514.4068)">
      <path
         d="m 4756.94,3254.82 c 0,0 -2.16,-247.05 -139.16,-350.61 l 75.49,0 c 0,0 56.11,85.22 70.16,349.54 l -6.49,1.07"
         style="fill:url(#linearGradient4450);fill-opacity:1;fill-rule:nonzero;stroke:none"
         id="path4458"
         inkscape:connector-curvature="0" />
    </g>
    <g
       id="g4462"
       clip-path="url(#clipPath4464)"
       transform="matrix(1.031388,0,0,-1.031388,-4070.6823,3514.4068)">
      <path
         d="m 4811.51,3254.82 c 0,0 2.15,-247.05 139.15,-350.61 l -75.51,0 c 0,0 -56.08,85.22 -70.12,349.54 l 6.48,1.07"
         style="fill:url(#linearGradient4468);fill-opacity:1;fill-rule:nonzero;stroke:none"
         id="path4474"
         inkscape:connector-curvature="0" />
    </g>
    <g
       id="g4478"
       clip-path="url(#clipPath4480)"
       transform="matrix(1.031388,0,0,-1.031388,-4070.6823,3514.4068)">
      <path
         d="m 4788.54,3115.54 0,147.91 -8.64,0 0,-147.91 c 0,-115.42 -30.23,-252.5 -30.23,-252.5 l 69.12,0 c 0,0 -30.25,137.08 -30.25,252.5"
         style="fill:url(#linearGradient4484);fill-opacity:1;fill-rule:nonzero;stroke:none"
         id="path4492"
         inkscape:connector-curvature="0" />
    </g>
    <g
       id="g4496"
       clip-path="url(#clipPath4498)"
       transform="matrix(1.031388,0,0,-1.031388,-4070.6823,3514.4068)">
      <path
         d="m 4818.79,2863.04 c 0,0 -30.25,137.08 -30.25,252.5 l 0,147.91 -4.29,0 0,-400.41 34.54,0"
         style="fill:#202020;fill-opacity:1;fill-rule:nonzero;stroke:none"
         id="path4502"
         inkscape:connector-curvature="0" />
    </g>
    <g
       id="g4506"
       clip-path="url(#clipPath4508)"
       transform="matrix(1.031388,0,0,-1.031388,-4070.6823,3514.4068)">
      <path
         d="m 4824,3158.51 -76.23,0 0,126.01 76.23,0 0,-126.01"
         style="fill:url(#radialGradient4512);fill-opacity:1;fill-rule:nonzero;stroke:none"
         id="path4518"
         inkscape:connector-curvature="0" />
    </g>
    <g
       id="g4522"
       clip-path="url(#clipPath4524)"
       transform="matrix(1.031388,0,0,-1.031388,-4070.6823,3514.4068)">
      <path
         d="m 4731.75,3129.7 0,3.31 108.33,0 0,-5.58 -108.33,0 0,2.27"
         style="fill:url(#linearGradient4528);fill-opacity:1;fill-rule:nonzero;stroke:none"
         id="path4534"
         inkscape:connector-curvature="0" />
    </g>
    <g
       id="g4538"
       clip-path="url(#clipPath4540)"
       transform="matrix(1.031388,0,0,-1.031388,-4070.6823,3514.4068)">
      <path
         d="m 4824.22,3172.71 -76.64,0 -22.12,-35.82 0,-4.57 120.88,0 0,4.57 -22.12,35.82 0,0"
         style="fill:url(#linearGradient4544);fill-opacity:1;fill-rule:nonzero;stroke:none"
         id="path4550"
         inkscape:connector-curvature="0" />
    </g>
    <g
       id="g4554"
       clip-path="url(#clipPath4556)"
       transform="matrix(1.031388,0,0,-1.031388,-4070.6823,3514.4068)">
      <path
         d="m 4760.52,3280.76 32.4805,0 0,46.2539 -32.4805,0 0,-46.2539 z"
         style="fill:#0e0f0e;fill-opacity:1;fill-rule:nonzero;stroke:none"
         id="path4560"
         inkscape:connector-curvature="0" />
      <path
         d="m 4793,3281.2 77.3984,0 0,45.8164 -77.3984,0 0,-45.8164 z"
         style="fill:#434244;fill-opacity:1;fill-rule:nonzero;stroke:none"
         id="path4562"
         inkscape:connector-curvature="0" />
    </g>
    <g
       id="g4566"
       clip-path="url(#clipPath4568)"
       transform="matrix(1.031388,0,0,-1.031388,-4070.6823,3514.4068)">
      <path
         d="m 4921.81,3249.64 -20.47,0 0,49.41 20.47,0 0,-49.41"
         style="fill:url(#linearGradient4572);fill-opacity:1;fill-rule:nonzero;stroke:none"
         id="path4578"
         inkscape:connector-curvature="0" />
    </g>
    <g
       id="g4582"
       clip-path="url(#clipPath4584)"
       transform="matrix(1.031388,0,0,-1.031388,-4070.6823,3514.4068)">
      <path
         d="m 4866.61,3391.58 c 5.35,9.19 8.79,15.89 13.22,25.12 l 45.07,-116.35 -25.85,-9.04 -33.89,97.78 1.45,2.49"
         style="fill:url(#linearGradient4588);fill-opacity:1;fill-rule:nonzero;stroke:none"
         id="path4594"
         inkscape:connector-curvature="0" />
    </g>
    <g
       id="g4598"
       clip-path="url(#clipPath4600)"
       transform="matrix(1.031388,0,0,-1.031388,-4070.6823,3514.4068)">
      <path
         d="m 4926.76,3245.05 -30.71,0 0,4.95 30.71,0 0,-4.95"
         style="fill:#434244;fill-opacity:1;fill-rule:nonzero;stroke:none"
         id="path4604"
         inkscape:connector-curvature="0" />
    </g>
    <g
       id="g4608"
       clip-path="url(#clipPath4610)"
       transform="matrix(1.031388,0,0,-1.031388,-4070.6823,3514.4068)">
      <path
         d="m 4768.08,3258.3 c 11.02,7.99 18.8,14.73 29.55,24.87 l 99.99,0 0,-27.18 -132.71,0 3.17,2.31"
         style="fill:url(#linearGradient4614);fill-opacity:1;fill-rule:nonzero;stroke:none"
         id="path4620"
         inkscape:connector-curvature="0" />
    </g>
    <g
       id="g4624"
       clip-path="url(#clipPath4626)"
       transform="matrix(1.031388,0,0,-1.031388,-4070.6823,3514.4068)">
      <path
         d="m 4832.07,3494.2 7.7,3.26 22.78,-53.61 c 0,0.02 0.01,0.02 0.01,0.02 l 0.01,-0.02 c -2.53,-0.49 -5.63,-1.78 -9.19,-4.52 l -23.01,54.15 1.7,0.72"
         style="fill:url(#linearGradient4630);fill-opacity:1;fill-rule:nonzero;stroke:none"
         id="path4636"
         inkscape:connector-curvature="0" />
    </g>
    <g
       id="g4640"
       clip-path="url(#clipPath4642)"
       transform="matrix(1.031388,0,0,-1.031388,-4070.6823,3514.4068)">
      <path
         d="m 4849.13,3436.89 c 1.4,1.4 2.27,2.04 3.51,3.05 l -0.02,0 c 3.9,3.04 7.27,4.28 9.92,4.67 4.34,0.59 6.82,-1.05 6.82,-1.05 l 10.47,-27.05 c -4.43,-9.22 -9.29,-18.43 -14.65,-27.63 l -16.5,47.57 0.45,0.44"
         style="fill:url(#linearGradient4646);fill-opacity:1;fill-rule:nonzero;stroke:none"
         id="path4652"
         inkscape:connector-curvature="0" />
    </g>
    <g
       id="g4656"
       clip-path="url(#clipPath4658)"
       transform="matrix(1.031388,0,0,-1.031388,-4070.6823,3514.4068)">
      <path
         d="m 4737.8,3261.86 0,21.31 62.68,0 c -10.74,-10.14 -21.7,-19.21 -32.72,-27.18 l -29.96,0 0,5.87"
         style="fill:url(#linearGradient4662);fill-opacity:1;fill-rule:nonzero;stroke:none"
         id="path4668"
         inkscape:connector-curvature="0" />
    </g>
    <g
       id="g4672"
       clip-path="url(#clipPath4674)"
       transform="matrix(1.031388,0,0,-1.031388,-4070.6823,3514.4068)">
      <path
         d="m 4664.57,3267.16 0,7.9 76.56,0 0,-10.25 -76.56,0 0,2.35"
         style="fill:url(#linearGradient4678);fill-opacity:1;fill-rule:nonzero;stroke:none"
         id="path4684"
         inkscape:connector-curvature="0" />
    </g>
    <g
       id="g4688"
       clip-path="url(#clipPath4690)"
       transform="matrix(1.031388,0,0,-1.031388,-4070.6823,3514.4068)">
      <path
         d="m 4468.7,3239.9 c -23.5,16.14 -39.34,43.15 -45.82,78.09 -14.86,80.13 18.87,192.45 88.02,293.06 103,149.87 251.63,227.21 331.34,172.45 23.46,-16.13 39.32,-43.14 45.8,-78.07 14.86,-80.14 -18.88,-192.43 -88.02,-293.07 -69.14,-100.63 -161.9,-172.36 -242.03,-187.23 -34.94,-6.46 -65.83,-1.34 -89.29,14.77 l 0,0 z m 35.01,376.09 c -70.39,-102.46 -104.66,-217.26 -89.38,-299.59 6.91,-37.28 23.98,-66.17 49.43,-83.67 25.41,-17.47 58.53,-23.05 95.81,-16.15 82.31,15.27 177.22,88.4 247.62,190.85 70.4,102.45 104.67,217.27 89.4,299.59 -6.89,37.25 -24.01,66.17 -49.42,83.64 -83.67,57.49 -237.76,-20.85 -343.46,-174.67 l 0,0"
         style="fill:#6c7077;fill-opacity:1;fill-rule:nonzero;stroke:none"
         id="path4694"
         inkscape:connector-curvature="0" />
    </g>
    <g
       id="g4698"
       clip-path="url(#clipPath4700)"
       transform="matrix(1.031388,0,0,-1.031388,-4070.6823,3514.4068)">
      <path
         d="m 4800.21,3410.61 c -104.5,-152.11 -255.57,-229.82 -337.41,-173.59 -81.81,56.22 -63.41,225.12 41.13,377.19 104.5,152.08 255.54,229.79 337.36,173.56 81.84,-56.2 63.42,-225.07 -41.08,-377.16 l 0,0"
         style="fill:url(#linearGradient4704);fill-opacity:1;fill-rule:nonzero;stroke:none"
         id="path4712"
         inkscape:connector-curvature="0" />
    </g>
    <g
       id="g4716"
       clip-path="url(#clipPath4718)"
       transform="matrix(1.031388,0,0,-1.031388,-4070.6823,3514.4068)">
      <path
         d="m 4779.95,3423.24 c -104.51,-152.08 -255.58,-229.79 -337.38,-173.57 -81.83,56.21 -63.42,225.1 41.1,377.21 104.53,152.06 255.57,229.78 337.37,173.55 81.83,-56.23 63.43,-225.1 -41.09,-377.19 l 0,0"
         style="fill:url(#radialGradient4722);fill-opacity:1;fill-rule:nonzero;stroke:none"
         id="path4728"
         inkscape:connector-curvature="0" />
    </g>
    <g
       id="g4732"
       clip-path="url(#clipPath4734)"
       transform="matrix(1.031388,0,0,-1.031388,-4070.6823,3514.4068)">
      <path
         d="m 4821.04,3800.43 c -19.08,13.12 -41.97,18.86 -67.1,18.15 21.91,-0.65 41.9,-6.47 58.88,-18.15 81.83,-56.23 63.43,-225.1 -41.09,-377.19 -80.13,-116.6 -187.59,-189.4 -270.26,-191.72 83.65,-2.52 195.67,71.2 278.48,191.72 104.52,152.09 122.92,320.96 41.09,377.19"
         style="fill:#ffffff;fill-opacity:1;fill-rule:nonzero;stroke:none"
         id="path4738"
         inkscape:connector-curvature="0" />
      <path
         d="m 4390.25,3662.93 c -12.25,0 -22.19,9.95 -22.19,22.18 0,12.23 9.94,22.18 22.19,22.18 12.24,0 22.19,-9.95 22.19,-22.18 0,-12.23 -9.95,-22.18 -22.19,-22.18 l 0,0 z m 30.9,22.18 c 0,8.95 -3.9,16.96 -10.02,22.62 l 418.23,34.31 -0.73,8.66 -431.85,-35.41 c -2.12,0.45 -4.3,0.71 -6.53,0.71 -17.02,0 -30.88,-13.86 -30.88,-30.89 0,-10.32 5.13,-19.43 12.91,-25.04 l 123.43,-401.73 8.32,2.56 -121.13,394.3 c 2.36,-0.59 4.81,-1 7.35,-1 9.69,0 18.27,4.61 23.95,11.63 l 109.94,-86.24 5.38,6.86 -110.74,86.85 c 1.51,3.64 2.37,7.63 2.37,11.81 l 0,0"
         style="fill:#585b61;fill-opacity:1;fill-rule:nonzero;stroke:none"
         id="path4740"
         inkscape:connector-curvature="0" />
      <path
         d="m 4700.5,3456.56 c -7.73,-10.92 -20.06,-15.44 -27.54,-10.14 -7.48,5.31 -7.25,18.46 0.47,29.37 7.75,10.88 20.08,15.41 27.56,10.1 7.47,-5.3 7.25,-18.43 -0.49,-29.33 l 0,0"
         style="fill:#a0a1a4;fill-opacity:1;fill-rule:nonzero;stroke:none"
         id="path4742"
         inkscape:connector-curvature="0" />
      <path
         d="m 4685.43,3467.7 3.08,-3.08 c 55.45,55.46 135.98,271 139.37,280.15 l -4.08,1.52 c -0.82,-2.23 -83.57,-223.81 -138.37,-278.59 l 0,0"
         style="fill:#a0a1a4;fill-opacity:1;fill-rule:nonzero;stroke:none"
         id="path4744"
         inkscape:connector-curvature="0" />
      <path
         d="m 4498.04,3261.17 2.71,-3.38 c 1.4,1.11 138.91,113.35 182.84,196.35 l -3.84,2.04 c -43.53,-82.22 -180.35,-193.9 -181.71,-195.01 l 0,0"
         style="fill:#a0a1a4;fill-opacity:1;fill-rule:nonzero;stroke:none"
         id="path4746"
         inkscape:connector-curvature="0" />
      <path
         d="m 4525.94,3581.8 150.59,-112.16 2.59,3.49 -150.58,112.18 -2.6,-3.51 0,0"
         style="fill:#a0a1a4;fill-opacity:1;fill-rule:nonzero;stroke:none"
         id="path4748"
         inkscape:connector-curvature="0" />
    </g>
    <g
       transform="matrix(-2.6403909,-15.080429,-15.080429,2.6403909,7667.366,-526.01687)"
       id="g12">
      <g
         id="g14"
         clip-path="url(#clipPath16)">
        <g
           id="g20">
          <g
             id="g22">
            <path
               inkscape:connector-curvature="0"
               d="m 58.028,487.62 c -5.325,-5.325 -7.138,-12.839 -5.437,-19.648 l 0,0 2.22,0.554 c -1.51,6.063 0.097,12.737 4.837,17.476 l 0,0 c 3.594,3.593 8.294,5.385 13.004,5.386 l 0,0 c 4.711,-10e-4 9.411,-1.793 13.006,-5.386 l 0,0 c 3.592,-3.594 5.385,-8.294 5.386,-13.005 l 0,0 c -0.002,-4.712 -1.793,-9.411 -5.386,-13.005 l 0,0 c -4.788,-4.788 -11.552,-6.379 -17.664,-4.786 l 0,0 -0.578,-2.214 c 6.865,-1.791 14.478,0 19.86,5.382 l 0,0 c 8.076,8.076 8.075,21.169 0,29.246 l 0,0 c -4.039,4.038 -9.331,6.057 -14.624,6.057 l 0,0 c -5.292,0 -10.585,-2.019 -14.624,-6.057 m 3.269,-3.378 c -4.09,-4.089 -5.501,-9.849 -4.229,-15.084 l 0,0 2.224,0.539 c -1.088,4.493 0.116,9.42 3.623,12.927 l 0,0 c 2.676,2.675 6.174,4.009 9.683,4.01 l 0,0 c 3.507,-0.001 7.004,-1.335 9.681,-4.011 l 0,0 c 2.677,-2.676 4.009,-6.174 4.011,-9.681 l 0,0 c -0.002,-3.509 -1.335,-7.007 -4.01,-9.682 l 0,0 c -3.557,-3.558 -8.578,-4.744 -13.122,-3.571 l 0,0 -0.573,-2.217 0.001,0 c 5.294,-1.369 11.162,0.02 15.312,4.17 l 0,0 c 6.241,6.241 6.241,16.359 0,22.6 l 0,0 c -3.121,3.121 -7.211,4.681 -11.301,4.681 l 0,0 c -4.089,0 -8.179,-1.56 -11.3,-4.681 m 3.187,-3.187 c -2.907,-2.908 -3.927,-6.992 -3.061,-10.718 l 0,0 2.229,0.518 c -0.692,2.99 0.121,6.252 2.45,8.581 l 0,0 c 3.594,3.581 9.396,3.581 12.99,0 l 0,0 c 3.58,-3.592 3.58,-9.396 0,-12.989 l 0,0 c -2.378,-2.379 -5.729,-3.176 -8.77,-2.403 l 0,0 -0.566,-2.218 c 3.79,-0.968 7.985,0.034 10.954,3.002 l 0,0 c 4.48,4.482 4.479,11.745 0,16.227 l 0,0 c -2.241,2.24 -5.177,3.36 -8.113,3.36 l 0,0 c -2.936,0 -5.872,-1.12 -8.113,-3.36"
               style="fill:url(#linearGradient24);stroke:none"
               id="path30" />
          </g>
        </g>
      </g>
    </g>
  </g>
</svg>
