<?xml version="1.0" encoding="UTF-8" standalone="no"?>
<!-- Created with Inkscape (http://www.inkscape.org/) -->

<svg
   xmlns:dc="http://purl.org/dc/elements/1.1/"
   xmlns:cc="http://creativecommons.org/ns#"
   xmlns:rdf="http://www.w3.org/1999/02/22-rdf-syntax-ns#"
   xmlns:svg="http://www.w3.org/2000/svg"
   xmlns="http://www.w3.org/2000/svg"
   xmlns:sodipodi="http://sodipodi.sourceforge.net/DTD/sodipodi-0.dtd"
   xmlns:inkscape="http://www.inkscape.org/namespaces/inkscape"
   width="1000"
   height="592.435"
   id="svg11310"
   version="1.1"
   inkscape:version="0.48.3.1 r9886"
   sodipodi:docname="New document 12">
  <defs
     id="defs11312">
    <linearGradient
       x1="0"
       y1="0"
       x2="1"
       y2="0"
       gradientUnits="userSpaceOnUse"
       gradientTransform="matrix(33.213867,0,0,-33.213867,474.19824,355.35059)"
       spreadMethod="pad"
       id="linearGradient3138">
      <stop
         style="stop-opacity:1;stop-color:#87bcea"
         offset="0"
         id="stop3140" />
      <stop
         style="stop-opacity:1;stop-color:#0a77d5"
         offset="0.505493"
         id="stop3142" />
      <stop
         style="stop-opacity:1;stop-color:#d1e5f7"
         offset="1"
         id="stop3144" />
    </linearGradient>
    <linearGradient
       x1="0"
       y1="0"
       x2="1"
       y2="0"
       gradientUnits="userSpaceOnUse"
       gradientTransform="matrix(45.719727,0,0,-45.719727,468.4502,367.08789)"
       spreadMethod="pad"
       id="linearGradient3116">
      <stop
         style="stop-opacity:1;stop-color:#87bcea"
         offset="0"
         id="stop3118" />
      <stop
         style="stop-opacity:1;stop-color:#0a77d5"
         offset="0.505493"
         id="stop3120" />
      <stop
         style="stop-opacity:1;stop-color:#d1e5f7"
         offset="1"
         id="stop3122" />
    </linearGradient>
    <linearGradient
       x1="0"
       y1="0"
       x2="1"
       y2="0"
       gradientUnits="userSpaceOnUse"
       gradientTransform="matrix(58.008789,0,0,-58.008789,462.44434,377.10693)"
       spreadMethod="pad"
       id="linearGradient3094">
      <stop
         style="stop-opacity:1;stop-color:#87bcea"
         offset="0"
         id="stop3096" />
      <stop
         style="stop-opacity:1;stop-color:#0a77d5"
         offset="0.505493"
         id="stop3098" />
      <stop
         style="stop-opacity:1;stop-color:#d1e5f7"
         offset="1"
         id="stop3100" />
    </linearGradient>
  </defs>
  <sodipodi:namedview
     id="base"
     pagecolor="#ffffff"
     bordercolor="#666666"
     borderopacity="1.0"
     inkscape:pageopacity="0.0"
     inkscape:pageshadow="2"
     inkscape:zoom="0.35"
     inkscape:cx="54.112308"
     inkscape:cy="-104.23542"
     inkscape:document-units="px"
     inkscape:current-layer="layer1"
     showgrid="false"
     fit-margin-top="0"
     fit-margin-left="0"
     fit-margin-right="0"
     fit-margin-bottom="0"
     inkscape:window-width="1024"
     inkscape:window-height="576"
     inkscape:window-x="0"
     inkscape:window-y="24"
     inkscape:window-maximized="1" />
  <metadata
     id="metadata11315">
    <rdf:RDF>
      <cc:Work
         rdf:about="">
        <dc:format>image/svg+xml</dc:format>
        <dc:type
           rdf:resource="http://purl.org/dc/dcmitype/StillImage" />
        <dc:title></dc:title>
      </cc:Work>
    </rdf:RDF>
  </metadata>
  <g
     inkscape:label="Layer 1"
     inkscape:groupmode="layer"
     id="layer1"
     transform="translate(-320.88769,164.30823)">
    <g
       transform="matrix(17.238985,0,0,-17.238985,-7651.1877,6461.3233)"
       id="g3082">
      <g
         id="g3084">
        <g
           id="g3090">
          <g
             id="g3092">
            <path
               inkscape:connector-curvature="0"
               d="m 490.263,384.34 c -9.919,0.003 -19.144,-3.052 -26.755,-8.264 l 0,0 c -1.114,-0.763 -1.398,-2.284 -0.636,-3.397 l 0,0 c 0.763,-1.112 2.283,-1.398 3.396,-0.635 l 0,0 c 6.833,4.677 15.083,7.411 23.995,7.411 l 0,0 c 9.911,0 19.007,-3.382 26.237,-9.059 l 0,0 c 0.448,-0.352 0.98,-0.523 1.508,-0.523 l 0,0 c 0.724,0 1.44,0.32 1.922,0.933 l 0,0 c 0.834,1.062 0.65,2.597 -0.41,3.43 l 0,0 -10e-4,0.002 c -8.047,6.324 -18.216,10.103 -29.244,10.102 l 0,0 c -0.003,0 -0.008,0 -0.012,0"
               style="fill:url(#linearGradient3094);stroke:none"
               id="path3102" />
          </g>
        </g>
      </g>
    </g>
    <g
       transform="matrix(17.238985,0,0,-17.238985,-7651.1877,6461.3233)"
       id="g3104">
      <g
         id="g3106">
        <g
           id="g3112">
          <g
             id="g3114">
            <path
               inkscape:connector-curvature="0"
               d="m 490.264,373.349 c -7.709,0.001 -14.88,-2.403 -20.766,-6.498 l 0,0 c -1.107,-0.77 -1.381,-2.292 -0.611,-3.399 l 0,0 c 0.77,-1.109 2.293,-1.383 3.402,-0.612 l 0,0 c 5.103,3.545 11.285,5.623 17.975,5.623 l 0,0 c 7.562,-0.001 14.481,-2.654 19.92,-7.086 l 0,0 c 0.453,-0.369 0.999,-0.549 1.542,-0.55 l 0,0 c 0.709,0 1.411,0.307 1.893,0.898 l 0,0 c 0.854,1.048 0.698,2.585 -0.348,3.439 l 0,0 c -6.267,5.112 -14.287,8.185 -23.003,8.185 l 0,0 c -10e-4,0 -0.003,0 -0.004,0"
               style="fill:url(#linearGradient3116);stroke:none"
               id="path3124" />
          </g>
        </g>
      </g>
    </g>
    <g
       transform="matrix(17.238985,0,0,-17.238985,-7651.1877,6461.3233)"
       id="g3126">
      <g
         id="g3128">
        <g
           id="g3134">
          <g
             id="g3136">
            <path
               inkscape:connector-curvature="0"
               d="m 490.263,360.727 c -5.763,0.001 -11.067,-2.056 -15.181,-5.47 l 0,0 c -1.039,-0.861 -1.182,-2.4 -0.322,-3.44 l 0,0 c 0.861,-1.038 2.403,-1.182 3.442,-0.321 l 0,0 c 3.279,2.716 7.468,4.344 12.061,4.346 l 0,0 c 5.056,-0.002 9.623,-1.973 13.024,-5.197 l 0,0 c 0.473,-0.448 1.078,-0.671 1.68,-0.671 l 0,0 c 0.648,0 1.294,0.255 1.774,0.76 l 0,0 c 0.929,0.98 0.888,2.526 -0.091,3.454 l 0,0 0,0.002 c -4.26,4.046 -10.041,6.537 -16.383,6.537 l 0,0 c -10e-4,0 -0.003,0 -0.004,0"
               style="fill:url(#linearGradient3138);stroke:none"
               id="path3146" />
          </g>
        </g>
      </g>
    </g>
  </g>
</svg>
