<?xml version="1.0" encoding="UTF-8" standalone="no"?>
<!-- Created with Inkscape (http://www.inkscape.org/) -->

<svg
   xmlns:dc="http://purl.org/dc/elements/1.1/"
   xmlns:cc="http://creativecommons.org/ns#"
   xmlns:rdf="http://www.w3.org/1999/02/22-rdf-syntax-ns#"
   xmlns:svg="http://www.w3.org/2000/svg"
   xmlns="http://www.w3.org/2000/svg"
   xmlns:sodipodi="http://sodipodi.sourceforge.net/DTD/sodipodi-0.dtd"
   xmlns:inkscape="http://www.inkscape.org/namespaces/inkscape"
   width="1088.3826"
   height="1193.3966"
   id="svg2"
   sodipodi:version="0.32"
   inkscape:version="0.48.3.1 r9886"
   sodipodi:docname="wireless_router.svg"
   inkscape:output_extension="org.inkscape.output.svg.inkscape"
   version="1.0"
   inkscape:export-filename="C:\Documents and Settings\Dan\Skrivbord\Clipart egna (InkScape)\Original\Kanske Upload\Wireless Router.png"
   inkscape:export-xdpi="310"
   inkscape:export-ydpi="310">
  <defs
     id="defs4">
    <inkscape:perspective
       sodipodi:type="inkscape:persp3d"
       inkscape:vp_x="-50 : 600 : 1"
       inkscape:vp_y="0 : 1000 : 0"
       inkscape:vp_z="700 : 600 : 1"
       inkscape:persp3d-origin="300 : 400 : 1"
       id="perspective148" />
    <inkscape:perspective
       sodipodi:type="inkscape:persp3d"
       inkscape:vp_x="-50 : 600 : 1"
       inkscape:vp_y="0 : 1000 : 0"
       inkscape:vp_z="700 : 600 : 1"
       inkscape:persp3d-origin="300 : 400 : 1"
       id="perspective138" />
    <inkscape:perspective
       sodipodi:type="inkscape:persp3d"
       inkscape:vp_x="-50 : 600 : 1"
       inkscape:vp_y="0 : 1000 : 0"
       inkscape:vp_z="700 : 600 : 1"
       inkscape:persp3d-origin="300 : 400 : 1"
       id="perspective10" />
    <inkscape:perspective
       id="perspective2395"
       inkscape:persp3d-origin="300 : 400 : 1"
       inkscape:vp_z="700 : 600 : 1"
       inkscape:vp_y="0 : 1000 : 0"
       inkscape:vp_x="-50 : 600 : 1"
       sodipodi:type="inkscape:persp3d" />
    <filter
       inkscape:collect="always"
       id="filter3304"
       color-interpolation-filters="sRGB">
      <feGaussianBlur
         inkscape:collect="always"
         stdDeviation="0.27999283"
         id="feGaussianBlur3306" />
    </filter>
    <filter
       inkscape:collect="always"
       id="filter3336"
       color-interpolation-filters="sRGB">
      <feGaussianBlur
         inkscape:collect="always"
         stdDeviation="0.5315371"
         id="feGaussianBlur3338" />
    </filter>
    <filter
       inkscape:collect="always"
       id="filter3368"
       color-interpolation-filters="sRGB">
      <feGaussianBlur
         inkscape:collect="always"
         stdDeviation="0.26473573"
         id="feGaussianBlur3370" />
    </filter>
    <filter
       inkscape:collect="always"
       id="filter3564"
       x="-0.37202433"
       width="1.7440487"
       y="-0.43252525"
       height="1.8650506"
       color-interpolation-filters="sRGB">
      <feGaussianBlur
         inkscape:collect="always"
         stdDeviation="1.1017616"
         id="feGaussianBlur3566" />
    </filter>
    <filter
       inkscape:collect="always"
       id="filter3748"
       x="-0.41952851"
       width="1.839057"
       y="-0.39121628"
       height="1.7824326"
       color-interpolation-filters="sRGB">
      <feGaussianBlur
         inkscape:collect="always"
         stdDeviation="1.1235829"
         id="feGaussianBlur3750" />
    </filter>
    <filter
       inkscape:collect="always"
       id="filter3862"
       x="-0.33298156"
       width="1.6659631"
       y="-1.6699424"
       height="4.3398848"
       color-interpolation-filters="sRGB">
      <feGaussianBlur
         inkscape:collect="always"
         stdDeviation="0.82006695"
         id="feGaussianBlur3864" />
    </filter>
    <filter
       inkscape:collect="always"
       id="filter3866"
       x="-0.33298156"
       width="1.6659631"
       y="-0.20756502"
       height="1.4151301"
       color-interpolation-filters="sRGB">
      <feGaussianBlur
         inkscape:collect="always"
         stdDeviation="0.82006695"
         id="feGaussianBlur3868" />
    </filter>
    <filter
       inkscape:collect="always"
       id="filter3870"
       x="-0.33298156"
       width="1.6659631"
       y="-1.6699424"
       height="4.3398848"
       color-interpolation-filters="sRGB">
      <feGaussianBlur
         inkscape:collect="always"
         stdDeviation="0.82006695"
         id="feGaussianBlur3872" />
    </filter>
    <filter
       inkscape:collect="always"
       id="filter3874"
       x="-0.3380883"
       width="1.6761765"
       y="-0.21154897"
       height="1.4230978"
       color-interpolation-filters="sRGB">
      <feGaussianBlur
         inkscape:collect="always"
         stdDeviation="0.82006695"
         id="feGaussianBlur3876" />
    </filter>
    <filter
       inkscape:collect="always"
       id="filter3878"
       x="-0.33298156"
       width="1.6659631"
       y="-1.6699424"
       height="4.3398848"
       color-interpolation-filters="sRGB">
      <feGaussianBlur
         inkscape:collect="always"
         stdDeviation="0.82006695"
         id="feGaussianBlur3880" />
    </filter>
    <filter
       inkscape:collect="always"
       id="filter3882"
       x="-0.36018598"
       width="1.720372"
       y="-0.20953795"
       height="1.4190758"
       color-interpolation-filters="sRGB">
      <feGaussianBlur
         inkscape:collect="always"
         stdDeviation="0.82006695"
         id="feGaussianBlur3884" />
    </filter>
    <filter
       inkscape:collect="always"
       id="filter3886"
       x="-0.33298156"
       width="1.6659631"
       y="-1.6699424"
       height="4.3398848"
       color-interpolation-filters="sRGB">
      <feGaussianBlur
         inkscape:collect="always"
         stdDeviation="0.82006695"
         id="feGaussianBlur3888" />
    </filter>
    <filter
       inkscape:collect="always"
       id="filter3890"
       x="-0.35439494"
       width="1.7087899"
       y="-0.20953795"
       height="1.4190758"
       color-interpolation-filters="sRGB">
      <feGaussianBlur
         inkscape:collect="always"
         stdDeviation="0.82006695"
         id="feGaussianBlur3892" />
    </filter>
    <filter
       inkscape:collect="always"
       id="filter3894"
       x="-0.33298156"
       width="1.6659631"
       y="-1.6699424"
       height="4.3398848"
       color-interpolation-filters="sRGB">
      <feGaussianBlur
         inkscape:collect="always"
         stdDeviation="0.82006695"
         id="feGaussianBlur3896" />
    </filter>
    <filter
       inkscape:collect="always"
       id="filter3898"
       x="-0.38537359"
       width="1.7707472"
       y="-0.20562869"
       height="1.4112574"
       color-interpolation-filters="sRGB">
      <feGaussianBlur
         inkscape:collect="always"
         stdDeviation="0.82006695"
         id="feGaussianBlur3900" />
    </filter>
    <filter
       inkscape:collect="always"
       id="filter3902"
       x="-0.33298156"
       width="1.6659631"
       y="-1.6699424"
       height="4.3398848"
       color-interpolation-filters="sRGB">
      <feGaussianBlur
         inkscape:collect="always"
         stdDeviation="0.82006695"
         id="feGaussianBlur3904" />
    </filter>
    <filter
       inkscape:collect="always"
       id="filter3906"
       x="-0.38537359"
       width="1.7707472"
       y="-0.21359873"
       height="1.4271975"
       color-interpolation-filters="sRGB">
      <feGaussianBlur
         inkscape:collect="always"
         stdDeviation="0.82006695"
         id="feGaussianBlur3908" />
    </filter>
    <filter
       inkscape:collect="always"
       id="filter3910"
       x="-0.33298156"
       width="1.6659631"
       y="-1.6699424"
       height="4.3398848"
       color-interpolation-filters="sRGB">
      <feGaussianBlur
         inkscape:collect="always"
         stdDeviation="0.82006695"
         id="feGaussianBlur3912" />
    </filter>
    <filter
       inkscape:collect="always"
       id="filter3914"
       x="-0.36018598"
       width="1.720372"
       y="-0.20562869"
       height="1.4112574"
       color-interpolation-filters="sRGB">
      <feGaussianBlur
         inkscape:collect="always"
         stdDeviation="0.82006695"
         id="feGaussianBlur3916" />
    </filter>
    <filter
       inkscape:collect="always"
       id="filter3918"
       x="-0.33298156"
       width="1.6659631"
       y="-1.6699424"
       height="4.3398848"
       color-interpolation-filters="sRGB">
      <feGaussianBlur
         inkscape:collect="always"
         stdDeviation="0.82006695"
         id="feGaussianBlur3920" />
    </filter>
    <filter
       inkscape:collect="always"
       id="filter3922"
       x="-0.36616942"
       width="1.7323389"
       y="-0.20953795"
       height="1.4190758"
       color-interpolation-filters="sRGB">
      <feGaussianBlur
         inkscape:collect="always"
         stdDeviation="0.82006695"
         id="feGaussianBlur3924" />
    </filter>
    <filter
       inkscape:collect="always"
       id="filter3926"
       x="-0.33298156"
       width="1.6659631"
       y="-1.6699424"
       height="4.3398848"
       color-interpolation-filters="sRGB">
      <feGaussianBlur
         inkscape:collect="always"
         stdDeviation="0.82006695"
         id="feGaussianBlur3928" />
    </filter>
    <filter
       inkscape:collect="always"
       id="filter3930"
       x="-0.34878778"
       width="1.6975756"
       y="-0.20186263"
       height="1.4037253"
       color-interpolation-filters="sRGB">
      <feGaussianBlur
         inkscape:collect="always"
         stdDeviation="0.82006695"
         id="feGaussianBlur3932" />
    </filter>
    <filter
       inkscape:collect="always"
       id="filter3934"
       x="-0.33298156"
       width="1.6659631"
       y="-1.6699424"
       height="4.3398848"
       color-interpolation-filters="sRGB">
      <feGaussianBlur
         inkscape:collect="always"
         stdDeviation="0.82006695"
         id="feGaussianBlur3936" />
    </filter>
    <filter
       inkscape:collect="always"
       id="filter3938"
       x="-0.32802677"
       width="1.6560535"
       y="-0.21568884"
       height="1.4313776"
       color-interpolation-filters="sRGB">
      <feGaussianBlur
         inkscape:collect="always"
         stdDeviation="0.82006695"
         id="feGaussianBlur3940" />
    </filter>
    <filter
       inkscape:collect="always"
       id="filter3942"
       x="-0.33298156"
       width="1.6659631"
       y="-1.6699424"
       height="4.3398848"
       color-interpolation-filters="sRGB">
      <feGaussianBlur
         inkscape:collect="always"
         stdDeviation="0.82006695"
         id="feGaussianBlur3944" />
    </filter>
    <filter
       inkscape:collect="always"
       id="filter3946"
       x="-0.32321677"
       width="1.6464336"
       y="-0.21568884"
       height="1.4313776"
       color-interpolation-filters="sRGB">
      <feGaussianBlur
         inkscape:collect="always"
         stdDeviation="0.82006695"
         id="feGaussianBlur3948" />
    </filter>
    <filter
       inkscape:collect="always"
       id="filter3950"
       x="-0.33298156"
       width="1.6659631"
       y="-1.6699424"
       height="4.3398848"
       color-interpolation-filters="sRGB">
      <feGaussianBlur
         inkscape:collect="always"
         stdDeviation="0.82006695"
         id="feGaussianBlur3952" />
    </filter>
    <filter
       inkscape:collect="always"
       id="filter3954"
       x="-0.3185463"
       width="1.6370926"
       y="-0.21359873"
       height="1.4271975"
       color-interpolation-filters="sRGB">
      <feGaussianBlur
         inkscape:collect="always"
         stdDeviation="0.82006695"
         id="feGaussianBlur3956" />
    </filter>
    <filter
       inkscape:collect="always"
       id="filter3958"
       x="-0.33298156"
       width="1.6659631"
       y="-1.6699424"
       height="4.3398848"
       color-interpolation-filters="sRGB">
      <feGaussianBlur
         inkscape:collect="always"
         stdDeviation="0.82006695"
         id="feGaussianBlur3960" />
    </filter>
    <filter
       inkscape:collect="always"
       id="filter3962"
       x="-0.28553614"
       width="1.5710723"
       y="-0.21568884"
       height="1.4313776"
       color-interpolation-filters="sRGB">
      <feGaussianBlur
         inkscape:collect="always"
         stdDeviation="0.82006695"
         id="feGaussianBlur3964" />
    </filter>
    <filter
       inkscape:collect="always"
       id="filter3982"
       x="-0.0048889387"
       width="1.0097779"
       y="-0.26385465"
       height="1.5277092"
       color-interpolation-filters="sRGB">
      <feGaussianBlur
         inkscape:collect="always"
         stdDeviation="1.0547249"
         id="feGaussianBlur3984" />
    </filter>
    <filter
       inkscape:collect="always"
       id="filter3996"
       color-interpolation-filters="sRGB">
      <feGaussianBlur
         inkscape:collect="always"
         stdDeviation="0.8032234"
         id="feGaussianBlur3998" />
    </filter>
    <filter
       inkscape:collect="always"
       id="filter3517"
       x="-0.25713229"
       width="1.5142646"
       y="-0.087099634"
       height="1.1741993"
       color-interpolation-filters="sRGB">
      <feGaussianBlur
         inkscape:collect="always"
         stdDeviation="0.33984317"
         id="feGaussianBlur3519" />
    </filter>
    <filter
       inkscape:collect="always"
       id="filter3329"
       x="-0.1802507"
       width="1.3605014"
       y="-1.1780664"
       height="3.3561327"
       color-interpolation-filters="sRGB">
      <feGaussianBlur
         inkscape:collect="always"
         stdDeviation="0.49086099"
         id="feGaussianBlur3331" />
    </filter>
    <filter
       inkscape:collect="always"
       id="filter3333"
       x="-0.15131117"
       width="1.3026223"
       y="-0.1853139"
       height="1.3706278"
       color-interpolation-filters="sRGB">
      <feGaussianBlur
         inkscape:collect="always"
         stdDeviation="0.49086099"
         id="feGaussianBlur3335" />
    </filter>
    <filter
       inkscape:collect="always"
       id="filter3337"
       x="-0.14412393"
       width="1.2882478"
       y="-0.18013415"
       height="1.3602684"
       color-interpolation-filters="sRGB">
      <feGaussianBlur
         inkscape:collect="always"
         stdDeviation="0.49086099"
         id="feGaussianBlur3339" />
    </filter>
    <filter
       inkscape:collect="always"
       id="filter3341"
       x="-1.1780664"
       width="3.3561327"
       y="-0.23067047"
       height="1.4613409"
       color-interpolation-filters="sRGB">
      <feGaussianBlur
         inkscape:collect="always"
         stdDeviation="0.49086099"
         id="feGaussianBlur3343" />
    </filter>
    <clipPath
       clipPathUnits="userSpaceOnUse"
       id="clipPath16">
      <path
         inkscape:connector-curvature="0"
         d="m 58.028,487.62 c -5.325,-5.325 -7.138,-12.839 -5.437,-19.648 l 0,0 2.22,0.554 c -1.51,6.063 0.097,12.737 4.837,17.476 l 0,0 c 3.594,3.593 8.294,5.385 13.004,5.386 l 0,0 c 4.711,-10e-4 9.411,-1.793 13.006,-5.386 l 0,0 c 3.592,-3.594 5.385,-8.294 5.386,-13.005 l 0,0 c -0.002,-4.712 -1.793,-9.411 -5.386,-13.005 l 0,0 c -4.788,-4.788 -11.552,-6.379 -17.664,-4.786 l 0,0 -0.578,-2.214 c 6.865,-1.791 14.478,0 19.86,5.382 l 0,0 c 8.076,8.076 8.075,21.169 0,29.246 l 0,0 c -4.039,4.038 -9.331,6.057 -14.624,6.057 l 0,0 c -5.292,0 -10.585,-2.019 -14.624,-6.057 m 3.269,-3.378 c -4.09,-4.089 -5.501,-9.849 -4.229,-15.084 l 0,0 2.224,0.539 c -1.088,4.493 0.116,9.42 3.623,12.927 l 0,0 c 2.676,2.675 6.174,4.009 9.683,4.01 l 0,0 c 3.507,-0.001 7.004,-1.335 9.681,-4.011 l 0,0 c 2.677,-2.676 4.009,-6.174 4.011,-9.681 l 0,0 c -0.002,-3.509 -1.335,-7.007 -4.01,-9.682 l 0,0 c -3.557,-3.558 -8.578,-4.744 -13.122,-3.571 l 0,0 -0.573,-2.217 0.001,0 c 5.294,-1.369 11.162,0.02 15.312,4.17 l 0,0 c 6.241,6.241 6.241,16.359 0,22.6 l 0,0 c -3.121,3.121 -7.211,4.681 -11.301,4.681 l 0,0 c -4.089,0 -8.179,-1.56 -11.3,-4.681 m 3.187,-3.187 c -2.907,-2.908 -3.927,-6.992 -3.061,-10.718 l 0,0 2.229,0.518 c -0.692,2.99 0.121,6.252 2.45,8.581 l 0,0 c 3.594,3.581 9.396,3.581 12.99,0 l 0,0 c 3.58,-3.592 3.58,-9.396 0,-12.989 l 0,0 c -2.378,-2.379 -5.729,-3.176 -8.77,-2.403 l 0,0 -0.566,-2.218 c 3.79,-0.968 7.985,0.034 10.954,3.002 l 0,0 c 4.48,4.482 4.479,11.745 0,16.227 l 0,0 c -2.241,2.24 -5.177,3.36 -8.113,3.36 l 0,0 c -2.936,0 -5.872,-1.12 -8.113,-3.36"
         id="path18" />
    </clipPath>
    <linearGradient
       x1="0"
       y1="0"
       x2="1"
       y2="0"
       gradientUnits="userSpaceOnUse"
       gradientTransform="matrix(-11.335953,-11.335953,-11.335953,11.335953,78.543945,478.88867)"
       spreadMethod="pad"
       id="linearGradient24">
      <stop
         style="stop-opacity:1;stop-color:#52a9ca"
         offset="0"
         id="stop26" />
      <stop
         style="stop-opacity:1;stop-color:#ffffff"
         offset="1"
         id="stop28" />
    </linearGradient>
  </defs>
  <sodipodi:namedview
     id="base"
     pagecolor="#ffffff"
     bordercolor="#666666"
     borderopacity="1.0"
     gridtolerance="10000"
     guidetolerance="10"
     objecttolerance="10"
     inkscape:pageopacity="0.0"
     inkscape:pageshadow="2"
     inkscape:zoom="0.24748737"
     inkscape:cx="597.78658"
     inkscape:cy="416.84085"
     inkscape:document-units="px"
     inkscape:current-layer="layer2"
     showgrid="false"
     inkscape:window-width="1215"
     inkscape:window-height="1000"
     inkscape:window-x="65"
     inkscape:window-y="24"
     fit-margin-top="0"
     fit-margin-left="0"
     fit-margin-right="0"
     fit-margin-bottom="0"
     inkscape:window-maximized="1" />
  <metadata
     id="metadata7">
    <rdf:RDF>
      <cc:Work
         rdf:about="">
        <dc:format>image/svg+xml</dc:format>
        <dc:type
           rdf:resource="http://purl.org/dc/dcmitype/StillImage" />
      </cc:Work>
    </rdf:RDF>
  </metadata>
  <g
     inkscape:groupmode="layer"
     id="layer2"
     transform="translate(-45.788597,214.10545)">
    <path
       style="fill:#606060;fill-opacity:1;fill-rule:evenodd;stroke:none"
       d="m 100.34119,976.67473 842.4798,2.4598 53.64788,0.15663 c 0,0 15.69863,-2.61643 15.69863,-10.46573 0,-7.84929 1.3082,-26.16429 1.3082,-26.16429 l -14.84877,0.80299 -903.981816,-5.60885 -25.317931,-1.89396 c 0,0 2.23326,32.86413 12.698993,36.78876 10.465715,3.92465 18.315014,2.61645 18.315014,3.92465 z"
       id="path2402"
       sodipodi:nodetypes="cccsccccsc"
       inkscape:connector-curvature="0" />
    <path
       style="fill:#dddddd;fill-opacity:1;fill-rule:evenodd;stroke:#b2b2b2;stroke-width:1.83150184px;stroke-linecap:butt;stroke-linejoin:miter;stroke-opacity:1"
       d="m 84.642605,938.73649 914.442695,5.23286 c 0,0 20.9315,-1.30823 31.3972,-7.84931 10.4657,-6.54106 9.1575,-23.54787 9.1575,-23.54787 0,0 5.2328,-65.41077 5.2328,-74.56828 0,-9.15751 -30.0889,-115.12299 -35.3218,-136.05444 -5.2328,-20.93144 -27.4725,-129.51335 -27.4725,-129.51335 0,0 -2.61642,-14.39037 -7.84928,-15.69857 -5.23288,-1.30823 -7.84929,0 -7.84929,0 l 18.31502,90.26687 35.32185,150.4448 0.6541,2.45289 1.787,1.72654 10.641,27.21775 c 0,0 0.1451,12.77833 -5.7747,17.00679 -9.1575,6.54108 -43.93747,7.84929 -43.93747,7.84929 L 87.259033,848.4696 c 0,0 -20.931447,-2.61643 -26.164304,-7.84928 -5.232875,-5.23288 -3.382784,-14.77354 -3.382784,-14.77354 L 135.66301,550.19645 c 0,0 -15.69857,5.23285 -19.62323,13.08214 -3.92465,7.8493 -23.547889,108.58191 -28.780747,124.2805 -5.232857,15.69859 -39.246465,134.74621 -39.246465,134.74621 0,0 -1.30822,11.77394 -1.30822,18.31502 0,6.54108 3.924648,78.49293 3.924648,78.49293 0,0 6.541081,13.08216 13.082162,15.69859 6.54108,2.61643 23.547875,3.92465 20.931447,3.92465 z"
       id="path2404"
       sodipodi:nodetypes="ccscsscsccccccsccsccsscscsc"
       inkscape:connector-curvature="0" />
    <path
       style="fill:#ececec;fill-opacity:1;fill-rule:evenodd;stroke:none;filter:url(#filter3336)"
       d="m 562.71717,958.57688 c 0,0 9.28571,-0.71429 9.28571,-7.14286 0,-6.42857 3.57143,-29.28571 0,-32.85714 -3.57142,-3.57143 -7.14286,-5.71429 -7.14286,-5.71429 0,0 21.42857,-9.28571 20.71429,-5 -0.71429,4.28572 -4.28572,6.42857 -4.28572,12.14286 0,5.71428 -0.71428,28.57143 -0.71428,28.57143 0,0 -2.14285,4.28571 0.71428,5 2.85715,0.71428 1.42858,2.14285 1.42858,2.14285 l -6.42858,2.14286 -5.71428,0.71429 -7.85714,0 z"
       id="path2406"
       inkscape:connector-curvature="0"
       transform="matrix(1.8315019,0,0,1.8315019,-38.073303,-814.28242)" />
    <path
       style="fill:#ededed;fill-opacity:1;fill-rule:evenodd;stroke:#000000;stroke-width:1.83150184px;stroke-linecap:butt;stroke-linejoin:miter;stroke-opacity:1"
       d="m 100.34119,858.93533 888.2784,3.92464 -5.23286,73.26007 -880.42911,-2.61643 -2.61643,-74.56828 z"
       id="path2408"
       inkscape:connector-curvature="0" />
    <path
       style="fill:#020202;fill-opacity:1;fill-rule:evenodd;stroke:#000000;stroke-width:1.83150184px;stroke-linecap:butt;stroke-linejoin:miter;stroke-opacity:1"
       d="m 146.12875,879.86678 807.169,5.23286 c 0,0 13.08218,7.8493 13.08218,15.69859 0,7.84928 -14.39038,17.00679 -14.39038,17.00679 l -809.78546,-5.23285 c 0,0 -17.0068,-7.84929 -15.69859,-18.31502 1.30822,-10.46572 20.93146,-15.69859 19.62325,-14.39037 z"
       id="path2410"
       inkscape:connector-curvature="0" />
    <path
       style="fill:#121212;fill-opacity:1;fill-rule:evenodd;stroke:none"
       d="m 92.875041,848.54894 890.762639,4.43139 28.85682,-2.22135 c 0,0 14.0653,-1.14544 17.988,-8.50341 1.3603,-2.55168 3.2889,-4.90619 3.2894,-8.50775 0,-13.95976 -13.4281,-35.15393 -13.4281,-35.15393 0,0 0.5716,3.03976 -1.089,3.86954 -3.2981,1.64802 -6.6614,3.27317 -11.012,4.14328 -6.5411,1.3082 -925.370946,-9.31623 -925.370946,-9.31623 l -11.311411,0.15872 -6.541062,-4.25171 -7.849304,34.34066 c 0,0 -0.319084,12.56475 10.386374,16.62365 7.929286,3.00634 26.626813,5.69537 25.31859,4.38714 z"
       id="path2412"
       sodipodi:nodetypes="cccsscssccccsc"
       inkscape:connector-curvature="0" />
    <path
       style="fill:#2c2c2c;fill-opacity:1;fill-rule:evenodd;stroke:#252525;stroke-width:1.83150184px;stroke-linecap:butt;stroke-linejoin:miter;stroke-opacity:1"
       d="M 133.04658,547.58002 70.252238,776.51775 c 0,0 -2.94348,6.21401 2.616429,9.15751 8.805238,4.66161 25.837253,2.94348 25.837253,2.94348 0,0 901.68758,7.52223 906.92048,6.21403 5.2329,-1.30822 9.4845,-2.94348 9.4845,-2.94348 l 0.3271,-15.04449 c 0,0 8.058,24.76332 1.9623,27.47253 -5.8869,2.61643 -18.315,2.28938 -18.315,2.28938 L 80.717953,798.7574 68.944015,796.14097 65.673484,791.56222 67.900938,780.69923 133.04658,547.58002 z"
       id="path2414"
       sodipodi:nodetypes="ccscsccscccccc"
       inkscape:connector-curvature="0" />
    <path
       style="fill:#d5d5d5;fill-opacity:1;fill-rule:evenodd;stroke:#d1d1d1;stroke-width:1px;stroke-linecap:butt;stroke-linejoin:miter;stroke-opacity:1;filter:url(#filter3748)"
       d="m 62.002885,879.82688 0.17857,-5.53572 -1.96429,-0.35714 -2.85714,0.89286 -0.53571,1.42857 c 0,0 -0.35715,1.60714 0.53571,1.96428 0.89286,0.35715 2.5,0.89286 2.5,0.89286 l 2.14286,0.71429 z"
       id="path2416"
       inkscape:connector-curvature="0"
       transform="matrix(1.8315019,0,0,1.8315019,-38.073303,-814.28242)" />
    <path
       style="fill:#d5d5d5;fill-opacity:1;fill-rule:evenodd;stroke:#dadada;stroke-width:1px;stroke-linecap:butt;stroke-linejoin:miter;stroke-opacity:1;filter:url(#filter3564)"
       d="m 571.82431,883.04116 c 0,-0.71428 -1.25,-3.21428 0.35715,-4.10714 1.60713,-0.89286 2.85713,-0.35714 2.85713,-0.35714 0,0 3.03572,2.67857 2.32143,2.85714 -0.71428,0.17857 -0.89285,1.07143 -2.67856,1.78571 -1.78572,0.71429 -2.32144,0 -2.85715,-0.17857 z"
       id="path2418"
       inkscape:connector-curvature="0"
       transform="matrix(1.8315019,0,0,1.8315019,-38.073303,-814.28242)" />
    <path
       style="fill:none;stroke:#2aea00;stroke-width:1px;stroke-linecap:butt;stroke-linejoin:miter;stroke-opacity:1;filter:url(#filter3341)"
       d="m 194.42891,930.61513 0.25254,3.8546"
       id="path2420"
       sodipodi:nodetypes="cc"
       inkscape:connector-curvature="0"
       transform="matrix(1.8315019,0,0,1.8315019,-38.073303,-814.28242)" />
    <path
       style="fill:none;stroke:#2aea00;stroke-width:1px;stroke-linecap:butt;stroke-linejoin:miter;stroke-opacity:1;filter:url(#filter3337)"
       d="m 192.18145,932.32688 c 0,0 -2.99239,5.35714 2.32143,5.53571 6.07064,0.204 2.85715,-5.35714 2.85715,-5.35714"
       id="path2422"
       sodipodi:nodetypes="csc"
       inkscape:connector-curvature="0"
       transform="matrix(1.8315019,0,0,1.8315019,-38.073303,-814.28242)" />
    <path
       sodipodi:type="arc"
       style="fill:#ffffff;fill-opacity:1;fill-rule:nonzero;stroke:#444444;stroke-width:0.92299998;stroke-linecap:butt;stroke-linejoin:round;stroke-miterlimit:4;stroke-opacity:1;stroke-dasharray:none"
       id="path2424"
       sodipodi:cx="289.82144"
       sodipodi:cy="742.89789"
       sodipodi:rx="4.2857141"
       sodipodi:ry="4.2857141"
       d="m 294.10716,742.89789 c 0,2.36693 -1.91878,4.28571 -4.28572,4.28571 -2.36693,0 -4.28571,-1.91878 -4.28571,-4.28571 0,-2.36694 1.91878,-4.28572 4.28571,-4.28572 2.36694,0 4.28572,1.91878 4.28572,4.28572 z"
       transform="matrix(1.8315019,0,0,1.8315019,-142.98691,-462.76413)" />
    <path
       sodipodi:type="arc"
       style="fill:#101010;fill-opacity:1;fill-rule:nonzero;stroke:#000000;stroke-width:1.92626119;stroke-linecap:butt;stroke-linejoin:round;stroke-miterlimit:4;stroke-opacity:1;stroke-dasharray:none"
       id="path2439"
       sodipodi:cx="289.82144"
       sodipodi:cy="742.89789"
       sodipodi:rx="4.2857141"
       sodipodi:ry="4.2857141"
       d="m 294.10716,742.89789 c 0,2.36693 -1.91878,4.28571 -4.28572,4.28571 -2.36693,0 -4.28571,-1.91878 -4.28571,-4.28571 0,-2.36694 1.91878,-4.28572 4.28571,-4.28572 2.36694,0 4.28572,1.91878 4.28572,4.28572 z"
       transform="matrix(0.87759452,0,0,0.87759452,133.63936,246.05509)" />
    <path
       sodipodi:type="arc"
       style="fill:#ffffff;fill-opacity:1;fill-rule:nonzero;stroke:#7b7b7b;stroke-width:1.7064867;stroke-linecap:butt;stroke-linejoin:round;stroke-miterlimit:4;stroke-opacity:1;stroke-dasharray:none"
       id="path3211"
       sodipodi:cx="289.82144"
       sodipodi:cy="742.89789"
       sodipodi:rx="4.2857141"
       sodipodi:ry="4.2857141"
       d="m 294.10716,742.89789 c 0,2.36693 -1.91878,4.28571 -4.28572,4.28571 -2.36693,0 -4.28571,-1.91878 -4.28571,-4.28571 0,-2.36694 1.91878,-4.28572 4.28571,-4.28572 2.36694,0 4.28572,1.91878 4.28572,4.28572 z"
       transform="matrix(0.9358817,0,0,0.9358817,174.7986,205.86075)" />
    <path
       sodipodi:type="arc"
       style="fill:#ffffff;fill-opacity:1;fill-rule:nonzero;stroke:#7b7b7b;stroke-width:1.7064867;stroke-linecap:butt;stroke-linejoin:round;stroke-miterlimit:4;stroke-opacity:1;stroke-dasharray:none"
       id="path3213"
       sodipodi:cx="289.82144"
       sodipodi:cy="742.89789"
       sodipodi:rx="4.2857141"
       sodipodi:ry="4.2857141"
       d="m 294.10716,742.89789 c 0,2.36693 -1.91878,4.28571 -4.28572,4.28571 -2.36693,0 -4.28571,-1.91878 -4.28571,-4.28571 0,-2.36694 1.91878,-4.28572 4.28571,-4.28572 2.36694,0 4.28572,1.91878 4.28572,4.28572 z"
       transform="matrix(0.9358817,0,0,0.9358817,186.24547,205.86075)" />
    <path
       sodipodi:type="arc"
       style="fill:#ffffff;fill-opacity:1;fill-rule:nonzero;stroke:#7b7b7b;stroke-width:1.7064867;stroke-linecap:butt;stroke-linejoin:round;stroke-miterlimit:4;stroke-opacity:1;stroke-dasharray:none"
       id="path3215"
       sodipodi:cx="289.82144"
       sodipodi:cy="742.89789"
       sodipodi:rx="4.2857141"
       sodipodi:ry="4.2857141"
       d="m 294.10716,742.89789 c 0,2.36693 -1.91878,4.28571 -4.28572,4.28571 -2.36693,0 -4.28571,-1.91878 -4.28571,-4.28571 0,-2.36694 1.91878,-4.28572 4.28571,-4.28572 2.36694,0 4.28572,1.91878 4.28572,4.28572 z"
       transform="matrix(0.9358817,0,0,0.9358817,180.68556,198.01144)" />
    <path
       style="fill:none;stroke:#606060;stroke-width:1.83150184px;stroke-linecap:butt;stroke-linejoin:miter;stroke-opacity:1"
       d="m 526.16537,896.87358 c 0,0 -1.96233,2.61643 -3.27055,4.2517 -1.30821,1.63526 -1.30821,4.57875 -3.59759,3.5976 -2.28937,-0.98117 -5.88697,-4.57875 -5.55992,-7.19518 0.32707,-2.61643 5.55992,-6.54108 5.55992,-6.54108 0,0 1.30821,1.9623 3.27054,3.27053 1.96232,1.30822 3.27055,2.28938 3.5976,2.61643 z"
       id="path3217"
       sodipodi:nodetypes="cssscsc"
       inkscape:connector-curvature="0" />
    <path
       style="fill:none;stroke:#28cc03;stroke-width:1px;stroke-linecap:butt;stroke-linejoin:miter;stroke-opacity:1;filter:url(#filter3333)"
       d="m 336.28859,931.43402 4.28572,0 1.25,1.25 0,2.32143 -0.89286,1.78571 -4.46428,0 -1.42858,-1.07143 0,-3.21428 1.25,-1.07143 z"
       id="path3221"
       sodipodi:nodetypes="ccccccccc"
       inkscape:connector-curvature="0"
       transform="matrix(1.8315019,0,0,1.8315019,-38.073303,-814.28242)" />
    <path
       style="fill:none;stroke:#28cc03;stroke-width:1px;stroke-linecap:butt;stroke-linejoin:miter;stroke-opacity:1;filter:url(#filter3329)"
       d="m 335.75288,938.57688 5.53571,0"
       id="path3223"
       inkscape:connector-curvature="0"
       transform="matrix(1.8315019,0,0,1.8315019,-38.073303,-814.28242)" />
    <path
       style="fill:none;stroke:#4d4d4d;stroke-width:1.83150184px;stroke-linecap:butt;stroke-linejoin:miter;stroke-opacity:1"
       d="m 639.32601,891.64072 7.8493,0 2.28938,2.28938 0,4.2517 -1.63527,3.27053 -8.17634,0 -2.61645,-1.96232 0,-5.88696 2.28938,-1.96233 z"
       id="path3225"
       sodipodi:nodetypes="ccccccccc"
       inkscape:connector-curvature="0" />
    <path
       style="fill:none;stroke:#4d4d4d;stroke-width:1.83150184px;stroke-linecap:butt;stroke-linejoin:miter;stroke-opacity:1"
       d="m 638.34486,904.72288 10.13866,0"
       id="path3227"
       inkscape:connector-curvature="0" />
    <path
       style="fill:none;stroke:#4d4d4d;stroke-width:1.83150184px;stroke-linecap:butt;stroke-linejoin:miter;stroke-opacity:1"
       d="m 707.35323,892.29482 7.8493,0 2.28938,2.28938 0,4.2517 -1.63528,3.27053 -8.17632,0 -2.61646,-1.96232 0,-5.88696 2.28938,-1.96233 z"
       id="path3229"
       sodipodi:nodetypes="ccccccccc"
       inkscape:connector-curvature="0" />
    <path
       style="fill:none;stroke:#4d4d4d;stroke-width:1.83150184px;stroke-linecap:butt;stroke-linejoin:miter;stroke-opacity:1"
       d="m 706.37207,905.37698 10.13867,0"
       id="path3231"
       inkscape:connector-curvature="0" />
    <path
       style="fill:none;stroke:#4d4d4d;stroke-width:1.83150184px;stroke-linecap:butt;stroke-linejoin:miter;stroke-opacity:1"
       d="m 775.38044,892.62187 7.84929,0 2.28938,2.28938 0,4.2517 -1.63528,3.27054 -8.17634,0 -2.61642,-1.96233 0,-5.88696 2.28937,-1.96233 z"
       id="path3233"
       sodipodi:nodetypes="ccccccccc"
       inkscape:connector-curvature="0" />
    <path
       style="fill:none;stroke:#4d4d4d;stroke-width:1.83150184px;stroke-linecap:butt;stroke-linejoin:miter;stroke-opacity:1"
       d="m 774.39927,905.70403 10.13868,0"
       id="path3235"
       inkscape:connector-curvature="0" />
    <path
       style="font-size:12px;font-style:normal;font-variant:normal;font-weight:normal;font-stretch:normal;text-align:start;line-height:125%;writing-mode:lr-tb;text-anchor:start;fill:#000000;fill-opacity:1;stroke:#28cc03;stroke-width:1px;stroke-linecap:butt;stroke-linejoin:miter;stroke-opacity:1;filter:url(#filter3517);font-family:Dominican;-inkscape-font-specification:Dominican"
       d="m 329.05831,937.86898 0.048,-5.56823 -0.38416,0.24023 c -0.064,0.0559 -0.11987,0.0839 -0.16772,0.0839 -0.032,1e-5 -0.082,-0.034 -0.14997,-0.10199 -0.068,-0.068 -0.10199,-0.13799 -0.10199,-0.21002 0,-0.0879 0.046,-0.18786 0.13789,-0.29993 0.0919,-0.11205 0.18584,-0.22411 0.28179,-0.33618 l 0.96021,-1.34399 0.79211,0.4563 -0.0121,7.76367 c 0,0.0962 -0.0761,0.14429 -0.22815,0.14429 -0.0559,0 -0.0998,-0.004 -0.13183,-0.0121 -0.23999,-0.064 -0.47998,-0.12402 -0.71997,-0.18018 -0.21607,-0.104 -0.3241,-0.31591 -0.3241,-0.63574 l 0,0 z"
       id="text3237"
       inkscape:connector-curvature="0"
       transform="matrix(1.8315019,0,0,1.8315019,-38.073303,-814.28242)" />
    <path
       style="font-size:12px;font-style:normal;font-variant:normal;font-weight:normal;font-stretch:normal;text-align:start;line-height:125%;writing-mode:lr-tb;text-anchor:start;fill:#000000;fill-opacity:1;stroke:#939393;stroke-width:1.83150184px;stroke-linecap:butt;stroke-linejoin:miter;stroke-opacity:1;font-family:Dominican;-inkscape-font-specification:Dominican"
       d="m 630.31953,894.23142 c -4e-5,1.21622 -0.4322,2.69606 -1.29652,4.43946 -0.71812,1.43623 -1.64863,2.92343 -2.79152,4.4616 l -0.37359,0.48359 2.54939,-0.0436 c 0.45429,0 0.86454,0.0476 1.23077,0.14285 0.36619,0.0952 0.62264,0.24526 0.7693,0.45006 0.32239,0.43954 0.48358,0.79121 0.48359,1.05504 -10e-6,0.24904 -0.10989,0.40287 -0.32965,0.46144 -0.21978,0.0586 -0.41038,0.0879 -0.57179,0.0879 l -6.9446,0.35213 -0.72571,-2.57153 c 0.48381,-0.57144 0.97478,-1.14289 1.47289,-1.71434 1.06956,-1.45053 1.94864,-2.8132 2.63725,-4.08802 0.93766,-1.71434 1.40649,-3.00368 1.4065,-3.86802 -10e-6,-0.19048 -0.0146,-0.34429 -0.0439,-0.46145 -0.0293,-0.11714 -0.0951,-0.17571 -0.19753,-0.17573 -0.27857,2e-5 -0.85002,0.35147 -1.71434,1.05436 -0.5567,0.45432 -1.29672,1.12839 -2.22007,2.02222 -0.73242,0.71813 -1.10601,1.0917 -1.12077,1.12076 l -1.23077,-1.73582 c 0,-0.11758 0.3224,-0.53522 0.96718,-1.25289 0.74718,-0.83524 1.49436,-1.53123 2.24153,-2.08793 1.01099,-0.74716 1.86815,-1.12075 2.57152,-1.12077 0.41048,2e-5 0.75477,0.10978 1.0329,0.32932 1.01099,0.7472 1.57505,1.1941 1.69221,1.34075 0.33715,0.4105 0.50572,0.85004 0.50576,1.31865 l 0,0 z"
       id="text3241"
       inkscape:connector-curvature="0" />
    <path
       style="font-size:12px;font-style:normal;font-variant:normal;font-weight:normal;font-stretch:normal;text-align:start;line-height:125%;writing-mode:lr-tb;text-anchor:start;fill:#000000;fill-opacity:1;stroke:#939393;stroke-width:1.83150184px;stroke-linecap:butt;stroke-linejoin:miter;stroke-opacity:1;font-family:Dominican;-inkscape-font-specification:Dominican"
       d="m 691.87458,907.10827 -1.1865,-1.91222 1.31863,-0.22 c 0.99622,-0.17572 1.98509,-0.68859 2.96657,-1.53863 0.90859,-0.79099 1.36289,-1.421 1.36289,-1.89007 0,-0.27811 -0.25644,-0.52707 -0.7693,-0.74683 -0.51287,-0.21978 -1.07696,-0.32965 -1.69222,-0.32967 -0.39573,2e-5 -0.75109,0.0476 -1.06609,0.14287 -0.31502,0.0952 -0.58231,0.26002 -0.80185,0.49431 l -0.81358,-0.59357 0,-1.91222 0.59358,-0.28573 c 0.99624,-0.43953 1.99985,-1.12813 3.01084,-2.06581 1.01099,-0.93764 1.51648,-1.64077 1.5165,-2.10939 -2e-5,-0.10283 -0.0367,-0.19092 -0.10998,-0.26427 -0.17575,-0.17572 -0.46863,-0.26357 -0.87866,-0.26359 -0.60098,2e-5 -1.3629,0.18313 -2.28579,0.54932 -0.74716,0.29333 -1.17958,0.49857 -1.29718,0.61571 l -0.9229,-2.08793 c 0.16143,-0.17571 0.63762,-0.43216 1.42863,-0.76932 0.98192,-0.41046 1.83172,-0.61569 2.54938,-0.61571 0.20525,2e-5 0.41047,0.0221 0.61573,0.0664 0.68861,0.16099 1.25266,0.43932 1.69222,0.83503 0.33712,0.2929 0.68881,0.75435 1.05503,1.38436 0.0876,0.14667 0.14253,0.28966 0.16466,0.42892 0.0221,0.13931 0.0332,0.27489 0.0332,0.4068 -2e-5,0.54194 -0.19787,1.12793 -0.59357,1.75795 -0.39573,0.63003 -0.8867,1.1941 -1.47291,1.69221 l -0.83504,0.68145 c 0.70335,0 1.43231,0.41394 2.18687,1.24183 0.75454,0.8279 1.13183,1.71804 1.13183,2.67044 0,0.5567 -0.12822,1.04387 -0.38463,1.4615 -0.25647,0.41764 -0.62636,0.83885 -1.10973,1.26363 -0.61527,0.54194 -1.2965,0.98148 -2.04366,1.31863 -0.92335,0.42478 -1.82458,0.63718 -2.70366,0.63718 -0.11715,0 -0.23799,-0.007 -0.36251,-0.0218 -0.12455,-0.0145 -0.22348,-0.0218 -0.2968,-0.0218 l 0,0 z"
       id="text3245"
       inkscape:connector-curvature="0" />
    <path
       style="font-size:12px;font-style:normal;font-variant:normal;font-weight:normal;font-stretch:normal;text-align:start;line-height:125%;writing-mode:lr-tb;text-anchor:start;fill:#000000;fill-opacity:1;stroke:#939393;stroke-width:1.83150184px;stroke-linecap:butt;stroke-linejoin:miter;stroke-opacity:1;font-family:Dominican;-inkscape-font-specification:Dominican"
       d="m 756.75299,901.08065 5.31811,-9.14253 2.37367,0.94504 -0.28574,7.18672 0.74786,0.17573 c 0.36619,0.1024 0.56383,0.16097 0.59291,0.17573 0.0881,0.0586 0.16141,0.15381 0.22,0.28572 0.11715,0.26382 0.2013,0.458 0.25251,0.58252 0.0512,0.12453 0.0768,0.26727 0.0768,0.42825 0,0.1176 -0.0219,0.23498 -0.0657,0.35212 l -2.00007,0.13147 0.0221,4.63732 c 0,0.38097 -0.13192,0.54954 -0.39571,0.50572 -0.73244,-0.10239 -1.15722,-0.17572 -1.27438,-0.21999 -0.43954,-0.19049 -0.6593,-0.5786 -0.6593,-1.16435 l 0,-3.60444 -3.56083,0 -1.36223,-1.27503 z m 2.76872,-0.92292 2.41793,0.0436 0.37359,-5.45024 -2.79152,5.40663 z"
       id="text3249"
       inkscape:connector-curvature="0" />
    <path
       style="font-size:12px;font-style:normal;font-variant:normal;font-weight:normal;font-stretch:normal;text-align:start;line-height:125%;writing-mode:lr-tb;text-anchor:start;fill:#979797;fill-opacity:1;stroke:none;font-family:Dominican;-inkscape-font-specification:Dominican"
       d="m 162.1906,893.35021 c -0.48339,2.22677 -0.81317,3.77992 -0.98932,4.65945 -0.27813,1.39152 -0.56365,2.95921 -0.85649,4.70306 l -2.37366,-0.90143 -1.40718,-7.64819 -1.60434,9.01108 -2.52725,-0.81291 -1.2965,-14.15412 c 0,-0.16095 0.13188,-0.24145 0.39571,-0.24147 0.2048,0.0143 0.35125,0.0215 0.43932,0.0215 0.27856,2e-5 0.51667,0.0476 0.71431,0.14287 0.19765,0.0953 0.30384,0.26024 0.31861,0.49498 l 0.81289,10.81262 1.60436,-10.46117 2.55007,0.11 1.12075,10.04398 c 0.20524,-2.06625 0.55693,-4.32275 1.05504,-6.76955 0.2343,-1.20144 0.43932,-2.13912 0.61504,-2.81296 0.1319,-0.52762 0.39571,-1.45813 0.79144,-2.79152 0.0438,-0.0586 0.095,-0.12453 0.15361,-0.19788 0.13189,-0.13189 0.27854,-0.18308 0.43998,-0.15359 0.42478,0.0734 0.76541,0.21253 1.02185,0.41753 0.25639,0.20502 0.38462,0.48348 0.38464,0.83537 -0.3224,1.3039 -0.55695,2.24893 -0.70358,2.83512 -0.23432,0.95242 -0.45408,1.90484 -0.6593,2.85726 l 0,0 z m 3.36496,-1.71436 0,-1.42863 c 0,-0.27855 0.0842,-0.52403 0.25253,-0.73645 0.16835,-0.21238 0.38443,-0.31857 0.64826,-0.31859 0.24905,2e-5 0.47621,0.0953 0.68143,0.28574 0.20526,0.19049 0.30788,0.41763 0.30788,0.68144 l 0,1.97793 c 0,0.20526 -0.0952,0.3555 -0.28574,0.45074 -0.19047,0.0952 -0.41762,0.14287 -0.68144,0.14285 -0.26383,2e-5 -0.48359,-0.1026 -0.65931,-0.30785 -0.17575,-0.20524 -0.26361,-0.45429 -0.26361,-0.74718 l 0,0 z m -0.0879,10.61542 0,-8.0439 c 0,-0.35189 0.20501,-0.52784 0.61505,-0.52784 0.4981,0 0.85337,0.0623 1.06577,0.18678 0.21238,0.12454 0.31859,0.29681 0.31859,0.51679 l -0.1972,8.68108 c 0,0.17573 -0.1319,0.26359 -0.39571,0.26359 -0.14667,0 -0.27502,-0.0146 -0.38502,-0.0439 -0.10998,-0.0293 -0.19427,-0.0511 -0.25284,-0.0654 -0.51242,-0.16143 -0.76864,-0.48381 -0.76864,-0.96718 l 0,0 z m 4.67959,-7.97817 0.19786,-0.24145 0.50572,0 c 0.11716,0 0.25261,0.0695 0.40644,0.20859 0.15383,0.13907 0.27478,0.22335 0.36288,0.25286 0.20478,0.0586 0.37313,-0.0989 0.50502,-0.47253 0.13192,-0.37357 0.28941,-0.58608 0.47254,-0.63751 0.18308,-0.0514 0.31132,-0.0771 0.38464,-0.0771 0.27859,0 0.52406,0.0989 0.73646,0.29678 0.2124,0.19787 0.31859,0.43587 0.31859,0.71399 l -0.0221,0.85716 c -2e-5,0.42524 -0.0513,0.81002 -0.15394,1.1543 -0.10264,0.34431 -0.2637,0.51647 -0.48326,0.51645 -0.33716,2e-5 -0.56431,-0.32976 -0.68143,-0.9893 -0.0586,-0.32238 -0.16121,-0.48357 -0.30786,-0.48357 -0.13148,0 -0.23758,0.10989 -0.31828,0.32965 -0.0807,0.21978 -0.12104,0.65943 -0.12104,1.31895 0,0.20526 0,0.38478 0,0.53859 0,0.15383 0,0.27454 0,0.36218 l 0,5.36306 c -0.16099,0.0733 -0.34408,0.10998 -0.54934,0.10998 -0.13189,0 -0.29308,-0.022 -0.48357,-0.0661 -0.19048,-0.044 -0.37359,-0.15035 -0.54931,-0.31892 -0.17575,-0.16857 -0.2636,-0.38454 -0.2636,-0.64791 l 0.0436,-8.08817 z m 10.56647,1.67009 0.13145,2.63725 -3.12086,0.50572 c -0.26336,0.0586 -0.43907,0.12454 -0.52717,0.19786 -0.19049,0.14666 -0.28573,0.3519 -0.28571,0.61573 l 0.0436,1.01077 c 0,0.21954 0.0696,0.42097 0.20892,0.6043 0.1393,0.18334 0.30418,0.26762 0.49467,0.25286 0.41048,-0.0586 0.92335,-0.38095 1.53863,-0.96716 0.61527,-0.58621 0.89361,-0.94526 0.83505,-1.07718 0.0586,-0.0291 0.15381,-0.0436 0.28572,-0.0436 0.24904,0 0.43216,0.0806 0.54932,0.24179 0.11714,0.16119 0.17571,0.32966 0.17573,0.50539 -2e-5,0.0733 -0.0219,0.16857 -0.0658,0.28571 -0.0881,0.33716 -0.21262,0.63026 -0.37359,0.87932 -0.0733,0.11715 -0.27859,0.37359 -0.6157,0.76931 -0.27813,0.32194 -0.56005,0.55624 -0.8458,0.70291 -0.28572,0.14667 -0.62645,0.22 -1.02214,0.22 -0.26383,0 -0.47993,-0.0257 -0.64825,-0.0771 -0.16837,-0.0514 -0.34062,-0.15024 -0.51681,-0.29645 l -1.14223,-1.03291 c -0.0443,-0.0295 -0.0883,-0.0956 -0.13211,-0.19819 -0.0438,-0.10262 -0.0805,-0.18322 -0.11,-0.24179 -0.1024,-0.26337 -0.15361,-0.54172 -0.15361,-0.83506 l 0,-1.71434 c 0,-1.11339 0.24539,-2.26355 0.73612,-3.45049 0.49073,-1.18694 1.01447,-1.78041 1.57114,-1.78042 0.0881,10e-6 0.15406,0.007 0.19789,0.0221 0.27855,0.0881 0.63392,0.15405 1.0661,0.19786 0.43216,0.0438 0.76917,0.19763 1.01108,0.46144 0.2419,0.26383 0.42145,0.51658 0.53859,0.75824 0.11716,0.24169 0.17573,0.52374 0.17575,0.84612 l 0,0 z m -1.60436,-0.0215 c 0,-0.24905 -0.0476,-0.46883 -0.14286,-0.65933 -0.0953,-0.19047 -0.24549,-0.31522 -0.45075,-0.37424 -0.21998,-0.0438 -0.425,0.19071 -0.61502,0.70357 -0.13192,0.36622 -0.22,0.62265 -0.26426,0.76932 -0.11718,0.30764 -0.20502,0.57134 -0.26361,0.7911 -0.0586,0.21978 -0.0879,0.45419 -0.0878,0.70324 l 1.82434,-0.41718 0,-1.51648 z m 3.87203,5.99956 0.1972,-13.38414 c 0,-0.17617 0.0917,-0.30819 0.275,-0.39606 0.18332,-0.0879 0.38476,-0.10988 0.6043,-0.0661 0.30764,0.0586 0.51645,0.16121 0.62645,0.30786 0.11,0.14667 0.165,0.35907 0.165,0.63718 l -0.32998,13.93412 c -2e-5,0.16141 -0.13907,0.24213 -0.4172,0.24213 -0.10284,0 -0.21284,-0.0148 -0.32998,-0.0443 -0.38097,-0.17572 -0.60802,-0.32216 -0.68113,-0.43932 -0.0731,-0.11715 -0.10966,-0.38096 -0.10966,-0.79143 l 0,0 z m 9.1935,-5.9781 0.13148,2.63725 -3.12084,0.50572 c -0.26337,0.0586 -0.43912,0.12454 -0.5272,0.19786 -0.19047,0.14666 -0.28571,0.3519 -0.28571,0.61573 l 0.0436,1.01077 c 0,0.21954 0.0696,0.42097 0.20894,0.6043 0.13928,0.18334 0.30414,0.26762 0.49465,0.25286 0.41048,-0.0586 0.92333,-0.38095 1.53863,-0.96716 0.61525,-0.58621 0.8936,-0.94526 0.83503,-1.07718 0.0586,-0.0291 0.15381,-0.0436 0.28572,-0.0436 0.24906,0 0.43214,0.0806 0.54932,0.24179 0.11714,0.16119 0.1757,0.32966 0.17571,0.50539 -1e-5,0.0733 -0.0219,0.16857 -0.0657,0.28571 -0.0881,0.33716 -0.21262,0.63026 -0.37361,0.87932 -0.0733,0.11715 -0.27855,0.37359 -0.61569,0.76931 -0.27814,0.32194 -0.56006,0.55624 -0.84577,0.70291 -0.28575,0.14667 -0.62647,0.22 -1.02218,0.22 -0.26381,0 -0.47993,-0.0257 -0.64825,-0.0771 -0.16837,-0.0514 -0.34062,-0.15024 -0.51679,-0.29645 l -1.14223,-1.03291 c -0.0443,-0.0295 -0.0883,-0.0956 -0.13213,-0.19819 -0.0438,-0.10262 -0.0805,-0.18322 -0.11002,-0.24179 -0.10238,-0.26337 -0.15357,-0.54172 -0.15357,-0.83506 l 0,-1.71434 c 0,-1.11339 0.24537,-2.26355 0.7361,-3.45049 0.49075,-1.18694 1.01445,-1.78041 1.57117,-1.78042 0.0881,10e-6 0.15403,0.007 0.19784,0.0221 0.27859,0.0881 0.63396,0.15405 1.06612,0.19786 0.43214,0.0438 0.76917,0.19763 1.01108,0.46144 0.24192,0.26383 0.42143,0.51658 0.53861,0.75824 0.11714,0.24169 0.17571,0.52374 0.17571,0.84612 l 0,0 z m -1.60436,-0.0215 c 0,-0.24905 -0.0476,-0.46883 -0.14284,-0.65933 -0.0953,-0.19047 -0.24551,-0.31522 -0.45073,-0.37424 -0.22,-0.0438 -0.42502,0.19071 -0.61505,0.70357 -0.13189,0.36622 -0.21999,0.62265 -0.26425,0.76932 -0.11715,0.30764 -0.20502,0.57134 -0.26359,0.7911 -0.0586,0.21978 -0.0879,0.45419 -0.0879,0.70324 l 1.82432,-0.41718 0,-1.51648 z m 3.65205,6.39527 c -0.17571,-0.11714 -0.26359,-0.30025 -0.26359,-0.54932 0,-0.14665 0.044,-0.28593 0.13182,-0.41786 0.0879,-0.1319 0.19404,-0.23082 0.31859,-0.29677 0.12452,-0.066 0.24536,-0.0694 0.36252,-0.0104 0.38096,0.24907 0.66667,0.43216 0.85717,0.54932 0.3662,0.23431 0.63716,0.35145 0.81291,0.35145 0.19046,0 0.30773,-0.0696 0.35179,-0.20892 0.044,-0.13928 0.0661,-0.23084 0.0661,-0.27467 0,-0.0733 0,-0.12452 0,-0.15359 0,-0.30764 -0.16857,-0.60811 -0.50571,-0.90144 -0.3224,-0.24905 -0.6411,-0.5018 -0.95612,-0.75825 -0.315,-0.25642 -0.5567,-0.50917 -0.72503,-0.75824 -0.16837,-0.24905 -0.2855,-0.53478 -0.35145,-0.85718 -0.066,-0.32238 -0.099,-0.60073 -0.099,-0.83503 0,-0.74718 0.21242,-1.42482 0.6372,-2.03295 0.42478,-0.6081 0.96694,-0.91216 1.62649,-0.91216 0.19047,0 0.30763,0 0.35146,0 0.10284,0 0.17617,0.0148 0.21996,0.0443 l 1.05506,0.63718 c 0.23428,0.14667 0.39549,0.35191 0.48357,0.61572 0.0438,0.11716 0.0877,0.40265 0.13148,0.8565 0,0.33716 -0.0183,0.62298 -0.055,0.85751 -0.0367,0.23454 -0.11357,0.4837 -0.23073,0.74751 l -1.14289,0 c -0.0438,-0.11759 -0.11337,-0.21663 -0.20859,-0.29713 -0.0953,-0.0805 -0.1429,-0.48692 -0.14286,-1.21936 -4e-5,-0.20523 -4e-5,-0.41785 0,-0.63785 -0.0438,-0.11715 -0.10978,-0.17572 -0.19788,-0.17572 -0.14622,0 -0.32932,0.17584 -0.54932,0.52751 -0.21998,0.35169 -0.35188,0.65943 -0.39573,0.92324 -0.0438,0.33671 0.0369,0.65911 0.24214,0.96718 0.14621,0.21954 0.40982,0.48313 0.79079,0.79077 0.38095,0.30764 0.77669,0.61528 1.18716,0.92291 0.46859,0.42522 0.70291,0.865 0.70291,1.31929 0,0.57145 -0.25633,1.09159 -0.76897,1.56042 -0.51266,0.46883 -0.99614,0.70324 -1.45042,0.70324 -0.33716,0 -0.65229,-0.066 -0.94539,-0.19785 -0.29309,-0.13191 -0.73992,-0.425 -1.34044,-0.87931 l 0,0 z m 6.31011,0 c -0.17573,-0.11714 -0.2636,-0.30025 -0.2636,-0.54932 0,-0.14665 0.0439,-0.28593 0.13181,-0.41786 0.0879,-0.1319 0.19405,-0.23082 0.31859,-0.29677 0.12452,-0.066 0.24536,-0.0694 0.36251,-0.0104 0.38097,0.24907 0.6667,0.43216 0.8572,0.54932 0.36619,0.23431 0.63718,0.35145 0.81289,0.35145 0.19049,0 0.30775,-0.0696 0.35179,-0.20892 0.044,-0.13928 0.0661,-0.23084 0.0661,-0.27467 0,-0.0733 0,-0.12452 0,-0.15359 0,-0.30764 -0.16857,-0.60811 -0.50574,-0.90144 -0.3224,-0.24905 -0.64108,-0.5018 -0.9561,-0.75825 -0.31501,-0.25642 -0.55668,-0.50917 -0.72503,-0.75824 -0.16837,-0.24905 -0.2855,-0.53478 -0.35145,-0.85718 -0.0659,-0.32238 -0.0989,-0.60073 -0.0989,-0.83503 0,-0.74718 0.2124,-1.42482 0.63718,-2.03295 0.42478,-0.6081 0.96694,-0.91216 1.62649,-0.91216 0.19047,0 0.30763,0 0.35146,0 0.10284,0 0.17616,0.0148 0.22,0.0443 l 1.05504,0.63718 c 0.23427,0.14667 0.39547,0.35191 0.48357,0.61572 0.0438,0.11716 0.0876,0.40265 0.13145,0.8565 0,0.33716 -0.0183,0.62298 -0.055,0.85751 -0.0367,0.23454 -0.11359,0.4837 -0.23072,0.74751 l -1.14291,0 c -0.0438,-0.11759 -0.11335,-0.21663 -0.20859,-0.29713 -0.0952,-0.0805 -0.14286,-0.48692 -0.14286,-1.21936 0,-0.20523 0,-0.41785 0,-0.63785 -0.0438,-0.11715 -0.1098,-0.17572 -0.19787,-0.17572 -0.14621,0 -0.32933,0.17584 -0.54931,0.52751 -0.22002,0.35169 -0.3519,0.65943 -0.39573,0.92324 -0.0438,0.33671 0.0369,0.65911 0.24214,0.96718 0.14621,0.21954 0.4098,0.48313 0.79077,0.79077 0.38095,0.30764 0.77669,0.61528 1.18716,0.92291 0.46859,0.42522 0.7029,0.865 0.7029,1.31929 0,0.57145 -0.25632,1.09159 -0.76898,1.56042 -0.51263,0.46883 -0.99611,0.70324 -1.4504,0.70324 -0.33714,0 -0.65227,-0.066 -0.94539,-0.19785 -0.29309,-0.13191 -0.73992,-0.425 -1.34042,-0.87931 l 0,0 z m 28.1513,-10.30756 c -0.0881,0.80577 -0.42501,1.56031 -1.01078,2.26366 -0.46905,0.5567 -1.1798,1.15744 -2.1322,1.80222 l -0.94504,0.63718 3.56084,5.36304 c 0.029,0.14622 0.0436,0.25599 0.0436,0.32932 -1e-5,0.36621 -0.1612,0.65194 -0.48359,0.85718 -0.16097,0.0881 -0.31479,0.13212 -0.46146,0.13212 -0.21956,0 -0.42099,-0.055 -0.60432,-0.16498 -0.18334,-0.11 -0.3481,-0.26762 -0.49431,-0.47286 l -4.43947,-5.99956 -0.10998,6.15383 c -2e-5,0.21954 -0.17595,0.32932 -0.52785,0.32932 -0.20482,0 -0.36601,-0.0293 -0.48361,-0.0879 -0.27813,-0.0876 -0.51978,-0.17182 -0.72502,-0.25253 -0.20526,-0.0807 -0.30788,-0.30416 -0.30786,-0.67037 l 0.0443,-13.09908 c -2e-5,-0.27811 0.0402,-0.51612 0.12071,-0.71399 0.0805,-0.19784 0.23812,-0.34797 0.47284,-0.45039 0.11718,-0.0443 0.24171,-0.0664 0.37359,-0.0664 0.3224,2e-5 0.57885,0.11738 0.76932,0.35213 0.38096,-0.19048 0.72528,-0.31143 1.03292,-0.36286 0.30763,-0.0514 0.73241,-0.0771 1.27434,-0.0771 l 1.14291,0 c 0.93766,0 1.8241,0.41026 2.6594,1.23075 0.83525,0.82054 1.25289,1.71436 1.25289,2.68152 -0.0148,0.13193 -0.0221,0.22717 -0.0221,0.28574 l 0,0 z m -6.92315,3.38443 c 0.77669,-0.19048 1.37017,-0.44322 1.78044,-0.75824 0.41022,-0.315 0.74726,-0.57513 1.01108,-0.78039 0.57147,-0.45384 1.02196,-0.95921 1.35149,-1.51615 0.32956,-0.55691 0.49432,-1.12846 0.49432,-1.71469 0,-0.35143 -0.17584,-0.61872 -0.52749,-0.80183 -0.3517,-0.1831 -0.78399,-0.27465 -1.29683,-0.27465 -0.60055,0 -1.17189,0.0953 -1.71401,0.28571 -0.5422,0.1905 -0.86447,0.4248 -0.96685,0.70291 l -0.13215,4.85733 z m 10.31629,7.58244 c -0.65909,-0.26381 -1.14255,-0.68143 -1.45041,-1.2529 -0.30785,-0.57145 -0.46179,-1.25267 -0.46179,-2.04366 0,-0.19048 0,-0.35169 0,-0.48359 0,-0.13191 0.0293,-0.35905 0.0879,-0.68145 0.0295,-0.54194 0.0588,-0.98148 0.0879,-1.31862 0.1176,-1.15766 0.58665,-2.35913 1.40716,-3.60444 0.0876,-0.14664 0.21931,-0.21998 0.39506,-0.22 0.10284,2e-5 0.31546,0.066 0.63782,0.19788 0.3224,0.1319 0.57146,0.19786 0.74718,0.19786 0.83529,0 1.46529,0.48359 1.89011,1.45075 0.36619,0.83527 0.54928,1.89747 0.54928,3.18657 0,1.31863 -0.16857,2.38821 -0.50569,3.2087 -0.41006,0.99669 -1.04006,1.6048 -1.89009,1.82436 -0.14621,0.0295 -0.24145,0.0443 -0.28572,0.0443 -0.11716,0 -0.22694,-0.0293 -0.32932,-0.0879 -0.1024,-0.0586 -0.20502,-0.11714 -0.30786,-0.17571 l -0.57146,-0.24214 z m 0.96719,-7.6703 c -0.22001,0.48337 -0.4362,0.97053 -0.64859,1.46149 -0.21239,0.49097 -0.3186,1.09529 -0.3186,1.81294 0,0.22 -0.0219,0.5425 -0.0657,0.96751 -0.0438,0.42502 -0.0657,0.73275 -0.0657,0.92325 0,0.3662 0.0549,0.67752 0.16467,0.93397 0.10976,0.25643 0.3111,0.46513 0.60397,0.6261 0.23475,0.13192 0.49119,-0.17572 0.76931,-0.92289 0.20524,-0.57145 0.37381,-1.26744 0.50571,-2.08795 0.0438,-0.26381 0.0657,-0.54216 0.0657,-0.83504 0,-0.70335 -0.0953,-1.38469 -0.28572,-2.04401 -0.19051,-0.65931 -0.37359,-0.98896 -0.54934,-0.98898 -0.0733,2e-5 -0.13189,0.0512 -0.1757,0.15361 l 0,0 z m 6.83392,7.95603 c -0.22,0 -0.40311,-0.044 -0.54932,-0.13213 l -0.74786,-0.46146 c -0.13144,-0.0733 -0.23752,-0.16119 -0.31824,-0.26359 -0.0807,-0.10238 -0.17965,-0.26359 -0.29679,-0.48357 -0.19048,-0.36623 -0.28574,-0.7398 -0.28572,-1.12077 l 0.30786,-6.24169 c 0,-0.14666 0.0952,-0.21998 0.2857,-0.22 0.0876,2e-5 0.20481,0.0183 0.35146,0.055 0.14667,0.0367 0.29691,0.0733 0.45073,0.11 0.15381,0.0367 0.3405,0.14288 0.56006,0.31859 l -0.3072,4.81306 c 0,0.80621 0.0438,1.39978 0.13145,1.78075 0.10284,0.13147 0.20547,0.25599 0.30786,0.37359 0.49813,-0.3519 0.82042,-0.65965 0.96685,-0.92324 0.14644,-0.26359 0.21963,-0.54205 0.21965,-0.83538 l 0.11002,-6.10955 0.57144,-0.0664 c 0.54238,2e-5 1.01121,0.1905 1.40649,0.57145 l -0.0215,8.94535 c -0.1319,0.0586 -0.28597,0.0879 -0.46214,0.0879 -0.0438,0 -0.14264,-0.0183 -0.29643,-0.055 -0.15383,-0.0367 -0.293,-0.0917 -0.41753,-0.16499 -0.12454,-0.0733 -0.19417,-0.18311 -0.20892,-0.32932 l -0.13146,-0.92291 -0.94506,1.01077 c -0.17617,0.17573 -0.40331,0.26359 -0.68143,0.26359 l 0,0 z m 6.01832,-7.36246 -0.35147,-0.17571 -0.3521,0 -0.32933,-0.41786 -0.0443,-1.05503 1.12143,-0.24147 0.10934,-4.17588 c 0.23472,-0.0585 0.46188,-0.0878 0.68144,-0.0879 0.13189,2e-5 0.28942,0.0147 0.47251,0.0439 0.18312,0.0293 0.42848,0.11729 0.73612,0.26394 l -0.0436,3.73588 0.9672,0 0.30718,0.57147 -0.0215,1.05503 -1.47289,0.15359 0,7.64885 c -0.16097,0.0438 -0.29288,0.0657 -0.39571,0.0657 -0.10242,0 -0.22326,-0.0183 -0.36255,-0.055 -0.13927,-0.0367 -0.27465,-0.0698 -0.4061,-0.0993 -0.51289,-0.14622 -0.7693,-0.43172 -0.7693,-0.8565 l 0.15357,-6.37383 z m 9.8515,0.0436 0.13145,2.63725 -3.12086,0.50572 c -0.26335,0.0586 -0.43907,0.12454 -0.52716,0.19786 -0.1905,0.14666 -0.28574,0.3519 -0.28572,0.61573 l 0.0436,1.01077 c 0,0.21954 0.0697,0.42097 0.20892,0.6043 0.13931,0.18334 0.30418,0.26762 0.49467,0.25286 0.41048,-0.0586 0.92335,-0.38095 1.53863,-0.96716 0.61527,-0.58621 0.89361,-0.94526 0.83505,-1.07718 0.0586,-0.0291 0.15381,-0.0436 0.28572,-0.0436 0.24905,0 0.43216,0.0806 0.54932,0.24179 0.11714,0.16119 0.17571,0.32966 0.17573,0.50539 -2e-5,0.0733 -0.0219,0.16857 -0.0657,0.28571 -0.0881,0.33716 -0.21262,0.63026 -0.37359,0.87932 -0.0733,0.11715 -0.27859,0.37359 -0.61569,0.76931 -0.27814,0.32194 -0.56006,0.55624 -0.84581,0.70291 -0.28571,0.14667 -0.62645,0.22 -1.02214,0.22 -0.26383,0 -0.47993,-0.0257 -0.64824,-0.0771 -0.16837,-0.0514 -0.34063,-0.15024 -0.51682,-0.29645 l -1.14223,-1.03291 c -0.0443,-0.0295 -0.0883,-0.0956 -0.13211,-0.19819 -0.0438,-0.10262 -0.0805,-0.18322 -0.11,-0.24179 -0.1024,-0.26337 -0.15361,-0.54172 -0.15361,-0.83506 l 0,-1.71434 c 0,-1.11339 0.24539,-2.26355 0.73612,-3.45049 0.49073,-1.18694 1.01447,-1.78041 1.57114,-1.78042 0.0881,10e-6 0.15406,0.007 0.19789,0.0221 0.27855,0.0881 0.63392,0.15405 1.0661,0.19786 0.43216,0.0438 0.76918,0.19763 1.01108,0.46144 0.2419,0.26383 0.42145,0.51658 0.53859,0.75824 0.11716,0.24169 0.17573,0.52374 0.17575,0.84612 l 0,0 z m -1.60436,-0.0215 c 0,-0.24905 -0.0476,-0.46883 -0.14286,-0.65933 -0.0952,-0.19047 -0.24549,-0.31522 -0.45075,-0.37424 -0.21998,-0.0438 -0.425,0.19071 -0.61501,0.70357 -0.13193,0.36622 -0.22,0.62265 -0.26427,0.76932 -0.11718,0.30764 -0.20502,0.57134 -0.26361,0.7911 -0.0586,0.21978 -0.0879,0.45419 -0.0878,0.70324 l 1.82434,-0.41718 0,-1.51648 z m 3.91564,-1.64863 0.19786,-0.24145 0.50571,0 c 0.11717,0 0.25262,0.0695 0.40645,0.20859 0.15383,0.13907 0.27478,0.22335 0.36288,0.25286 0.20478,0.0586 0.37313,-0.0989 0.50501,-0.47253 0.13193,-0.37357 0.28942,-0.58608 0.47255,-0.63751 0.18308,-0.0514 0.31132,-0.0771 0.38463,-0.0771 0.27859,0 0.52407,0.0989 0.73647,0.29678 0.2124,0.19787 0.31859,0.43587 0.31859,0.71399 l -0.0221,0.85716 c -10e-6,0.42524 -0.0513,0.81002 -0.15393,1.1543 -0.10264,0.34431 -0.2637,0.51647 -0.48326,0.51645 -0.33716,2e-5 -0.56431,-0.32976 -0.68143,-0.9893 -0.0586,-0.32238 -0.16121,-0.48357 -0.30786,-0.48357 -0.13148,0 -0.23758,0.10989 -0.31828,0.32965 -0.0807,0.21978 -0.12104,0.65943 -0.12104,1.31895 0,0.20526 0,0.38478 0,0.53859 0,0.15383 0,0.27454 0,0.36218 l 0,5.36306 c -0.16099,0.0733 -0.34409,0.10998 -0.54934,0.10998 -0.13189,0 -0.29308,-0.022 -0.48357,-0.0661 -0.19048,-0.044 -0.37359,-0.15035 -0.54931,-0.31892 -0.17575,-0.16857 -0.26361,-0.38454 -0.26361,-0.64791 l 0.0436,-8.08817 z"
       id="text3253"
       inkscape:connector-curvature="0" />
    <path
       style="fill:#ececec;fill-opacity:1;fill-rule:evenodd;stroke:none;filter:url(#filter3304)"
       d="m 62.895745,955.18402 c -0.53572,-0.71429 -5.35715,-3.75 -5.71429,-7.14286 -0.35714,-3.39286 0.71429,-34.28571 0.71429,-34.28571 0,0 2.32142,-4.64286 4.28571,-5.17857 1.96429,-0.53572 3.03571,-1.07143 3.03571,-1.07143 l -11.60714,-2.67857 -2.67857,-3.39286 0.53571,12.5 0.89286,30.71428 c 0,0 -0.71428,3.03572 -1.96428,3.39286 -1.25,0.35714 2.67857,5.53572 3.57142,5.89286 0.89286,0.35714 8.92858,1.60714 8.92858,1.25 z"
       id="path3282"
       inkscape:connector-curvature="0"
       transform="matrix(1.8315019,0,0,1.8315019,-38.073303,-814.28242)" />
    <path
       style="fill:none;stroke:#fdfdfd;stroke-width:2;stroke-linecap:butt;stroke-linejoin:miter;stroke-miterlimit:4;stroke-opacity:1;stroke-dasharray:none;filter:url(#filter3368)"
       d="m 47.895745,901.79116 c 0,0 3.39285,5.89286 6.60714,6.25 3.21428,0.35714 10.17857,1.60714 14.46428,1.60714 4.28572,0 4.28572,0 4.28572,0"
       id="path3284"
       inkscape:connector-curvature="0"
       transform="matrix(1.8315019,0,0,1.8315019,-38.073303,-814.28242)" />
    <path
       style="fill:none;stroke:#fdfdfd;stroke-width:1.83150184px;stroke-linecap:butt;stroke-linejoin:miter;stroke-opacity:1"
       d="m 101.97645,852.39425 344.06071,-1.30822"
       id="path3286"
       inkscape:connector-curvature="0" />
    <path
       style="fill:#2c2c2c;fill-opacity:1;fill-rule:evenodd;stroke:none"
       d="M 71.082367,775.94083 129.82294,548.37897 c 0,0 3.23765,-12.48815 16.65087,-18.96348 13.4132,-6.47532 34.22677,-7.40038 34.22677,-7.40038 0,0 738.1884,2.77515 740.03849,2.77515 1.85009,0 28.21398,5.08776 34.2268,11.10056 6.0128,6.01283 11.56309,18.9635 11.56309,18.9635 l 48.56504,223.39913 c 0,0 1.8501,12.48815 -2.3126,14.33824 -4.1627,1.85009 -16.18835,1.85009 -16.18835,1.85009 L 81.720425,787.96643 c 0,0 -8.787967,-2.3126 -10.175531,-4.62522 -1.387582,-2.31262 0,-6.93785 -0.462527,-7.40038 z"
       id="path3752"
       sodipodi:nodetypes="ccscssccsccsc"
       inkscape:connector-curvature="0" />
    <path
       style="fill:none;stroke:#868686;stroke-width:1.5;stroke-linecap:butt;stroke-linejoin:miter;stroke-miterlimit:4;stroke-opacity:1;stroke-dasharray:none;filter:url(#filter3982)"
       d="m 59.346455,869.77711 c 0,0 0.25254,2.52538 2.02031,3.28299 1.76777,0.75762 5.80838,0.75762 5.80838,0.75762 l 503.055965,4.04061 c 0,0 2.77791,0.25253 4.29314,-1.51523 1.51524,-1.76777 1.01016,-6.31346 1.01016,-6.31346"
       id="path3754"
       inkscape:connector-curvature="0"
       transform="matrix(1.8315019,0,0,1.8315019,-38.073303,-814.28242)" />
    <path
       style="fill:#000000;fill-opacity:1;fill-rule:evenodd;stroke:#000000;stroke-width:1px;stroke-linecap:butt;stroke-linejoin:miter;stroke-opacity:1;filter:url(#filter3962)"
       d="m 163.96716,740.00545 -1.78571,8.125 3.8393,0 2.05357,-7.94643 -4.10716,-0.17857 z"
       id="path3810"
       inkscape:connector-curvature="0"
       transform="matrix(1.8315019,0,0,1.8315019,-38.073303,-814.28242)" />
    <path
       style="fill:none;stroke:#494949;stroke-width:1px;stroke-linecap:butt;stroke-linejoin:miter;stroke-opacity:1;filter:url(#filter3958)"
       d="m 168.69932,739.20188 c -0.44644,0 -4.91072,-0.17858 -4.91072,-0.17858"
       id="path3812"
       inkscape:connector-curvature="0"
       transform="matrix(1.8315019,0,0,1.8315019,-38.073303,-814.28242)" />
    <path
       style="fill:#000000;fill-opacity:1;fill-rule:evenodd;stroke:#000000;stroke-width:1px;stroke-linecap:butt;stroke-linejoin:miter;stroke-opacity:1;filter:url(#filter3954)"
       d="m 189.36894,739.91617 -1.07141,8.21429 3.83929,0 1.33928,-8.03572 -4.10716,-0.17857 z"
       id="path3814"
       sodipodi:nodetypes="ccccc"
       inkscape:connector-curvature="0"
       transform="matrix(1.8315019,0,0,1.8315019,-38.073303,-814.28242)" />
    <path
       style="fill:none;stroke:#494949;stroke-width:1px;stroke-linecap:butt;stroke-linejoin:miter;stroke-opacity:1;filter:url(#filter3950)"
       d="m 193.92253,739.1126 c -0.44643,0 -4.91072,-0.17858 -4.91072,-0.17858"
       id="path3816"
       inkscape:connector-curvature="0"
       transform="matrix(1.8315019,0,0,1.8315019,-38.073303,-814.28242)" />
    <path
       style="fill:#000000;fill-opacity:1;fill-rule:evenodd;stroke:#000000;stroke-width:1px;stroke-linecap:butt;stroke-linejoin:miter;stroke-opacity:1;filter:url(#filter3946)"
       d="m 215.44037,739.46974 -0.98213,8.125 3.83928,0 1.25,-7.94643 -4.10715,-0.17857 z"
       id="path3818"
       sodipodi:nodetypes="ccccc"
       inkscape:connector-curvature="0"
       transform="matrix(1.8315019,0,0,1.8315019,-38.073303,-814.28242)" />
    <path
       style="fill:none;stroke:#494949;stroke-width:1px;stroke-linecap:butt;stroke-linejoin:miter;stroke-opacity:1;filter:url(#filter3942)"
       d="m 220.17252,738.66617 c -0.44642,0 -4.91071,-0.17858 -4.91071,-0.17858"
       id="path3820"
       inkscape:connector-curvature="0"
       transform="matrix(1.8315019,0,0,1.8315019,-38.073303,-814.28242)" />
    <path
       style="fill:#000000;fill-opacity:1;fill-rule:evenodd;stroke:#000000;stroke-width:1px;stroke-linecap:butt;stroke-linejoin:miter;stroke-opacity:1;filter:url(#filter3938)"
       d="m 241.06539,740.00545 -0.89285,8.125 3.83929,0 1.16071,-7.94643 -4.10715,-0.17857 z"
       id="path3822"
       sodipodi:nodetypes="ccccc"
       inkscape:connector-curvature="0"
       transform="matrix(1.8315019,0,0,1.8315019,-38.073303,-814.28242)" />
    <path
       style="fill:none;stroke:#494949;stroke-width:1px;stroke-linecap:butt;stroke-linejoin:miter;stroke-opacity:1;filter:url(#filter3934)"
       d="m 245.79754,739.20188 c -0.44644,0 -4.91073,-0.17858 -4.91073,-0.17858"
       id="path3824"
       inkscape:connector-curvature="0"
       transform="matrix(1.8315019,0,0,1.8315019,-38.073303,-814.28242)" />
    <path
       style="fill:#000000;fill-opacity:1;fill-rule:evenodd;stroke:#000000;stroke-width:1px;stroke-linecap:butt;stroke-linejoin:miter;stroke-opacity:1;filter:url(#filter3930)"
       d="m 266.33324,739.64831 -0.53572,8.75 3.83929,0 0.80357,-8.57143 -4.10714,-0.17857 z"
       id="path3826"
       sodipodi:nodetypes="ccccc"
       inkscape:connector-curvature="0"
       transform="matrix(1.8315019,0,0,1.8315019,-38.073303,-814.28242)" />
    <path
       style="fill:none;stroke:#494949;stroke-width:1px;stroke-linecap:butt;stroke-linejoin:miter;stroke-opacity:1;filter:url(#filter3926)"
       d="m 271.06538,738.84474 c -0.44643,0 -4.91072,-0.17858 -4.91072,-0.17858"
       id="path3828"
       inkscape:connector-curvature="0"
       transform="matrix(1.8315019,0,0,1.8315019,-38.073303,-814.28242)" />
    <path
       style="fill:#000000;fill-opacity:1;fill-rule:evenodd;stroke:#000000;stroke-width:1px;stroke-linecap:butt;stroke-linejoin:miter;stroke-opacity:1;filter:url(#filter3922)"
       d="m 291.95824,740.36259 -0.26785,8.39286 3.83929,0 0.53571,-8.21429 -4.10715,-0.17857 z"
       id="path3830"
       sodipodi:nodetypes="ccccc"
       inkscape:connector-curvature="0"
       transform="matrix(1.8315019,0,0,1.8315019,-38.073303,-814.28242)" />
    <path
       style="fill:none;stroke:#494949;stroke-width:1px;stroke-linecap:butt;stroke-linejoin:miter;stroke-opacity:1;filter:url(#filter3918)"
       d="m 296.69039,739.55902 c -0.44642,0 -4.91072,-0.17858 -4.91072,-0.17858"
       id="path3832"
       inkscape:connector-curvature="0"
       transform="matrix(1.8315019,0,0,1.8315019,-38.073303,-814.28242)" />
    <path
       style="fill:#000000;fill-opacity:1;fill-rule:evenodd;stroke:#000000;stroke-width:1px;stroke-linecap:butt;stroke-linejoin:miter;stroke-opacity:1;filter:url(#filter3914)"
       d="m 318.11895,740.63045 -0.35714,8.57143 3.83929,0 0.625,-8.39286 -4.10715,-0.17857 z"
       id="path3834"
       sodipodi:nodetypes="ccccc"
       inkscape:connector-curvature="0"
       transform="matrix(1.8315019,0,0,1.8315019,-38.073303,-814.28242)" />
    <path
       style="fill:none;stroke:#494949;stroke-width:1px;stroke-linecap:butt;stroke-linejoin:miter;stroke-opacity:1;filter:url(#filter3910)"
       d="m 322.8511,739.82688 c -0.44643,0 -4.91072,-0.17858 -4.91072,-0.17858"
       id="path3836"
       inkscape:connector-curvature="0"
       transform="matrix(1.8315019,0,0,1.8315019,-38.073303,-814.28242)" />
    <path
       style="fill:#000000;fill-opacity:1;fill-rule:evenodd;stroke:#000000;stroke-width:1px;stroke-linecap:butt;stroke-linejoin:miter;stroke-opacity:1;filter:url(#filter3906)"
       d="m 343.56537,740.63045 0.0893,8.21429 3.83929,0 0.17857,-8.03572 -4.10715,-0.17857 z"
       id="path3838"
       sodipodi:nodetypes="ccccc"
       inkscape:connector-curvature="0"
       transform="matrix(1.8315019,0,0,1.8315019,-38.073303,-814.28242)" />
    <path
       style="fill:none;stroke:#494949;stroke-width:1px;stroke-linecap:butt;stroke-linejoin:miter;stroke-opacity:1;filter:url(#filter3902)"
       d="m 348.29752,739.82688 c -0.44643,0 -4.91072,-0.17858 -4.91072,-0.17858"
       id="path3840"
       inkscape:connector-curvature="0"
       transform="matrix(1.8315019,0,0,1.8315019,-38.073303,-814.28242)" />
    <path
       style="fill:#000000;fill-opacity:1;fill-rule:evenodd;stroke:#000000;stroke-width:1px;stroke-linecap:butt;stroke-linejoin:miter;stroke-opacity:1;filter:url(#filter3898)"
       d="m 369.81537,740.36259 0,8.57143 3.83929,0 0.26786,-8.39286 -4.10715,-0.17857 z"
       id="path3842"
       sodipodi:nodetypes="ccccc"
       inkscape:connector-curvature="0"
       transform="matrix(1.8315019,0,0,1.8315019,-38.073303,-814.28242)" />
    <path
       style="fill:none;stroke:#494949;stroke-width:1px;stroke-linecap:butt;stroke-linejoin:miter;stroke-opacity:1;filter:url(#filter3894)"
       d="m 374.54752,739.55902 c -0.44643,0 -4.91072,-0.17858 -4.91072,-0.17858"
       id="path3844"
       inkscape:connector-curvature="0"
       transform="matrix(1.8315019,0,0,1.8315019,-38.073303,-814.28242)" />
    <path
       style="fill:#000000;fill-opacity:1;fill-rule:evenodd;stroke:#000000;stroke-width:1px;stroke-linecap:butt;stroke-linejoin:miter;stroke-opacity:1;filter:url(#filter3890)"
       d="m 394.27966,740.98759 0.71429,8.39286 3.83929,0 -0.44643,-8.21429 -4.10715,-0.17857 z"
       id="path3846"
       sodipodi:nodetypes="ccccc"
       inkscape:connector-curvature="0"
       transform="matrix(1.8315019,0,0,1.8315019,-38.073303,-814.28242)" />
    <path
       style="fill:none;stroke:#494949;stroke-width:1px;stroke-linecap:butt;stroke-linejoin:miter;stroke-opacity:1;filter:url(#filter3886)"
       d="m 399.01181,740.18402 c -0.44643,0 -4.91072,-0.17858 -4.91072,-0.17858"
       id="path3848"
       inkscape:connector-curvature="0"
       transform="matrix(1.8315019,0,0,1.8315019,-38.073303,-814.28242)" />
    <path
       style="fill:#000000;fill-opacity:1;fill-rule:evenodd;stroke:#000000;stroke-width:1px;stroke-linecap:butt;stroke-linejoin:miter;stroke-opacity:1;filter:url(#filter3882)"
       d="m 420.61895,740.63045 0.625,8.39286 3.83929,0 -0.35714,-8.21429 -4.10715,-0.17857 z"
       id="path3850"
       sodipodi:nodetypes="ccccc"
       inkscape:connector-curvature="0"
       transform="matrix(1.8315019,0,0,1.8315019,-38.073303,-814.28242)" />
    <path
       style="fill:none;stroke:#494949;stroke-width:1px;stroke-linecap:butt;stroke-linejoin:miter;stroke-opacity:1;filter:url(#filter3878)"
       d="m 425.3511,739.82688 c -0.44643,0 -4.91072,-0.17858 -4.91072,-0.17858"
       id="path3852"
       inkscape:connector-curvature="0"
       transform="matrix(1.8315019,0,0,1.8315019,-38.073303,-814.28242)" />
    <path
       style="fill:#000000;fill-opacity:1;fill-rule:evenodd;stroke:#000000;stroke-width:1px;stroke-linecap:butt;stroke-linejoin:miter;stroke-opacity:1;filter:url(#filter3874)"
       d="m 446.15466,741.34473 0.98215,8.30357 3.83929,0 -0.71429,-8.125 -4.10715,-0.17857 z"
       id="path3854"
       sodipodi:nodetypes="ccccc"
       inkscape:connector-curvature="0"
       transform="matrix(1.8315019,0,0,1.8315019,-38.073303,-814.28242)" />
    <path
       style="fill:none;stroke:#494949;stroke-width:1px;stroke-linecap:butt;stroke-linejoin:miter;stroke-opacity:1;filter:url(#filter3870)"
       d="m 450.88681,740.54116 c -0.44643,0 -4.91072,-0.17858 -4.91072,-0.17858"
       id="path3856"
       inkscape:connector-curvature="0"
       transform="matrix(1.8315019,0,0,1.8315019,-38.073303,-814.28242)" />
    <path
       style="fill:#000000;fill-opacity:1;fill-rule:evenodd;stroke:#000000;stroke-width:1px;stroke-linecap:butt;stroke-linejoin:miter;stroke-opacity:1;filter:url(#filter3866)"
       d="m 472.1368,741.07688 1.07143,8.48214 3.83929,0 -0.80356,-8.30357 -4.10716,-0.17857 z"
       id="path3858"
       sodipodi:nodetypes="ccccc"
       inkscape:connector-curvature="0"
       transform="matrix(1.8315019,0,0,1.8315019,-38.073303,-814.28242)" />
    <path
       style="fill:none;stroke:#494949;stroke-width:1px;stroke-linecap:butt;stroke-linejoin:miter;stroke-opacity:1;filter:url(#filter3862)"
       d="m 476.86896,740.27331 c -0.44644,0 -4.91073,-0.17858 -4.91073,-0.17858"
       id="path3860"
       inkscape:connector-curvature="0"
       transform="matrix(1.8315019,0,0,1.8315019,-38.073303,-814.28242)" />
    <path
       style="fill:#010101;fill-opacity:1;fill-rule:evenodd;stroke:#000000;stroke-width:1px;stroke-linecap:butt;stroke-linejoin:miter;stroke-opacity:1;filter:url(#filter3996)"
       d="m 457.00288,731.43402 1.42857,-96.42857 -0.71429,-127.14286 c 0,0 2.38797,-10 13.57143,-10.71429 7.1639,-0.45756 11.42858,12.14286 11.42858,12.14286 l 0,142.14286 1.42857,80 -27.14286,0 z"
       id="path3986"
       sodipodi:nodetypes="cccscccc"
       inkscape:connector-curvature="0"
       transform="matrix(1.8315019,0,0,1.8315019,-38.073303,-814.28242)" />
    <g
       transform="matrix(10.900148,-10.750711,-10.750711,-10.900148,5110.6886,6039.3112)"
       id="g12">
      <g
         id="g14"
         clip-path="url(#clipPath16)">
        <g
           id="g20">
          <g
             id="g22">
            <path
               inkscape:connector-curvature="0"
               d="m 58.028,487.62 c -5.325,-5.325 -7.138,-12.839 -5.437,-19.648 l 0,0 2.22,0.554 c -1.51,6.063 0.097,12.737 4.837,17.476 l 0,0 c 3.594,3.593 8.294,5.385 13.004,5.386 l 0,0 c 4.711,-10e-4 9.411,-1.793 13.006,-5.386 l 0,0 c 3.592,-3.594 5.385,-8.294 5.386,-13.005 l 0,0 c -0.002,-4.712 -1.793,-9.411 -5.386,-13.005 l 0,0 c -4.788,-4.788 -11.552,-6.379 -17.664,-4.786 l 0,0 -0.578,-2.214 c 6.865,-1.791 14.478,0 19.86,5.382 l 0,0 c 8.076,8.076 8.075,21.169 0,29.246 l 0,0 c -4.039,4.038 -9.331,6.057 -14.624,6.057 l 0,0 c -5.292,0 -10.585,-2.019 -14.624,-6.057 m 3.269,-3.378 c -4.09,-4.089 -5.501,-9.849 -4.229,-15.084 l 0,0 2.224,0.539 c -1.088,4.493 0.116,9.42 3.623,12.927 l 0,0 c 2.676,2.675 6.174,4.009 9.683,4.01 l 0,0 c 3.507,-0.001 7.004,-1.335 9.681,-4.011 l 0,0 c 2.677,-2.676 4.009,-6.174 4.011,-9.681 l 0,0 c -0.002,-3.509 -1.335,-7.007 -4.01,-9.682 l 0,0 c -3.557,-3.558 -8.578,-4.744 -13.122,-3.571 l 0,0 -0.573,-2.217 0.001,0 c 5.294,-1.369 11.162,0.02 15.312,4.17 l 0,0 c 6.241,6.241 6.241,16.359 0,22.6 l 0,0 c -3.121,3.121 -7.211,4.681 -11.301,4.681 l 0,0 c -4.089,0 -8.179,-1.56 -11.3,-4.681 m 3.187,-3.187 c -2.907,-2.908 -3.927,-6.992 -3.061,-10.718 l 0,0 2.229,0.518 c -0.692,2.99 0.121,6.252 2.45,8.581 l 0,0 c 3.594,3.581 9.396,3.581 12.99,0 l 0,0 c 3.58,-3.592 3.58,-9.396 0,-12.989 l 0,0 c -2.378,-2.379 -5.729,-3.176 -8.77,-2.403 l 0,0 -0.566,-2.218 c 3.79,-0.968 7.985,0.034 10.954,3.002 l 0,0 c 4.48,4.482 4.479,11.745 0,16.227 l 0,0 c -2.241,2.24 -5.177,3.36 -8.113,3.36 l 0,0 c -2.936,0 -5.872,-1.12 -8.113,-3.36"
               style="fill:url(#linearGradient24);stroke:none"
               id="path30" />
          </g>
        </g>
      </g>
    </g>
  </g>
</svg>
