<?xml version="1.0" encoding="UTF-8" standalone="no"?>
<!DOCTYPE svg PUBLIC "-//W3C//DTD SVG 1.0//EN" "http://www.w3.org/TR/2001/PR-SVG-20010719/DTD/svg10.dtd">
<svg width="32cm" height="38cm" viewBox="34 15 622 747" xmlns="http://www.w3.org/2000/svg" xmlns:xlink="http://www.w3.org/1999/xlink">
  <image x="562.366" y="329.912" width="86" height="145.763" xlink:href="file:///home/kebenson/Documents/Research/images/models/devices/server.svg"/>
  <g>
    <path style="fill: #0078aa" d="M 460.756 237.768 L 460.671,236.873 L 460.486,235.978 L 460.174,235.097 L 459.733,234.23 L 459.137,233.35 L 458.441,232.497 L 457.603,231.659 L 456.665,230.835 L 455.586,230.026 L 454.392,229.244 L 453.1,228.492 L 451.693,227.724 L 450.173,227 L 448.554,226.318 L 446.821,225.665 L 445.003,225.04 L 443.113,224.429 L 441.125,223.875 L 439.065,223.349 L 436.92,222.852 L 434.704,222.397 L 432.417,222.014 L 430.087,221.616 L 427.729,221.304 L 425.3,221.005 L 422.828,220.778 L 420.328,220.565 L 417.8,220.423 L 415.271,220.281 L 412.714,220.238 L 410.157,220.196 L 410.157,220.196 L 407.586,220.238 L 405.029,220.281 L 402.501,220.423 L 399.972,220.565 L 397.472,220.778 L 395,221.005 L 392.571,221.304 L 390.199,221.616 L 387.869,222.014 L 385.596,222.397 L 383.38,222.852 L 381.235,223.349 L 379.176,223.875 L 377.187,224.429 L 375.283,225.04 L 373.479,225.665 L 371.746,226.318 L 370.127,227 L 368.607,227.724 L 367.201,228.492 L 365.908,229.244 L 364.715,230.026 L 363.635,230.835 L 362.698,231.659 L 361.859,232.497 L 361.163,233.35 L 360.567,234.23 L 360.112,235.097 L 359.785,235.978 L 359.615,236.873 L 359.544,237.768 L 359.544,237.768 L 359.615,238.648 L 359.785,239.543 L 360.112,240.424 L 360.567,241.29 L 361.163,242.171 L 361.859,243.023 L 362.698,243.862 L 363.635,244.685 L 364.715,245.495 L 365.908,246.276 L 367.201,247.058 L 368.607,247.796 L 370.127,248.521 L 371.746,249.203 L 373.479,249.885 L 375.283,250.51 L 377.187,251.092 L 379.176,251.66 L 381.235,252.172 L 383.38,252.669 L 385.596,253.123 L 387.869,253.535 L 390.199,253.905 L 392.571,254.246 L 395,254.516 L 397.472,254.771 L 399.972,254.956 L 402.501,255.126 L 405.029,255.24 L 407.586,255.311 L 410.157,255.325 L 410.157,255.325 L 412.714,255.311 L 415.271,255.24 L 417.8,255.126 L 420.328,254.956 L 422.828,254.771 L 425.3,254.516 L 427.729,254.246 L 430.087,253.905 L 432.417,253.535 L 434.704,253.123 L 436.92,252.669 L 439.065,252.172 L 441.125,251.66 L 443.113,251.092 L 445.003,250.51 L 446.821,249.885 L 448.554,249.203 L 450.173,248.521 L 451.693,247.796 L 453.1,247.058 L 454.392,246.276 L 455.586,245.495 L 456.665,244.685 L 457.603,243.862 L 458.441,243.023 L 459.137,242.171 L 459.733,241.29 L 460.174,240.424 L 460.486,239.543 L 460.671,238.648 L 460.756,237.768z"/>
    <path style="fill: none; fill-opacity:0; stroke-width: 0.02; stroke: #aae6ff" d="M 460.16 237.483 L 460.089,236.589 L 459.918,235.736 L 459.591,234.855 L 459.151,234.003 L 458.569,233.151 L 457.83,232.313 L 457.063,231.503 L 456.097,230.679 L 455.032,229.884 L 453.853,229.088 L 452.546,228.349 L 451.154,227.611 L 449.648,226.901 L 448.043,226.219 L 446.338,225.565 L 444.52,224.969 L 442.616,224.4 L 440.656,223.818 L 438.61,223.335 L 436.48,222.824 L 434.264,222.383 L 432.019,221.986 L 429.718,221.616 L 427.346,221.304 L 424.945,221.005 L 422.473,220.778 L 420.001,220.565 L 417.487,220.423 L 414.959,220.324 L 412.416,220.238 L 409.873,220.238 L 409.873,220.238 L 407.302,220.238 L 404.773,220.324 L 402.231,220.423 L 399.745,220.565 L 397.259,220.778 L 394.801,221.005 L 392.386,221.304 L 390.014,221.616 L 387.699,221.986 L 385.454,222.383 L 383.238,222.824 L 381.108,223.335 L 379.076,223.818 L 377.102,224.4 L 375.198,224.969 L 373.394,225.565 L 371.704,226.219 L 370.098,226.901 L 368.579,227.611 L 367.158,228.349 L 365.894,229.088 L 364.7,229.884 L 363.635,230.679 L 362.698,231.503 L 361.874,232.313 L 361.163,233.151 L 360.595,234.003 L 360.141,234.855 L 359.814,235.736 L 359.629,236.589 L 359.558,237.483 L 359.558,237.483 L 359.629,238.35 L 359.814,239.245 L 360.141,240.083 L 360.595,240.95 L 361.163,241.816 L 361.874,242.64 L 362.698,243.464 L 363.635,244.288 L 364.7,245.069 L 365.894,245.865 L 367.158,246.617 L 368.579,247.328 L 370.098,248.052 L 371.704,248.748 L 373.394,249.373 L 375.198,249.984 L 377.102,250.566 L 379.076,251.135 L 381.108,251.632 L 383.238,252.115 L 385.454,252.569 L 387.699,252.967 L 390.014,253.322 L 392.386,253.663 L 394.801,253.947 L 397.259,254.175 L 399.745,254.373 L 402.231,254.516 L 404.773,254.643 L 407.302,254.714 L 409.873,254.729 L 409.873,254.729 L 412.416,254.714 L 414.959,254.643 L 417.487,254.516 L 420.001,254.373 L 422.473,254.175 L 424.945,253.947 L 427.346,253.663 L 429.718,253.322 L 432.019,252.967 L 434.264,252.569 L 436.48,252.115 L 438.61,251.632 L 440.656,251.135 L 442.616,250.566 L 444.52,249.984 L 446.338,249.373 L 448.043,248.748 L 449.648,248.052 L 451.154,247.328 L 452.546,246.617 L 453.853,245.865 L 455.032,245.069 L 456.097,244.288 L 457.063,243.464 L 457.83,242.64 L 458.569,241.816 L 459.151,240.95 L 459.591,240.083 L 459.918,239.245 L 460.089,238.35 L 460.16,237.483"/>
    <path style="fill: #0078aa" d="M 359.558 213.434 L 359.558,238.094 L 460.16,238.094 L 460.16,213.434 L 359.558,213.434z"/>
    <path style="fill: #00b4ff" d="M 460.756 213.136 L 460.671,212.241 L 460.486,211.332 L 460.174,210.465 L 459.733,209.584 L 459.137,208.704 L 458.441,207.851 L 457.603,207.013 L 456.665,206.204 L 455.586,205.38 L 454.392,204.613 L 453.1,203.831 L 451.693,203.093 L 450.173,202.354 L 448.554,201.686 L 446.821,201.019 L 445.003,200.379 L 443.113,199.783 L 441.125,199.229 L 439.065,198.703 L 436.92,198.22 L 434.704,197.78 L 432.417,197.354 L 430.087,196.984 L 427.729,196.643 L 425.3,196.359 L 422.828,196.118 L 420.328,195.919 L 417.8,195.763 L 415.271,195.649 L 412.714,195.578 L 410.157,195.564 L 410.157,195.564 L 407.586,195.578 L 405.029,195.649 L 402.501,195.763 L 399.972,195.919 L 397.472,196.118 L 395,196.359 L 392.571,196.643 L 390.199,196.984 L 387.869,197.354 L 385.596,197.78 L 383.38,198.22 L 381.235,198.703 L 379.176,199.229 L 377.187,199.783 L 375.283,200.379 L 373.479,201.019 L 371.746,201.686 L 370.127,202.354 L 368.607,203.093 L 367.201,203.831 L 365.908,204.613 L 364.715,205.38 L 363.635,206.204 L 362.698,207.013 L 361.859,207.851 L 361.163,208.704 L 360.567,209.584 L 360.112,210.465 L 359.785,211.332 L 359.615,212.241 L 359.544,213.136 L 359.544,213.136 L 359.615,214.016 L 359.785,214.911 L 360.112,215.792 L 360.567,216.644 L 361.163,217.525 L 361.859,218.377 L 362.698,219.216 L 363.635,220.054 L 364.715,220.863 L 365.908,221.63 L 367.201,222.397 L 368.607,223.165 L 370.127,223.875 L 371.746,224.557 L 373.479,225.224 L 375.283,225.849 L 377.187,226.46 L 379.176,227 L 381.235,227.526 L 383.38,228.023 L 385.596,228.492 L 387.869,228.875 L 390.199,229.259 L 392.571,229.6 L 395,229.869 L 397.472,230.111 L 399.972,230.31 L 402.501,230.466 L 405.029,230.594 L 407.586,230.665 L 410.157,230.679 L 410.157,230.679 L 412.714,230.665 L 415.271,230.594 L 417.8,230.466 L 420.328,230.31 L 422.828,230.111 L 425.3,229.869 L 427.729,229.6 L 430.087,229.259 L 432.417,228.875 L 434.704,228.492 L 436.92,228.023 L 439.065,227.526 L 441.125,227 L 443.113,226.46 L 445.003,225.849 L 446.821,225.224 L 448.554,224.557 L 450.173,223.875 L 451.693,223.165 L 453.1,222.397 L 454.392,221.63 L 455.586,220.863 L 456.665,220.054 L 457.603,219.216 L 458.441,218.377 L 459.137,217.525 L 459.733,216.644 L 460.174,215.792 L 460.486,214.911 L 460.671,214.016 L 460.756,213.136z"/>
    <path style="fill: none; fill-opacity:0; stroke-width: 0.02; stroke: #aae6ff" d="M 460.16 212.837 L 460.089,211.942 L 459.918,211.09 L 459.591,210.224 L 459.151,209.357 L 458.569,208.519 L 457.83,207.652 L 457.063,206.857 L 456.097,206.033 L 455.032,205.252 L 453.853,204.442 L 452.546,203.718 L 451.154,202.965 L 449.648,202.254 L 448.043,201.601 L 446.338,200.919 L 444.52,200.351 L 442.616,199.74 L 440.656,199.186 L 438.61,198.675 L 436.48,198.178 L 434.264,197.737 L 432.019,197.339 L 429.718,196.984 L 427.346,196.643 L 424.945,196.359 L 422.473,196.132 L 420.001,195.919 L 417.487,195.777 L 414.959,195.663 L 412.416,195.592 L 409.873,195.578 L 409.873,195.578 L 407.302,195.592 L 404.773,195.663 L 402.231,195.777 L 399.745,195.919 L 397.259,196.132 L 394.801,196.359 L 392.386,196.643 L 390.014,196.984 L 387.699,197.339 L 385.454,197.737 L 383.238,198.178 L 381.108,198.675 L 379.076,199.186 L 377.102,199.74 L 375.198,200.351 L 373.394,200.919 L 371.704,201.601 L 370.098,202.254 L 368.579,202.965 L 367.158,203.718 L 365.894,204.442 L 364.7,205.252 L 363.635,206.033 L 362.698,206.857 L 361.874,207.652 L 361.163,208.519 L 360.595,209.357 L 360.141,210.224 L 359.814,211.09 L 359.629,211.942 L 359.558,212.837 L 359.558,212.837 L 359.629,213.718 L 359.814,214.585 L 360.141,215.451 L 360.595,216.303 L 361.163,217.156 L 361.874,218.008 L 362.698,218.818 L 363.635,219.642 L 364.7,220.423 L 365.894,221.218 L 367.158,221.971 L 368.579,222.682 L 370.098,223.406 L 371.704,224.088 L 373.394,224.727 L 375.198,225.338 L 377.102,225.92 L 379.076,226.474 L 381.108,226.986 L 383.238,227.483 L 385.454,227.952 L 387.699,228.321 L 390.014,228.705 L 392.386,229.031 L 394.801,229.301 L 397.259,229.557 L 399.745,229.756 L 402.231,229.884 L 404.773,230.011 L 407.302,230.083 L 409.873,230.097 L 409.873,230.097 L 412.416,230.083 L 414.959,230.011 L 417.487,229.884 L 420.001,229.756 L 422.473,229.557 L 424.945,229.301 L 427.346,229.031 L 429.718,228.705 L 432.019,228.321 L 434.264,227.952 L 436.48,227.483 L 438.61,226.986 L 440.656,226.474 L 442.616,225.92 L 444.52,225.338 L 446.338,224.727 L 448.043,224.088 L 449.648,223.406 L 451.154,222.682 L 452.546,221.971 L 453.853,221.218 L 455.032,220.423 L 456.097,219.642 L 457.063,218.818 L 457.83,218.008 L 458.569,217.156 L 459.151,216.303 L 459.591,215.451 L 459.918,214.585 L 460.089,213.718 L 460.16,212.837"/>
    <path style="fill: #000000" d="M 411.095 209.144 L 418.453,211.616 L 436.252,204.201 L 444.221,206.658 L 439.917,200.521 L 419.078,200.521 L 427.644,202.354 L 411.095,209.144z"/>
    <path style="fill: #000000" d="M 408.012 215.92 L 400.668,213.434 L 383.48,220.863 L 374.9,218.377 L 379.176,225.153 L 400.668,225.153 L 391.449,222.682 L 408.012,215.92z"/>
    <path style="fill: #000000" d="M 376.732 202.354 L 384.076,199.896 L 401.89,206.658 L 409.873,204.826 L 405.583,210.962 L 384.701,210.962 L 393.281,209.144 L 376.732,202.354z"/>
    <path style="fill: #000000" d="M 442.986 223.292 L 435.613,225.764 L 418.453,218.377 L 409.873,220.863 L 414.163,214.67 L 435.613,214.67 L 426.422,216.517 L 442.986,223.292z"/>
    <path style="fill: #ffffff" d="M 411.706 209.755 L 419.078,212.212 L 436.835,204.826 L 444.832,207.297 L 440.528,201.118 L 419.675,201.118 L 428.269,202.951 L 411.706,209.755z"/>
    <path style="fill: #ffffff" d="M 408.637 216.517 L 401.251,214.059 L 384.076,221.446 L 375.496,218.988 L 379.786,225.764 L 401.251,225.764 L 392.06,223.292 L 408.637,216.517z"/>
    <path style="fill: #ffffff" d="M 377.343 202.951 L 384.701,200.521 L 402.501,207.297 L 410.47,205.422 L 406.194,211.616 L 385.312,211.616 L 393.921,209.755 L 377.343,202.951z"/>
    <path style="fill: #ffffff" d="M 443.582 223.932 L 436.252,226.389 L 419.078,218.988 L 410.47,221.446 L 414.76,215.309 L 436.252,215.309 L 427.047,217.142 L 443.582,223.932z"/>
    <path style="fill: none; fill-opacity:0; stroke-width: 0.02; stroke: #aae6ff" d="M 359.558 212.837 L 359.558,237.455"/>
    <path style="fill: none; fill-opacity:0; stroke-width: 0.02; stroke: #aae6ff" d="M 460.16 212.837 L 460.16,237.455"/>
  </g>
  <g>
    <path style="fill: #0078aa" d="M 147.609 411.712 L 147.523,410.817 L 147.339,409.922 L 147.026,409.041 L 146.586,408.175 L 145.989,407.294 L 145.293,406.442 L 144.455,405.603 L 143.518,404.78 L 142.438,403.97 L 141.245,403.189 L 139.952,402.436 L 138.546,401.669 L 137.026,400.944 L 135.406,400.262 L 133.673,399.609 L 131.855,398.984 L 129.966,398.373 L 127.977,397.819 L 125.917,397.293 L 123.772,396.796 L 121.556,396.342 L 119.269,395.958 L 116.94,395.56 L 114.582,395.248 L 112.152,394.95 L 109.681,394.722 L 107.181,394.509 L 104.652,394.367 L 102.124,394.225 L 99.5666,394.182 L 97.0096,394.14 L 97.0096,394.14 L 94.4385,394.182 L 91.8815,394.225 L 89.353,394.367 L 86.8245,394.509 L 84.3244,394.722 L 81.8527,394.95 L 79.4236,395.248 L 77.0513,395.56 L 74.7216,395.958 L 72.4488,396.342 L 70.2328,396.796 L 68.0878,397.293 L 66.028,397.819 L 64.0393,398.373 L 62.1358,398.984 L 60.3317,399.609 L 58.5987,400.262 L 56.9793,400.944 L 55.4593,401.669 L 54.053,402.436 L 52.7603,403.189 L 51.5671,403.97 L 50.4875,404.78 L 49.55,405.603 L 48.7119,406.442 L 48.0158,407.294 L 47.4192,408.175 L 46.9646,409.041 L 46.6379,409.922 L 46.4674,410.817 L 46.3964,411.712 L 46.3964,411.712 L 46.4674,412.592 L 46.6379,413.487 L 46.9646,414.368 L 47.4192,415.235 L 48.0158,416.115 L 48.7119,416.968 L 49.55,417.806 L 50.4875,418.63 L 51.5671,419.439 L 52.7603,420.221 L 54.053,421.002 L 55.4593,421.741 L 56.9793,422.465 L 58.5987,423.147 L 60.3317,423.829 L 62.1358,424.454 L 64.0393,425.036 L 66.028,425.604 L 68.0878,426.116 L 70.2328,426.613 L 72.4488,427.068 L 74.7216,427.48 L 77.0513,427.849 L 79.4236,428.19 L 81.8527,428.46 L 84.3244,428.715 L 86.8245,428.9 L 89.353,429.071 L 91.8815,429.184 L 94.4385,429.255 L 97.0096,429.269 L 97.0096,429.269 L 99.5666,429.255 L 102.124,429.184 L 104.652,429.071 L 107.181,428.9 L 109.681,428.715 L 112.152,428.46 L 114.582,428.19 L 116.94,427.849 L 119.269,427.48 L 121.556,427.068 L 123.772,426.613 L 125.917,426.116 L 127.977,425.604 L 129.966,425.036 L 131.855,424.454 L 133.673,423.829 L 135.406,423.147 L 137.026,422.465 L 138.546,421.741 L 139.952,421.002 L 141.245,420.221 L 142.438,419.439 L 143.518,418.63 L 144.455,417.806 L 145.293,416.968 L 145.989,416.115 L 146.586,415.235 L 147.026,414.368 L 147.339,413.487 L 147.523,412.592 L 147.609,411.712z"/>
    <path style="fill: none; fill-opacity:0; stroke-width: 0.02; stroke: #aae6ff" d="M 147.012 411.428 L 146.941,410.533 L 146.771,409.68 L 146.444,408.8 L 146.003,407.947 L 145.421,407.095 L 144.682,406.257 L 143.915,405.447 L 142.949,404.623 L 141.884,403.828 L 140.705,403.032 L 139.398,402.294 L 138.006,401.555 L 136.5,400.845 L 134.895,400.163 L 133.19,399.509 L 131.372,398.913 L 129.469,398.345 L 127.508,397.762 L 125.463,397.279 L 123.332,396.768 L 121.116,396.327 L 118.871,395.93 L 116.57,395.56 L 114.198,395.248 L 111.797,394.95 L 109.326,394.722 L 106.854,394.509 L 104.34,394.367 L 101.811,394.268 L 99.2683,394.182 L 96.7255,394.182 L 96.7255,394.182 L 94.1544,394.182 L 91.6259,394.268 L 89.0831,394.367 L 86.5972,394.509 L 84.1113,394.722 L 81.6538,394.95 L 79.2389,395.248 L 76.8666,395.56 L 74.5512,395.93 L 72.3067,396.327 L 70.0907,396.768 L 67.9599,397.279 L 65.9286,397.762 L 63.9541,398.345 L 62.0506,398.913 L 60.2465,399.509 L 58.5561,400.163 L 56.9509,400.845 L 55.4309,401.555 L 54.0104,402.294 L 52.7461,403.032 L 51.5529,403.828 L 50.4875,404.623 L 49.55,405.447 L 48.7261,406.257 L 48.0158,407.095 L 47.4476,407.947 L 46.993,408.8 L 46.6663,409.68 L 46.4816,410.533 L 46.4106,411.428 L 46.4106,411.428 L 46.4816,412.294 L 46.6663,413.189 L 46.993,414.027 L 47.4476,414.894 L 48.0158,415.76 L 48.7261,416.584 L 49.55,417.408 L 50.4875,418.232 L 51.5529,419.013 L 52.7461,419.809 L 54.0104,420.562 L 55.4309,421.272 L 56.9509,421.996 L 58.5561,422.692 L 60.2465,423.317 L 62.0506,423.928 L 63.9541,424.511 L 65.9286,425.079 L 67.9599,425.576 L 70.0907,426.059 L 72.3067,426.514 L 74.5512,426.911 L 76.8666,427.266 L 79.2389,427.607 L 81.6538,427.891 L 84.1113,428.119 L 86.5972,428.318 L 89.0831,428.46 L 91.6259,428.588 L 94.1544,428.659 L 96.7255,428.673 L 96.7255,428.673 L 99.2683,428.659 L 101.811,428.588 L 104.34,428.46 L 106.854,428.318 L 109.326,428.119 L 111.797,427.891 L 114.198,427.607 L 116.57,427.266 L 118.871,426.911 L 121.116,426.514 L 123.332,426.059 L 125.463,425.576 L 127.508,425.079 L 129.469,424.511 L 131.372,423.928 L 133.19,423.317 L 134.895,422.692 L 136.5,421.996 L 138.006,421.272 L 139.398,420.562 L 140.705,419.809 L 141.884,419.013 L 142.949,418.232 L 143.915,417.408 L 144.682,416.584 L 145.421,415.76 L 146.003,414.894 L 146.444,414.027 L 146.771,413.189 L 146.941,412.294 L 147.012,411.428"/>
    <path style="fill: #0078aa" d="M 46.4106 387.378 L 46.4106,412.038 L 147.012,412.038 L 147.012,387.378 L 46.4106,387.378z"/>
    <path style="fill: #00b4ff" d="M 147.609 387.08 L 147.523,386.185 L 147.339,385.276 L 147.026,384.409 L 146.586,383.529 L 145.989,382.648 L 145.293,381.796 L 144.455,380.957 L 143.518,380.148 L 142.438,379.324 L 141.245,378.557 L 139.952,377.775 L 138.546,377.037 L 137.026,376.298 L 135.406,375.63 L 133.673,374.963 L 131.855,374.324 L 129.966,373.727 L 127.977,373.173 L 125.917,372.647 L 123.772,372.164 L 121.556,371.724 L 119.269,371.298 L 116.94,370.929 L 114.582,370.588 L 112.152,370.303 L 109.681,370.062 L 107.181,369.863 L 104.652,369.707 L 102.124,369.593 L 99.5666,369.522 L 97.0096,369.508 L 97.0096,369.508 L 94.4385,369.522 L 91.8815,369.593 L 89.353,369.707 L 86.8245,369.863 L 84.3244,370.062 L 81.8527,370.303 L 79.4236,370.588 L 77.0513,370.929 L 74.7216,371.298 L 72.4488,371.724 L 70.2328,372.164 L 68.0878,372.647 L 66.028,373.173 L 64.0393,373.727 L 62.1358,374.324 L 60.3317,374.963 L 58.5987,375.63 L 56.9793,376.298 L 55.4593,377.037 L 54.053,377.775 L 52.7603,378.557 L 51.5671,379.324 L 50.4875,380.148 L 49.55,380.957 L 48.7119,381.796 L 48.0158,382.648 L 47.4192,383.529 L 46.9646,384.409 L 46.6379,385.276 L 46.4674,386.185 L 46.3964,387.08 L 46.3964,387.08 L 46.4674,387.961 L 46.6379,388.856 L 46.9646,389.736 L 47.4192,390.589 L 48.0158,391.469 L 48.7119,392.322 L 49.55,393.16 L 50.4875,393.998 L 51.5671,394.808 L 52.7603,395.575 L 54.053,396.342 L 55.4593,397.109 L 56.9793,397.819 L 58.5987,398.501 L 60.3317,399.169 L 62.1358,399.794 L 64.0393,400.404 L 66.028,400.944 L 68.0878,401.47 L 70.2328,401.967 L 72.4488,402.436 L 74.7216,402.819 L 77.0513,403.203 L 79.4236,403.544 L 81.8527,403.814 L 84.3244,404.055 L 86.8245,404.254 L 89.353,404.41 L 91.8815,404.538 L 94.4385,404.609 L 97.0096,404.623 L 97.0096,404.623 L 99.5666,404.609 L 102.124,404.538 L 104.652,404.41 L 107.181,404.254 L 109.681,404.055 L 112.152,403.814 L 114.582,403.544 L 116.94,403.203 L 119.269,402.819 L 121.556,402.436 L 123.772,401.967 L 125.917,401.47 L 127.977,400.944 L 129.966,400.404 L 131.855,399.794 L 133.673,399.169 L 135.406,398.501 L 137.026,397.819 L 138.546,397.109 L 139.952,396.342 L 141.245,395.575 L 142.438,394.808 L 143.518,393.998 L 144.455,393.16 L 145.293,392.322 L 145.989,391.469 L 146.586,390.589 L 147.026,389.736 L 147.339,388.856 L 147.523,387.961 L 147.609,387.08z"/>
    <path style="fill: none; fill-opacity:0; stroke-width: 0.02; stroke: #aae6ff" d="M 147.012 386.782 L 146.941,385.887 L 146.771,385.034 L 146.444,384.168 L 146.003,383.301 L 145.421,382.463 L 144.682,381.597 L 143.915,380.801 L 142.949,379.977 L 141.884,379.196 L 140.705,378.386 L 139.398,377.662 L 138.006,376.909 L 136.5,376.199 L 134.895,375.545 L 133.19,374.863 L 131.372,374.295 L 129.469,373.684 L 127.508,373.13 L 125.463,372.619 L 123.332,372.122 L 121.116,371.681 L 118.871,371.284 L 116.57,370.929 L 114.198,370.588 L 111.797,370.303 L 109.326,370.076 L 106.854,369.863 L 104.34,369.721 L 101.811,369.607 L 99.2683,369.536 L 96.7255,369.522 L 96.7255,369.522 L 94.1544,369.536 L 91.6259,369.607 L 89.0831,369.721 L 86.5972,369.863 L 84.1113,370.076 L 81.6538,370.303 L 79.2389,370.588 L 76.8666,370.929 L 74.5512,371.284 L 72.3067,371.681 L 70.0907,372.122 L 67.9599,372.619 L 65.9286,373.13 L 63.9541,373.684 L 62.0506,374.295 L 60.2465,374.863 L 58.5561,375.545 L 56.9509,376.199 L 55.4309,376.909 L 54.0104,377.662 L 52.7461,378.386 L 51.5529,379.196 L 50.4875,379.977 L 49.55,380.801 L 48.7261,381.597 L 48.0158,382.463 L 47.4476,383.301 L 46.993,384.168 L 46.6663,385.034 L 46.4816,385.887 L 46.4106,386.782 L 46.4106,386.782 L 46.4816,387.662 L 46.6663,388.529 L 46.993,389.395 L 47.4476,390.248 L 48.0158,391.1 L 48.7261,391.952 L 49.55,392.762 L 50.4875,393.586 L 51.5529,394.367 L 52.7461,395.163 L 54.0104,395.916 L 55.4309,396.626 L 56.9509,397.35 L 58.5561,398.032 L 60.2465,398.671 L 62.0506,399.282 L 63.9541,399.865 L 65.9286,400.419 L 67.9599,400.93 L 70.0907,401.427 L 72.3067,401.896 L 74.5512,402.265 L 76.8666,402.649 L 79.2389,402.976 L 81.6538,403.245 L 84.1113,403.501 L 86.5972,403.7 L 89.0831,403.828 L 91.6259,403.956 L 94.1544,404.027 L 96.7255,404.041 L 96.7255,404.041 L 99.2683,404.027 L 101.811,403.956 L 104.34,403.828 L 106.854,403.7 L 109.326,403.501 L 111.797,403.245 L 114.198,402.976 L 116.57,402.649 L 118.871,402.265 L 121.116,401.896 L 123.332,401.427 L 125.463,400.93 L 127.508,400.419 L 129.469,399.865 L 131.372,399.282 L 133.19,398.671 L 134.895,398.032 L 136.5,397.35 L 138.006,396.626 L 139.398,395.916 L 140.705,395.163 L 141.884,394.367 L 142.949,393.586 L 143.915,392.762 L 144.682,391.952 L 145.421,391.1 L 146.003,390.248 L 146.444,389.395 L 146.771,388.529 L 146.941,387.662 L 147.012,386.782"/>
    <path style="fill: #000000" d="M 97.9472 383.088 L 105.305,385.56 L 123.105,378.145 L 131.074,380.602 L 126.77,374.466 L 105.931,374.466 L 114.496,376.298 L 97.9472,383.088z"/>
    <path style="fill: #000000" d="M 94.8646 389.864 L 87.5205,387.378 L 70.3322,394.808 L 61.7523,392.322 L 66.028,399.097 L 87.5205,399.097 L 78.3013,396.626 L 94.8646,389.864z"/>
    <path style="fill: #000000" d="M 63.5847 376.298 L 70.9288,373.841 L 88.7422,380.602 L 96.7255,378.77 L 92.4356,384.906 L 71.5539,384.906 L 80.1338,383.088 L 63.5847,376.298z"/>
    <path style="fill: #000000" d="M 129.838 397.237 L 122.465,399.708 L 105.305,392.322 L 96.7255,394.808 L 101.016,388.614 L 122.465,388.614 L 113.275,390.461 L 129.838,397.237z"/>
    <path style="fill: #ffffff" d="M 98.558 383.699 L 105.931,386.157 L 123.687,378.77 L 131.685,381.242 L 127.38,375.062 L 106.527,375.062 L 115.121,376.895 L 98.558,383.699z"/>
    <path style="fill: #ffffff" d="M 95.4897 390.461 L 88.103,388.003 L 70.9288,395.39 L 62.3489,392.932 L 66.6389,399.708 L 88.103,399.708 L 78.9122,397.237 L 95.4897,390.461z"/>
    <path style="fill: #ffffff" d="M 64.1956 376.895 L 71.5539,374.466 L 89.353,381.242 L 97.3222,379.366 L 93.0464,385.56 L 72.1647,385.56 L 80.7731,383.699 L 64.1956,376.895z"/>
    <path style="fill: #ffffff" d="M 130.435 397.876 L 123.105,400.333 L 105.931,392.932 L 97.3222,395.39 L 101.612,389.253 L 123.105,389.253 L 113.9,391.086 L 130.435,397.876z"/>
    <path style="fill: none; fill-opacity:0; stroke-width: 0.02; stroke: #aae6ff" d="M 46.4106 386.782 L 46.4106,411.399"/>
    <path style="fill: none; fill-opacity:0; stroke-width: 0.02; stroke: #aae6ff" d="M 147.012 386.782 L 147.012,411.399"/>
  </g>
  <image x="377.844" y="17.9753" width="115.2" height="86.688" xlink:href="file:///home/kebenson/Documents/Research/images/models/devices/computer.svg"/>
  <image x="35.3038" y="16.4471" width="115.2" height="86.688" xlink:href="file:///home/kebenson/Documents/Research/images/models/devices/computer.svg"/>
  <image x="206.706" y="47.6368" width="115.2" height="86.688" xlink:href="file:///home/kebenson/Documents/Research/images/models/devices/computer.svg"/>
  <line style="fill: none; fill-opacity:0; stroke-width: 6; stroke: #000000" x1="414.699" y1="195.767" x2="428.459" y2="106.589"/>
  <line style="fill: none; fill-opacity:0; stroke-width: 6; stroke: #000000" x1="118.115" y1="105.126" x2="170.482" y2="199.293"/>
  <g>
    <path style="fill: #0078aa" d="M 392.524 409.232 L 392.439,408.337 L 392.254,407.442 L 391.942,406.561 L 391.501,405.695 L 390.905,404.814 L 390.209,403.962 L 389.371,403.123 L 388.433,402.3 L 387.354,401.49 L 386.16,400.709 L 384.868,399.956 L 383.461,399.189 L 381.941,398.464 L 380.322,397.782 L 378.589,397.129 L 376.771,396.504 L 374.881,395.893 L 372.893,395.339 L 370.833,394.813 L 368.688,394.316 L 366.472,393.862 L 364.185,393.478 L 361.855,393.08 L 359.497,392.768 L 357.068,392.47 L 354.596,392.242 L 352.096,392.029 L 349.568,391.887 L 347.039,391.745 L 344.482,391.702 L 341.925,391.66 L 341.925,391.66 L 339.354,391.702 L 336.797,391.745 L 334.269,391.887 L 331.74,392.029 L 329.24,392.242 L 326.768,392.47 L 324.339,392.768 L 321.967,393.08 L 319.637,393.478 L 317.364,393.862 L 315.148,394.316 L 313.003,394.813 L 310.944,395.339 L 308.955,395.893 L 307.051,396.504 L 305.247,397.129 L 303.514,397.782 L 301.895,398.464 L 300.375,399.189 L 298.969,399.956 L 297.676,400.709 L 296.483,401.49 L 295.403,402.3 L 294.466,403.123 L 293.627,403.962 L 292.931,404.814 L 292.335,405.695 L 291.88,406.561 L 291.553,407.442 L 291.383,408.337 L 291.312,409.232 L 291.312,409.232 L 291.383,410.112 L 291.553,411.007 L 291.88,411.888 L 292.335,412.755 L 292.931,413.635 L 293.627,414.488 L 294.466,415.326 L 295.403,416.15 L 296.483,416.959 L 297.676,417.741 L 298.969,418.522 L 300.375,419.261 L 301.895,419.985 L 303.514,420.667 L 305.247,421.349 L 307.051,421.974 L 308.955,422.556 L 310.944,423.124 L 313.003,423.636 L 315.148,424.133 L 317.364,424.588 L 319.637,425 L 321.967,425.369 L 324.339,425.71 L 326.768,425.98 L 329.24,426.235 L 331.74,426.42 L 334.269,426.591 L 336.797,426.704 L 339.354,426.775 L 341.925,426.789 L 341.925,426.789 L 344.482,426.775 L 347.039,426.704 L 349.568,426.591 L 352.096,426.42 L 354.596,426.235 L 357.068,425.98 L 359.497,425.71 L 361.855,425.369 L 364.185,425 L 366.472,424.588 L 368.688,424.133 L 370.833,423.636 L 372.893,423.124 L 374.881,422.556 L 376.771,421.974 L 378.589,421.349 L 380.322,420.667 L 381.941,419.985 L 383.461,419.261 L 384.868,418.522 L 386.16,417.741 L 387.354,416.959 L 388.433,416.15 L 389.371,415.326 L 390.209,414.488 L 390.905,413.635 L 391.501,412.755 L 391.942,411.888 L 392.254,411.007 L 392.439,410.112 L 392.524,409.232z"/>
    <path style="fill: none; fill-opacity:0; stroke-width: 0.02; stroke: #aae6ff" d="M 391.928 408.948 L 391.857,408.053 L 391.686,407.2 L 391.359,406.32 L 390.919,405.467 L 390.337,404.615 L 389.598,403.777 L 388.831,402.967 L 387.865,402.143 L 386.8,401.348 L 385.621,400.552 L 384.314,399.814 L 382.922,399.075 L 381.416,398.365 L 379.811,397.683 L 378.106,397.029 L 376.288,396.433 L 374.384,395.865 L 372.424,395.282 L 370.378,394.799 L 368.248,394.288 L 366.032,393.847 L 363.787,393.45 L 361.486,393.08 L 359.114,392.768 L 356.713,392.47 L 354.241,392.242 L 351.769,392.029 L 349.255,391.887 L 346.727,391.788 L 344.184,391.702 L 341.641,391.702 L 341.641,391.702 L 339.07,391.702 L 336.541,391.788 L 333.999,391.887 L 331.513,392.029 L 329.027,392.242 L 326.569,392.47 L 324.154,392.768 L 321.782,393.08 L 319.467,393.45 L 317.222,393.847 L 315.006,394.288 L 312.876,394.799 L 310.844,395.282 L 308.87,395.865 L 306.966,396.433 L 305.162,397.029 L 303.472,397.683 L 301.866,398.365 L 300.347,399.075 L 298.926,399.814 L 297.662,400.552 L 296.468,401.348 L 295.403,402.143 L 294.466,402.967 L 293.642,403.777 L 292.931,404.615 L 292.363,405.467 L 291.909,406.32 L 291.582,407.2 L 291.397,408.053 L 291.326,408.948 L 291.326,408.948 L 291.397,409.814 L 291.582,410.709 L 291.909,411.547 L 292.363,412.414 L 292.931,413.28 L 293.642,414.104 L 294.466,414.928 L 295.403,415.752 L 296.468,416.533 L 297.662,417.329 L 298.926,418.082 L 300.347,418.792 L 301.866,419.516 L 303.472,420.212 L 305.162,420.837 L 306.966,421.448 L 308.87,422.031 L 310.844,422.599 L 312.876,423.096 L 315.006,423.579 L 317.222,424.034 L 319.467,424.431 L 321.782,424.786 L 324.154,425.127 L 326.569,425.411 L 329.027,425.639 L 331.513,425.838 L 333.999,425.98 L 336.541,426.108 L 339.07,426.179 L 341.641,426.193 L 341.641,426.193 L 344.184,426.179 L 346.727,426.108 L 349.255,425.98 L 351.769,425.838 L 354.241,425.639 L 356.713,425.411 L 359.114,425.127 L 361.486,424.786 L 363.787,424.431 L 366.032,424.034 L 368.248,423.579 L 370.378,423.096 L 372.424,422.599 L 374.384,422.031 L 376.288,421.448 L 378.106,420.837 L 379.811,420.212 L 381.416,419.516 L 382.922,418.792 L 384.314,418.082 L 385.621,417.329 L 386.8,416.533 L 387.865,415.752 L 388.831,414.928 L 389.598,414.104 L 390.337,413.28 L 390.919,412.414 L 391.359,411.547 L 391.686,410.709 L 391.857,409.814 L 391.928,408.948"/>
    <path style="fill: #0078aa" d="M 291.326 384.898 L 291.326,409.558 L 391.928,409.558 L 391.928,384.898 L 291.326,384.898z"/>
    <path style="fill: #00b4ff" d="M 392.524 384.6 L 392.439,383.705 L 392.254,382.796 L 391.942,381.929 L 391.501,381.049 L 390.905,380.168 L 390.209,379.316 L 389.371,378.477 L 388.433,377.668 L 387.354,376.844 L 386.16,376.077 L 384.868,375.295 L 383.461,374.557 L 381.941,373.818 L 380.322,373.15 L 378.589,372.483 L 376.771,371.844 L 374.881,371.247 L 372.893,370.693 L 370.833,370.167 L 368.688,369.684 L 366.472,369.244 L 364.185,368.818 L 361.855,368.449 L 359.497,368.108 L 357.068,367.823 L 354.596,367.582 L 352.096,367.383 L 349.568,367.227 L 347.039,367.113 L 344.482,367.042 L 341.925,367.028 L 341.925,367.028 L 339.354,367.042 L 336.797,367.113 L 334.269,367.227 L 331.74,367.383 L 329.24,367.582 L 326.768,367.823 L 324.339,368.108 L 321.967,368.449 L 319.637,368.818 L 317.364,369.244 L 315.148,369.684 L 313.003,370.167 L 310.944,370.693 L 308.955,371.247 L 307.051,371.844 L 305.247,372.483 L 303.514,373.15 L 301.895,373.818 L 300.375,374.557 L 298.969,375.295 L 297.676,376.077 L 296.483,376.844 L 295.403,377.668 L 294.466,378.477 L 293.627,379.316 L 292.931,380.168 L 292.335,381.049 L 291.88,381.929 L 291.553,382.796 L 291.383,383.705 L 291.312,384.6 L 291.312,384.6 L 291.383,385.481 L 291.553,386.376 L 291.88,387.256 L 292.335,388.109 L 292.931,388.989 L 293.627,389.842 L 294.466,390.68 L 295.403,391.518 L 296.483,392.328 L 297.676,393.095 L 298.969,393.862 L 300.375,394.629 L 301.895,395.339 L 303.514,396.021 L 305.247,396.689 L 307.051,397.314 L 308.955,397.924 L 310.944,398.464 L 313.003,398.99 L 315.148,399.487 L 317.364,399.956 L 319.637,400.339 L 321.967,400.723 L 324.339,401.064 L 326.768,401.334 L 329.24,401.575 L 331.74,401.774 L 334.269,401.93 L 336.797,402.058 L 339.354,402.129 L 341.925,402.143 L 341.925,402.143 L 344.482,402.129 L 347.039,402.058 L 349.568,401.93 L 352.096,401.774 L 354.596,401.575 L 357.068,401.334 L 359.497,401.064 L 361.855,400.723 L 364.185,400.339 L 366.472,399.956 L 368.688,399.487 L 370.833,398.99 L 372.893,398.464 L 374.881,397.924 L 376.771,397.314 L 378.589,396.689 L 380.322,396.021 L 381.941,395.339 L 383.461,394.629 L 384.868,393.862 L 386.16,393.095 L 387.354,392.328 L 388.433,391.518 L 389.371,390.68 L 390.209,389.842 L 390.905,388.989 L 391.501,388.109 L 391.942,387.256 L 392.254,386.376 L 392.439,385.481 L 392.524,384.6z"/>
    <path style="fill: none; fill-opacity:0; stroke-width: 0.02; stroke: #aae6ff" d="M 391.928 384.302 L 391.857,383.407 L 391.686,382.554 L 391.359,381.688 L 390.919,380.821 L 390.337,379.983 L 389.598,379.117 L 388.831,378.321 L 387.865,377.497 L 386.8,376.716 L 385.621,375.906 L 384.314,375.182 L 382.922,374.429 L 381.416,373.719 L 379.811,373.065 L 378.106,372.383 L 376.288,371.815 L 374.384,371.204 L 372.424,370.65 L 370.378,370.139 L 368.248,369.642 L 366.032,369.201 L 363.787,368.804 L 361.486,368.449 L 359.114,368.108 L 356.713,367.823 L 354.241,367.596 L 351.769,367.383 L 349.255,367.241 L 346.727,367.127 L 344.184,367.056 L 341.641,367.042 L 341.641,367.042 L 339.07,367.056 L 336.541,367.127 L 333.999,367.241 L 331.513,367.383 L 329.027,367.596 L 326.569,367.823 L 324.154,368.108 L 321.782,368.449 L 319.467,368.804 L 317.222,369.201 L 315.006,369.642 L 312.876,370.139 L 310.844,370.65 L 308.87,371.204 L 306.966,371.815 L 305.162,372.383 L 303.472,373.065 L 301.866,373.719 L 300.347,374.429 L 298.926,375.182 L 297.662,375.906 L 296.468,376.716 L 295.403,377.497 L 294.466,378.321 L 293.642,379.117 L 292.931,379.983 L 292.363,380.821 L 291.909,381.688 L 291.582,382.554 L 291.397,383.407 L 291.326,384.302 L 291.326,384.302 L 291.397,385.182 L 291.582,386.049 L 291.909,386.915 L 292.363,387.768 L 292.931,388.62 L 293.642,389.472 L 294.466,390.282 L 295.403,391.106 L 296.468,391.887 L 297.662,392.683 L 298.926,393.436 L 300.347,394.146 L 301.866,394.87 L 303.472,395.552 L 305.162,396.191 L 306.966,396.802 L 308.87,397.385 L 310.844,397.939 L 312.876,398.45 L 315.006,398.947 L 317.222,399.416 L 319.467,399.785 L 321.782,400.169 L 324.154,400.496 L 326.569,400.765 L 329.027,401.021 L 331.513,401.22 L 333.999,401.348 L 336.541,401.476 L 339.07,401.547 L 341.641,401.561 L 341.641,401.561 L 344.184,401.547 L 346.727,401.476 L 349.255,401.348 L 351.769,401.22 L 354.241,401.021 L 356.713,400.765 L 359.114,400.496 L 361.486,400.169 L 363.787,399.785 L 366.032,399.416 L 368.248,398.947 L 370.378,398.45 L 372.424,397.939 L 374.384,397.385 L 376.288,396.802 L 378.106,396.191 L 379.811,395.552 L 381.416,394.87 L 382.922,394.146 L 384.314,393.436 L 385.621,392.683 L 386.8,391.887 L 387.865,391.106 L 388.831,390.282 L 389.598,389.472 L 390.337,388.62 L 390.919,387.768 L 391.359,386.915 L 391.686,386.049 L 391.857,385.182 L 391.928,384.302"/>
    <path style="fill: #000000" d="M 342.863 380.608 L 350.221,383.08 L 368.02,375.665 L 375.989,378.122 L 371.685,371.986 L 350.846,371.986 L 359.412,373.818 L 342.863,380.608z"/>
    <path style="fill: #000000" d="M 339.78 387.384 L 332.436,384.898 L 315.248,392.328 L 306.668,389.842 L 310.944,396.617 L 332.436,396.617 L 323.217,394.146 L 339.78,387.384z"/>
    <path style="fill: #000000" d="M 308.5 373.818 L 315.844,371.361 L 333.658,378.122 L 341.641,376.29 L 337.351,382.426 L 316.469,382.426 L 325.049,380.608 L 308.5,373.818z"/>
    <path style="fill: #000000" d="M 374.754 394.757 L 367.381,397.228 L 350.221,389.842 L 341.641,392.328 L 345.931,386.134 L 367.381,386.134 L 358.19,387.981 L 374.754,394.757z"/>
    <path style="fill: #ffffff" d="M 343.474 381.219 L 350.846,383.677 L 368.603,376.29 L 376.6,378.762 L 372.296,372.582 L 351.443,372.582 L 360.037,374.415 L 343.474,381.219z"/>
    <path style="fill: #ffffff" d="M 340.405 387.981 L 333.019,385.523 L 315.844,392.91 L 307.264,390.452 L 311.554,397.228 L 333.019,397.228 L 323.828,394.757 L 340.405,387.981z"/>
    <path style="fill: #ffffff" d="M 309.111 374.415 L 316.469,371.986 L 334.269,378.762 L 342.238,376.886 L 337.962,383.08 L 317.08,383.08 L 325.689,381.219 L 309.111,374.415z"/>
    <path style="fill: #ffffff" d="M 375.35 395.396 L 368.02,397.853 L 350.846,390.452 L 342.238,392.91 L 346.528,386.773 L 368.02,386.773 L 358.815,388.606 L 375.35,395.396z"/>
    <path style="fill: none; fill-opacity:0; stroke-width: 0.02; stroke: #aae6ff" d="M 291.326 384.302 L 291.326,408.919"/>
    <path style="fill: none; fill-opacity:0; stroke-width: 0.02; stroke: #aae6ff" d="M 391.928 384.302 L 391.928,408.919"/>
  </g>
  <g>
    <rect style="fill: #ffffff" x="78.9276" y="374.208" width="36.1" height="31.55"/>
    <text font-size="27.0933" style="fill: #000000;text-anchor:middle;font-family:sans-serif;font-style:normal;font-weight:normal" x="96.9776" y="399.358">
      <tspan x="96.9776" y="399.358">R3</tspan>
    </text>
  </g>
  <g>
    <rect style="fill: #ffffff" x="323.842" y="371.728" width="36.1" height="31.55"/>
    <text font-size="27.0933" style="fill: #000000;text-anchor:middle;font-family:sans-serif;font-style:normal;font-weight:normal" x="341.892" y="396.878">
      <tspan x="341.892" y="396.878">R1</tspan>
    </text>
  </g>
  <g>
    <rect style="fill: #ffffff" x="392.076" y="200.262" width="36.1" height="31.55"/>
    <text font-size="27.0933" style="fill: #000000;text-anchor:middle;font-family:sans-serif;font-style:normal;font-weight:normal" x="410.126" y="225.412">
      <tspan x="410.126" y="225.412">R2</tspan>
    </text>
  </g>
  <g>
    <rect style="fill: #ffffff" x="245.506" y="65.8308" width="37.6" height="31.55"/>
    <text font-size="27.0933" style="fill: #000000;text-anchor:middle;font-family:sans-serif;font-style:normal;font-weight:normal" x="264.306" y="90.9808">
      <tspan x="264.306" y="90.9808">H3</tspan>
    </text>
  </g>
  <g>
    <rect style="fill: #ffffff" x="560.941" y="377.644" width="88.85" height="31.55"/>
    <text font-size="27.0933" style="fill: #000000;text-anchor:middle;font-family:sans-serif;font-style:normal;font-weight:normal" x="605.366" y="402.794">
      <tspan x="605.366" y="402.794">Server</tspan>
    </text>
  </g>
  <g>
    <rect style="fill: #ffffff" x="74.1038" y="34.6412" width="37.6" height="31.55"/>
    <text font-size="27.0933" style="fill: #000000;text-anchor:middle;font-family:sans-serif;font-style:normal;font-weight:normal" x="92.9038" y="59.7912">
      <tspan x="92.9038" y="59.7912">H4</tspan>
    </text>
  </g>
  <g>
    <rect style="fill: #ffffff" x="416.644" y="36.1692" width="37.6" height="31.55"/>
    <text font-size="27.0933" style="fill: #000000;text-anchor:middle;font-family:sans-serif;font-style:normal;font-weight:normal" x="435.444" y="61.3192">
      <tspan x="435.444" y="61.3192">H2</tspan>
    </text>
  </g>
  <g>
    <path style="fill: #0078aa" d="M 237.221 240.614 L 237.136,239.719 L 236.951,238.824 L 236.639,237.943 L 236.198,237.077 L 235.602,236.196 L 234.906,235.344 L 234.068,234.505 L 233.13,233.682 L 232.051,232.872 L 230.857,232.091 L 229.565,231.338 L 228.158,230.571 L 226.638,229.846 L 225.019,229.164 L 223.286,228.511 L 221.468,227.886 L 219.578,227.275 L 217.59,226.721 L 215.53,226.195 L 213.385,225.698 L 211.169,225.244 L 208.882,224.86 L 206.552,224.462 L 204.194,224.15 L 201.765,223.852 L 199.293,223.624 L 196.793,223.411 L 194.265,223.269 L 191.736,223.127 L 189.179,223.084 L 186.622,223.042 L 186.622,223.042 L 184.051,223.084 L 181.494,223.127 L 178.966,223.269 L 176.437,223.411 L 173.937,223.624 L 171.465,223.852 L 169.036,224.15 L 166.664,224.462 L 164.334,224.86 L 162.061,225.244 L 159.845,225.698 L 157.7,226.195 L 155.641,226.721 L 153.652,227.275 L 151.748,227.886 L 149.944,228.511 L 148.211,229.164 L 146.592,229.846 L 145.072,230.571 L 143.666,231.338 L 142.373,232.091 L 141.18,232.872 L 140.1,233.682 L 139.163,234.505 L 138.324,235.344 L 137.628,236.196 L 137.032,237.077 L 136.577,237.943 L 136.25,238.824 L 136.08,239.719 L 136.009,240.614 L 136.009,240.614 L 136.08,241.494 L 136.25,242.389 L 136.577,243.27 L 137.032,244.137 L 137.628,245.017 L 138.324,245.87 L 139.163,246.708 L 140.1,247.532 L 141.18,248.341 L 142.373,249.123 L 143.666,249.904 L 145.072,250.643 L 146.592,251.367 L 148.211,252.049 L 149.944,252.731 L 151.748,253.356 L 153.652,253.938 L 155.641,254.506 L 157.7,255.018 L 159.845,255.515 L 162.061,255.97 L 164.334,256.382 L 166.664,256.751 L 169.036,257.092 L 171.465,257.362 L 173.937,257.617 L 176.437,257.802 L 178.966,257.973 L 181.494,258.086 L 184.051,258.157 L 186.622,258.171 L 186.622,258.171 L 189.179,258.157 L 191.736,258.086 L 194.265,257.973 L 196.793,257.802 L 199.293,257.617 L 201.765,257.362 L 204.194,257.092 L 206.552,256.751 L 208.882,256.382 L 211.169,255.97 L 213.385,255.515 L 215.53,255.018 L 217.59,254.506 L 219.578,253.938 L 221.468,253.356 L 223.286,252.731 L 225.019,252.049 L 226.638,251.367 L 228.158,250.643 L 229.565,249.904 L 230.857,249.123 L 232.051,248.341 L 233.13,247.532 L 234.068,246.708 L 234.906,245.87 L 235.602,245.017 L 236.198,244.137 L 236.639,243.27 L 236.951,242.389 L 237.136,241.494 L 237.221,240.614z"/>
    <path style="fill: none; fill-opacity:0; stroke-width: 0.02; stroke: #aae6ff" d="M 236.625 240.33 L 236.554,239.435 L 236.383,238.582 L 236.056,237.702 L 235.616,236.849 L 235.034,235.997 L 234.295,235.159 L 233.528,234.349 L 232.562,233.525 L 231.497,232.73 L 230.318,231.934 L 229.011,231.196 L 227.619,230.457 L 226.113,229.747 L 224.508,229.065 L 222.803,228.411 L 220.985,227.815 L 219.081,227.247 L 217.121,226.664 L 215.075,226.181 L 212.945,225.67 L 210.729,225.229 L 208.484,224.832 L 206.183,224.462 L 203.811,224.15 L 201.41,223.852 L 198.938,223.624 L 196.466,223.411 L 193.952,223.269 L 191.424,223.17 L 188.881,223.084 L 186.338,223.084 L 186.338,223.084 L 183.767,223.084 L 181.238,223.17 L 178.696,223.269 L 176.21,223.411 L 173.724,223.624 L 171.266,223.852 L 168.851,224.15 L 166.479,224.462 L 164.164,224.832 L 161.919,225.229 L 159.703,225.67 L 157.573,226.181 L 155.541,226.664 L 153.567,227.247 L 151.663,227.815 L 149.859,228.411 L 148.169,229.065 L 146.563,229.747 L 145.044,230.457 L 143.623,231.196 L 142.359,231.934 L 141.165,232.73 L 140.1,233.525 L 139.163,234.349 L 138.339,235.159 L 137.628,235.997 L 137.06,236.849 L 136.606,237.702 L 136.279,238.582 L 136.094,239.435 L 136.023,240.33 L 136.023,240.33 L 136.094,241.196 L 136.279,242.091 L 136.606,242.929 L 137.06,243.796 L 137.628,244.662 L 138.339,245.486 L 139.163,246.31 L 140.1,247.134 L 141.165,247.915 L 142.359,248.711 L 143.623,249.464 L 145.044,250.174 L 146.563,250.898 L 148.169,251.594 L 149.859,252.219 L 151.663,252.83 L 153.567,253.413 L 155.541,253.981 L 157.573,254.478 L 159.703,254.961 L 161.919,255.416 L 164.164,255.813 L 166.479,256.168 L 168.851,256.509 L 171.266,256.793 L 173.724,257.021 L 176.21,257.22 L 178.696,257.362 L 181.238,257.49 L 183.767,257.561 L 186.338,257.575 L 186.338,257.575 L 188.881,257.561 L 191.424,257.49 L 193.952,257.362 L 196.466,257.22 L 198.938,257.021 L 201.41,256.793 L 203.811,256.509 L 206.183,256.168 L 208.484,255.813 L 210.729,255.416 L 212.945,254.961 L 215.075,254.478 L 217.121,253.981 L 219.081,253.413 L 220.985,252.83 L 222.803,252.219 L 224.508,251.594 L 226.113,250.898 L 227.619,250.174 L 229.011,249.464 L 230.318,248.711 L 231.497,247.915 L 232.562,247.134 L 233.528,246.31 L 234.295,245.486 L 235.034,244.662 L 235.616,243.796 L 236.056,242.929 L 236.383,242.091 L 236.554,241.196 L 236.625,240.33"/>
    <path style="fill: #0078aa" d="M 136.023 216.28 L 136.023,240.94 L 236.625,240.94 L 236.625,216.28 L 136.023,216.28z"/>
    <path style="fill: #00b4ff" d="M 237.221 215.982 L 237.136,215.087 L 236.951,214.178 L 236.639,213.311 L 236.198,212.431 L 235.602,211.55 L 234.906,210.698 L 234.068,209.859 L 233.13,209.05 L 232.051,208.226 L 230.857,207.459 L 229.565,206.677 L 228.158,205.939 L 226.638,205.2 L 225.019,204.532 L 223.286,203.865 L 221.468,203.226 L 219.578,202.629 L 217.59,202.075 L 215.53,201.549 L 213.385,201.066 L 211.169,200.626 L 208.882,200.2 L 206.552,199.831 L 204.194,199.49 L 201.765,199.205 L 199.293,198.964 L 196.793,198.765 L 194.265,198.609 L 191.736,198.495 L 189.179,198.424 L 186.622,198.41 L 186.622,198.41 L 184.051,198.424 L 181.494,198.495 L 178.966,198.609 L 176.437,198.765 L 173.937,198.964 L 171.465,199.205 L 169.036,199.49 L 166.664,199.831 L 164.334,200.2 L 162.061,200.626 L 159.845,201.066 L 157.7,201.549 L 155.641,202.075 L 153.652,202.629 L 151.748,203.226 L 149.944,203.865 L 148.211,204.532 L 146.592,205.2 L 145.072,205.939 L 143.666,206.677 L 142.373,207.459 L 141.18,208.226 L 140.1,209.05 L 139.163,209.859 L 138.324,210.698 L 137.628,211.55 L 137.032,212.431 L 136.577,213.311 L 136.25,214.178 L 136.08,215.087 L 136.009,215.982 L 136.009,215.982 L 136.08,216.863 L 136.25,217.758 L 136.577,218.638 L 137.032,219.491 L 137.628,220.371 L 138.324,221.224 L 139.163,222.062 L 140.1,222.9 L 141.18,223.71 L 142.373,224.477 L 143.666,225.244 L 145.072,226.011 L 146.592,226.721 L 148.211,227.403 L 149.944,228.071 L 151.748,228.696 L 153.652,229.306 L 155.641,229.846 L 157.7,230.372 L 159.845,230.869 L 162.061,231.338 L 164.334,231.721 L 166.664,232.105 L 169.036,232.446 L 171.465,232.716 L 173.937,232.957 L 176.437,233.156 L 178.966,233.312 L 181.494,233.44 L 184.051,233.511 L 186.622,233.525 L 186.622,233.525 L 189.179,233.511 L 191.736,233.44 L 194.265,233.312 L 196.793,233.156 L 199.293,232.957 L 201.765,232.716 L 204.194,232.446 L 206.552,232.105 L 208.882,231.721 L 211.169,231.338 L 213.385,230.869 L 215.53,230.372 L 217.59,229.846 L 219.578,229.306 L 221.468,228.696 L 223.286,228.071 L 225.019,227.403 L 226.638,226.721 L 228.158,226.011 L 229.565,225.244 L 230.857,224.477 L 232.051,223.71 L 233.13,222.9 L 234.068,222.062 L 234.906,221.224 L 235.602,220.371 L 236.198,219.491 L 236.639,218.638 L 236.951,217.758 L 237.136,216.863 L 237.221,215.982z"/>
    <path style="fill: none; fill-opacity:0; stroke-width: 0.02; stroke: #aae6ff" d="M 236.625 215.684 L 236.554,214.789 L 236.383,213.936 L 236.056,213.07 L 235.616,212.203 L 235.034,211.365 L 234.295,210.499 L 233.528,209.703 L 232.562,208.879 L 231.497,208.098 L 230.318,207.288 L 229.011,206.564 L 227.619,205.811 L 226.113,205.101 L 224.508,204.447 L 222.803,203.765 L 220.985,203.197 L 219.081,202.586 L 217.121,202.032 L 215.075,201.521 L 212.945,201.024 L 210.729,200.583 L 208.484,200.186 L 206.183,199.831 L 203.811,199.49 L 201.41,199.205 L 198.938,198.978 L 196.466,198.765 L 193.952,198.623 L 191.424,198.509 L 188.881,198.438 L 186.338,198.424 L 186.338,198.424 L 183.767,198.438 L 181.238,198.509 L 178.696,198.623 L 176.21,198.765 L 173.724,198.978 L 171.266,199.205 L 168.851,199.49 L 166.479,199.831 L 164.164,200.186 L 161.919,200.583 L 159.703,201.024 L 157.573,201.521 L 155.541,202.032 L 153.567,202.586 L 151.663,203.197 L 149.859,203.765 L 148.169,204.447 L 146.563,205.101 L 145.044,205.811 L 143.623,206.564 L 142.359,207.288 L 141.165,208.098 L 140.1,208.879 L 139.163,209.703 L 138.339,210.499 L 137.628,211.365 L 137.06,212.203 L 136.606,213.07 L 136.279,213.936 L 136.094,214.789 L 136.023,215.684 L 136.023,215.684 L 136.094,216.564 L 136.279,217.431 L 136.606,218.297 L 137.06,219.15 L 137.628,220.002 L 138.339,220.854 L 139.163,221.664 L 140.1,222.488 L 141.165,223.269 L 142.359,224.065 L 143.623,224.818 L 145.044,225.528 L 146.563,226.252 L 148.169,226.934 L 149.859,227.573 L 151.663,228.184 L 153.567,228.767 L 155.541,229.321 L 157.573,229.832 L 159.703,230.329 L 161.919,230.798 L 164.164,231.167 L 166.479,231.551 L 168.851,231.878 L 171.266,232.147 L 173.724,232.403 L 176.21,232.602 L 178.696,232.73 L 181.238,232.858 L 183.767,232.929 L 186.338,232.943 L 186.338,232.943 L 188.881,232.929 L 191.424,232.858 L 193.952,232.73 L 196.466,232.602 L 198.938,232.403 L 201.41,232.147 L 203.811,231.878 L 206.183,231.551 L 208.484,231.167 L 210.729,230.798 L 212.945,230.329 L 215.075,229.832 L 217.121,229.321 L 219.081,228.767 L 220.985,228.184 L 222.803,227.573 L 224.508,226.934 L 226.113,226.252 L 227.619,225.528 L 229.011,224.818 L 230.318,224.065 L 231.497,223.269 L 232.562,222.488 L 233.528,221.664 L 234.295,220.854 L 235.034,220.002 L 235.616,219.15 L 236.056,218.297 L 236.383,217.431 L 236.554,216.564 L 236.625,215.684"/>
    <path style="fill: #000000" d="M 187.56 211.99 L 194.918,214.462 L 212.717,207.047 L 220.686,209.504 L 216.382,203.368 L 195.543,203.368 L 204.109,205.2 L 187.56,211.99z"/>
    <path style="fill: #000000" d="M 184.477 218.766 L 177.133,216.28 L 159.945,223.71 L 151.365,221.224 L 155.641,227.999 L 177.133,227.999 L 167.914,225.528 L 184.477,218.766z"/>
    <path style="fill: #000000" d="M 153.197 205.2 L 160.541,202.743 L 178.355,209.504 L 186.338,207.672 L 182.048,213.808 L 161.166,213.808 L 169.746,211.99 L 153.197,205.2z"/>
    <path style="fill: #000000" d="M 219.451 226.139 L 212.078,228.61 L 194.918,221.224 L 186.338,223.71 L 190.628,217.516 L 212.078,217.516 L 202.887,219.363 L 219.451,226.139z"/>
    <path style="fill: #ffffff" d="M 188.171 212.601 L 195.543,215.059 L 213.3,207.672 L 221.297,210.144 L 216.993,203.964 L 196.14,203.964 L 204.734,205.797 L 188.171,212.601z"/>
    <path style="fill: #ffffff" d="M 185.102 219.363 L 177.716,216.905 L 160.541,224.292 L 151.961,221.834 L 156.251,228.61 L 177.716,228.61 L 168.525,226.139 L 185.102,219.363z"/>
    <path style="fill: #ffffff" d="M 153.808 205.797 L 161.166,203.368 L 178.966,210.144 L 186.935,208.268 L 182.659,214.462 L 161.777,214.462 L 170.386,212.601 L 153.808,205.797z"/>
    <path style="fill: #ffffff" d="M 220.047 226.778 L 212.717,229.235 L 195.543,221.834 L 186.935,224.292 L 191.225,218.155 L 212.717,218.155 L 203.512,219.988 L 220.047,226.778z"/>
    <path style="fill: none; fill-opacity:0; stroke-width: 0.02; stroke: #aae6ff" d="M 136.023 215.684 L 136.023,240.301"/>
    <path style="fill: none; fill-opacity:0; stroke-width: 0.02; stroke: #aae6ff" d="M 236.625 215.684 L 236.625,240.301"/>
  </g>
  <g>
    <rect style="fill: #ffffff" x="168.54" y="203.108" width="36.1" height="31.55"/>
    <text font-size="27.0933" style="fill: #000000;text-anchor:middle;font-family:sans-serif;font-style:normal;font-weight:normal" x="186.59" y="228.258">
      <tspan x="186.59" y="228.258">R4</tspan>
    </text>
  </g>
  <g>
    <path style="fill: #ffe9aa" d="M 405.511 583.409 L 405.447,581.082 L 405.222,578.755 L 404.806,576.468 L 404.229,574.182 L 403.46,571.855 L 402.594,569.61 L 401.505,567.446 L 400.287,565.242 L 398.973,563.119 L 397.434,561.037 L 395.8,559.036 L 394.005,557.077 L 392.05,555.199 L 389.999,553.403 L 387.82,551.647 L 385.48,549.973 L 383.076,548.381 L 380.577,546.912 L 377.948,545.564 L 375.224,544.258 L 372.404,543.033 L 369.487,541.972 L 366.571,540.992 L 363.526,540.135 L 360.418,539.4 L 357.309,538.706 L 354.136,538.175 L 350.931,537.767 L 347.694,537.481 L 344.425,537.318 L 341.156,537.236 L 341.156,537.236 L 337.919,537.318 L 334.618,537.481 L 331.413,537.767 L 328.208,538.175 L 325.003,538.706 L 321.894,539.4 L 318.786,540.135 L 315.773,540.992 L 312.792,541.972 L 309.94,543.033 L 307.12,544.258 L 304.427,545.564 L 301.767,546.912 L 299.268,548.381 L 296.832,549.973 L 294.492,551.647 L 292.313,553.403 L 290.262,555.199 L 288.307,557.077 L 286.512,559.036 L 284.877,561.037 L 283.371,563.119 L 281.993,565.242 L 280.839,567.446 L 279.749,569.61 L 278.852,571.855 L 278.083,574.182 L 277.57,576.468 L 277.154,578.755 L 276.865,581.082 L 276.833,583.409 L 276.833,583.409 L 276.865,585.736 L 277.154,588.144 L 277.57,590.43 L 278.083,592.757 L 278.852,595.044 L 279.749,597.289 L 280.839,599.453 L 281.993,601.657 L 283.371,603.78 L 284.877,605.821 L 286.512,607.862 L 288.307,609.822 L 290.262,611.659 L 292.313,613.496 L 294.492,615.252 L 296.832,616.925 L 299.268,618.477 L 301.767,619.906 L 304.427,621.375 L 307.12,622.641 L 309.94,623.825 L 312.792,624.927 L 315.773,625.907 L 318.786,626.723 L 321.894,627.499 L 325.003,628.152 L 328.208,628.683 L 331.413,629.05 L 334.618,629.418 L 337.919,629.54 L 341.156,629.581 L 341.156,629.581 L 344.425,629.54 L 347.694,629.418 L 350.931,629.05 L 354.136,628.683 L 357.309,628.152 L 360.418,627.499 L 363.526,626.723 L 366.571,625.907 L 369.487,624.927 L 372.404,623.825 L 375.224,622.641 L 377.948,621.375 L 380.577,619.906 L 383.076,618.477 L 385.48,616.925 L 387.82,615.252 L 389.999,613.496 L 392.05,611.659 L 394.005,609.822 L 395.8,607.862 L 397.434,605.821 L 398.973,603.78 L 400.287,601.657 L 401.505,599.453 L 402.594,597.289 L 403.46,595.044 L 404.229,592.757 L 404.806,590.43 L 405.222,588.144 L 405.447,585.736 L 405.511,583.409z"/>
    <path style="fill: #ffe9aa" d="M 304.652 607.658 L 304.588,605.331 L 304.363,603.004 L 304.107,600.718 L 303.658,598.391 L 303.081,596.105 L 302.376,593.86 L 301.543,591.655 L 300.646,589.491 L 299.62,587.369 L 298.466,585.287 L 297.216,583.286 L 295.838,581.327 L 294.3,579.449 L 292.729,577.571 L 291.063,575.897 L 289.268,574.223 L 287.473,572.631 L 285.486,571.161 L 283.499,569.773 L 281.384,568.508 L 279.269,567.283 L 277.057,566.221 L 274.75,565.242 L 272.442,564.384 L 270.071,563.65 L 267.667,562.956 L 265.231,562.425 L 262.763,562.057 L 260.328,561.731 L 257.828,561.568 L 255.328,561.486 L 255.328,561.486 L 252.828,561.568 L 250.328,561.731 L 247.828,562.057 L 245.393,562.425 L 242.925,562.956 L 240.521,563.65 L 238.182,564.384 L 235.874,565.242 L 233.599,566.221 L 231.387,567.283 L 229.208,568.508 L 227.157,569.773 L 225.105,571.161 L 223.183,572.631 L 221.356,574.223 L 219.561,575.897 L 217.894,577.571 L 216.292,579.449 L 214.786,581.327 L 213.44,583.286 L 212.158,585.287 L 211.036,587.369 L 209.978,589.491 L 209.049,591.655 L 208.248,593.86 L 207.542,596.105 L 206.966,598.391 L 206.549,600.718 L 206.228,603.004 L 206.036,605.331 L 205.972,607.658 L 205.972,607.658 L 206.036,610.026 L 206.228,612.394 L 206.549,614.68 L 206.966,616.966 L 207.542,619.293 L 208.248,621.457 L 209.049,623.702 L 209.978,625.907 L 211.036,628.03 L 212.158,630.071 L 213.44,632.112 L 214.786,634.072 L 216.292,635.909 L 217.894,637.746 L 219.561,639.501 L 221.356,641.094 L 223.183,642.727 L 225.105,644.155 L 227.157,645.625 L 229.208,646.891 L 231.387,648.075 L 233.599,649.177 L 235.874,650.116 L 238.182,650.973 L 240.521,651.749 L 242.925,652.402 L 245.393,652.933 L 247.828,653.3 L 250.328,653.586 L 252.828,653.79 L 255.328,653.831 L 255.328,653.831 L 257.828,653.79 L 260.328,653.586 L 262.763,653.3 L 265.231,652.933 L 267.667,652.402 L 270.071,651.749 L 272.442,650.973 L 274.75,650.116 L 277.057,649.177 L 279.269,648.075 L 281.384,646.891 L 283.499,645.625 L 285.486,644.155 L 287.473,642.727 L 289.268,641.094 L 291.063,639.501 L 292.729,637.746 L 294.3,635.909 L 295.838,634.072 L 297.216,632.112 L 298.466,630.071 L 299.62,628.03 L 300.646,625.907 L 301.543,623.702 L 302.376,621.457 L 303.081,619.293 L 303.658,616.966 L 304.107,614.68 L 304.363,612.394 L 304.588,610.026 L 304.652,607.658z"/>
    <path style="fill: #ffe9aa" d="M 242.444 654.77 L 242.412,652.892 L 242.316,650.973 L 242.092,649.095 L 241.803,647.176 L 241.387,645.339 L 240.906,643.502 L 240.393,641.706 L 239.784,639.951 L 239.079,638.195 L 238.278,636.44 L 237.412,634.888 L 236.483,633.255 L 235.489,631.663 L 234.432,630.234 L 233.278,628.805 L 232.092,627.499 L 230.874,626.193 L 229.592,624.968 L 228.214,623.866 L 226.804,622.804 L 225.362,621.824 L 223.856,620.926 L 222.349,620.11 L 220.779,619.416 L 219.176,618.803 L 217.574,618.314 L 215.939,617.824 L 214.241,617.538 L 212.574,617.293 L 210.94,617.17 L 209.241,617.089 L 209.241,617.089 L 207.542,617.17 L 205.844,617.293 L 204.177,617.538 L 202.543,617.824 L 200.876,618.314 L 199.242,618.803 L 197.671,619.416 L 196.133,620.11 L 194.563,620.926 L 193.056,621.824 L 191.614,622.804 L 190.204,623.866 L 188.858,624.968 L 187.544,626.193 L 186.326,627.499 L 185.14,628.805 L 184.018,630.234 L 182.929,631.663 L 181.935,633.255 L 181.006,634.888 L 180.14,636.44 L 179.403,638.195 L 178.698,639.951 L 178.089,641.706 L 177.512,643.502 L 177.032,645.339 L 176.679,647.176 L 176.391,649.095 L 176.134,650.973 L 176.006,652.892 L 176.006,654.77 L 176.006,654.77 L 176.006,656.648 L 176.134,658.607 L 176.391,660.444 L 176.679,662.363 L 177.032,664.241 L 177.512,666.037 L 178.089,667.834 L 178.698,669.589 L 179.403,671.385 L 180.14,673.1 L 181.006,674.692 L 181.935,676.284 L 182.929,677.836 L 184.018,679.305 L 185.14,680.734 L 186.326,682.081 L 187.544,683.388 L 188.858,684.572 L 190.204,685.674 L 191.614,686.735 L 193.056,687.715 L 194.563,688.613 L 196.133,689.43 L 197.671,690.083 L 199.242,690.736 L 200.876,691.267 L 202.543,691.716 L 204.177,692.043 L 205.844,692.247 L 207.542,692.369 L 209.241,692.451 L 209.241,692.451 L 210.94,692.369 L 212.574,692.247 L 214.241,692.043 L 215.939,691.716 L 217.574,691.267 L 219.176,690.736 L 220.779,690.083 L 222.349,689.43 L 223.856,688.613 L 225.362,687.715 L 226.804,686.735 L 228.214,685.674 L 229.592,684.572 L 230.874,683.388 L 232.092,682.081 L 233.278,680.734 L 234.432,679.305 L 235.489,677.836 L 236.483,676.284 L 237.412,674.692 L 238.278,673.1 L 239.079,671.385 L 239.784,669.589 L 240.393,667.834 L 240.906,666.037 L 241.387,664.241 L 241.803,662.363 L 242.092,660.444 L 242.316,658.607 L 242.412,656.648 L 242.444,654.77z"/>
    <path style="fill: #ffe9aa" d="M 296.095 691.063 L 296.063,689.022 L 295.838,686.939 L 295.486,684.898 L 295.069,682.857 L 294.492,680.857 L 293.819,678.856 L 292.954,676.937 L 292.056,674.978 L 290.967,673.141 L 289.813,671.345 L 288.499,669.548 L 287.121,667.834 L 285.647,666.078 L 284.044,664.486 L 282.345,662.976 L 280.551,661.506 L 278.66,660.159 L 276.673,658.852 L 274.654,657.628 L 272.538,656.484 L 270.327,655.464 L 268.084,654.484 L 265.776,653.586 L 263.436,652.81 L 261.033,652.198 L 258.565,651.626 L 256.129,651.136 L 253.629,650.728 L 251.129,650.483 L 248.598,650.361 L 246.034,650.279 L 246.034,650.279 L 243.502,650.361 L 241.002,650.483 L 238.438,650.728 L 235.97,651.136 L 233.47,651.626 L 231.067,652.198 L 228.663,652.81 L 226.291,653.586 L 223.984,654.484 L 221.772,655.464 L 219.561,656.484 L 217.446,657.628 L 215.395,658.852 L 213.44,660.159 L 211.549,661.506 L 209.754,662.976 L 208.055,664.486 L 206.453,666.078 L 204.947,667.834 L 203.568,669.548 L 202.254,671.345 L 201.069,673.141 L 200.043,674.978 L 199.114,676.937 L 198.248,678.856 L 197.543,680.857 L 197.03,682.857 L 196.55,684.898 L 196.229,686.939 L 196.037,689.022 L 195.973,691.063 L 195.973,691.063 L 196.037,693.145 L 196.229,695.186 L 196.55,697.309 L 197.03,699.35 L 197.543,701.31 L 198.248,703.269 L 199.114,705.27 L 200.043,707.188 L 201.069,709.066 L 202.254,710.903 L 203.568,712.7 L 204.947,714.414 L 206.453,716.129 L 208.055,717.762 L 209.754,719.232 L 211.549,720.66 L 213.44,722.089 L 215.395,723.396 L 217.446,724.62 L 219.561,725.764 L 221.772,726.784 L 223.984,727.764 L 226.291,728.58 L 228.663,729.356 L 231.067,730.05 L 233.47,730.581 L 235.97,731.071 L 238.438,731.479 L 241.002,731.683 L 243.502,731.887 L 246.034,731.887 L 246.034,731.887 L 248.598,731.887 L 251.129,731.683 L 253.629,731.479 L 256.129,731.071 L 258.565,730.581 L 261.033,730.05 L 263.436,729.356 L 265.776,728.58 L 268.084,727.764 L 270.327,726.784 L 272.538,725.764 L 274.654,724.62 L 276.673,723.396 L 278.66,722.089 L 280.551,720.66 L 282.345,719.232 L 284.044,717.721 L 285.647,716.047 L 287.121,714.414 L 288.499,712.7 L 289.813,710.903 L 290.967,709.066 L 292.056,707.188 L 292.954,705.27 L 293.819,703.269 L 294.492,701.31 L 295.069,699.35 L 295.486,697.309 L 295.838,695.186 L 296.063,693.145 L 296.095,691.063z"/>
    <path style="fill: #ffe9aa" d="M 416.247 712.169 L 416.119,709.72 L 415.863,707.27 L 415.35,704.821 L 414.677,702.453 L 413.844,700.003 L 412.818,697.676 L 411.6,695.349 L 410.19,693.063 L 408.588,690.818 L 406.857,688.695 L 404.902,686.572 L 402.851,684.449 L 400.607,682.53 L 398.236,680.612 L 395.64,678.775 L 393.012,677.019 L 390.191,675.427 L 387.243,673.876 L 384.23,672.406 L 381.025,671.059 L 377.788,669.834 L 374.423,668.65 L 370.994,667.629 L 367.436,666.772 L 363.879,665.956 L 360.225,665.262 L 356.572,664.731 L 352.79,664.282 L 349.104,663.996 L 345.29,663.751 L 341.508,663.751 L 341.508,663.751 L 337.727,663.751 L 333.945,663.996 L 330.195,664.282 L 326.477,664.731 L 322.76,665.262 L 319.138,665.956 L 315.549,666.772 L 312.055,667.629 L 308.562,668.65 L 305.261,669.834 L 301.96,671.059 L 298.819,672.406 L 295.774,673.876 L 292.858,675.427 L 290.037,677.019 L 287.345,678.775 L 284.813,680.612 L 282.442,682.53 L 280.166,684.449 L 278.083,686.572 L 276.16,688.695 L 274.461,690.818 L 272.859,693.063 L 271.449,695.349 L 270.231,697.676 L 269.173,700.003 L 268.34,702.453 L 267.635,704.821 L 267.154,707.27 L 266.866,709.72 L 266.77,712.169 L 266.77,712.169 L 266.866,714.578 L 267.154,717.068 L 267.635,719.517 L 268.34,721.926 L 269.173,724.335 L 270.231,726.703 L 271.449,728.989 L 272.859,731.275 L 274.461,733.52 L 276.16,735.684 L 278.083,737.766 L 280.166,739.807 L 282.442,741.808 L 284.813,743.726 L 287.345,745.563 L 290.037,747.237 L 292.858,748.952 L 295.774,750.503 L 298.819,751.932 L 301.96,753.279 L 305.261,754.545 L 308.562,755.606 L 312.055,756.668 L 315.549,757.607 L 319.138,758.423 L 322.76,759.076 L 326.477,759.648 L 330.195,760.056 L 333.945,760.383 L 337.727,760.587 L 341.508,760.628 L 341.508,760.628 L 345.29,760.587 L 349.104,760.383 L 352.79,760.056 L 356.572,759.648 L 360.225,759.076 L 363.879,758.423 L 367.436,757.607 L 370.994,756.668 L 374.423,755.606 L 377.788,754.545 L 381.025,753.279 L 384.23,751.932 L 387.243,750.503 L 390.191,748.952 L 393.012,747.237 L 395.64,745.563 L 398.236,743.726 L 400.607,741.808 L 402.851,739.807 L 404.902,737.766 L 406.857,735.684 L 408.588,733.52 L 410.19,731.275 L 411.6,728.989 L 412.818,726.703 L 413.844,724.335 L 414.677,721.926 L 415.35,719.517 L 415.863,717.068 L 416.119,714.578 L 416.247,712.169z"/>
    <path style="fill: #ffe9aa" d="M 457.719 600.473 L 457.687,598.677 L 457.495,596.84 L 457.142,595.003 L 456.758,593.206 L 456.181,591.41 L 455.54,589.655 L 454.739,587.899 L 453.809,586.144 L 452.816,584.511 L 451.726,582.837 L 450.476,581.286 L 449.13,579.734 L 447.72,578.265 L 446.149,576.795 L 444.547,575.448 L 442.784,574.182 L 440.989,572.876 L 439.131,571.774 L 437.143,570.631 L 435.124,569.61 L 433.073,568.712 L 430.894,567.854 L 428.682,567.079 L 426.439,566.426 L 424.131,565.772 L 421.824,565.283 L 419.452,564.915 L 417.081,564.548 L 414.645,564.303 L 412.241,564.221 L 409.805,564.18 L 409.805,564.18 L 407.338,564.221 L 404.934,564.303 L 402.498,564.548 L 400.127,564.915 L 397.787,565.283 L 395.447,565.772 L 393.172,566.426 L 390.896,567.079 L 388.685,567.854 L 386.506,568.712 L 384.422,569.61 L 382.435,570.631 L 380.448,571.774 L 378.589,572.876 L 376.795,574.182 L 375.064,575.448 L 373.43,576.795 L 371.859,578.265 L 370.449,579.734 L 369.135,581.286 L 367.853,582.837 L 366.763,584.511 L 365.77,586.144 L 364.84,587.899 L 364.039,589.655 L 363.398,591.41 L 362.853,593.206 L 362.405,595.003 L 362.116,596.84 L 361.956,598.677 L 361.86,600.473 L 361.86,600.473 L 361.956,602.31 L 362.116,604.107 L 362.405,605.985 L 362.853,607.781 L 363.398,609.618 L 364.039,611.373 L 364.84,613.129 L 365.77,614.762 L 366.763,616.517 L 367.853,618.109 L 369.135,619.661 L 370.449,621.253 L 371.859,622.682 L 373.43,624.151 L 375.064,625.499 L 376.795,626.805 L 378.589,628.03 L 380.448,629.214 L 382.435,630.316 L 384.422,631.337 L 386.506,632.276 L 388.685,633.133 L 390.896,633.868 L 393.172,634.562 L 395.447,635.174 L 397.787,635.664 L 400.127,636.072 L 402.498,636.44 L 404.934,636.644 L 407.338,636.725 L 409.805,636.848 L 409.805,636.848 L 412.241,636.725 L 414.645,636.644 L 417.081,636.44 L 419.452,636.072 L 421.824,635.664 L 424.131,635.174 L 426.439,634.562 L 428.682,633.868 L 430.894,633.133 L 433.073,632.276 L 435.124,631.337 L 437.143,630.316 L 439.131,629.214 L 440.989,628.03 L 442.784,626.805 L 444.547,625.499 L 446.149,624.151 L 447.72,622.682 L 449.13,621.253 L 450.476,619.661 L 451.726,618.109 L 452.816,616.517 L 453.809,614.762 L 454.739,613.129 L 455.54,611.373 L 456.181,609.618 L 456.758,607.781 L 457.142,605.985 L 457.495,604.107 L 457.687,602.31 L 457.719,600.473z"/>
    <path style="fill: #ffe9aa" d="M 471.308 647.136 L 471.212,645.339 L 471.084,643.502 L 470.763,641.665 L 470.347,639.828 L 469.77,637.991 L 469.129,636.235 L 468.359,634.521 L 467.43,632.847 L 466.436,631.132 L 465.347,629.54 L 464.097,627.948 L 462.751,626.438 L 461.373,624.968 L 459.802,623.457 L 458.2,622.151 L 456.533,620.845 L 454.739,619.579 L 452.816,618.477 L 450.925,617.334 L 448.906,616.313 L 446.854,615.415 L 444.707,614.517 L 442.528,613.782 L 440.284,613.129 L 437.977,612.476 L 435.669,611.986 L 433.33,611.577 L 430.926,611.21 L 428.554,611.047 L 426.151,610.924 L 423.747,610.843 L 423.747,610.843 L 421.311,610.924 L 418.939,611.047 L 416.536,611.21 L 414.196,611.577 L 411.857,611.986 L 409.517,612.476 L 407.241,613.129 L 405.03,613.782 L 402.819,614.517 L 400.671,615.415 L 398.62,616.313 L 396.601,617.334 L 394.646,618.477 L 392.819,619.579 L 391.025,620.845 L 389.262,622.151 L 387.659,623.457 L 386.153,624.968 L 384.775,626.438 L 383.429,627.948 L 382.211,629.54 L 381.057,631.132 L 380.064,632.847 L 379.198,634.521 L 378.397,636.235 L 377.692,637.991 L 377.179,639.828 L 376.763,641.665 L 376.442,643.502 L 376.25,645.339 L 376.218,647.136 L 376.218,647.136 L 376.25,648.932 L 376.442,650.769 L 376.763,652.647 L 377.179,654.443 L 377.692,656.28 L 378.397,658.036 L 379.198,659.791 L 380.064,661.424 L 381.057,663.139 L 382.211,664.772 L 383.429,666.323 L 384.775,667.834 L 386.153,669.344 L 387.659,670.814 L 389.262,672.161 L 391.025,673.427 L 392.819,674.692 L 394.646,675.794 L 396.601,676.937 L 398.62,677.958 L 400.671,678.856 L 402.819,679.754 L 405.03,680.53 L 407.241,681.142 L 409.517,681.796 L 411.857,682.285 L 414.196,682.694 L 416.536,683.061 L 418.939,683.265 L 421.311,683.388 L 423.747,683.429 L 423.747,683.429 L 426.151,683.388 L 428.554,683.265 L 430.926,683.061 L 433.33,682.694 L 435.669,682.285 L 437.977,681.796 L 440.284,681.142 L 442.528,680.53 L 444.707,679.754 L 446.854,678.856 L 448.906,677.958 L 450.925,676.937 L 452.816,675.794 L 454.739,674.692 L 456.533,673.427 L 458.2,672.161 L 459.802,670.814 L 461.373,669.344 L 462.751,667.834 L 464.097,666.323 L 465.347,664.772 L 466.436,663.139 L 467.43,661.424 L 468.359,659.791 L 469.129,658.036 L 469.77,656.28 L 470.347,654.443 L 470.763,652.647 L 471.084,650.769 L 471.212,648.932 L 471.308,647.136z"/>
    <path style="fill: #ffe9aa" d="M 462.014 685.715 L 461.95,682.694 L 461.757,679.714 L 461.501,676.733 L 461.084,673.712 L 460.539,670.773 L 459.866,667.834 L 459.097,665.017 L 458.168,662.2 L 457.174,659.465 L 456.117,656.811 L 454.899,654.198 L 453.553,651.667 L 452.143,649.218 L 450.604,646.891 L 449.002,644.604 L 447.335,642.522 L 445.54,640.481 L 443.714,638.603 L 441.759,636.766 L 439.772,635.133 L 437.72,633.623 L 435.637,632.235 L 433.458,630.969 L 431.246,629.785 L 428.939,628.805 L 426.663,628.03 L 424.292,627.295 L 421.952,626.764 L 419.613,626.438 L 417.241,626.193 L 414.837,626.111 L 414.837,626.111 L 412.433,626.193 L 410.062,626.438 L 407.658,626.764 L 405.319,627.295 L 403.011,628.03 L 400.671,628.805 L 398.428,629.785 L 396.217,630.969 L 394.037,632.235 L 391.89,633.623 L 389.839,635.133 L 387.852,636.766 L 385.961,638.603 L 384.07,640.481 L 382.307,642.522 L 380.609,644.604 L 379.006,646.891 L 377.5,649.218 L 376.058,651.667 L 374.776,654.198 L 373.558,656.811 L 372.436,659.465 L 371.442,662.2 L 370.577,665.017 L 369.808,667.834 L 369.135,670.773 L 368.59,673.712 L 368.173,676.733 L 367.853,679.714 L 367.661,682.694 L 367.597,685.715 L 367.597,685.715 L 367.661,688.736 L 367.853,691.798 L 368.173,694.778 L 368.59,697.717 L 369.135,700.697 L 369.808,703.555 L 370.577,706.413 L 371.442,709.23 L 372.436,711.965 L 373.558,714.7 L 374.776,717.313 L 376.058,719.803 L 377.5,722.212 L 379.006,724.539 L 380.609,726.784 L 382.307,728.989 L 384.07,731.03 L 385.961,732.908 L 387.852,734.663 L 389.839,736.337 L 391.89,737.888 L 394.037,739.276 L 396.217,740.542 L 398.428,741.685 L 400.671,742.624 L 403.011,743.481 L 405.319,744.135 L 407.658,744.665 L 410.062,745.074 L 412.433,745.318 L 414.837,745.4 L 414.837,745.4 L 417.241,745.318 L 419.613,745.074 L 421.952,744.665 L 424.292,744.135 L 426.663,743.481 L 428.939,742.624 L 431.246,741.685 L 433.458,740.542 L 435.637,739.276 L 437.72,737.888 L 439.772,736.337 L 441.759,734.663 L 443.714,732.908 L 445.54,731.03 L 447.335,728.989 L 449.002,726.784 L 450.604,724.539 L 452.143,722.212 L 453.553,717.721 L 454.899,717.313 L 456.117,714.7 L 457.174,711.965 L 458.168,709.23 L 459.097,706.413 L 459.866,703.555 L 460.539,700.697 L 461.084,697.717 L 461.501,694.778 L 461.757,691.798 L 461.95,688.736 L 462.014,685.715z"/>
    <path style="fill: #ffe9aa" d="M 421.247 649.83 L 421.119,646.809 L 420.734,643.788 L 420.125,640.767 L 419.292,637.787 L 418.202,634.888 L 416.856,631.99 L 415.286,629.091 L 413.459,626.274 L 411.472,623.498 L 409.229,620.885 L 406.729,618.273 L 404.069,615.742 L 401.184,613.292 L 398.107,610.924 L 394.838,608.679 L 391.441,606.556 L 387.82,604.515 L 384.038,602.678 L 380.16,600.841 L 376.09,599.167 L 371.891,597.656 L 367.597,596.268 L 363.206,595.003 L 358.719,593.86 L 354.104,592.88 L 349.425,592.023 L 344.713,591.41 L 339.938,590.798 L 335.131,590.471 L 330.291,590.226 L 325.388,590.185 L 325.388,590.185 L 320.548,590.226 L 315.709,590.471 L 310.901,590.798 L 306.094,591.41 L 301.383,592.023 L 296.704,592.88 L 292.121,593.86 L 287.634,595.003 L 283.179,596.268 L 278.948,597.656 L 274.75,599.167 L 270.648,600.841 L 266.737,602.678 L 263.02,604.515 L 259.366,606.556 L 255.937,608.679 L 252.732,610.924 L 249.623,613.292 L 246.739,615.742 L 244.111,618.273 L 241.611,620.885 L 239.399,623.498 L 237.38,626.274 L 235.522,629.091 L 233.983,631.99 L 232.669,634.888 L 231.515,637.787 L 230.682,640.767 L 230.073,643.788 L 229.689,646.809 L 229.592,649.83 L 229.592,649.83 L 229.689,652.81 L 230.073,655.831 L 230.682,658.852 L 231.515,661.832 L 232.669,664.772 L 233.983,667.629 L 235.522,670.528 L 237.38,673.345 L 239.399,676.121 L 241.611,678.775 L 244.111,681.347 L 246.739,683.878 L 249.623,686.327 L 252.732,688.695 L 255.937,690.94 L 259.366,693.063 L 263.02,695.104 L 266.737,696.941 L 270.648,698.819 L 274.75,700.452 L 278.948,701.963 L 283.179,703.351 L 287.634,704.616 L 292.121,705.76 L 296.704,706.739 L 301.383,707.597 L 306.094,708.209 L 310.901,708.781 L 315.709,709.148 L 320.548,709.393 L 325.388,709.434 L 325.388,709.434 L 330.291,709.393 L 335.131,709.148 L 339.938,708.781 L 344.713,708.209 L 349.425,707.597 L 354.104,706.739 L 358.719,705.76 L 363.206,704.616 L 367.597,703.351 L 371.891,701.963 L 376.09,700.452 L 380.16,698.819 L 384.038,696.941 L 387.82,695.104 L 391.441,693.063 L 394.838,690.94 L 398.107,688.695 L 401.184,686.327 L 404.069,683.878 L 406.729,681.347 L 409.229,678.775 L 411.472,676.121 L 413.459,673.345 L 415.286,670.528 L 416.856,667.629 L 418.202,664.772 L 419.292,661.832 L 420.125,658.852 L 420.734,655.831 L 421.119,652.81 L 421.247,649.83z"/>
    <path style="fill: #ffe9aa" d="M 341.893 583.041 L 405.319,572.713 L 404.517,570.426 L 403.524,568.222 L 402.434,565.977 L 401.12,563.772 L 399.71,561.649 L 398.107,559.608 L 396.441,557.567 L 394.518,555.689 L 392.563,553.77 L 390.448,551.974 L 388.172,550.259 L 385.801,548.667 L 383.301,547.116 L 380.705,545.605 L 378.013,544.258 L 375.224,543.033 L 372.404,541.808 L 369.423,540.788 L 366.411,539.89 L 363.366,538.992 L 360.193,538.257 L 357.02,537.685 L 353.815,537.154 L 350.578,536.828 L 347.309,536.583 L 344.008,536.42 L 340.739,536.42 L 337.438,536.46 L 334.137,536.705 L 330.932,537.073 L 327.695,537.481 L 324.49,538.134 L 321.317,538.747 L 318.209,539.604 L 315.196,540.502 L 312.247,541.523 L 309.331,542.666 L 306.511,543.85 L 303.851,545.238 L 301.223,546.626 L 298.691,548.136 L 296.287,549.728 L 294.011,551.443 L 291.864,553.239 L 289.813,555.036 L 287.89,557.036 L 286.095,558.996 L 284.461,561.078 L 283.051,563.16 L 281.672,565.283 L 280.487,567.528 L 279.493,569.773 L 278.66,572.059 L 277.955,574.346 L 341.893,583.041z"/>
    <path style="fill: none; fill-opacity:0; stroke-width: 0.03; stroke: #805d00" d="M 405.319 572.631 L 404.485,570.345 L 403.524,568.099 L 402.402,565.895 L 401.12,563.731 L 399.646,561.608 L 398.075,559.567 L 396.377,557.567 L 394.454,555.566 L 392.467,553.77 L 390.416,551.974 L 388.108,550.177 L 385.801,548.585 L 383.269,547.034 L 380.673,545.605 L 378.013,544.217 L 375.224,542.992 L 372.372,541.808 L 369.391,540.747 L 366.379,539.767 L 363.366,538.951 L 360.193,538.257 L 356.988,537.685 L 353.783,537.154 L 350.546,536.828 L 347.309,536.583 L 343.976,536.42 L 340.707,536.42 L 337.438,536.46 L 334.169,536.705 L 330.9,537.073 L 327.695,537.481 L 324.49,538.093 L 321.349,538.747 L 318.273,539.604 L 315.196,540.502 L 312.28,541.523 L 309.363,542.666 L 306.575,543.809 L 303.851,545.156 L 301.255,546.626 L 298.723,548.136 L 296.319,549.688 L 294.043,551.443 L 291.864,553.198 L 289.813,555.036 L 287.89,556.995 L 286.159,558.914 L 284.493,560.955 L 283.051,563.119 L 281.705,565.242 L 280.551,567.446 L 279.493,569.651 L 278.66,571.937 L 277.987,574.223"/>
    <path style="fill: #ffe9aa" d="M 255.648 607.25 L 287.634,571.447 L 285.647,570.059 L 283.563,568.63 L 281.448,567.324 L 279.269,566.221 L 277.057,565.119 L 274.75,564.18 L 272.378,563.282 L 270.039,562.588 L 267.571,561.935 L 265.135,561.404 L 262.635,561.078 L 260.135,560.792 L 257.636,560.629 L 255.136,560.629 L 252.604,560.629 L 250.104,560.914 L 247.604,561.159 L 245.136,561.649 L 242.701,562.18 L 240.297,562.915 L 237.893,563.69 L 235.586,564.548 L 233.278,565.568 L 231.067,566.711 L 228.919,567.936 L 226.868,569.243 L 224.817,570.631 L 222.894,572.141 L 221.067,573.733 L 219.273,575.448 L 217.606,577.244 L 216.068,579.04 L 214.593,581 L 213.247,583 L 211.965,585.042 L 210.844,587.124 L 209.786,589.247 L 208.889,591.492 L 208.087,593.737 L 207.446,596.023 L 206.934,598.31 L 206.485,600.637 L 206.164,603.004 L 206.036,605.331 L 205.972,607.658 L 206.068,610.067 L 206.261,612.435 L 206.645,614.721 L 255.648,607.25z"/>
    <path style="fill: none; fill-opacity:0; stroke-width: 0.03; stroke: #805d00" d="M 287.473 571.365 L 285.486,569.896 L 283.467,568.548 L 281.352,567.283 L 279.141,566.14 L 276.865,565.038 L 274.59,564.139 L 272.25,563.241 L 269.846,562.506 L 267.443,561.935 L 264.943,561.404 L 262.475,561.037 L 260.007,560.792 L 257.507,560.629 L 254.943,560.629 L 252.508,560.669 L 250.008,560.914 L 247.444,561.2 L 245.008,561.649 L 242.604,562.221 L 240.137,562.956 L 237.797,563.69 L 235.489,564.67 L 233.214,565.691 L 230.971,566.752 L 228.823,568.018 L 226.772,569.324 L 224.785,570.753 L 222.862,572.182 L 220.971,573.856 L 219.273,575.529 L 217.574,577.285 L 216.004,579.163 L 214.561,581.041 L 213.183,583.041 L 211.965,585.123 L 210.844,587.164 L 209.786,589.369 L 208.857,591.533 L 208.087,593.819 L 207.446,596.064 L 206.869,598.391 L 206.485,600.718 L 206.164,603.045 L 206.036,605.331 L 205.972,607.781 L 206.132,610.108 L 206.325,612.435 L 206.645,614.762"/>
    <path style="fill: #ffe9aa" d="M 246.739 690.655 L 195.268,689.43 L 195.268,691.512 L 195.364,693.594 L 195.62,695.758 L 196.037,697.84 L 196.518,699.922 L 197.126,701.963 L 197.928,704.004 L 198.761,706.005 L 199.819,707.882 L 200.94,709.842 L 202.126,711.72 L 203.536,713.516 L 204.947,715.272 L 206.549,716.986 L 208.183,718.578 L 209.946,720.13 L 211.837,721.599 L 213.76,722.947 L 215.779,724.335 L 217.894,725.519 L 220.074,726.703 L 222.349,727.764 L 224.657,728.703 L 226.964,729.56 L 229.4,730.336 L 231.868,730.989 L 234.368,731.561 L 236.9,732.01 L 239.432,732.377 L 241.995,732.622 L 244.591,732.785 L 247.219,732.785 L 249.751,732.663 L 252.347,732.54 L 254.911,732.255 L 257.443,731.887 L 260.007,731.357 L 262.443,730.785 L 264.943,730.091 L 267.282,729.274 L 269.654,728.335 L 271.962,727.397 L 274.141,726.294 L 276.352,725.151 L 278.371,723.886 L 280.39,722.498 L 246.739,690.655z"/>
    <path style="fill: none; fill-opacity:0; stroke-width: 0.03; stroke: #805d00" d="M 195.332 689.43 L 195.236,691.512 L 195.428,693.594 L 195.62,695.676 L 196.037,697.799 L 196.518,699.881 L 197.159,701.963 L 197.928,704.004 L 198.825,705.964 L 199.819,707.882 L 200.876,709.801 L 202.126,711.679 L 203.44,713.475 L 204.947,715.231 L 206.485,716.945 L 208.151,718.538 L 209.882,720.089 L 211.741,721.559 L 213.664,722.947 L 215.683,724.253 L 217.798,725.478 L 219.978,726.662 L 222.189,727.682 L 224.497,728.621 L 226.9,729.519 L 229.272,730.295 L 231.708,730.907 L 234.207,731.561 L 236.771,731.928 L 239.303,732.377 L 241.835,732.581 L 244.431,732.785 L 247.027,732.785 L 249.591,732.704 L 252.155,732.581 L 254.719,732.295 L 257.251,731.887 L 259.815,731.357 L 262.251,730.826 L 264.75,730.091 L 267.122,729.315 L 269.43,728.458 L 271.737,727.478 L 273.949,726.376 L 276.16,725.233 L 278.243,723.967 L 280.198,722.661"/>
    <path style="fill: #ffe9aa" d="M 410.511 599.616 L 455.796,611.414 L 456.565,609.659 L 457.142,607.903 L 457.687,606.066 L 458.008,604.27 L 458.328,602.474 L 458.392,600.637 L 458.392,598.718 L 458.328,596.881 L 458.072,595.084 L 457.719,593.288 L 457.206,591.451 L 456.597,589.696 L 455.892,587.94 L 455.059,586.144 L 454.098,584.511 L 453.008,582.837 L 451.79,581.245 L 450.54,579.612 L 449.162,578.183 L 447.688,576.673 L 446.117,575.244 L 444.387,573.937 L 442.656,572.672 L 440.765,571.447 L 438.874,570.345 L 436.887,569.324 L 434.836,568.304 L 432.689,567.446 L 430.509,566.589 L 428.266,565.895 L 425.958,565.242 L 423.683,564.711 L 421.279,564.221 L 418.907,563.895 L 416.504,563.609 L 414.068,563.445 L 411.664,563.282 L 409.261,563.364 L 406.825,563.445 L 404.389,563.65 L 402.017,563.935 L 399.614,564.262 L 397.242,564.711 L 394.903,565.283 L 410.511,599.616z"/>
    <path style="fill: none; fill-opacity:0; stroke-width: 0.03; stroke: #805d00" d="M 451.63 618.069 L 455.764,611.496 L 456.533,609.7 L 457.142,607.985 L 457.623,606.148 L 458.008,604.311 L 458.264,602.514 L 458.36,600.718 L 458.392,598.84 L 458.296,596.962 L 458.072,595.125 L 457.719,593.329 L 457.206,591.533 L 456.597,589.736 L 455.924,587.981 L 455.091,586.225 L 454.098,584.593 L 453.008,582.878 L 451.886,581.286 L 450.572,579.734 L 449.194,578.224 L 447.72,576.713 L 446.149,575.366 L 444.483,574.06 L 442.72,572.713 L 440.893,571.529 L 438.938,570.345 L 436.951,569.324 L 434.9,568.344 L 432.753,567.487 L 430.573,566.671 L 428.362,565.936 L 426.086,565.242 L 423.747,564.711 L 421.439,564.221 L 419.068,563.895 L 416.664,563.65 L 414.228,563.445 L 411.792,563.282 L 409.325,563.282 L 406.921,563.445 L 404.485,563.65 L 402.082,563.895 L 399.71,564.221 L 397.37,564.711 L 395.031,565.242"/>
    <path style="fill: #ffe9aa" d="M 416.952 647.626 L 467.943,662.526 L 468.968,660.608 L 469.802,658.648 L 470.571,656.607 L 471.18,654.566 L 471.596,652.524 L 471.885,650.483 L 471.981,648.36 L 471.981,646.319 L 471.789,644.237 L 471.5,642.114 L 470.987,640.073 L 470.379,638.113 L 469.577,636.072 L 468.712,634.113 L 467.622,632.112 L 466.404,630.275 L 465.09,628.479 L 463.584,626.642 L 461.982,624.927 L 416.952,647.626z"/>
    <path style="fill: none; fill-opacity:0; stroke-width: 0.03; stroke: #805d00" d="M 461.469 669.303 L 467.879,662.649 L 468.84,660.689 L 469.802,658.648 L 470.539,656.648 L 471.148,654.566 L 471.564,652.524 L 471.885,650.483 L 472.013,648.36 L 471.981,646.319 L 471.789,644.155 L 471.436,642.114 L 470.987,640.032 L 470.379,637.991 L 469.577,635.991 L 468.68,634.031 L 467.558,632.071 L 466.372,630.193 L 464.962,628.316 L 463.52,626.519 L 461.885,624.764 L 451.63,618.069"/>
    <path style="fill: #ffe9aa" d="M 414.805 687.021 L 398.716,743.726 L 401.088,744.624 L 403.492,745.4 L 405.895,746.094 L 408.395,746.584 L 410.831,746.911 L 413.267,747.074 L 415.799,747.115 L 418.266,746.911 L 420.702,746.666 L 423.17,746.176 L 425.574,745.604 L 427.977,744.869 L 430.349,743.93 L 432.689,742.869 L 434.932,741.685 L 437.176,740.338 L 439.355,738.909 L 441.47,737.235 L 443.521,735.48 L 445.476,733.643 L 447.335,731.642 L 449.13,729.56 L 450.861,727.315 L 452.495,724.988 L 453.969,722.62 L 455.379,720.089 L 456.726,717.517 L 457.911,714.782 L 458.969,712.087 L 459.963,709.23 L 460.796,706.372 L 461.565,703.473 L 462.174,700.493 L 462.687,697.472 L 463.007,694.492 L 463.296,691.43 L 463.36,688.368 L 463.36,685.306 L 463.232,682.285 L 462.975,679.224 L 462.591,676.203 L 462.11,673.182 L 461.469,670.242 L 414.805,687.021z"/>
    <path style="fill: none; fill-opacity:0; stroke-width: 0.03; stroke: #805d00" d="M 398.845 743.808 L 401.248,744.665 L 403.62,745.523 L 406.056,746.135 L 408.491,746.625 L 410.991,746.911 L 413.427,747.115 L 415.895,747.156 L 418.363,746.911 L 420.862,746.666 L 423.298,746.176 L 425.702,745.604 L 428.106,744.829 L 430.477,743.849 L 432.785,742.828 L 435.092,741.603 L 437.304,740.297 L 439.451,738.787 L 441.534,737.235 L 443.585,735.439 L 445.54,733.561 L 447.399,731.561 L 449.194,729.479 L 450.925,727.274 L 452.527,724.947 L 454.065,722.457 L 455.412,720.007 L 456.758,717.313 L 457.943,714.7 L 459.001,711.965 L 459.963,709.148 L 460.828,706.249 L 461.597,703.269 L 462.174,700.371 L 462.687,697.391 L 463.071,694.37 L 463.296,691.308 L 463.36,688.246 L 463.36,685.184 L 463.2,682.122 L 462.975,679.06 L 462.559,675.999 L 462.014,673.059 L 461.469,670.12"/>
    <path style="fill: #ffe9aa" d="M 210.972 654.77 L 208.536,616.313 L 206.741,616.517 L 205.043,616.762 L 203.248,617.17 L 201.517,617.62 L 199.819,618.273 L 198.152,618.885 L 196.518,619.661 L 194.915,620.559 L 193.313,621.457 L 191.806,622.478 L 190.332,623.662 L 188.922,624.886 L 187.544,626.152 L 186.294,627.499 L 185.044,628.928 L 183.89,630.357 L 182.8,631.908 L 181.807,633.582 L 180.813,635.174 L 179.948,636.929 L 179.211,638.726 L 178.506,640.522 L 177.833,642.318 L 177.32,644.237 L 176.903,646.115 L 176.519,648.075 L 176.23,649.953 L 176.102,651.953 L 176.006,653.912 L 176.006,655.831 L 176.102,657.832 L 176.294,659.791 L 176.583,661.71 L 176.903,663.67 L 177.384,665.547 L 177.897,667.385 L 178.538,669.303 L 179.243,671.059 L 180.044,672.814 L 180.91,674.529 L 181.903,676.203 L 182.897,677.754 L 184.018,679.305 L 185.204,680.816 L 186.422,682.285 L 187.736,683.592 L 189.114,684.857 L 190.524,686.001 L 192.031,687.184 L 193.505,688.205 L 195.107,689.144 L 210.972,654.77z"/>
    <path style="fill: none; fill-opacity:0; stroke-width: 0.03; stroke: #805d00" d="M 208.536 616.313 L 206.837,616.517 L 205.075,616.762 L 203.344,617.17 L 201.677,617.62 L 199.979,618.191 L 198.312,618.803 L 196.71,619.579 L 195.139,620.396 L 193.569,621.335 L 192.127,622.355 L 190.62,623.417 L 189.242,624.601 L 187.896,625.784 L 186.614,627.132 L 185.332,628.52 L 184.211,629.949 L 183.089,631.459 L 182.095,633.051 L 181.134,634.643 L 180.301,636.317 L 179.499,637.991 L 178.73,639.746 L 178.089,641.543 L 177.512,643.339 L 177.032,645.258 L 176.679,647.136 L 176.327,649.014 L 176.134,650.932 L 176.006,652.892 L 176.006,654.811 L 176.006,656.729 L 176.198,658.648 L 176.391,660.608 L 176.679,662.445 L 177.096,664.323 L 177.512,666.201 L 178.089,668.038 L 178.794,669.834 L 179.499,671.589 L 180.301,673.345 L 181.198,674.978 L 182.127,676.57 L 183.121,678.203 L 184.211,679.632 L 185.396,681.102 L 186.646,682.49 L 187.928,683.837 L 189.306,684.98 L 190.653,686.164 L 192.127,687.225 L 193.633,688.246 L 195.171,689.226"/>
    <path style="fill: #ffe9aa" d="M 340.803 716.619 L 267.859,721.11 L 268.34,723.355 L 268.949,725.559 L 269.782,727.764 L 270.84,729.887 L 271.962,732.091 L 273.34,734.173 L 274.846,736.215 L 276.545,738.215 L 278.435,740.175 L 280.455,742.093 L 282.57,743.849 L 284.909,745.645 L 287.345,747.36 L 289.941,748.952 L 292.665,750.462 L 295.486,751.891 L 298.498,753.238 L 301.511,754.504 L 304.684,755.606 L 307.921,756.749 L 311.318,757.647 L 314.715,758.546 L 318.145,759.24 L 321.734,759.934 L 325.324,760.464 L 328.945,760.913 L 332.535,761.199 L 336.22,761.403 L 339.938,761.485 L 343.592,761.444 L 347.309,761.281 L 350.963,760.995 L 354.585,760.709 L 358.174,760.179 L 361.764,759.648 L 365.225,758.913 L 368.686,758.097 L 372.051,757.158 L 375.385,756.137 L 378.589,755.076 L 381.666,753.851 L 384.679,752.544 L 387.595,751.156 L 390.384,749.687 L 393.044,748.135 L 395.511,746.421 L 397.915,744.747 L 400.127,742.91 L 402.242,741.073 L 404.197,739.195 L 405.927,737.235 L 407.53,735.194 L 409.004,733.112 L 410.254,730.989 L 340.803,716.619z"/>
    <path style="fill: none; fill-opacity:0; stroke-width: 0.03; stroke: #805d00" d="M 267.923 721.15 L 268.34,723.396 L 268.981,725.559 L 269.782,727.805 L 270.84,730.009 L 272.026,732.132 L 273.34,734.173 L 274.878,736.215 L 276.545,738.256 L 278.435,740.175 L 280.455,742.093 L 282.57,743.849 L 284.909,745.645 L 287.409,747.36 L 289.941,748.952 L 292.665,750.462 L 295.486,751.891 L 298.498,753.238 L 301.511,754.504 L 304.684,755.606 L 307.921,756.749 L 311.254,757.647 L 314.651,758.546 L 318.112,759.24 L 321.702,759.893 L 325.259,760.464 L 328.881,760.873 L 332.503,761.199 L 336.156,761.403 L 339.842,761.485 L 343.528,761.444 L 347.181,761.281 L 350.835,760.995 L 354.52,760.709 L 358.11,760.179 L 361.635,759.607 L 365.161,758.913 L 368.59,758.137 L 371.955,757.158 L 375.256,756.178 L 378.429,755.076 L 381.57,753.851 L 384.583,752.585 L 387.467,751.197 L 390.255,749.728 L 392.883,748.176 L 395.447,746.543 L 397.819,744.788 L 400.062,743.032 L 402.178,741.114 L 404.069,739.276 L 405.863,737.235 L 407.466,735.235 L 408.876,733.153 L 410.19,731.071"/>
  </g>
  <g>
    <rect style="fill: #ffffff" x="281.124" y="625.254" width="107.45" height="31.55"/>
    <text font-size="27.0933" style="fill: #000000;text-anchor:middle;font-family:sans-serif;font-style:normal;font-weight:normal" x="334.849" y="650.404">
      <tspan x="334.849" y="650.404">Internet</tspan>
    </text>
  </g>
  <g>
    <ellipse style="fill: none; fill-opacity:0; stroke-width: 6; stroke: #00ff00" cx="583.15" cy="92.2628" rx="69.3995" ry="70.9417"/>
    <image x="524.317" y="54.7494" width="115.2" height="86.688" xlink:href="file:///home/kebenson/Documents/Research/images/models/devices/computer.svg"/>
    <g>
      <rect style="fill: #ffffff" x="563.117" y="72.9434" width="37.6" height="31.55"/>
      <text font-size="27.0933" style="fill: #000000;text-anchor:middle;font-family:sans-serif;font-style:normal;font-weight:normal" x="581.917" y="98.0934">
        <tspan x="581.917" y="98.0934">H1</tspan>
      </text>
    </g>
  </g>
  <line style="fill: none; fill-opacity:0; stroke-width: 6; stroke: #00ff00" x1="534.077" y1="142.426" x2="460.756" y2="225.437"/>
  <line style="fill: none; fill-opacity:0; stroke-width: 6; stroke: #000000" x1="238.644" y1="136.31" x2="202.955" y2="199.352"/>
  <line style="fill: none; fill-opacity:0; stroke-width: 6; stroke: #000000" x1="359.562" y1="226.056" x2="236.641" y2="227.621"/>
  <line style="fill: none; fill-opacity:0; stroke-width: 6; stroke: #000000" x1="171.352" y1="257.353" x2="112.117" y2="370.451"/>
  <line style="fill: none; fill-opacity:0; stroke-width: 6; stroke: #00ff00" x1="560.443" y1="445.666" x2="432.753" y2="567.528"/>
  <line style="fill: none; fill-opacity:0; stroke-width: 6; stroke: #00ff00" x1="341.989" y1="426.797" x2="342.342" y2="536.42"/>
  <line style="fill: none; fill-opacity:0; stroke-width: 6; stroke: #000000" x1="121.277" y1="427.126" x2="240.137" y2="562.956"/>
  <line style="fill: none; fill-opacity:0; stroke-width: 6; stroke: #000000" x1="291.367" y1="397.388" x2="146.995" y2="398.85"/>
  <line style="fill: none; fill-opacity:0; stroke-width: 6; stroke: #00ff00" x1="398.41" y1="254.852" x2="353.571" y2="367.532"/>
</svg>
