<?xml version="1.0" encoding="UTF-8" standalone="no"?>
<!DOCTYPE svg PUBLIC "-//W3C//DTD SVG 1.0//EN" "http://www.w3.org/TR/2001/PR-SVG-20010719/DTD/svg10.dtd">
<svg width="56cm" height="28cm" viewBox="164 467 1113 553" xmlns="http://www.w3.org/2000/svg" xmlns:xlink="http://www.w3.org/1999/xlink">
  <g>
    <path style="fill: #ffe9aa" d="M 776.529 591.155 L 776.464,588.763 L 776.239,586.371 L 775.82,584.021 L 775.24,581.672 L 774.466,579.28 L 773.596,576.972 L 772.501,574.748 L 771.276,572.482 L 769.955,570.3 L 768.408,568.16 L 766.764,566.104 L 764.959,564.09 L 762.994,562.16 L 760.931,560.313 L 758.74,558.509 L 756.387,556.789 L 753.97,555.152 L 751.456,553.642 L 748.814,552.257 L 746.075,550.914 L 743.239,549.655 L 740.306,548.564 L 737.373,547.557 L 734.312,546.676 L 731.186,545.921 L 728.06,545.207 L 724.869,544.662 L 721.647,544.242 L 718.392,543.948 L 715.105,543.781 L 711.817,543.697 L 711.817,543.697 L 708.563,543.781 L 705.243,543.948 L 702.021,544.242 L 698.798,544.662 L 695.575,545.207 L 692.449,545.921 L 689.323,546.676 L 686.294,547.557 L 683.297,548.564 L 680.429,549.655 L 677.593,550.914 L 674.886,552.257 L 672.211,553.642 L 669.697,555.152 L 667.248,556.789 L 664.895,558.509 L 662.704,560.313 L 660.641,562.16 L 658.675,564.09 L 656.871,566.104 L 655.227,568.16 L 653.713,570.3 L 652.327,572.482 L 651.167,574.748 L 650.071,576.972 L 649.169,579.28 L 648.395,581.672 L 647.879,584.021 L 647.461,586.371 L 647.17,588.763 L 647.138,591.155 L 647.138,591.155 L 647.17,593.547 L 647.461,596.022 L 647.879,598.372 L 648.395,600.764 L 649.169,603.114 L 650.071,605.422 L 651.167,607.645 L 652.327,609.911 L 653.713,612.093 L 655.227,614.191 L 656.871,616.289 L 658.675,618.304 L 660.641,620.192 L 662.704,622.08 L 664.895,623.884 L 667.248,625.605 L 669.697,627.199 L 672.211,628.668 L 674.886,630.179 L 677.593,631.479 L 680.429,632.696 L 683.297,633.829 L 686.294,634.836 L 689.323,635.676 L 692.449,636.473 L 695.575,637.144 L 698.798,637.69 L 702.021,638.067 L 705.243,638.445 L 708.563,638.571 L 711.817,638.613 L 711.817,638.613 L 715.105,638.571 L 718.392,638.445 L 721.647,638.067 L 724.869,637.69 L 728.06,637.144 L 731.186,636.473 L 734.312,635.676 L 737.373,634.836 L 740.306,633.829 L 743.239,632.696 L 746.075,631.479 L 748.814,630.179 L 751.456,628.668 L 753.97,627.199 L 756.387,625.605 L 758.74,623.884 L 760.931,622.08 L 762.994,620.192 L 764.959,618.304 L 766.764,616.289 L 768.408,614.191 L 769.955,612.093 L 771.276,609.911 L 772.501,607.645 L 773.596,605.422 L 774.466,603.114 L 775.24,600.764 L 775.82,598.372 L 776.239,596.022 L 776.464,593.547 L 776.529,591.155z"/>
    <path style="fill: #ffe9aa" d="M 675.111 616.08 L 675.047,613.688 L 674.821,611.296 L 674.563,608.946 L 674.112,606.554 L 673.532,604.205 L 672.823,601.897 L 671.985,599.631 L 671.083,597.407 L 670.052,595.225 L 668.891,593.085 L 667.635,591.029 L 666.249,589.015 L 664.702,587.085 L 663.123,585.154 L 661.447,583.434 L 659.642,581.713 L 657.838,580.077 L 655.84,578.566 L 653.841,577.14 L 651.714,575.839 L 649.588,574.58 L 647.364,573.489 L 645.044,572.482 L 642.723,571.601 L 640.338,570.846 L 637.921,570.132 L 635.472,569.587 L 632.991,569.209 L 630.541,568.873 L 628.028,568.706 L 625.514,568.622 L 625.514,568.622 L 623,568.706 L 620.487,568.873 L 617.973,569.209 L 615.524,569.587 L 613.042,570.132 L 610.625,570.846 L 608.273,571.601 L 605.952,572.482 L 603.664,573.489 L 601.441,574.58 L 599.249,575.839 L 597.187,577.14 L 595.124,578.566 L 593.191,580.077 L 591.354,581.713 L 589.549,583.434 L 587.873,585.154 L 586.262,587.085 L 584.747,589.015 L 583.394,591.029 L 582.105,593.085 L 580.977,595.225 L 579.913,597.407 L 578.979,599.631 L 578.173,601.897 L 577.464,604.205 L 576.884,606.554 L 576.465,608.946 L 576.143,611.296 L 575.949,613.688 L 575.885,616.08 L 575.885,616.08 L 575.949,618.513 L 576.143,620.947 L 576.465,623.297 L 576.884,625.647 L 577.464,628.039 L 578.173,630.263 L 578.979,632.57 L 579.913,634.836 L 580.977,637.018 L 582.105,639.116 L 583.394,641.214 L 584.747,643.229 L 586.262,645.117 L 587.873,647.005 L 589.549,648.809 L 591.354,650.446 L 593.191,652.124 L 595.124,653.593 L 597.187,655.104 L 599.249,656.404 L 601.441,657.621 L 603.664,658.754 L 605.952,659.719 L 608.273,660.6 L 610.625,661.398 L 613.042,662.069 L 615.524,662.615 L 617.973,662.992 L 620.487,663.286 L 623,663.496 L 625.514,663.538 L 625.514,663.538 L 628.028,663.496 L 630.541,663.286 L 632.991,662.992 L 635.472,662.615 L 637.921,662.069 L 640.338,661.398 L 642.723,660.6 L 645.044,659.719 L 647.364,658.754 L 649.588,657.621 L 651.714,656.404 L 653.841,655.104 L 655.84,653.593 L 657.838,652.124 L 659.642,650.446 L 661.447,648.809 L 663.123,647.005 L 664.702,645.117 L 666.249,643.229 L 667.635,641.214 L 668.891,639.116 L 670.052,637.018 L 671.083,634.836 L 671.985,632.57 L 672.823,630.263 L 673.532,628.039 L 674.112,625.647 L 674.563,623.297 L 674.821,620.947 L 675.047,618.513 L 675.111,616.08z"/>
    <path style="fill: #ffe9aa" d="M 612.559 664.503 L 612.527,662.573 L 612.43,660.6 L 612.204,658.67 L 611.914,656.698 L 611.495,654.81 L 611.012,652.922 L 610.496,651.075 L 609.884,649.271 L 609.175,647.467 L 608.369,645.662 L 607.499,644.068 L 606.565,642.389 L 605.566,640.753 L 604.502,639.284 L 603.342,637.816 L 602.15,636.473 L 600.925,635.13 L 599.636,633.871 L 598.25,632.738 L 596.832,631.647 L 595.382,630.64 L 593.867,629.717 L 592.353,628.878 L 590.774,628.164 L 589.162,627.535 L 587.551,627.032 L 585.907,626.528 L 584.199,626.234 L 582.524,625.982 L 580.88,625.857 L 579.172,625.773 L 579.172,625.773 L 577.464,625.857 L 575.756,625.982 L 574.08,626.234 L 572.437,626.528 L 570.761,627.032 L 569.117,627.535 L 567.538,628.164 L 565.991,628.878 L 564.412,629.717 L 562.897,630.64 L 561.447,631.647 L 560.029,632.738 L 558.676,633.871 L 557.354,635.13 L 556.13,636.473 L 554.937,637.816 L 553.809,639.284 L 552.714,640.753 L 551.715,642.389 L 550.78,644.068 L 549.91,645.662 L 549.169,647.467 L 548.46,649.271 L 547.847,651.075 L 547.267,652.922 L 546.784,654.81 L 546.43,656.698 L 546.139,658.67 L 545.882,660.6 L 545.753,662.573 L 545.753,664.503 L 545.753,664.503 L 545.753,666.433 L 545.882,668.447 L 546.139,670.335 L 546.43,672.308 L 546.784,674.238 L 547.267,676.084 L 547.847,677.93 L 548.46,679.735 L 549.169,681.581 L 549.91,683.343 L 550.78,684.98 L 551.715,686.616 L 552.714,688.211 L 553.809,689.721 L 554.937,691.19 L 556.13,692.575 L 557.354,693.918 L 558.676,695.134 L 560.029,696.267 L 561.447,697.358 L 562.897,698.365 L 564.412,699.289 L 565.991,700.128 L 567.538,700.799 L 569.117,701.471 L 570.761,702.016 L 572.437,702.478 L 574.08,702.813 L 575.756,703.023 L 577.464,703.149 L 579.172,703.233 L 579.172,703.233 L 580.88,703.149 L 582.524,703.023 L 584.199,702.813 L 585.907,702.478 L 587.551,702.016 L 589.162,701.471 L 590.774,700.799 L 592.353,700.128 L 593.867,699.289 L 595.382,698.365 L 596.832,697.358 L 598.25,696.267 L 599.636,695.134 L 600.925,693.918 L 602.15,692.575 L 603.342,691.19 L 604.502,689.721 L 605.566,688.211 L 606.565,686.616 L 607.499,684.98 L 608.369,683.343 L 609.175,681.581 L 609.884,679.735 L 610.496,677.93 L 611.012,676.084 L 611.495,674.238 L 611.914,672.308 L 612.204,670.335 L 612.43,668.447 L 612.527,666.433 L 612.559,664.503z"/>
    <path style="fill: #ffe9aa" d="M 666.507 701.806 L 666.474,699.708 L 666.249,697.568 L 665.894,695.47 L 665.475,693.372 L 664.895,691.316 L 664.218,689.26 L 663.348,687.288 L 662.446,685.274 L 661.35,683.385 L 660.19,681.539 L 658.869,679.693 L 657.483,677.93 L 656.001,676.126 L 654.389,674.49 L 652.681,672.937 L 650.877,671.426 L 648.975,670.042 L 646.977,668.699 L 644.947,667.44 L 642.82,666.265 L 640.596,665.216 L 638.34,664.209 L 636.02,663.286 L 633.667,662.489 L 631.25,661.859 L 628.769,661.272 L 626.32,660.768 L 623.806,660.349 L 621.292,660.097 L 618.746,659.971 L 616.168,659.887 L 616.168,659.887 L 613.622,659.971 L 611.109,660.097 L 608.531,660.349 L 606.049,660.768 L 603.535,661.272 L 601.118,661.859 L 598.701,662.489 L 596.317,663.286 L 593.996,664.209 L 591.773,665.216 L 589.549,666.265 L 587.422,667.44 L 585.359,668.699 L 583.394,670.042 L 581.492,671.426 L 579.688,672.937 L 577.98,674.49 L 576.368,676.126 L 574.854,677.93 L 573.468,679.693 L 572.146,681.539 L 570.954,683.385 L 569.923,685.274 L 568.988,687.288 L 568.118,689.26 L 567.409,691.316 L 566.894,693.372 L 566.41,695.47 L 566.088,697.568 L 565.894,699.708 L 565.83,701.806 L 565.83,701.806 L 565.894,703.946 L 566.088,706.044 L 566.41,708.226 L 566.894,710.324 L 567.409,712.338 L 568.118,714.353 L 568.988,716.409 L 569.923,718.381 L 570.954,720.311 L 572.146,722.199 L 573.468,724.046 L 574.854,725.808 L 576.368,727.57 L 577.98,729.249 L 579.688,730.759 L 581.492,732.228 L 583.394,733.697 L 585.359,735.039 L 587.422,736.298 L 589.549,737.473 L 591.773,738.522 L 593.996,739.529 L 596.317,740.369 L 598.701,741.166 L 601.118,741.879 L 603.535,742.425 L 606.049,742.928 L 608.531,743.348 L 611.109,743.558 L 613.622,743.767 L 616.168,743.767 L 616.168,743.767 L 618.746,743.767 L 621.292,743.558 L 623.806,743.348 L 626.32,742.928 L 628.769,742.425 L 631.25,741.879 L 633.667,741.166 L 636.02,740.369 L 638.34,739.529 L 640.596,738.522 L 642.82,737.473 L 644.947,736.298 L 646.977,735.039 L 648.975,733.697 L 650.877,732.228 L 652.681,730.759 L 654.389,729.207 L 656.001,727.486 L 657.483,725.808 L 658.869,724.046 L 660.19,722.199 L 661.35,720.311 L 662.446,718.381 L 663.348,716.409 L 664.218,714.353 L 664.895,712.338 L 665.475,710.324 L 665.894,708.226 L 666.249,706.044 L 666.474,703.946 L 666.507,701.806z"/>
    <path style="fill: #ffe9aa" d="M 787.325 723.5 L 787.196,720.982 L 786.938,718.465 L 786.423,715.947 L 785.746,713.513 L 784.908,710.996 L 783.877,708.604 L 782.652,706.212 L 781.234,703.862 L 779.623,701.554 L 777.882,699.372 L 775.917,697.191 L 773.854,695.009 L 771.598,693.036 L 769.213,691.064 L 766.603,689.176 L 763.96,687.372 L 761.124,685.735 L 758.16,684.141 L 755.13,682.63 L 751.908,681.245 L 748.653,679.986 L 745.269,678.77 L 741.821,677.721 L 738.243,676.839 L 734.666,676 L 730.992,675.287 L 727.319,674.741 L 723.516,674.28 L 719.81,673.986 L 715.975,673.734 L 712.172,673.734 L 712.172,673.734 L 708.369,673.734 L 704.566,673.986 L 700.796,674.28 L 697.058,674.741 L 693.319,675.287 L 689.678,676 L 686.068,676.839 L 682.556,677.721 L 679.043,678.77 L 675.723,679.986 L 672.404,681.245 L 669.246,682.63 L 666.184,684.141 L 663.252,685.735 L 660.416,687.372 L 657.709,689.176 L 655.163,691.064 L 652.778,693.036 L 650.49,695.009 L 648.395,697.191 L 646.462,699.372 L 644.753,701.554 L 643.142,703.862 L 641.724,706.212 L 640.5,708.604 L 639.436,710.996 L 638.598,713.513 L 637.889,715.947 L 637.406,718.465 L 637.116,720.982 L 637.019,723.5 L 637.019,723.5 L 637.116,725.976 L 637.406,728.535 L 637.889,731.053 L 638.598,733.529 L 639.436,736.005 L 640.5,738.438 L 641.724,740.788 L 643.142,743.138 L 644.753,745.446 L 646.462,747.67 L 648.395,749.81 L 650.49,751.908 L 652.778,753.964 L 655.163,755.936 L 657.709,757.824 L 660.416,759.545 L 663.252,761.307 L 666.184,762.902 L 669.246,764.37 L 672.404,765.755 L 675.723,767.056 L 679.043,768.147 L 682.556,769.238 L 686.068,770.203 L 689.678,771.042 L 693.319,771.713 L 697.058,772.301 L 700.796,772.721 L 704.566,773.056 L 708.369,773.266 L 712.172,773.308 L 712.172,773.308 L 715.975,773.266 L 719.81,773.056 L 723.516,772.721 L 727.319,772.301 L 730.992,771.713 L 734.666,771.042 L 738.243,770.203 L 741.821,769.238 L 745.269,768.147 L 748.653,767.056 L 751.908,765.755 L 755.13,764.37 L 758.16,762.902 L 761.124,761.307 L 763.96,759.545 L 766.603,757.824 L 769.213,755.936 L 771.598,753.964 L 773.854,751.908 L 775.917,749.81 L 777.882,747.67 L 779.623,745.446 L 781.234,743.138 L 782.652,740.788 L 783.877,738.438 L 784.908,736.005 L 785.746,733.529 L 786.423,731.053 L 786.938,728.535 L 787.196,725.976 L 787.325,723.5z"/>
    <path style="fill: #ffe9aa" d="M 829.026 608.695 L 828.994,606.848 L 828.801,604.96 L 828.446,603.072 L 828.06,601.225 L 827.479,599.379 L 826.835,597.575 L 826.029,595.77 L 825.095,593.966 L 824.096,592.288 L 823,590.567 L 821.743,588.973 L 820.39,587.378 L 818.972,585.868 L 817.392,584.357 L 815.781,582.972 L 814.009,581.672 L 812.204,580.329 L 810.335,579.196 L 808.337,578.021 L 806.306,576.972 L 804.244,576.049 L 802.053,575.168 L 799.829,574.37 L 797.573,573.699 L 795.253,573.028 L 792.932,572.524 L 790.548,572.146 L 788.163,571.769 L 785.714,571.517 L 783.297,571.433 L 780.847,571.391 L 780.847,571.391 L 778.366,571.433 L 775.949,571.517 L 773.5,571.769 L 771.115,572.146 L 768.762,572.524 L 766.41,573.028 L 764.122,573.699 L 761.833,574.37 L 759.61,575.168 L 757.418,576.049 L 755.324,576.972 L 753.326,578.021 L 751.328,579.196 L 749.458,580.329 L 747.654,581.672 L 745.913,582.972 L 744.27,584.357 L 742.691,585.868 L 741.273,587.378 L 739.951,588.973 L 738.662,590.567 L 737.567,592.288 L 736.568,593.966 L 735.633,595.77 L 734.827,597.575 L 734.183,599.379 L 733.635,601.225 L 733.184,603.072 L 732.894,604.96 L 732.733,606.848 L 732.636,608.695 L 732.636,608.695 L 732.733,610.583 L 732.894,612.429 L 733.184,614.359 L 733.635,616.206 L 734.183,618.094 L 734.827,619.898 L 735.633,621.702 L 736.568,623.381 L 737.567,625.185 L 738.662,626.822 L 739.951,628.416 L 741.273,630.053 L 742.691,631.521 L 744.27,633.032 L 745.913,634.417 L 747.654,635.759 L 749.458,637.018 L 751.328,638.235 L 753.326,639.368 L 755.324,640.417 L 757.418,641.382 L 759.61,642.263 L 761.833,643.019 L 764.122,643.732 L 766.41,644.361 L 768.762,644.865 L 771.115,645.285 L 773.5,645.662 L 775.949,645.872 L 778.366,645.956 L 780.847,646.082 L 780.847,646.082 L 783.297,645.956 L 785.714,645.872 L 788.163,645.662 L 790.548,645.285 L 792.932,644.865 L 795.253,644.361 L 797.573,643.732 L 799.829,643.019 L 802.053,642.263 L 804.244,641.382 L 806.306,640.417 L 808.337,639.368 L 810.335,638.235 L 812.204,637.018 L 814.009,635.759 L 815.781,634.417 L 817.392,633.032 L 818.972,631.521 L 820.39,630.053 L 821.743,628.416 L 823,626.822 L 824.096,625.185 L 825.095,623.381 L 826.029,621.702 L 826.835,619.898 L 827.479,618.094 L 828.06,616.206 L 828.446,614.359 L 828.801,612.429 L 828.994,610.583 L 829.026,608.695z"/>
    <path style="fill: #ffe9aa" d="M 842.691 656.656 L 842.594,654.81 L 842.465,652.922 L 842.143,651.033 L 841.724,649.145 L 841.144,647.257 L 840.499,645.452 L 839.726,643.69 L 838.791,641.97 L 837.792,640.207 L 836.696,638.571 L 835.439,636.934 L 834.086,635.382 L 832.7,633.871 L 831.121,632.319 L 829.51,630.976 L 827.834,629.633 L 826.029,628.332 L 824.096,627.199 L 822.194,626.024 L 820.164,624.975 L 818.101,624.052 L 815.942,623.129 L 813.751,622.374 L 811.495,621.702 L 809.175,621.031 L 806.854,620.528 L 804.502,620.108 L 802.085,619.73 L 799.7,619.562 L 797.283,619.437 L 794.866,619.353 L 794.866,619.353 L 792.417,619.437 L 790.032,619.562 L 787.615,619.73 L 785.262,620.108 L 782.91,620.528 L 780.557,621.031 L 778.269,621.702 L 776.045,622.374 L 773.822,623.129 L 771.663,624.052 L 769.6,624.975 L 767.57,626.024 L 765.604,627.199 L 763.767,628.332 L 761.962,629.633 L 760.19,630.976 L 758.579,632.319 L 757.064,633.871 L 755.678,635.382 L 754.325,636.934 L 753.1,638.571 L 751.94,640.207 L 750.941,641.97 L 750.071,643.69 L 749.265,645.452 L 748.556,647.257 L 748.04,649.145 L 747.621,651.033 L 747.299,652.922 L 747.106,654.81 L 747.074,656.656 L 747.074,656.656 L 747.106,658.502 L 747.299,660.391 L 747.621,662.321 L 748.04,664.167 L 748.556,666.055 L 749.265,667.86 L 750.071,669.664 L 750.941,671.342 L 751.94,673.105 L 753.1,674.783 L 754.325,676.378 L 755.678,677.93 L 757.064,679.483 L 758.579,680.994 L 760.19,682.378 L 761.962,683.679 L 763.767,684.98 L 765.604,686.113 L 767.57,687.288 L 769.6,688.337 L 771.663,689.26 L 773.822,690.183 L 776.045,690.98 L 778.269,691.61 L 780.557,692.281 L 782.91,692.785 L 785.262,693.204 L 787.615,693.582 L 790.032,693.792 L 792.417,693.918 L 794.866,693.96 L 794.866,693.96 L 797.283,693.918 L 799.7,693.792 L 802.085,693.582 L 804.502,693.204 L 806.854,692.785 L 809.175,692.281 L 811.495,691.61 L 813.751,690.98 L 815.942,690.183 L 818.101,689.26 L 820.164,688.337 L 822.194,687.288 L 824.096,686.113 L 826.029,684.98 L 827.834,683.679 L 829.51,682.378 L 831.121,680.994 L 832.7,679.483 L 834.086,677.93 L 835.439,676.378 L 836.696,674.783 L 837.792,673.105 L 838.791,671.342 L 839.726,669.664 L 840.499,667.86 L 841.144,666.055 L 841.724,664.167 L 842.143,662.321 L 842.465,660.391 L 842.594,658.502 L 842.691,656.656z"/>
    <path style="fill: #ffe9aa" d="M 833.345 696.309 L 833.28,693.204 L 833.087,690.141 L 832.829,687.078 L 832.41,683.973 L 831.862,680.952 L 831.186,677.93 L 830.412,675.035 L 829.478,672.14 L 828.478,669.328 L 827.415,666.601 L 826.19,663.915 L 824.837,661.314 L 823.419,658.796 L 821.872,656.404 L 820.261,654.054 L 818.585,651.914 L 816.78,649.816 L 814.943,647.886 L 812.977,645.998 L 810.979,644.319 L 808.917,642.767 L 806.822,641.34 L 804.631,640.039 L 802.407,638.823 L 800.087,637.816 L 797.799,637.018 L 795.414,636.263 L 793.061,635.717 L 790.709,635.382 L 788.324,635.13 L 785.907,635.046 L 785.907,635.046 L 783.49,635.13 L 781.105,635.382 L 778.688,635.717 L 776.336,636.263 L 774.015,637.018 L 771.663,637.816 L 769.407,638.823 L 767.183,640.039 L 764.992,641.34 L 762.832,642.767 L 760.77,644.319 L 758.772,645.998 L 756.871,647.886 L 754.969,649.816 L 753.197,651.914 L 751.489,654.054 L 749.877,656.404 L 748.363,658.796 L 746.912,661.314 L 745.623,663.915 L 744.399,666.601 L 743.271,669.328 L 742.272,672.14 L 741.402,675.035 L 740.628,677.93 L 739.951,680.952 L 739.404,683.973 L 738.985,687.078 L 738.662,690.141 L 738.469,693.204 L 738.405,696.309 L 738.405,696.309 L 738.469,699.414 L 738.662,702.562 L 738.985,705.625 L 739.404,708.646 L 739.951,711.709 L 740.628,714.646 L 741.402,717.584 L 742.272,720.479 L 743.271,723.29 L 744.399,726.102 L 745.623,728.787 L 746.912,731.347 L 748.363,733.823 L 749.877,736.214 L 751.489,738.522 L 753.197,740.788 L 754.969,742.886 L 756.871,744.816 L 758.772,746.621 L 760.77,748.341 L 762.832,749.936 L 764.992,751.362 L 767.183,752.663 L 769.407,753.838 L 771.663,754.803 L 774.015,755.684 L 776.336,756.356 L 778.688,756.901 L 781.105,757.321 L 783.49,757.573 L 785.907,757.656 L 785.907,757.656 L 788.324,757.573 L 790.709,757.321 L 793.061,756.901 L 795.414,756.356 L 797.799,755.684 L 800.087,754.803 L 802.407,753.838 L 804.631,752.663 L 806.822,751.362 L 808.917,749.936 L 810.979,748.341 L 812.977,746.621 L 814.943,744.816 L 816.78,742.886 L 818.585,740.788 L 820.261,738.522 L 821.872,736.214 L 823.419,733.823 L 824.837,729.207 L 826.19,728.787 L 827.415,726.102 L 828.478,723.29 L 829.478,720.479 L 830.412,717.584 L 831.186,714.646 L 831.862,711.709 L 832.41,708.646 L 832.829,705.625 L 833.087,702.562 L 833.28,699.414 L 833.345,696.309z"/>
    <path style="fill: #ffe9aa" d="M 792.352 659.426 L 792.223,656.32 L 791.837,653.215 L 791.224,650.11 L 790.386,647.047 L 789.291,644.068 L 787.937,641.088 L 786.358,638.109 L 784.521,635.214 L 782.523,632.361 L 780.267,629.675 L 777.754,626.99 L 775.079,624.388 L 772.178,621.87 L 769.084,619.437 L 765.797,617.129 L 762.381,614.947 L 758.74,612.849 L 754.937,610.96 L 751.037,609.072 L 746.945,607.352 L 742.723,605.799 L 738.405,604.373 L 733.99,603.072 L 729.478,601.897 L 724.837,600.89 L 720.132,600.009 L 715.395,599.379 L 710.593,598.75 L 705.759,598.414 L 700.893,598.162 L 695.962,598.12 L 695.962,598.12 L 691.096,598.162 L 686.229,598.414 L 681.395,598.75 L 676.561,599.379 L 671.824,600.009 L 667.119,600.89 L 662.51,601.897 L 657.999,603.072 L 653.519,604.373 L 649.265,605.799 L 645.044,607.352 L 640.918,609.072 L 636.987,610.96 L 633.249,612.849 L 629.575,614.947 L 626.126,617.129 L 622.904,619.437 L 619.778,621.87 L 616.877,624.388 L 614.235,626.99 L 611.721,629.675 L 609.497,632.361 L 607.467,635.214 L 605.598,638.109 L 604.051,641.088 L 602.73,644.068 L 601.57,647.047 L 600.732,650.11 L 600.119,653.215 L 599.733,656.32 L 599.636,659.426 L 599.636,659.426 L 599.733,662.489 L 600.119,665.594 L 600.732,668.699 L 601.57,671.762 L 602.73,674.783 L 604.051,677.721 L 605.598,680.7 L 607.467,683.595 L 609.497,686.448 L 611.721,689.176 L 614.235,691.819 L 616.877,694.421 L 619.778,696.939 L 622.904,699.372 L 626.126,701.68 L 629.575,703.862 L 633.249,705.96 L 636.987,707.849 L 640.918,709.779 L 645.044,711.457 L 649.265,713.01 L 653.519,714.437 L 657.999,715.737 L 662.51,716.912 L 667.119,717.919 L 671.824,718.8 L 676.561,719.43 L 681.395,720.017 L 686.229,720.395 L 691.096,720.647 L 695.962,720.689 L 695.962,720.689 L 700.893,720.647 L 705.759,720.395 L 710.593,720.017 L 715.395,719.43 L 720.132,718.8 L 724.837,717.919 L 729.478,716.912 L 733.99,715.737 L 738.405,714.437 L 742.723,713.01 L 746.945,711.457 L 751.037,709.779 L 754.937,707.849 L 758.74,705.96 L 762.381,703.862 L 765.797,701.68 L 769.084,699.372 L 772.178,696.939 L 775.079,694.421 L 777.754,691.819 L 780.267,689.176 L 782.523,686.448 L 784.521,683.595 L 786.358,680.7 L 787.937,677.721 L 789.291,674.783 L 790.386,671.762 L 791.224,668.699 L 791.837,665.594 L 792.223,662.489 L 792.352,659.426z"/>
    <path style="fill: #ffe9aa" d="M 712.559 590.777 L 776.336,580.161 L 775.53,577.811 L 774.531,575.545 L 773.435,573.237 L 772.114,570.971 L 770.696,568.789 L 769.084,566.691 L 767.409,564.593 L 765.475,562.663 L 763.509,560.691 L 761.382,558.845 L 759.094,557.082 L 756.709,555.446 L 754.196,553.851 L 751.585,552.299 L 748.878,550.914 L 746.075,549.655 L 743.239,548.396 L 740.242,547.347 L 737.212,546.424 L 734.151,545.501 L 730.96,544.746 L 727.77,544.158 L 724.547,543.613 L 721.292,543.277 L 718.005,543.025 L 714.686,542.857 L 711.399,542.857 L 708.079,542.899 L 704.76,543.151 L 701.537,543.529 L 698.282,543.948 L 695.06,544.62 L 691.869,545.249 L 688.743,546.13 L 685.714,547.054 L 682.749,548.103 L 679.816,549.278 L 676.98,550.494 L 674.305,551.921 L 671.663,553.348 L 669.117,554.9 L 666.7,556.537 L 664.412,558.299 L 662.253,560.145 L 660.19,561.992 L 658.257,564.048 L 656.452,566.062 L 654.808,568.202 L 653.39,570.342 L 652.005,572.524 L 650.812,574.832 L 649.813,577.14 L 648.975,579.49 L 648.266,581.839 L 712.559,590.777z"/>
    <path style="fill: none; fill-opacity:0; stroke-width: 0.02; stroke: #805d00" d="M 776.336 580.077 L 775.498,577.727 L 774.531,575.419 L 773.403,573.153 L 772.114,570.929 L 770.631,568.748 L 769.052,566.649 L 767.344,564.593 L 765.411,562.537 L 763.413,560.691 L 761.35,558.845 L 759.03,556.998 L 756.709,555.362 L 754.163,553.767 L 751.553,552.299 L 748.878,550.872 L 746.075,549.613 L 743.206,548.396 L 740.209,547.305 L 737.18,546.298 L 734.151,545.459 L 730.96,544.746 L 727.738,544.158 L 724.515,543.613 L 721.26,543.277 L 718.005,543.025 L 714.653,542.857 L 711.366,542.857 L 708.079,542.899 L 704.792,543.151 L 701.505,543.529 L 698.282,543.948 L 695.06,544.578 L 691.901,545.249 L 688.808,546.13 L 685.714,547.054 L 682.781,548.103 L 679.848,549.278 L 677.045,550.452 L 674.305,551.837 L 671.695,553.348 L 669.149,554.9 L 666.732,556.495 L 664.444,558.299 L 662.253,560.104 L 660.19,561.992 L 658.257,564.006 L 656.516,565.978 L 654.84,568.076 L 653.39,570.3 L 652.037,572.482 L 650.877,574.748 L 649.813,577.014 L 648.975,579.364 L 648.298,581.713"/>
    <path style="fill: #ffe9aa" d="M 625.836 615.66 L 657.999,578.86 L 656.001,577.433 L 653.906,575.965 L 651.779,574.622 L 649.588,573.489 L 647.364,572.356 L 645.044,571.391 L 642.659,570.468 L 640.306,569.755 L 637.825,569.083 L 635.375,568.538 L 632.862,568.202 L 630.348,567.908 L 627.834,567.74 L 625.321,567.74 L 622.775,567.74 L 620.261,568.034 L 617.747,568.286 L 615.266,568.789 L 612.817,569.335 L 610.4,570.09 L 607.983,570.888 L 605.662,571.769 L 603.342,572.818 L 601.118,573.993 L 598.959,575.251 L 596.897,576.594 L 594.834,578.021 L 592.901,579.573 L 591.064,581.21 L 589.259,582.972 L 587.583,584.819 L 586.036,586.665 L 584.554,588.679 L 583.2,590.735 L 581.911,592.833 L 580.783,594.973 L 579.72,597.155 L 578.817,599.463 L 578.012,601.771 L 577.367,604.121 L 576.852,606.471 L 576.4,608.862 L 576.078,611.296 L 575.949,613.688 L 575.885,616.08 L 575.981,618.555 L 576.175,620.989 L 576.562,623.339 L 625.836,615.66z"/>
    <path style="fill: none; fill-opacity:0; stroke-width: 0.02; stroke: #805d00" d="M 657.838 578.776 L 655.84,577.266 L 653.809,575.881 L 651.682,574.58 L 649.459,573.405 L 647.17,572.272 L 644.882,571.349 L 642.53,570.426 L 640.113,569.671 L 637.696,569.083 L 635.182,568.538 L 632.701,568.16 L 630.219,567.908 L 627.706,567.74 L 625.127,567.74 L 622.678,567.782 L 620.164,568.034 L 617.586,568.328 L 615.137,568.789 L 612.72,569.377 L 610.239,570.132 L 607.886,570.888 L 605.566,571.895 L 603.278,572.944 L 601.022,574.035 L 598.863,575.335 L 596.8,576.678 L 594.802,578.147 L 592.868,579.615 L 590.967,581.336 L 589.259,583.056 L 587.551,584.861 L 585.972,586.791 L 584.522,588.721 L 583.136,590.777 L 581.911,592.917 L 580.783,595.015 L 579.72,597.281 L 578.785,599.505 L 578.012,601.855 L 577.367,604.163 L 576.787,606.554 L 576.4,608.946 L 576.078,611.338 L 575.949,613.688 L 575.885,616.206 L 576.046,618.597 L 576.239,620.989 L 576.562,623.381"/>
    <path style="fill: #ffe9aa" d="M 616.877 701.387 L 565.121,700.128 L 565.121,702.268 L 565.218,704.408 L 565.476,706.632 L 565.894,708.772 L 566.378,710.912 L 566.99,713.01 L 567.796,715.108 L 568.634,717.164 L 569.697,719.094 L 570.825,721.108 L 572.018,723.039 L 573.436,724.885 L 574.854,726.689 L 576.465,728.452 L 578.108,730.088 L 579.881,731.683 L 581.782,733.193 L 583.716,734.578 L 585.746,736.005 L 587.873,737.221 L 590.065,738.438 L 592.353,739.529 L 594.673,740.494 L 596.993,741.376 L 599.443,742.173 L 601.924,742.844 L 604.438,743.432 L 606.984,743.893 L 609.53,744.271 L 612.108,744.523 L 614.718,744.691 L 617.361,744.691 L 619.907,744.565 L 622.517,744.439 L 625.095,744.145 L 627.641,743.767 L 630.219,743.222 L 632.668,742.634 L 635.182,741.921 L 637.535,741.082 L 639.919,740.117 L 642.24,739.152 L 644.431,738.019 L 646.655,736.844 L 648.685,735.543 L 650.715,734.116 L 616.877,701.387z"/>
    <path style="fill: none; fill-opacity:0; stroke-width: 0.02; stroke: #805d00" d="M 565.186 700.128 L 565.089,702.268 L 565.282,704.408 L 565.476,706.548 L 565.894,708.73 L 566.378,710.87 L 567.022,713.01 L 567.796,715.108 L 568.698,717.122 L 569.697,719.094 L 570.761,721.066 L 572.018,722.997 L 573.339,724.843 L 574.854,726.647 L 576.4,728.41 L 578.076,730.046 L 579.816,731.641 L 581.686,733.151 L 583.619,734.578 L 585.65,735.921 L 587.776,737.179 L 589.968,738.396 L 592.192,739.445 L 594.512,740.41 L 596.929,741.334 L 599.314,742.131 L 601.763,742.76 L 604.277,743.432 L 606.855,743.809 L 609.401,744.271 L 611.947,744.481 L 614.557,744.691 L 617.167,744.691 L 619.745,744.607 L 622.324,744.481 L 624.902,744.187 L 627.448,743.767 L 630.026,743.222 L 632.475,742.676 L 634.989,741.921 L 637.374,741.124 L 639.694,740.243 L 642.014,739.236 L 644.238,738.103 L 646.462,736.928 L 648.556,735.627 L 650.522,734.284"/>
    <path style="fill: #ffe9aa" d="M 781.556 607.813 L 827.093,619.94 L 827.866,618.136 L 828.446,616.331 L 828.994,614.443 L 829.316,612.597 L 829.639,610.751 L 829.703,608.862 L 829.703,606.89 L 829.639,605.002 L 829.381,603.156 L 829.026,601.309 L 828.511,599.421 L 827.898,597.617 L 827.189,595.812 L 826.352,593.966 L 825.385,592.288 L 824.289,590.567 L 823.064,588.931 L 821.808,587.252 L 820.422,585.784 L 818.939,584.231 L 817.36,582.763 L 815.62,581.42 L 813.88,580.119 L 811.978,578.86 L 810.077,577.727 L 808.079,576.678 L 806.016,575.629 L 803.857,574.748 L 801.666,573.867 L 799.41,573.153 L 797.09,572.482 L 794.801,571.937 L 792.384,571.433 L 790,571.097 L 787.583,570.804 L 785.133,570.636 L 782.716,570.468 L 780.299,570.552 L 777.85,570.636 L 775.401,570.846 L 773.016,571.139 L 770.599,571.475 L 768.214,571.937 L 765.862,572.524 L 781.556,607.813z"/>
    <path style="fill: none; fill-opacity:0; stroke-width: 0.02; stroke: #805d00" d="M 822.903 626.78 L 827.061,620.024 L 827.834,618.178 L 828.446,616.415 L 828.93,614.527 L 829.316,612.639 L 829.574,610.793 L 829.671,608.946 L 829.703,607.016 L 829.606,605.086 L 829.381,603.198 L 829.026,601.351 L 828.511,599.505 L 827.898,597.659 L 827.222,595.854 L 826.384,594.05 L 825.385,592.372 L 824.289,590.609 L 823.161,588.973 L 821.84,587.378 L 820.454,585.826 L 818.972,584.273 L 817.392,582.888 L 815.717,581.546 L 813.944,580.161 L 812.107,578.944 L 810.141,577.727 L 808.143,576.678 L 806.081,575.671 L 803.922,574.79 L 801.73,573.951 L 799.507,573.195 L 797.218,572.482 L 794.866,571.937 L 792.546,571.433 L 790.161,571.097 L 787.744,570.846 L 785.295,570.636 L 782.845,570.468 L 780.364,570.468 L 777.947,570.636 L 775.498,570.846 L 773.081,571.097 L 770.696,571.433 L 768.343,571.937 L 765.991,572.482"/>
    <path style="fill: #ffe9aa" d="M 788.034 657.16 L 839.307,672.475 L 840.338,670.503 L 841.176,668.489 L 841.949,666.391 L 842.562,664.293 L 842.981,662.195 L 843.271,660.097 L 843.367,657.915 L 843.367,655.817 L 843.174,653.677 L 842.884,651.495 L 842.368,649.397 L 841.756,647.383 L 840.95,645.285 L 840.08,643.27 L 838.984,641.214 L 837.76,639.326 L 836.439,637.48 L 834.924,635.592 L 833.313,633.829 L 788.034,657.16z"/>
    <path style="fill: none; fill-opacity:0; stroke-width: 0.02; stroke: #805d00" d="M 832.797 679.441 L 839.242,672.601 L 840.209,670.587 L 841.176,668.489 L 841.917,666.433 L 842.529,664.293 L 842.948,662.195 L 843.271,660.097 L 843.4,657.915 L 843.367,655.817 L 843.174,653.593 L 842.819,651.495 L 842.368,649.355 L 841.756,647.257 L 840.95,645.201 L 840.048,643.187 L 838.92,641.172 L 837.728,639.242 L 836.31,637.312 L 834.859,635.466 L 833.216,633.661 L 822.903,626.78"/>
    <path style="fill: #ffe9aa" d="M 785.875 697.652 L 769.697,755.936 L 772.082,756.859 L 774.499,757.656 L 776.916,758.37 L 779.429,758.873 L 781.879,759.209 L 784.328,759.377 L 786.874,759.419 L 789.355,759.209 L 791.804,758.957 L 794.286,758.454 L 796.703,757.866 L 799.12,757.111 L 801.505,756.146 L 803.857,755.055 L 806.113,753.838 L 808.369,752.453 L 810.56,750.985 L 812.687,749.264 L 814.75,747.46 L 816.716,745.572 L 818.585,743.516 L 820.39,741.376 L 822.13,739.068 L 823.773,736.676 L 825.256,734.242 L 826.674,731.641 L 828.027,728.997 L 829.22,726.186 L 830.283,723.416 L 831.282,720.479 L 832.12,717.542 L 832.894,714.562 L 833.506,711.499 L 834.022,708.394 L 834.344,705.331 L 834.634,702.184 L 834.698,699.037 L 834.698,695.89 L 834.569,692.785 L 834.312,689.638 L 833.925,686.532 L 833.441,683.427 L 832.797,680.406 L 785.875,697.652z"/>
    <path style="fill: none; fill-opacity:0; stroke-width: 0.02; stroke: #805d00" d="M 769.826 756.02 L 772.243,756.901 L 774.628,757.782 L 777.077,758.412 L 779.526,758.915 L 782.04,759.209 L 784.489,759.419 L 786.97,759.461 L 789.452,759.209 L 791.966,758.957 L 794.415,758.454 L 796.832,757.866 L 799.249,757.069 L 801.634,756.062 L 803.954,755.013 L 806.274,753.754 L 808.498,752.411 L 810.657,750.859 L 812.752,749.264 L 814.814,747.418 L 816.78,745.488 L 818.649,743.432 L 820.454,741.292 L 822.194,739.026 L 823.806,736.634 L 825.352,734.074 L 826.706,731.557 L 828.06,728.787 L 829.252,726.102 L 830.315,723.29 L 831.282,720.395 L 832.152,717.416 L 832.926,714.353 L 833.506,711.373 L 834.022,708.31 L 834.408,705.205 L 834.634,702.058 L 834.698,698.911 L 834.698,695.764 L 834.537,692.617 L 834.312,689.47 L 833.893,686.323 L 833.345,683.301 L 832.797,680.28"/>
    <path style="fill: #ffe9aa" d="M 580.912 664.503 L 578.463,624.975 L 576.658,625.185 L 574.95,625.437 L 573.146,625.857 L 571.405,626.318 L 569.697,626.99 L 568.021,627.619 L 566.378,628.416 L 564.767,629.339 L 563.155,630.263 L 561.641,631.312 L 560.158,632.528 L 558.74,633.787 L 557.354,635.088 L 556.098,636.473 L 554.841,637.941 L 553.681,639.41 L 552.585,641.005 L 551.586,642.725 L 550.587,644.361 L 549.717,646.166 L 548.975,648.012 L 548.266,649.858 L 547.59,651.705 L 547.074,653.677 L 546.655,655.607 L 546.268,657.621 L 545.978,659.551 L 545.849,661.607 L 545.753,663.622 L 545.753,665.594 L 545.849,667.65 L 546.043,669.664 L 546.333,671.636 L 546.655,673.65 L 547.138,675.581 L 547.654,677.469 L 548.299,679.441 L 549.008,681.245 L 549.813,683.05 L 550.683,684.812 L 551.682,686.532 L 552.682,688.127 L 553.809,689.721 L 555.002,691.274 L 556.226,692.785 L 557.548,694.127 L 558.934,695.428 L 560.351,696.603 L 561.866,697.82 L 563.349,698.869 L 564.96,699.834 L 580.912,664.503z"/>
    <path style="fill: none; fill-opacity:0; stroke-width: 0.02; stroke: #805d00" d="M 578.463 624.975 L 576.755,625.185 L 574.982,625.437 L 573.242,625.857 L 571.566,626.318 L 569.858,626.906 L 568.183,627.535 L 566.571,628.332 L 564.992,629.172 L 563.413,630.137 L 561.963,631.186 L 560.448,632.277 L 559.062,633.494 L 557.709,634.71 L 556.42,636.095 L 555.131,637.522 L 554.003,638.99 L 552.875,640.543 L 551.876,642.179 L 550.909,643.816 L 550.071,645.536 L 549.265,647.257 L 548.492,649.061 L 547.847,650.907 L 547.267,652.754 L 546.784,654.726 L 546.43,656.656 L 546.075,658.586 L 545.882,660.558 L 545.753,662.573 L 545.753,664.545 L 545.753,666.517 L 545.946,668.489 L 546.139,670.503 L 546.43,672.391 L 546.848,674.322 L 547.267,676.252 L 547.847,678.14 L 548.556,679.986 L 549.265,681.791 L 550.071,683.595 L 550.973,685.274 L 551.908,686.91 L 552.907,688.588 L 554.003,690.057 L 555.195,691.568 L 556.452,692.994 L 557.741,694.379 L 559.127,695.554 L 560.48,696.771 L 561.963,697.862 L 563.477,698.911 L 565.024,699.918"/>
    <path style="fill: #ffe9aa" d="M 711.463 728.074 L 638.115,732.69 L 638.598,734.997 L 639.21,737.263 L 640.048,739.529 L 641.112,741.711 L 642.24,743.977 L 643.626,746.117 L 645.14,748.215 L 646.848,750.271 L 648.75,752.285 L 650.78,754.258 L 652.907,756.062 L 655.259,757.908 L 657.709,759.671 L 660.319,761.307 L 663.058,762.86 L 665.894,764.328 L 668.924,765.713 L 671.953,767.014 L 675.143,768.147 L 678.398,769.322 L 681.814,770.245 L 685.23,771.168 L 688.679,771.881 L 692.288,772.595 L 695.897,773.14 L 699.539,773.602 L 703.148,773.895 L 706.855,774.105 L 710.593,774.189 L 714.267,774.147 L 718.005,773.979 L 721.679,773.686 L 725.32,773.392 L 728.93,772.846 L 732.539,772.301 L 736.02,771.546 L 739.5,770.706 L 742.884,769.741 L 746.236,768.692 L 749.458,767.601 L 752.552,766.342 L 755.581,765 L 758.514,763.573 L 761.318,762.062 L 763.993,760.468 L 766.474,758.706 L 768.891,756.985 L 771.115,755.097 L 773.242,753.209 L 775.208,751.278 L 776.948,749.264 L 778.559,747.166 L 780.042,745.026 L 781.298,742.844 L 711.463,728.074z"/>
    <path style="fill: none; fill-opacity:0; stroke-width: 0.02; stroke: #805d00" d="M 638.179 732.732 L 638.598,735.039 L 639.243,737.263 L 640.048,739.571 L 641.112,741.837 L 642.304,744.019 L 643.626,746.117 L 645.172,748.215 L 646.848,750.313 L 648.75,752.285 L 650.78,754.258 L 652.907,756.062 L 655.259,757.908 L 657.773,759.671 L 660.319,761.307 L 663.058,762.86 L 665.894,764.328 L 668.924,765.713 L 671.953,767.014 L 675.143,768.147 L 678.398,769.322 L 681.75,770.245 L 685.166,771.168 L 688.646,771.881 L 692.256,772.553 L 695.833,773.14 L 699.475,773.56 L 703.116,773.895 L 706.79,774.105 L 710.496,774.189 L 714.202,774.147 L 717.876,773.979 L 721.55,773.686 L 725.256,773.392 L 728.865,772.846 L 732.41,772.259 L 735.955,771.546 L 739.404,770.748 L 742.787,769.741 L 746.107,768.734 L 749.297,767.601 L 752.455,766.342 L 755.485,765.042 L 758.385,763.615 L 761.189,762.104 L 763.832,760.51 L 766.41,758.831 L 768.794,757.027 L 771.05,755.223 L 773.177,753.251 L 775.079,751.362 L 776.883,749.264 L 778.495,747.208 L 779.913,745.068 L 781.234,742.928"/>
  </g>
  <g>
    <path style="fill: #0078aa" d="M 583.3 787.881 L 583.215,786.986 L 583.03,786.091 L 582.718,785.211 L 582.277,784.344 L 581.681,783.463 L 580.985,782.611 L 580.146,781.773 L 579.209,780.949 L 578.129,780.139 L 576.936,779.358 L 575.643,778.605 L 574.237,777.838 L 572.717,777.114 L 571.098,776.432 L 569.365,775.778 L 567.546,775.153 L 565.657,774.543 L 563.668,773.989 L 561.609,773.463 L 559.464,772.966 L 557.248,772.511 L 554.961,772.128 L 552.631,771.73 L 550.273,771.417 L 547.844,771.119 L 545.372,770.892 L 542.872,770.679 L 540.343,770.537 L 537.815,770.395 L 535.258,770.352 L 532.701,770.309 L 532.701,770.309 L 530.13,770.352 L 527.573,770.395 L 525.044,770.537 L 522.516,770.679 L 520.016,770.892 L 517.544,771.119 L 515.115,771.417 L 512.743,771.73 L 510.413,772.128 L 508.14,772.511 L 505.924,772.966 L 503.779,773.463 L 501.719,773.989 L 499.731,774.543 L 497.827,775.153 L 496.023,775.778 L 494.29,776.432 L 492.671,777.114 L 491.151,777.838 L 489.744,778.605 L 488.452,779.358 L 487.258,780.139 L 486.179,780.949 L 485.241,781.773 L 484.403,782.611 L 483.707,783.463 L 483.111,784.344 L 482.656,785.211 L 482.329,786.091 L 482.159,786.986 L 482.088,787.881 L 482.088,787.881 L 482.159,788.762 L 482.329,789.657 L 482.656,790.538 L 483.111,791.404 L 483.707,792.285 L 484.403,793.137 L 485.241,793.975 L 486.179,794.799 L 487.258,795.609 L 488.452,796.39 L 489.744,797.171 L 491.151,797.91 L 492.671,798.635 L 494.29,799.316 L 496.023,799.998 L 497.827,800.623 L 499.731,801.206 L 501.719,801.774 L 503.779,802.285 L 505.924,802.783 L 508.14,803.237 L 510.413,803.649 L 512.743,804.018 L 515.115,804.359 L 517.544,804.629 L 520.016,804.885 L 522.516,805.07 L 525.044,805.24 L 527.573,805.354 L 530.13,805.425 L 532.701,805.439 L 532.701,805.439 L 535.258,805.425 L 537.815,805.354 L 540.343,805.24 L 542.872,805.07 L 545.372,804.885 L 547.844,804.629 L 550.273,804.359 L 552.631,804.018 L 554.961,803.649 L 557.248,803.237 L 559.464,802.783 L 561.609,802.285 L 563.668,801.774 L 565.657,801.206 L 567.546,800.623 L 569.365,799.998 L 571.098,799.316 L 572.717,798.635 L 574.237,797.91 L 575.643,797.171 L 576.936,796.39 L 578.129,795.609 L 579.209,794.799 L 580.146,793.975 L 580.985,793.137 L 581.681,792.285 L 582.277,791.404 L 582.718,790.538 L 583.03,789.657 L 583.215,788.762 L 583.3,787.881z"/>
    <path style="fill: none; fill-opacity:0; stroke-width: 0.02; stroke: #aae6ff" d="M 582.703 787.597 L 582.632,786.702 L 582.462,785.85 L 582.135,784.969 L 581.695,784.117 L 581.112,783.265 L 580.374,782.426 L 579.607,781.617 L 578.641,780.793 L 577.575,779.997 L 576.396,779.202 L 575.089,778.463 L 573.697,777.725 L 572.192,777.014 L 570.586,776.332 L 568.882,775.679 L 567.063,775.082 L 565.16,774.514 L 563.2,773.932 L 561.154,773.449 L 559.023,772.937 L 556.807,772.497 L 554.563,772.099 L 552.262,771.73 L 549.889,771.417 L 547.489,771.119 L 545.017,770.892 L 542.545,770.679 L 540.031,770.537 L 537.502,770.437 L 534.96,770.352 L 532.417,770.352 L 532.417,770.352 L 529.846,770.352 L 527.317,770.437 L 524.775,770.537 L 522.289,770.679 L 519.803,770.892 L 517.345,771.119 L 514.93,771.417 L 512.558,771.73 L 510.243,772.099 L 507.998,772.497 L 505.782,772.937 L 503.651,773.449 L 501.62,773.932 L 499.645,774.514 L 497.742,775.082 L 495.938,775.679 L 494.247,776.332 L 492.642,777.014 L 491.122,777.725 L 489.702,778.463 L 488.438,779.202 L 487.244,779.997 L 486.179,780.793 L 485.241,781.617 L 484.417,782.426 L 483.707,783.265 L 483.139,784.117 L 482.684,784.969 L 482.358,785.85 L 482.173,786.702 L 482.102,787.597 L 482.102,787.597 L 482.173,788.464 L 482.358,789.359 L 482.684,790.197 L 483.139,791.063 L 483.707,791.93 L 484.417,792.754 L 485.241,793.578 L 486.179,794.401 L 487.244,795.183 L 488.438,795.978 L 489.702,796.731 L 491.122,797.441 L 492.642,798.166 L 494.247,798.862 L 495.938,799.487 L 497.742,800.098 L 499.645,800.68 L 501.62,801.248 L 503.651,801.746 L 505.782,802.229 L 507.998,802.683 L 510.243,803.081 L 512.558,803.436 L 514.93,803.777 L 517.345,804.061 L 519.803,804.288 L 522.289,804.487 L 524.775,804.629 L 527.317,804.757 L 529.846,804.828 L 532.417,804.842 L 532.417,804.842 L 534.96,804.828 L 537.502,804.757 L 540.031,804.629 L 542.545,804.487 L 545.017,804.288 L 547.489,804.061 L 549.889,803.777 L 552.262,803.436 L 554.563,803.081 L 556.807,802.683 L 559.023,802.229 L 561.154,801.746 L 563.2,801.248 L 565.16,800.68 L 567.063,800.098 L 568.882,799.487 L 570.586,798.862 L 572.192,798.166 L 573.697,797.441 L 575.089,796.731 L 576.396,795.978 L 577.575,795.183 L 578.641,794.401 L 579.607,793.578 L 580.374,792.754 L 581.112,791.93 L 581.695,791.063 L 582.135,790.197 L 582.462,789.359 L 582.632,788.464 L 582.703,787.597"/>
    <path style="fill: #0078aa" d="M 482.102 763.548 L 482.102,788.208 L 582.703,788.208 L 582.703,763.548 L 482.102,763.548z"/>
    <path style="fill: #00b4ff" d="M 583.3 763.249 L 583.215,762.354 L 583.03,761.445 L 582.718,760.579 L 582.277,759.698 L 581.681,758.817 L 580.985,757.965 L 580.146,757.127 L 579.209,756.317 L 578.129,755.493 L 576.936,754.726 L 575.643,753.945 L 574.237,753.206 L 572.717,752.468 L 571.098,751.8 L 569.365,751.132 L 567.546,750.493 L 565.657,749.896 L 563.668,749.342 L 561.609,748.817 L 559.464,748.334 L 557.248,747.894 L 554.961,747.467 L 552.631,747.098 L 550.273,746.757 L 547.844,746.473 L 545.372,746.232 L 542.872,746.033 L 540.343,745.876 L 537.815,745.763 L 535.258,745.692 L 532.701,745.678 L 532.701,745.678 L 530.13,745.692 L 527.573,745.763 L 525.044,745.876 L 522.516,746.033 L 520.016,746.232 L 517.544,746.473 L 515.115,746.757 L 512.743,747.098 L 510.413,747.467 L 508.14,747.894 L 505.924,748.334 L 503.779,748.817 L 501.719,749.342 L 499.731,749.896 L 497.827,750.493 L 496.023,751.132 L 494.29,751.8 L 492.671,752.468 L 491.151,753.206 L 489.744,753.945 L 488.452,754.726 L 487.258,755.493 L 486.179,756.317 L 485.241,757.127 L 484.403,757.965 L 483.707,758.817 L 483.111,759.698 L 482.656,760.579 L 482.329,761.445 L 482.159,762.354 L 482.088,763.249 L 482.088,763.249 L 482.159,764.13 L 482.329,765.025 L 482.656,765.906 L 483.111,766.758 L 483.707,767.639 L 484.403,768.491 L 485.241,769.329 L 486.179,770.167 L 487.258,770.977 L 488.452,771.744 L 489.744,772.511 L 491.151,773.278 L 492.671,773.989 L 494.29,774.67 L 496.023,775.338 L 497.827,775.963 L 499.731,776.574 L 501.719,777.114 L 503.779,777.639 L 505.924,778.136 L 508.14,778.605 L 510.413,778.989 L 512.743,779.372 L 515.115,779.713 L 517.544,779.983 L 520.016,780.225 L 522.516,780.423 L 525.044,780.58 L 527.573,780.708 L 530.13,780.779 L 532.701,780.793 L 532.701,780.793 L 535.258,780.779 L 537.815,780.708 L 540.343,780.58 L 542.872,780.423 L 545.372,780.225 L 547.844,779.983 L 550.273,779.713 L 552.631,779.372 L 554.961,778.989 L 557.248,778.605 L 559.464,778.136 L 561.609,777.639 L 563.668,777.114 L 565.657,776.574 L 567.546,775.963 L 569.365,775.338 L 571.098,774.67 L 572.717,773.989 L 574.237,773.278 L 575.643,772.511 L 576.936,771.744 L 578.129,770.977 L 579.209,770.167 L 580.146,769.329 L 580.985,768.491 L 581.681,767.639 L 582.277,766.758 L 582.718,765.906 L 583.03,765.025 L 583.215,764.13 L 583.3,763.249z"/>
    <path style="fill: none; fill-opacity:0; stroke-width: 0.02; stroke: #aae6ff" d="M 582.703 762.951 L 582.632,762.056 L 582.462,761.204 L 582.135,760.337 L 581.695,759.471 L 581.112,758.633 L 580.374,757.766 L 579.607,756.971 L 578.641,756.147 L 577.575,755.365 L 576.396,754.556 L 575.089,753.831 L 573.697,753.078 L 572.192,752.368 L 570.586,751.715 L 568.882,751.033 L 567.063,750.465 L 565.16,749.854 L 563.2,749.3 L 561.154,748.788 L 559.023,748.291 L 556.807,747.851 L 554.563,747.453 L 552.262,747.098 L 549.889,746.757 L 547.489,746.473 L 545.017,746.246 L 542.545,746.033 L 540.031,745.891 L 537.502,745.777 L 534.96,745.706 L 532.417,745.692 L 532.417,745.692 L 529.846,745.706 L 527.317,745.777 L 524.775,745.891 L 522.289,746.033 L 519.803,746.246 L 517.345,746.473 L 514.93,746.757 L 512.558,747.098 L 510.243,747.453 L 507.998,747.851 L 505.782,748.291 L 503.651,748.788 L 501.62,749.3 L 499.645,749.854 L 497.742,750.465 L 495.938,751.033 L 494.247,751.715 L 492.642,752.368 L 491.122,753.078 L 489.702,753.831 L 488.438,754.556 L 487.244,755.365 L 486.179,756.147 L 485.241,756.971 L 484.417,757.766 L 483.707,758.633 L 483.139,759.471 L 482.684,760.337 L 482.358,761.204 L 482.173,762.056 L 482.102,762.951 L 482.102,762.951 L 482.173,763.832 L 482.358,764.698 L 482.684,765.565 L 483.139,766.417 L 483.707,767.269 L 484.417,768.122 L 485.241,768.931 L 486.179,769.755 L 487.244,770.537 L 488.438,771.332 L 489.702,772.085 L 491.122,772.795 L 492.642,773.52 L 494.247,774.202 L 495.938,774.841 L 497.742,775.452 L 499.645,776.034 L 501.62,776.588 L 503.651,777.099 L 505.782,777.597 L 507.998,778.065 L 510.243,778.435 L 512.558,778.818 L 514.93,779.145 L 517.345,779.415 L 519.803,779.671 L 522.289,779.869 L 524.775,779.997 L 527.317,780.125 L 529.846,780.196 L 532.417,780.21 L 532.417,780.21 L 534.96,780.196 L 537.502,780.125 L 540.031,779.997 L 542.545,779.869 L 545.017,779.671 L 547.489,779.415 L 549.889,779.145 L 552.262,778.818 L 554.563,778.435 L 556.807,778.065 L 559.023,777.597 L 561.154,777.099 L 563.2,776.588 L 565.16,776.034 L 567.063,775.452 L 568.882,774.841 L 570.586,774.202 L 572.192,773.52 L 573.697,772.795 L 575.089,772.085 L 576.396,771.332 L 577.575,770.537 L 578.641,769.755 L 579.607,768.931 L 580.374,768.122 L 581.112,767.269 L 581.695,766.417 L 582.135,765.565 L 582.462,764.698 L 582.632,763.832 L 582.703,762.951"/>
    <path style="fill: #000000" d="M 533.639 759.258 L 540.997,761.729 L 558.796,754.314 L 566.765,756.772 L 562.461,750.635 L 541.622,750.635 L 550.188,752.468 L 533.639,759.258z"/>
    <path style="fill: #000000" d="M 530.556 766.034 L 523.212,763.548 L 506.024,770.977 L 497.444,768.491 L 501.719,775.267 L 523.212,775.267 L 513.993,772.795 L 530.556,766.034z"/>
    <path style="fill: #000000" d="M 499.276 752.468 L 506.62,750.01 L 524.434,756.772 L 532.417,754.939 L 528.127,761.076 L 507.245,761.076 L 515.825,759.258 L 499.276,752.468z"/>
    <path style="fill: #000000" d="M 565.529 773.406 L 558.157,775.878 L 540.997,768.491 L 532.417,770.977 L 536.707,764.784 L 558.157,764.784 L 548.966,766.63 L 565.529,773.406z"/>
    <path style="fill: #ffffff" d="M 534.249 759.869 L 541.622,762.326 L 559.378,754.939 L 567.376,757.411 L 563.072,751.232 L 542.219,751.232 L 550.813,753.064 L 534.249,759.869z"/>
    <path style="fill: #ffffff" d="M 531.181 766.63 L 523.794,764.173 L 506.62,771.559 L 498.04,769.102 L 502.33,775.878 L 523.794,775.878 L 514.604,773.406 L 531.181,766.63z"/>
    <path style="fill: #ffffff" d="M 499.887 753.064 L 507.245,750.635 L 525.044,757.411 L 533.014,755.536 L 528.738,761.729 L 507.856,761.729 L 516.464,759.869 L 499.887,753.064z"/>
    <path style="fill: #ffffff" d="M 566.126 774.045 L 558.796,776.503 L 541.622,769.102 L 533.014,771.559 L 537.304,765.423 L 558.796,765.423 L 549.591,767.255 L 566.126,774.045z"/>
    <path style="fill: none; fill-opacity:0; stroke-width: 0.02; stroke: #aae6ff" d="M 482.102 762.951 L 482.102,787.569"/>
    <path style="fill: none; fill-opacity:0; stroke-width: 0.02; stroke: #aae6ff" d="M 582.703 762.951 L 582.703,787.569"/>
  </g>
  <image x="165.534" y="562.788" width="115.2" height="86.688" xlink:href="file:///home/kebenson/Documents/Research/images/models/devices/computer.svg"/>
  <image x="474.04" y="477.842" width="115.2" height="86.688" xlink:href="file:///home/kebenson/Documents/Research/images/models/devices/computer.svg"/>
  <line style="fill: none; fill-opacity:0; stroke-width: 6; stroke: #000000" x1="491.398" y1="752.941" x2="282.731" y2="638.746"/>
  <line style="fill: none; fill-opacity:0; stroke-width: 6; stroke: #000000" x1="531.823" y1="566.531" x2="532.548" y2="745.69"/>
  <g>
    <rect style="fill: #ffffff" x="514.619" y="750.376" width="36.1" height="31.55"/>
    <text font-size="27.0933" style="fill: #000000;text-anchor:middle;font-family:sans-serif;font-style:normal;font-weight:normal" x="532.669" y="775.526">
      <tspan x="532.669" y="775.526">R1</tspan>
    </text>
  </g>
  <image x="813.288" y="468.904" width="115.2" height="86.688" xlink:href="file:///home/kebenson/Documents/Research/images/models/devices/computer.svg"/>
  <image x="1160.55" y="654.434" width="115.2" height="86.688" xlink:href="file:///home/kebenson/Documents/Research/images/models/devices/computer.svg"/>
  <line style="fill: none; fill-opacity:0; stroke-width: 6; stroke: #000000" x1="922.333" y1="686.211" x2="884.296" y2="557.585"/>
  <line style="fill: none; fill-opacity:0; stroke-width: 6; stroke: #000000" x1="1158.54" y1="702.331" x2="981.718" y2="715.836"/>
  <text font-size="12.8" style="fill: #000000;text-anchor:start;font-family:sans-serif;font-style:normal;font-weight:normal" x="370.802" y="551.286">
    <tspan x="370.802" y="551.286"></tspan>
  </text>
  <g>
    <path style="fill: #0078aa" d="M 755.015 918.83 L 754.93,917.935 L 754.745,917.04 L 754.433,916.16 L 753.992,915.293 L 753.396,914.412 L 752.7,913.56 L 751.862,912.722 L 750.924,911.898 L 749.845,911.088 L 748.651,910.307 L 747.359,909.554 L 745.952,908.787 L 744.432,908.063 L 742.813,907.381 L 741.08,906.727 L 739.262,906.102 L 737.372,905.492 L 735.384,904.938 L 733.324,904.412 L 731.179,903.915 L 728.963,903.46 L 726.676,903.077 L 724.346,902.679 L 721.988,902.366 L 719.559,902.068 L 717.087,901.841 L 714.587,901.628 L 712.059,901.486 L 709.53,901.344 L 706.973,901.301 L 704.416,901.258 L 704.416,901.258 L 701.845,901.301 L 699.288,901.344 L 696.76,901.486 L 694.231,901.628 L 691.731,901.841 L 689.259,902.068 L 686.83,902.366 L 684.458,902.679 L 682.128,903.077 L 679.855,903.46 L 677.639,903.915 L 675.494,904.412 L 673.435,904.938 L 671.446,905.492 L 669.542,906.102 L 667.738,906.727 L 666.005,907.381 L 664.386,908.063 L 662.866,908.787 L 661.46,909.554 L 660.167,910.307 L 658.974,911.088 L 657.894,911.898 L 656.957,912.722 L 656.118,913.56 L 655.422,914.412 L 654.826,915.293 L 654.371,916.16 L 654.044,917.04 L 653.874,917.935 L 653.803,918.83 L 653.803,918.83 L 653.874,919.711 L 654.044,920.606 L 654.371,921.487 L 654.826,922.353 L 655.422,923.234 L 656.118,924.086 L 656.957,924.924 L 657.894,925.748 L 658.974,926.558 L 660.167,927.339 L 661.46,928.12 L 662.866,928.859 L 664.386,929.584 L 666.005,930.265 L 667.738,930.947 L 669.542,931.572 L 671.446,932.155 L 673.435,932.723 L 675.494,933.234 L 677.639,933.732 L 679.855,934.186 L 682.128,934.598 L 684.458,934.967 L 686.83,935.308 L 689.259,935.578 L 691.731,935.834 L 694.231,936.019 L 696.76,936.189 L 699.288,936.303 L 701.845,936.374 L 704.416,936.388 L 704.416,936.388 L 706.973,936.374 L 709.53,936.303 L 712.059,936.189 L 714.587,936.019 L 717.087,935.834 L 719.559,935.578 L 721.988,935.308 L 724.346,934.967 L 726.676,934.598 L 728.963,934.186 L 731.179,933.732 L 733.324,933.234 L 735.384,932.723 L 737.372,932.155 L 739.262,931.572 L 741.08,930.947 L 742.813,930.265 L 744.432,929.584 L 745.952,928.859 L 747.359,928.12 L 748.651,927.339 L 749.845,926.558 L 750.924,925.748 L 751.862,924.924 L 752.7,924.086 L 753.396,923.234 L 753.992,922.353 L 754.433,921.487 L 754.745,920.606 L 754.93,919.711 L 755.015,918.83z"/>
    <path style="fill: none; fill-opacity:0; stroke-width: 0.02; stroke: #aae6ff" d="M 754.419 918.546 L 754.348,917.651 L 754.177,916.799 L 753.85,915.918 L 753.41,915.066 L 752.828,914.214 L 752.089,913.375 L 751.322,912.566 L 750.356,911.742 L 749.291,910.946 L 748.111,910.151 L 746.805,909.412 L 745.412,908.674 L 743.907,907.963 L 742.302,907.281 L 740.597,906.628 L 738.779,906.031 L 736.875,905.463 L 734.915,904.881 L 732.869,904.398 L 730.738,903.886 L 728.522,903.446 L 726.278,903.048 L 723.977,902.679 L 721.605,902.366 L 719.204,902.068 L 716.732,901.841 L 714.26,901.628 L 711.746,901.486 L 709.218,901.386 L 706.675,901.301 L 704.132,901.301 L 704.132,901.301 L 701.561,901.301 L 699.032,901.386 L 696.49,901.486 L 694.004,901.628 L 691.518,901.841 L 689.06,902.068 L 686.645,902.366 L 684.273,902.679 L 681.958,903.048 L 679.713,903.446 L 677.497,903.886 L 675.366,904.398 L 673.335,904.881 L 671.361,905.463 L 669.457,906.031 L 667.653,906.628 L 665.963,907.281 L 664.357,907.963 L 662.837,908.674 L 661.417,909.412 L 660.153,910.151 L 658.959,910.946 L 657.894,911.742 L 656.957,912.566 L 656.133,913.375 L 655.422,914.214 L 654.854,915.066 L 654.4,915.918 L 654.073,916.799 L 653.888,917.651 L 653.817,918.546 L 653.817,918.546 L 653.888,919.413 L 654.073,920.308 L 654.4,921.146 L 654.854,922.012 L 655.422,922.879 L 656.133,923.703 L 656.957,924.527 L 657.894,925.35 L 658.959,926.132 L 660.153,926.927 L 661.417,927.68 L 662.837,928.39 L 664.357,929.115 L 665.963,929.811 L 667.653,930.436 L 669.457,931.047 L 671.361,931.629 L 673.335,932.197 L 675.366,932.695 L 677.497,933.178 L 679.713,933.632 L 681.958,934.03 L 684.273,934.385 L 686.645,934.726 L 689.06,935.01 L 691.518,935.237 L 694.004,935.436 L 696.49,935.578 L 699.032,935.706 L 701.561,935.777 L 704.132,935.791 L 704.132,935.791 L 706.675,935.777 L 709.218,935.706 L 711.746,935.578 L 714.26,935.436 L 716.732,935.237 L 719.204,935.01 L 721.605,934.726 L 723.977,934.385 L 726.278,934.03 L 728.522,933.632 L 730.738,933.178 L 732.869,932.695 L 734.915,932.197 L 736.875,931.629 L 738.779,931.047 L 740.597,930.436 L 742.302,929.811 L 743.907,929.115 L 745.412,928.39 L 746.805,927.68 L 748.111,926.927 L 749.291,926.132 L 750.356,925.35 L 751.322,924.527 L 752.089,923.703 L 752.828,922.879 L 753.41,922.012 L 753.85,921.146 L 754.177,920.308 L 754.348,919.413 L 754.419,918.546"/>
    <path style="fill: #0078aa" d="M 653.817 894.497 L 653.817,919.157 L 754.419,919.157 L 754.419,894.497 L 653.817,894.497z"/>
    <path style="fill: #00b4ff" d="M 755.015 894.198 L 754.93,893.303 L 754.745,892.394 L 754.433,891.528 L 753.992,890.647 L 753.396,889.766 L 752.7,888.914 L 751.862,888.076 L 750.924,887.266 L 749.845,886.442 L 748.651,885.675 L 747.359,884.894 L 745.952,884.155 L 744.432,883.417 L 742.813,882.749 L 741.08,882.081 L 739.262,881.442 L 737.372,880.845 L 735.384,880.291 L 733.324,879.766 L 731.179,879.283 L 728.963,878.843 L 726.676,878.416 L 724.346,878.047 L 721.988,877.706 L 719.559,877.422 L 717.087,877.181 L 714.587,876.982 L 712.059,876.825 L 709.53,876.712 L 706.973,876.641 L 704.416,876.627 L 704.416,876.627 L 701.845,876.641 L 699.288,876.712 L 696.76,876.825 L 694.231,876.982 L 691.731,877.181 L 689.259,877.422 L 686.83,877.706 L 684.458,878.047 L 682.128,878.416 L 679.855,878.843 L 677.639,879.283 L 675.494,879.766 L 673.435,880.291 L 671.446,880.845 L 669.542,881.442 L 667.738,882.081 L 666.005,882.749 L 664.386,883.417 L 662.866,884.155 L 661.46,884.894 L 660.167,885.675 L 658.974,886.442 L 657.894,887.266 L 656.957,888.076 L 656.118,888.914 L 655.422,889.766 L 654.826,890.647 L 654.371,891.528 L 654.044,892.394 L 653.874,893.303 L 653.803,894.198 L 653.803,894.198 L 653.874,895.079 L 654.044,895.974 L 654.371,896.855 L 654.826,897.707 L 655.422,898.588 L 656.118,899.44 L 656.957,900.278 L 657.894,901.116 L 658.974,901.926 L 660.167,902.693 L 661.46,903.46 L 662.866,904.227 L 664.386,904.938 L 666.005,905.619 L 667.738,906.287 L 669.542,906.912 L 671.446,907.523 L 673.435,908.063 L 675.494,908.588 L 677.639,909.085 L 679.855,909.554 L 682.128,909.938 L 684.458,910.321 L 686.83,910.662 L 689.259,910.932 L 691.731,911.174 L 694.231,911.373 L 696.76,911.529 L 699.288,911.657 L 701.845,911.728 L 704.416,911.742 L 704.416,911.742 L 706.973,911.728 L 709.53,911.657 L 712.059,911.529 L 714.587,911.373 L 717.087,911.174 L 719.559,910.932 L 721.988,910.662 L 724.346,910.321 L 726.676,909.938 L 728.963,909.554 L 731.179,909.085 L 733.324,908.588 L 735.384,908.063 L 737.372,907.523 L 739.262,906.912 L 741.08,906.287 L 742.813,905.619 L 744.432,904.938 L 745.952,904.227 L 747.359,903.46 L 748.651,902.693 L 749.845,901.926 L 750.924,901.116 L 751.862,900.278 L 752.7,899.44 L 753.396,898.588 L 753.992,897.707 L 754.433,896.855 L 754.745,895.974 L 754.93,895.079 L 755.015,894.198z"/>
    <path style="fill: none; fill-opacity:0; stroke-width: 0.02; stroke: #aae6ff" d="M 754.419 893.9 L 754.348,893.005 L 754.177,892.153 L 753.85,891.286 L 753.41,890.42 L 752.828,889.582 L 752.089,888.715 L 751.322,887.92 L 750.356,887.096 L 749.291,886.315 L 748.111,885.505 L 746.805,884.78 L 745.412,884.027 L 743.907,883.317 L 742.302,882.664 L 740.597,881.982 L 738.779,881.414 L 736.875,880.803 L 734.915,880.249 L 732.869,879.737 L 730.738,879.24 L 728.522,878.8 L 726.278,878.402 L 723.977,878.047 L 721.605,877.706 L 719.204,877.422 L 716.732,877.195 L 714.26,876.982 L 711.746,876.84 L 709.218,876.726 L 706.675,876.655 L 704.132,876.641 L 704.132,876.641 L 701.561,876.655 L 699.032,876.726 L 696.49,876.84 L 694.004,876.982 L 691.518,877.195 L 689.06,877.422 L 686.645,877.706 L 684.273,878.047 L 681.958,878.402 L 679.713,878.8 L 677.497,879.24 L 675.366,879.737 L 673.335,880.249 L 671.361,880.803 L 669.457,881.414 L 667.653,881.982 L 665.963,882.664 L 664.357,883.317 L 662.837,884.027 L 661.417,884.78 L 660.153,885.505 L 658.959,886.315 L 657.894,887.096 L 656.957,887.92 L 656.133,888.715 L 655.422,889.582 L 654.854,890.42 L 654.4,891.286 L 654.073,892.153 L 653.888,893.005 L 653.817,893.9 L 653.817,893.9 L 653.888,894.781 L 654.073,895.647 L 654.4,896.514 L 654.854,897.366 L 655.422,898.218 L 656.133,899.071 L 656.957,899.88 L 657.894,900.704 L 658.959,901.486 L 660.153,902.281 L 661.417,903.034 L 662.837,903.744 L 664.357,904.469 L 665.963,905.151 L 667.653,905.79 L 669.457,906.401 L 671.361,906.983 L 673.335,907.537 L 675.366,908.049 L 677.497,908.546 L 679.713,909.014 L 681.958,909.384 L 684.273,909.767 L 686.645,910.094 L 689.06,910.364 L 691.518,910.62 L 694.004,910.819 L 696.49,910.946 L 699.032,911.074 L 701.561,911.145 L 704.132,911.159 L 704.132,911.159 L 706.675,911.145 L 709.218,911.074 L 711.746,910.946 L 714.26,910.819 L 716.732,910.62 L 719.204,910.364 L 721.605,910.094 L 723.977,909.767 L 726.278,909.384 L 728.522,909.014 L 730.738,908.546 L 732.869,908.049 L 734.915,907.537 L 736.875,906.983 L 738.779,906.401 L 740.597,905.79 L 742.302,905.151 L 743.907,904.469 L 745.412,903.744 L 746.805,903.034 L 748.111,902.281 L 749.291,901.486 L 750.356,900.704 L 751.322,899.88 L 752.089,899.071 L 752.828,898.218 L 753.41,897.366 L 753.85,896.514 L 754.177,895.647 L 754.348,894.781 L 754.419,893.9"/>
    <path style="fill: #000000" d="M 705.354 890.207 L 712.712,892.678 L 730.511,885.263 L 738.48,887.721 L 734.176,881.584 L 713.337,881.584 L 721.903,883.417 L 705.354,890.207z"/>
    <path style="fill: #000000" d="M 702.271 896.983 L 694.927,894.497 L 677.739,901.926 L 669.159,899.44 L 673.435,906.216 L 694.927,906.216 L 685.708,903.744 L 702.271,896.983z"/>
    <path style="fill: #000000" d="M 670.991 883.417 L 678.335,880.959 L 696.149,887.721 L 704.132,885.888 L 699.842,892.025 L 678.96,892.025 L 687.54,890.207 L 670.991,883.417z"/>
    <path style="fill: #000000" d="M 737.244 904.355 L 729.872,906.827 L 712.712,899.44 L 704.132,901.926 L 708.422,895.733 L 729.872,895.733 L 720.681,897.579 L 737.244,904.355z"/>
    <path style="fill: #ffffff" d="M 705.965 890.818 L 713.337,893.275 L 731.094,885.888 L 739.091,888.36 L 734.787,882.181 L 713.934,882.181 L 722.528,884.013 L 705.965,890.818z"/>
    <path style="fill: #ffffff" d="M 702.896 897.579 L 695.51,895.122 L 678.335,902.508 L 669.755,900.051 L 674.045,906.827 L 695.51,906.827 L 686.319,904.355 L 702.896,897.579z"/>
    <path style="fill: #ffffff" d="M 671.602 884.013 L 678.96,881.584 L 696.76,888.36 L 704.729,886.485 L 700.453,892.678 L 679.571,892.678 L 688.18,890.818 L 671.602,884.013z"/>
    <path style="fill: #ffffff" d="M 737.841 904.994 L 730.511,907.452 L 713.337,900.051 L 704.729,902.508 L 709.019,896.372 L 730.511,896.372 L 721.306,898.204 L 737.841,904.994z"/>
    <path style="fill: none; fill-opacity:0; stroke-width: 0.02; stroke: #aae6ff" d="M 653.817 893.9 L 653.817,918.518"/>
    <path style="fill: none; fill-opacity:0; stroke-width: 0.02; stroke: #aae6ff" d="M 754.419 893.9 L 754.419,918.518"/>
  </g>
  <image x="942.952" y="932.43" width="115.2" height="86.688" xlink:href="file:///home/kebenson/Documents/Research/images/models/devices/computer.svg"/>
  <image x="328.472" y="918.87" width="115.2" height="86.688" xlink:href="file:///home/kebenson/Documents/Research/images/models/devices/computer.svg"/>
  <line style="fill: none; fill-opacity:0; stroke-width: 6; stroke: #000000" x1="754.972" y1="918.312" x2="940.954" y2="961.829"/>
  <line style="fill: none; fill-opacity:0; stroke-width: 6; stroke: #000000" x1="653.832" y1="915.327" x2="445.639" y2="951.783"/>
  <g>
    <rect style="fill: #ffffff" x="686.334" y="881.325" width="36.1" height="31.55"/>
    <text font-size="27.0933" style="fill: #000000;text-anchor:middle;font-family:sans-serif;font-style:normal;font-weight:normal" x="704.384" y="906.475">
      <tspan x="704.384" y="906.475">R3</tspan>
    </text>
  </g>
  <line style="fill: none; fill-opacity:0; stroke-width: 6; stroke: #000000" x1="755.015" y1="906.5" x2="905.672" y2="743.338"/>
  <line style="fill: none; fill-opacity:0; stroke-width: 6; stroke: #000000" x1="532.687" y1="805.439" x2="664.771" y2="883.165"/>
  <g>
    <path style="fill: #0078aa" d="M 981.718 728.168 L 981.633,727.273 L 981.448,726.378 L 981.136,725.497 L 980.695,724.631 L 980.099,723.75 L 979.403,722.898 L 978.565,722.059 L 977.627,721.236 L 976.548,720.426 L 975.354,719.645 L 974.062,718.892 L 972.655,718.125 L 971.135,717.4 L 969.516,716.718 L 967.783,716.065 L 965.965,715.44 L 964.075,714.829 L 962.087,714.275 L 960.027,713.749 L 957.882,713.252 L 955.666,712.798 L 953.379,712.414 L 951.049,712.016 L 948.691,711.704 L 946.262,711.406 L 943.79,711.178 L 941.29,710.965 L 938.762,710.823 L 936.233,710.681 L 933.676,710.638 L 931.119,710.596 L 931.119,710.596 L 928.548,710.638 L 925.991,710.681 L 923.463,710.823 L 920.934,710.965 L 918.434,711.178 L 915.962,711.406 L 913.533,711.704 L 911.161,712.016 L 908.831,712.414 L 906.558,712.798 L 904.342,713.252 L 902.197,713.749 L 900.138,714.275 L 898.149,714.829 L 896.245,715.44 L 894.441,716.065 L 892.708,716.718 L 891.089,717.4 L 889.569,718.125 L 888.163,718.892 L 886.87,719.645 L 885.677,720.426 L 884.597,721.236 L 883.66,722.059 L 882.821,722.898 L 882.125,723.75 L 881.529,724.631 L 881.074,725.497 L 880.747,726.378 L 880.577,727.273 L 880.506,728.168 L 880.506,728.168 L 880.577,729.048 L 880.747,729.943 L 881.074,730.824 L 881.529,731.691 L 882.125,732.571 L 882.821,733.424 L 883.66,734.262 L 884.597,735.086 L 885.677,735.895 L 886.87,736.677 L 888.163,737.458 L 889.569,738.197 L 891.089,738.921 L 892.708,739.603 L 894.441,740.285 L 896.245,740.91 L 898.149,741.492 L 900.138,742.06 L 902.197,742.572 L 904.342,743.069 L 906.558,743.524 L 908.831,743.936 L 911.161,744.305 L 913.533,744.646 L 915.962,744.916 L 918.434,745.171 L 920.934,745.356 L 923.463,745.527 L 925.991,745.64 L 928.548,745.711 L 931.119,745.725 L 931.119,745.725 L 933.676,745.711 L 936.233,745.64 L 938.762,745.527 L 941.29,745.356 L 943.79,745.171 L 946.262,744.916 L 948.691,744.646 L 951.049,744.305 L 953.379,743.936 L 955.666,743.524 L 957.882,743.069 L 960.027,742.572 L 962.087,742.06 L 964.075,741.492 L 965.965,740.91 L 967.783,740.285 L 969.516,739.603 L 971.135,738.921 L 972.655,738.197 L 974.062,737.458 L 975.354,736.677 L 976.548,735.895 L 977.627,735.086 L 978.565,734.262 L 979.403,733.424 L 980.099,732.571 L 980.695,731.691 L 981.136,730.824 L 981.448,729.943 L 981.633,729.048 L 981.718,728.168z"/>
    <path style="fill: none; fill-opacity:0; stroke-width: 0.02; stroke: #aae6ff" d="M 981.122 727.884 L 981.051,726.989 L 980.88,726.136 L 980.553,725.256 L 980.113,724.403 L 979.531,723.551 L 978.792,722.713 L 978.025,721.903 L 977.059,721.079 L 975.994,720.284 L 974.815,719.488 L 973.508,718.75 L 972.116,718.011 L 970.61,717.301 L 969.005,716.619 L 967.3,715.965 L 965.482,715.369 L 963.578,714.801 L 961.618,714.218 L 959.572,713.735 L 957.442,713.224 L 955.226,712.783 L 952.981,712.386 L 950.68,712.016 L 948.308,711.704 L 945.907,711.406 L 943.435,711.178 L 940.963,710.965 L 938.449,710.823 L 935.921,710.724 L 933.378,710.638 L 930.835,710.638 L 930.835,710.638 L 928.264,710.638 L 925.735,710.724 L 923.193,710.823 L 920.707,710.965 L 918.221,711.178 L 915.763,711.406 L 913.348,711.704 L 910.976,712.016 L 908.661,712.386 L 906.416,712.783 L 904.2,713.224 L 902.07,713.735 L 900.038,714.218 L 898.064,714.801 L 896.16,715.369 L 894.356,715.965 L 892.666,716.619 L 891.06,717.301 L 889.541,718.011 L 888.12,718.75 L 886.856,719.488 L 885.662,720.284 L 884.597,721.079 L 883.66,721.903 L 882.836,722.713 L 882.125,723.551 L 881.557,724.403 L 881.103,725.256 L 880.776,726.136 L 880.591,726.989 L 880.52,727.884 L 880.52,727.884 L 880.591,728.75 L 880.776,729.645 L 881.103,730.483 L 881.557,731.35 L 882.125,732.216 L 882.836,733.04 L 883.66,733.864 L 884.597,734.688 L 885.662,735.469 L 886.856,736.265 L 888.12,737.018 L 889.541,737.728 L 891.06,738.452 L 892.666,739.148 L 894.356,739.773 L 896.16,740.384 L 898.064,740.967 L 900.038,741.535 L 902.07,742.032 L 904.2,742.515 L 906.416,742.97 L 908.661,743.367 L 910.976,743.722 L 913.348,744.063 L 915.763,744.347 L 918.221,744.575 L 920.707,744.774 L 923.193,744.916 L 925.735,745.044 L 928.264,745.115 L 930.835,745.129 L 930.835,745.129 L 933.378,745.115 L 935.921,745.044 L 938.449,744.916 L 940.963,744.774 L 943.435,744.575 L 945.907,744.347 L 948.308,744.063 L 950.68,743.722 L 952.981,743.367 L 955.226,742.97 L 957.442,742.515 L 959.572,742.032 L 961.618,741.535 L 963.578,740.967 L 965.482,740.384 L 967.3,739.773 L 969.005,739.148 L 970.61,738.452 L 972.116,737.728 L 973.508,737.018 L 974.815,736.265 L 975.994,735.469 L 977.059,734.688 L 978.025,733.864 L 978.792,733.04 L 979.531,732.216 L 980.113,731.35 L 980.553,730.483 L 980.88,729.645 L 981.051,728.75 L 981.122,727.884"/>
    <path style="fill: #0078aa" d="M 880.52 703.834 L 880.52,728.494 L 981.122,728.494 L 981.122,703.834 L 880.52,703.834z"/>
    <path style="fill: #00b4ff" d="M 981.718 703.536 L 981.633,702.641 L 981.448,701.732 L 981.136,700.865 L 980.695,699.985 L 980.099,699.104 L 979.403,698.252 L 978.565,697.413 L 977.627,696.604 L 976.548,695.78 L 975.354,695.013 L 974.062,694.231 L 972.655,693.493 L 971.135,692.754 L 969.516,692.086 L 967.783,691.419 L 965.965,690.78 L 964.075,690.183 L 962.087,689.629 L 960.027,689.103 L 957.882,688.62 L 955.666,688.18 L 953.379,687.754 L 951.049,687.385 L 948.691,687.044 L 946.262,686.759 L 943.79,686.518 L 941.29,686.319 L 938.762,686.163 L 936.233,686.049 L 933.676,685.978 L 931.119,685.964 L 931.119,685.964 L 928.548,685.978 L 925.991,686.049 L 923.463,686.163 L 920.934,686.319 L 918.434,686.518 L 915.962,686.759 L 913.533,687.044 L 911.161,687.385 L 908.831,687.754 L 906.558,688.18 L 904.342,688.62 L 902.197,689.103 L 900.138,689.629 L 898.149,690.183 L 896.245,690.78 L 894.441,691.419 L 892.708,692.086 L 891.089,692.754 L 889.569,693.493 L 888.163,694.231 L 886.87,695.013 L 885.677,695.78 L 884.597,696.604 L 883.66,697.413 L 882.821,698.252 L 882.125,699.104 L 881.529,699.985 L 881.074,700.865 L 880.747,701.732 L 880.577,702.641 L 880.506,703.536 L 880.506,703.536 L 880.577,704.417 L 880.747,705.312 L 881.074,706.192 L 881.529,707.045 L 882.125,707.925 L 882.821,708.778 L 883.66,709.616 L 884.597,710.454 L 885.677,711.264 L 886.87,712.031 L 888.163,712.798 L 889.569,713.565 L 891.089,714.275 L 892.708,714.957 L 894.441,715.625 L 896.245,716.25 L 898.149,716.86 L 900.138,717.4 L 902.197,717.926 L 904.342,718.423 L 906.558,718.892 L 908.831,719.275 L 911.161,719.659 L 913.533,720 L 915.962,720.27 L 918.434,720.511 L 920.934,720.71 L 923.463,720.866 L 925.991,720.994 L 928.548,721.065 L 931.119,721.079 L 931.119,721.079 L 933.676,721.065 L 936.233,720.994 L 938.762,720.866 L 941.29,720.71 L 943.79,720.511 L 946.262,720.27 L 948.691,720 L 951.049,719.659 L 953.379,719.275 L 955.666,718.892 L 957.882,718.423 L 960.027,717.926 L 962.087,717.4 L 964.075,716.86 L 965.965,716.25 L 967.783,715.625 L 969.516,714.957 L 971.135,714.275 L 972.655,713.565 L 974.062,712.798 L 975.354,712.031 L 976.548,711.264 L 977.627,710.454 L 978.565,709.616 L 979.403,708.778 L 980.099,707.925 L 980.695,707.045 L 981.136,706.192 L 981.448,705.312 L 981.633,704.417 L 981.718,703.536z"/>
    <path style="fill: none; fill-opacity:0; stroke-width: 0.02; stroke: #aae6ff" d="M 981.122 703.238 L 981.051,702.343 L 980.88,701.49 L 980.553,700.624 L 980.113,699.757 L 979.531,698.919 L 978.792,698.053 L 978.025,697.257 L 977.059,696.433 L 975.994,695.652 L 974.815,694.842 L 973.508,694.118 L 972.116,693.365 L 970.61,692.655 L 969.005,692.001 L 967.3,691.319 L 965.482,690.751 L 963.578,690.14 L 961.618,689.586 L 959.572,689.075 L 957.442,688.578 L 955.226,688.137 L 952.981,687.74 L 950.68,687.385 L 948.308,687.044 L 945.907,686.759 L 943.435,686.532 L 940.963,686.319 L 938.449,686.177 L 935.921,686.063 L 933.378,685.992 L 930.835,685.978 L 930.835,685.978 L 928.264,685.992 L 925.735,686.063 L 923.193,686.177 L 920.707,686.319 L 918.221,686.532 L 915.763,686.759 L 913.348,687.044 L 910.976,687.385 L 908.661,687.74 L 906.416,688.137 L 904.2,688.578 L 902.07,689.075 L 900.038,689.586 L 898.064,690.14 L 896.16,690.751 L 894.356,691.319 L 892.666,692.001 L 891.06,692.655 L 889.541,693.365 L 888.12,694.118 L 886.856,694.842 L 885.662,695.652 L 884.597,696.433 L 883.66,697.257 L 882.836,698.053 L 882.125,698.919 L 881.557,699.757 L 881.103,700.624 L 880.776,701.49 L 880.591,702.343 L 880.52,703.238 L 880.52,703.238 L 880.591,704.118 L 880.776,704.985 L 881.103,705.851 L 881.557,706.704 L 882.125,707.556 L 882.836,708.408 L 883.66,709.218 L 884.597,710.042 L 885.662,710.823 L 886.856,711.619 L 888.12,712.372 L 889.541,713.082 L 891.06,713.806 L 892.666,714.488 L 894.356,715.127 L 896.16,715.738 L 898.064,716.321 L 900.038,716.875 L 902.07,717.386 L 904.2,717.883 L 906.416,718.352 L 908.661,718.721 L 910.976,719.105 L 913.348,719.432 L 915.763,719.701 L 918.221,719.957 L 920.707,720.156 L 923.193,720.284 L 925.735,720.412 L 928.264,720.483 L 930.835,720.497 L 930.835,720.497 L 933.378,720.483 L 935.921,720.412 L 938.449,720.284 L 940.963,720.156 L 943.435,719.957 L 945.907,719.701 L 948.308,719.432 L 950.68,719.105 L 952.981,718.721 L 955.226,718.352 L 957.442,717.883 L 959.572,717.386 L 961.618,716.875 L 963.578,716.321 L 965.482,715.738 L 967.3,715.127 L 969.005,714.488 L 970.61,713.806 L 972.116,713.082 L 973.508,712.372 L 974.815,711.619 L 975.994,710.823 L 977.059,710.042 L 978.025,709.218 L 978.792,708.408 L 979.531,707.556 L 980.113,706.704 L 980.553,705.851 L 980.88,704.985 L 981.051,704.118 L 981.122,703.238"/>
    <path style="fill: #000000" d="M 932.057 699.544 L 939.415,702.016 L 957.214,694.601 L 965.183,697.058 L 960.879,690.922 L 940.04,690.922 L 948.606,692.754 L 932.057,699.544z"/>
    <path style="fill: #000000" d="M 928.974 706.32 L 921.63,703.834 L 904.442,711.264 L 895.862,708.778 L 900.138,715.553 L 921.63,715.553 L 912.411,713.082 L 928.974,706.32z"/>
    <path style="fill: #000000" d="M 897.694 692.754 L 905.038,690.297 L 922.852,697.058 L 930.835,695.226 L 926.545,701.362 L 905.663,701.362 L 914.243,699.544 L 897.694,692.754z"/>
    <path style="fill: #000000" d="M 963.948 713.693 L 956.575,716.164 L 939.415,708.778 L 930.835,711.264 L 935.125,705.07 L 956.575,705.07 L 947.384,706.917 L 963.948,713.693z"/>
    <path style="fill: #ffffff" d="M 932.668 700.155 L 940.04,702.613 L 957.797,695.226 L 965.794,697.698 L 961.49,691.518 L 940.637,691.518 L 949.231,693.351 L 932.668,700.155z"/>
    <path style="fill: #ffffff" d="M 929.599 706.917 L 922.213,704.459 L 905.038,711.846 L 896.458,709.388 L 900.748,716.164 L 922.213,716.164 L 913.022,713.693 L 929.599,706.917z"/>
    <path style="fill: #ffffff" d="M 898.305 693.351 L 905.663,690.922 L 923.463,697.698 L 931.432,695.822 L 927.156,702.016 L 906.274,702.016 L 914.883,700.155 L 898.305,693.351z"/>
    <path style="fill: #ffffff" d="M 964.544 714.332 L 957.214,716.789 L 940.04,709.388 L 931.432,711.846 L 935.722,705.709 L 957.214,705.709 L 948.009,707.542 L 964.544,714.332z"/>
    <path style="fill: none; fill-opacity:0; stroke-width: 0.02; stroke: #aae6ff" d="M 880.52 703.238 L 880.52,727.855"/>
    <path style="fill: none; fill-opacity:0; stroke-width: 0.02; stroke: #aae6ff" d="M 981.122 703.238 L 981.122,727.855"/>
  </g>
  <g>
    <rect style="fill: #ffffff" x="913.038" y="690.662" width="36.1" height="31.55"/>
    <text font-size="27.0933" style="fill: #000000;text-anchor:middle;font-family:sans-serif;font-style:normal;font-weight:normal" x="931.088" y="715.812">
      <tspan x="931.088" y="715.812">R2</tspan>
    </text>
  </g>
  <line style="fill: none; fill-opacity:0; stroke-width: 6; stroke: #000000" x1="704.501" y1="876.622" x2="704.99" y2="751.656"/>
  <image x="654.756" y="578.252" width="101.153" height="171.446" xlink:href="file:///home/kebenson/Documents/Research/images/models/devices/server.svg"/>
  <g>
    <rect style="fill: #ffffff" x="660.909" y="638.826" width="88.85" height="31.55"/>
    <text font-size="27.0933" style="fill: #000000;text-anchor:middle;font-family:sans-serif;font-style:normal;font-weight:normal" x="705.334" y="663.976">
      <tspan x="705.334" y="663.976">Server</tspan>
    </text>
  </g>
</svg>
