<?xml version="1.0" encoding="UTF-8" standalone="no"?>
<!DOCTYPE svg PUBLIC "-//W3C//DTD SVG 1.0//EN" "http://www.w3.org/TR/2001/PR-SVG-20010719/DTD/svg10.dtd">
<svg width="56cm" height="47cm" viewBox="164 82 1113 938" xmlns="http://www.w3.org/2000/svg" xmlns:xlink="http://www.w3.org/1999/xlink">
  <g>
    <path style="fill: #0078aa" d="M 584.842 718.482 L 584.757,717.587 L 584.572,716.692 L 584.26,715.811 L 583.819,714.945 L 583.223,714.064 L 582.527,713.212 L 581.689,712.373 L 580.751,711.55 L 579.672,710.74 L 578.478,709.959 L 577.186,709.206 L 575.779,708.439 L 574.259,707.714 L 572.64,707.032 L 570.907,706.379 L 569.089,705.754 L 567.199,705.143 L 565.211,704.589 L 563.151,704.063 L 561.006,703.566 L 558.79,703.112 L 556.503,702.728 L 554.173,702.33 L 551.815,702.018 L 549.386,701.72 L 546.914,701.492 L 544.414,701.279 L 541.886,701.137 L 539.357,700.995 L 536.8,700.952 L 534.243,700.91 L 534.243,700.91 L 531.672,700.952 L 529.115,700.995 L 526.587,701.137 L 524.058,701.279 L 521.558,701.492 L 519.086,701.72 L 516.657,702.018 L 514.285,702.33 L 511.955,702.728 L 509.682,703.112 L 507.466,703.566 L 505.321,704.063 L 503.262,704.589 L 501.273,705.143 L 499.369,705.754 L 497.565,706.379 L 495.832,707.032 L 494.213,707.714 L 492.693,708.439 L 491.287,709.206 L 489.994,709.959 L 488.801,710.74 L 487.721,711.55 L 486.784,712.373 L 485.945,713.212 L 485.249,714.064 L 484.653,714.945 L 484.198,715.811 L 483.871,716.692 L 483.701,717.587 L 483.63,718.482 L 483.63,718.482 L 483.701,719.362 L 483.871,720.257 L 484.198,721.138 L 484.653,722.005 L 485.249,722.885 L 485.945,723.738 L 486.784,724.576 L 487.721,725.4 L 488.801,726.209 L 489.994,726.991 L 491.287,727.772 L 492.693,728.511 L 494.213,729.235 L 495.832,729.917 L 497.565,730.599 L 499.369,731.224 L 501.273,731.806 L 503.262,732.374 L 505.321,732.886 L 507.466,733.383 L 509.682,733.838 L 511.955,734.25 L 514.285,734.619 L 516.657,734.96 L 519.086,735.23 L 521.558,735.485 L 524.058,735.67 L 526.587,735.841 L 529.115,735.954 L 531.672,736.025 L 534.243,736.039 L 534.243,736.039 L 536.8,736.025 L 539.357,735.954 L 541.886,735.841 L 544.414,735.67 L 546.914,735.485 L 549.386,735.23 L 551.815,734.96 L 554.173,734.619 L 556.503,734.25 L 558.79,733.838 L 561.006,733.383 L 563.151,732.886 L 565.211,732.374 L 567.199,731.806 L 569.089,731.224 L 570.907,730.599 L 572.64,729.917 L 574.259,729.235 L 575.779,728.511 L 577.186,727.772 L 578.478,726.991 L 579.672,726.209 L 580.751,725.4 L 581.689,724.576 L 582.527,723.738 L 583.223,722.885 L 583.819,722.005 L 584.26,721.138 L 584.572,720.257 L 584.757,719.362 L 584.842,718.482z"/>
    <path style="fill: none; fill-opacity:0; stroke-width: 0.02; stroke: #aae6ff" d="M 584.246 718.198 L 584.175,717.303 L 584.004,716.45 L 583.677,715.57 L 583.237,714.717 L 582.655,713.865 L 581.916,713.027 L 581.149,712.217 L 580.183,711.393 L 579.118,710.598 L 577.939,709.802 L 576.632,709.064 L 575.24,708.325 L 573.734,707.615 L 572.129,706.933 L 570.424,706.279 L 568.606,705.683 L 566.702,705.115 L 564.742,704.532 L 562.696,704.049 L 560.566,703.538 L 558.35,703.097 L 556.105,702.7 L 553.804,702.33 L 551.432,702.018 L 549.031,701.72 L 546.559,701.492 L 544.087,701.279 L 541.573,701.137 L 539.045,701.038 L 536.502,700.952 L 533.959,700.952 L 533.959,700.952 L 531.388,700.952 L 528.859,701.038 L 526.317,701.137 L 523.831,701.279 L 521.345,701.492 L 518.887,701.72 L 516.472,702.018 L 514.1,702.33 L 511.785,702.7 L 509.54,703.097 L 507.324,703.538 L 505.194,704.049 L 503.162,704.532 L 501.188,705.115 L 499.284,705.683 L 497.48,706.279 L 495.79,706.933 L 494.184,707.615 L 492.665,708.325 L 491.244,709.064 L 489.98,709.802 L 488.786,710.598 L 487.721,711.393 L 486.784,712.217 L 485.96,713.027 L 485.249,713.865 L 484.681,714.717 L 484.227,715.57 L 483.9,716.45 L 483.715,717.303 L 483.644,718.198 L 483.644,718.198 L 483.715,719.064 L 483.9,719.959 L 484.227,720.797 L 484.681,721.664 L 485.249,722.53 L 485.96,723.354 L 486.784,724.178 L 487.721,725.002 L 488.786,725.783 L 489.98,726.579 L 491.244,727.332 L 492.665,728.042 L 494.184,728.766 L 495.79,729.462 L 497.48,730.087 L 499.284,730.698 L 501.188,731.281 L 503.162,731.849 L 505.194,732.346 L 507.324,732.829 L 509.54,733.284 L 511.785,733.681 L 514.1,734.036 L 516.472,734.377 L 518.887,734.661 L 521.345,734.889 L 523.831,735.088 L 526.317,735.23 L 528.859,735.358 L 531.388,735.429 L 533.959,735.443 L 533.959,735.443 L 536.502,735.429 L 539.045,735.358 L 541.573,735.23 L 544.087,735.088 L 546.559,734.889 L 549.031,734.661 L 551.432,734.377 L 553.804,734.036 L 556.105,733.681 L 558.35,733.284 L 560.566,732.829 L 562.696,732.346 L 564.742,731.849 L 566.702,731.281 L 568.606,730.698 L 570.424,730.087 L 572.129,729.462 L 573.734,728.766 L 575.24,728.042 L 576.632,727.332 L 577.939,726.579 L 579.118,725.783 L 580.183,725.002 L 581.149,724.178 L 581.916,723.354 L 582.655,722.53 L 583.237,721.664 L 583.677,720.797 L 584.004,719.959 L 584.175,719.064 L 584.246,718.198"/>
    <path style="fill: #0078aa" d="M 483.644 694.148 L 483.644,718.808 L 584.246,718.808 L 584.246,694.148 L 483.644,694.148z"/>
    <path style="fill: #00b4ff" d="M 584.842 693.85 L 584.757,692.955 L 584.572,692.046 L 584.26,691.179 L 583.819,690.299 L 583.223,689.418 L 582.527,688.566 L 581.689,687.727 L 580.751,686.918 L 579.672,686.094 L 578.478,685.327 L 577.186,684.545 L 575.779,683.807 L 574.259,683.068 L 572.64,682.4 L 570.907,681.733 L 569.089,681.094 L 567.199,680.497 L 565.211,679.943 L 563.151,679.417 L 561.006,678.934 L 558.79,678.494 L 556.503,678.068 L 554.173,677.699 L 551.815,677.358 L 549.386,677.073 L 546.914,676.832 L 544.414,676.633 L 541.886,676.477 L 539.357,676.363 L 536.8,676.292 L 534.243,676.278 L 534.243,676.278 L 531.672,676.292 L 529.115,676.363 L 526.587,676.477 L 524.058,676.633 L 521.558,676.832 L 519.086,677.073 L 516.657,677.358 L 514.285,677.699 L 511.955,678.068 L 509.682,678.494 L 507.466,678.934 L 505.321,679.417 L 503.262,679.943 L 501.273,680.497 L 499.369,681.094 L 497.565,681.733 L 495.832,682.4 L 494.213,683.068 L 492.693,683.807 L 491.287,684.545 L 489.994,685.327 L 488.801,686.094 L 487.721,686.918 L 486.784,687.727 L 485.945,688.566 L 485.249,689.418 L 484.653,690.299 L 484.198,691.179 L 483.871,692.046 L 483.701,692.955 L 483.63,693.85 L 483.63,693.85 L 483.701,694.731 L 483.871,695.626 L 484.198,696.506 L 484.653,697.359 L 485.249,698.239 L 485.945,699.092 L 486.784,699.93 L 487.721,700.768 L 488.801,701.578 L 489.994,702.345 L 491.287,703.112 L 492.693,703.879 L 494.213,704.589 L 495.832,705.271 L 497.565,705.939 L 499.369,706.564 L 501.273,707.174 L 503.262,707.714 L 505.321,708.24 L 507.466,708.737 L 509.682,709.206 L 511.955,709.589 L 514.285,709.973 L 516.657,710.314 L 519.086,710.584 L 521.558,710.825 L 524.058,711.024 L 526.587,711.18 L 529.115,711.308 L 531.672,711.379 L 534.243,711.393 L 534.243,711.393 L 536.8,711.379 L 539.357,711.308 L 541.886,711.18 L 544.414,711.024 L 546.914,710.825 L 549.386,710.584 L 551.815,710.314 L 554.173,709.973 L 556.503,709.589 L 558.79,709.206 L 561.006,708.737 L 563.151,708.24 L 565.211,707.714 L 567.199,707.174 L 569.089,706.564 L 570.907,705.939 L 572.64,705.271 L 574.259,704.589 L 575.779,703.879 L 577.186,703.112 L 578.478,702.345 L 579.672,701.578 L 580.751,700.768 L 581.689,699.93 L 582.527,699.092 L 583.223,698.239 L 583.819,697.359 L 584.26,696.506 L 584.572,695.626 L 584.757,694.731 L 584.842,693.85z"/>
    <path style="fill: none; fill-opacity:0; stroke-width: 0.02; stroke: #aae6ff" d="M 584.246 693.552 L 584.175,692.657 L 584.004,691.804 L 583.677,690.938 L 583.237,690.071 L 582.655,689.233 L 581.916,688.367 L 581.149,687.571 L 580.183,686.747 L 579.118,685.966 L 577.939,685.156 L 576.632,684.432 L 575.24,683.679 L 573.734,682.969 L 572.129,682.315 L 570.424,681.633 L 568.606,681.065 L 566.702,680.454 L 564.742,679.9 L 562.696,679.389 L 560.566,678.892 L 558.35,678.451 L 556.105,678.054 L 553.804,677.699 L 551.432,677.358 L 549.031,677.073 L 546.559,676.846 L 544.087,676.633 L 541.573,676.491 L 539.045,676.377 L 536.502,676.306 L 533.959,676.292 L 533.959,676.292 L 531.388,676.306 L 528.859,676.377 L 526.317,676.491 L 523.831,676.633 L 521.345,676.846 L 518.887,677.073 L 516.472,677.358 L 514.1,677.699 L 511.785,678.054 L 509.54,678.451 L 507.324,678.892 L 505.194,679.389 L 503.162,679.9 L 501.188,680.454 L 499.284,681.065 L 497.48,681.633 L 495.79,682.315 L 494.184,682.969 L 492.665,683.679 L 491.244,684.432 L 489.98,685.156 L 488.786,685.966 L 487.721,686.747 L 486.784,687.571 L 485.96,688.367 L 485.249,689.233 L 484.681,690.071 L 484.227,690.938 L 483.9,691.804 L 483.715,692.657 L 483.644,693.552 L 483.644,693.552 L 483.715,694.432 L 483.9,695.299 L 484.227,696.165 L 484.681,697.018 L 485.249,697.87 L 485.96,698.722 L 486.784,699.532 L 487.721,700.356 L 488.786,701.137 L 489.98,701.933 L 491.244,702.686 L 492.665,703.396 L 494.184,704.12 L 495.79,704.802 L 497.48,705.441 L 499.284,706.052 L 501.188,706.635 L 503.162,707.189 L 505.194,707.7 L 507.324,708.197 L 509.54,708.666 L 511.785,709.035 L 514.1,709.419 L 516.472,709.746 L 518.887,710.015 L 521.345,710.271 L 523.831,710.47 L 526.317,710.598 L 528.859,710.726 L 531.388,710.797 L 533.959,710.811 L 533.959,710.811 L 536.502,710.797 L 539.045,710.726 L 541.573,710.598 L 544.087,710.47 L 546.559,710.271 L 549.031,710.015 L 551.432,709.746 L 553.804,709.419 L 556.105,709.035 L 558.35,708.666 L 560.566,708.197 L 562.696,707.7 L 564.742,707.189 L 566.702,706.635 L 568.606,706.052 L 570.424,705.441 L 572.129,704.802 L 573.734,704.12 L 575.24,703.396 L 576.632,702.686 L 577.939,701.933 L 579.118,701.137 L 580.183,700.356 L 581.149,699.532 L 581.916,698.722 L 582.655,697.87 L 583.237,697.018 L 583.677,696.165 L 584.004,695.299 L 584.175,694.432 L 584.246,693.552"/>
    <path style="fill: #000000" d="M 535.181 689.858 L 542.539,692.33 L 560.338,684.915 L 568.307,687.372 L 564.003,681.236 L 543.164,681.236 L 551.73,683.068 L 535.181,689.858z"/>
    <path style="fill: #000000" d="M 532.098 696.634 L 524.754,694.148 L 507.566,701.578 L 498.986,699.092 L 503.262,705.867 L 524.754,705.867 L 515.535,703.396 L 532.098,696.634z"/>
    <path style="fill: #000000" d="M 500.818 683.068 L 508.162,680.611 L 525.976,687.372 L 533.959,685.54 L 529.669,691.676 L 508.787,691.676 L 517.367,689.858 L 500.818,683.068z"/>
    <path style="fill: #000000" d="M 567.072 704.007 L 559.699,706.478 L 542.539,699.092 L 533.959,701.578 L 538.249,695.384 L 559.699,695.384 L 550.508,697.231 L 567.072,704.007z"/>
    <path style="fill: #ffffff" d="M 535.792 690.469 L 543.164,692.927 L 560.921,685.54 L 568.918,688.012 L 564.614,681.832 L 543.761,681.832 L 552.355,683.665 L 535.792,690.469z"/>
    <path style="fill: #ffffff" d="M 532.723 697.231 L 525.337,694.773 L 508.162,702.16 L 499.582,699.702 L 503.872,706.478 L 525.337,706.478 L 516.146,704.007 L 532.723,697.231z"/>
    <path style="fill: #ffffff" d="M 501.429 683.665 L 508.787,681.236 L 526.587,688.012 L 534.556,686.136 L 530.28,692.33 L 509.398,692.33 L 518.007,690.469 L 501.429,683.665z"/>
    <path style="fill: #ffffff" d="M 567.668 704.646 L 560.338,707.103 L 543.164,699.702 L 534.556,702.16 L 538.846,696.023 L 560.338,696.023 L 551.133,697.856 L 567.668,704.646z"/>
    <path style="fill: none; fill-opacity:0; stroke-width: 0.02; stroke: #aae6ff" d="M 483.644 693.552 L 483.644,718.169"/>
    <path style="fill: none; fill-opacity:0; stroke-width: 0.02; stroke: #aae6ff" d="M 584.246 693.552 L 584.246,718.169"/>
  </g>
  <image x="165.534" y="562.788" width="115.2" height="86.688" xlink:href="file:///home/kebenson/Documents/Research/images/models/devices/computer.svg"/>
  <image x="474.04" y="477.842" width="115.2" height="86.688" xlink:href="file:///home/kebenson/Documents/Research/images/models/devices/computer.svg"/>
  <line style="fill: none; fill-opacity:0; stroke-width: 6; stroke: #000000" x1="484.609" y1="690.182" x2="282.714" y2="625.284"/>
  <line style="fill: none; fill-opacity:0; stroke-width: 6; stroke: #000000" x1="532.27" y1="566.529" x2="533.796" y2="676.27"/>
  <g>
    <rect style="fill: #ffffff" x="516.16" y="680.978" width="36.1" height="31.55"/>
    <text font-size="27.0933" style="fill: #000000;text-anchor:middle;font-family:sans-serif;font-style:normal;font-weight:normal" x="534.21" y="706.128">
      <tspan x="534.21" y="706.128">R1</tspan>
    </text>
  </g>
  <image x="810.204" y="470.446" width="115.2" height="86.688" xlink:href="file:///home/kebenson/Documents/Research/images/models/devices/computer.svg"/>
  <image x="1160.55" y="654.434" width="115.2" height="86.688" xlink:href="file:///home/kebenson/Documents/Research/images/models/devices/computer.svg"/>
  <line style="fill: none; fill-opacity:0; stroke-width: 6; stroke: #000000" x1="921.829" y1="686.257" x2="882.006" y2="559.129"/>
  <line style="fill: none; fill-opacity:0; stroke-width: 6; stroke: #000000" x1="1158.54" y1="702.331" x2="981.718" y2="715.836"/>
  <text font-size="12.8" style="fill: #000000;text-anchor:start;font-family:sans-serif;font-style:normal;font-weight:normal" x="370.802" y="551.286">
    <tspan x="370.802" y="551.286"></tspan>
  </text>
  <g>
    <path style="fill: #0078aa" d="M 733.424 900.324 L 733.339,899.429 L 733.154,898.534 L 732.842,897.653 L 732.401,896.787 L 731.805,895.906 L 731.109,895.054 L 730.271,894.215 L 729.333,893.392 L 728.254,892.582 L 727.06,891.801 L 725.768,891.048 L 724.361,890.281 L 722.841,889.556 L 721.222,888.874 L 719.489,888.221 L 717.671,887.596 L 715.781,886.985 L 713.793,886.431 L 711.733,885.905 L 709.588,885.408 L 707.372,884.954 L 705.085,884.57 L 702.755,884.172 L 700.397,883.86 L 697.968,883.562 L 695.496,883.334 L 692.996,883.121 L 690.468,882.979 L 687.939,882.837 L 685.382,882.794 L 682.825,882.752 L 682.825,882.752 L 680.254,882.794 L 677.697,882.837 L 675.169,882.979 L 672.64,883.121 L 670.14,883.334 L 667.668,883.562 L 665.239,883.86 L 662.867,884.172 L 660.537,884.57 L 658.264,884.954 L 656.048,885.408 L 653.903,885.905 L 651.844,886.431 L 649.855,886.985 L 647.951,887.596 L 646.147,888.221 L 644.414,888.874 L 642.795,889.556 L 641.275,890.281 L 639.869,891.048 L 638.576,891.801 L 637.383,892.582 L 636.303,893.392 L 635.366,894.215 L 634.527,895.054 L 633.831,895.906 L 633.235,896.787 L 632.78,897.653 L 632.453,898.534 L 632.283,899.429 L 632.212,900.324 L 632.212,900.324 L 632.283,901.204 L 632.453,902.099 L 632.78,902.98 L 633.235,903.847 L 633.831,904.727 L 634.527,905.58 L 635.366,906.418 L 636.303,907.242 L 637.383,908.051 L 638.576,908.833 L 639.869,909.614 L 641.275,910.353 L 642.795,911.077 L 644.414,911.759 L 646.147,912.441 L 647.951,913.066 L 649.855,913.648 L 651.844,914.216 L 653.903,914.728 L 656.048,915.225 L 658.264,915.68 L 660.537,916.092 L 662.867,916.461 L 665.239,916.802 L 667.668,917.072 L 670.14,917.327 L 672.64,917.512 L 675.169,917.683 L 677.697,917.796 L 680.254,917.867 L 682.825,917.881 L 682.825,917.881 L 685.382,917.867 L 687.939,917.796 L 690.468,917.683 L 692.996,917.512 L 695.496,917.327 L 697.968,917.072 L 700.397,916.802 L 702.755,916.461 L 705.085,916.092 L 707.372,915.68 L 709.588,915.225 L 711.733,914.728 L 713.793,914.216 L 715.781,913.648 L 717.671,913.066 L 719.489,912.441 L 721.222,911.759 L 722.841,911.077 L 724.361,910.353 L 725.768,909.614 L 727.06,908.833 L 728.254,908.051 L 729.333,907.242 L 730.271,906.418 L 731.109,905.58 L 731.805,904.727 L 732.401,903.847 L 732.842,902.98 L 733.154,902.099 L 733.339,901.204 L 733.424,900.324z"/>
    <path style="fill: none; fill-opacity:0; stroke-width: 0.02; stroke: #aae6ff" d="M 732.828 900.04 L 732.757,899.145 L 732.586,898.292 L 732.259,897.412 L 731.819,896.559 L 731.237,895.707 L 730.498,894.869 L 729.731,894.059 L 728.765,893.235 L 727.7,892.44 L 726.521,891.644 L 725.214,890.906 L 723.822,890.167 L 722.316,889.457 L 720.711,888.775 L 719.006,888.121 L 717.188,887.525 L 715.284,886.957 L 713.324,886.374 L 711.278,885.891 L 709.148,885.38 L 706.932,884.939 L 704.687,884.542 L 702.386,884.172 L 700.014,883.86 L 697.613,883.562 L 695.141,883.334 L 692.669,883.121 L 690.155,882.979 L 687.627,882.88 L 685.084,882.794 L 682.541,882.794 L 682.541,882.794 L 679.97,882.794 L 677.441,882.88 L 674.899,882.979 L 672.413,883.121 L 669.927,883.334 L 667.469,883.562 L 665.054,883.86 L 662.682,884.172 L 660.367,884.542 L 658.122,884.939 L 655.906,885.38 L 653.776,885.891 L 651.744,886.374 L 649.77,886.957 L 647.866,887.525 L 646.062,888.121 L 644.372,888.775 L 642.766,889.457 L 641.247,890.167 L 639.826,890.906 L 638.562,891.644 L 637.368,892.44 L 636.303,893.235 L 635.366,894.059 L 634.542,894.869 L 633.831,895.707 L 633.263,896.559 L 632.809,897.412 L 632.482,898.292 L 632.297,899.145 L 632.226,900.04 L 632.226,900.04 L 632.297,900.906 L 632.482,901.801 L 632.809,902.639 L 633.263,903.506 L 633.831,904.372 L 634.542,905.196 L 635.366,906.02 L 636.303,906.844 L 637.368,907.625 L 638.562,908.421 L 639.826,909.174 L 641.247,909.884 L 642.766,910.608 L 644.372,911.304 L 646.062,911.929 L 647.866,912.54 L 649.77,913.123 L 651.744,913.691 L 653.776,914.188 L 655.906,914.671 L 658.122,915.126 L 660.367,915.523 L 662.682,915.878 L 665.054,916.219 L 667.469,916.503 L 669.927,916.731 L 672.413,916.93 L 674.899,917.072 L 677.441,917.2 L 679.97,917.271 L 682.541,917.285 L 682.541,917.285 L 685.084,917.271 L 687.627,917.2 L 690.155,917.072 L 692.669,916.93 L 695.141,916.731 L 697.613,916.503 L 700.014,916.219 L 702.386,915.878 L 704.687,915.523 L 706.932,915.126 L 709.148,914.671 L 711.278,914.188 L 713.324,913.691 L 715.284,913.123 L 717.188,912.54 L 719.006,911.929 L 720.711,911.304 L 722.316,910.608 L 723.822,909.884 L 725.214,909.174 L 726.521,908.421 L 727.7,907.625 L 728.765,906.844 L 729.731,906.02 L 730.498,905.196 L 731.237,904.372 L 731.819,903.506 L 732.259,902.639 L 732.586,901.801 L 732.757,900.906 L 732.828,900.04"/>
    <path style="fill: #0078aa" d="M 632.226 875.99 L 632.226,900.65 L 732.828,900.65 L 732.828,875.99 L 632.226,875.99z"/>
    <path style="fill: #00b4ff" d="M 733.424 875.692 L 733.339,874.797 L 733.154,873.888 L 732.842,873.021 L 732.401,872.141 L 731.805,871.26 L 731.109,870.408 L 730.271,869.569 L 729.333,868.76 L 728.254,867.936 L 727.06,867.169 L 725.768,866.387 L 724.361,865.649 L 722.841,864.91 L 721.222,864.242 L 719.489,863.575 L 717.671,862.936 L 715.781,862.339 L 713.793,861.785 L 711.733,861.259 L 709.588,860.776 L 707.372,860.336 L 705.085,859.91 L 702.755,859.541 L 700.397,859.2 L 697.968,858.915 L 695.496,858.674 L 692.996,858.475 L 690.468,858.319 L 687.939,858.205 L 685.382,858.134 L 682.825,858.12 L 682.825,858.12 L 680.254,858.134 L 677.697,858.205 L 675.169,858.319 L 672.64,858.475 L 670.14,858.674 L 667.668,858.915 L 665.239,859.2 L 662.867,859.541 L 660.537,859.91 L 658.264,860.336 L 656.048,860.776 L 653.903,861.259 L 651.844,861.785 L 649.855,862.339 L 647.951,862.936 L 646.147,863.575 L 644.414,864.242 L 642.795,864.91 L 641.275,865.649 L 639.869,866.387 L 638.576,867.169 L 637.383,867.936 L 636.303,868.76 L 635.366,869.569 L 634.527,870.408 L 633.831,871.26 L 633.235,872.141 L 632.78,873.021 L 632.453,873.888 L 632.283,874.797 L 632.212,875.692 L 632.212,875.692 L 632.283,876.573 L 632.453,877.468 L 632.78,878.348 L 633.235,879.201 L 633.831,880.081 L 634.527,880.934 L 635.366,881.772 L 636.303,882.61 L 637.383,883.42 L 638.576,884.187 L 639.869,884.954 L 641.275,885.721 L 642.795,886.431 L 644.414,887.113 L 646.147,887.781 L 647.951,888.406 L 649.855,889.016 L 651.844,889.556 L 653.903,890.082 L 656.048,890.579 L 658.264,891.048 L 660.537,891.431 L 662.867,891.815 L 665.239,892.156 L 667.668,892.426 L 670.14,892.667 L 672.64,892.866 L 675.169,893.022 L 677.697,893.15 L 680.254,893.221 L 682.825,893.235 L 682.825,893.235 L 685.382,893.221 L 687.939,893.15 L 690.468,893.022 L 692.996,892.866 L 695.496,892.667 L 697.968,892.426 L 700.397,892.156 L 702.755,891.815 L 705.085,891.431 L 707.372,891.048 L 709.588,890.579 L 711.733,890.082 L 713.793,889.556 L 715.781,889.016 L 717.671,888.406 L 719.489,887.781 L 721.222,887.113 L 722.841,886.431 L 724.361,885.721 L 725.768,884.954 L 727.06,884.187 L 728.254,883.42 L 729.333,882.61 L 730.271,881.772 L 731.109,880.934 L 731.805,880.081 L 732.401,879.201 L 732.842,878.348 L 733.154,877.468 L 733.339,876.573 L 733.424,875.692z"/>
    <path style="fill: none; fill-opacity:0; stroke-width: 0.02; stroke: #aae6ff" d="M 732.828 875.394 L 732.757,874.499 L 732.586,873.646 L 732.259,872.78 L 731.819,871.913 L 731.237,871.075 L 730.498,870.209 L 729.731,869.413 L 728.765,868.589 L 727.7,867.808 L 726.521,866.998 L 725.214,866.274 L 723.822,865.521 L 722.316,864.811 L 720.711,864.157 L 719.006,863.475 L 717.188,862.907 L 715.284,862.296 L 713.324,861.742 L 711.278,861.231 L 709.148,860.734 L 706.932,860.293 L 704.687,859.896 L 702.386,859.541 L 700.014,859.2 L 697.613,858.915 L 695.141,858.688 L 692.669,858.475 L 690.155,858.333 L 687.627,858.219 L 685.084,858.148 L 682.541,858.134 L 682.541,858.134 L 679.97,858.148 L 677.441,858.219 L 674.899,858.333 L 672.413,858.475 L 669.927,858.688 L 667.469,858.915 L 665.054,859.2 L 662.682,859.541 L 660.367,859.896 L 658.122,860.293 L 655.906,860.734 L 653.776,861.231 L 651.744,861.742 L 649.77,862.296 L 647.866,862.907 L 646.062,863.475 L 644.372,864.157 L 642.766,864.811 L 641.247,865.521 L 639.826,866.274 L 638.562,866.998 L 637.368,867.808 L 636.303,868.589 L 635.366,869.413 L 634.542,870.209 L 633.831,871.075 L 633.263,871.913 L 632.809,872.78 L 632.482,873.646 L 632.297,874.499 L 632.226,875.394 L 632.226,875.394 L 632.297,876.274 L 632.482,877.141 L 632.809,878.007 L 633.263,878.86 L 633.831,879.712 L 634.542,880.564 L 635.366,881.374 L 636.303,882.198 L 637.368,882.979 L 638.562,883.775 L 639.826,884.528 L 641.247,885.238 L 642.766,885.962 L 644.372,886.644 L 646.062,887.283 L 647.866,887.894 L 649.77,888.477 L 651.744,889.031 L 653.776,889.542 L 655.906,890.039 L 658.122,890.508 L 660.367,890.877 L 662.682,891.261 L 665.054,891.588 L 667.469,891.857 L 669.927,892.113 L 672.413,892.312 L 674.899,892.44 L 677.441,892.568 L 679.97,892.639 L 682.541,892.653 L 682.541,892.653 L 685.084,892.639 L 687.627,892.568 L 690.155,892.44 L 692.669,892.312 L 695.141,892.113 L 697.613,891.857 L 700.014,891.588 L 702.386,891.261 L 704.687,890.877 L 706.932,890.508 L 709.148,890.039 L 711.278,889.542 L 713.324,889.031 L 715.284,888.477 L 717.188,887.894 L 719.006,887.283 L 720.711,886.644 L 722.316,885.962 L 723.822,885.238 L 725.214,884.528 L 726.521,883.775 L 727.7,882.979 L 728.765,882.198 L 729.731,881.374 L 730.498,880.564 L 731.237,879.712 L 731.819,878.86 L 732.259,878.007 L 732.586,877.141 L 732.757,876.274 L 732.828,875.394"/>
    <path style="fill: #000000" d="M 683.763 871.7 L 691.121,874.172 L 708.92,866.757 L 716.889,869.214 L 712.585,863.078 L 691.746,863.078 L 700.312,864.91 L 683.763,871.7z"/>
    <path style="fill: #000000" d="M 680.68 878.476 L 673.336,875.99 L 656.148,883.42 L 647.568,880.934 L 651.844,887.709 L 673.336,887.709 L 664.117,885.238 L 680.68,878.476z"/>
    <path style="fill: #000000" d="M 649.4 864.91 L 656.744,862.453 L 674.558,869.214 L 682.541,867.382 L 678.251,873.518 L 657.369,873.518 L 665.949,871.7 L 649.4,864.91z"/>
    <path style="fill: #000000" d="M 715.654 885.849 L 708.281,888.32 L 691.121,880.934 L 682.541,883.42 L 686.831,877.226 L 708.281,877.226 L 699.09,879.073 L 715.654,885.849z"/>
    <path style="fill: #ffffff" d="M 684.374 872.311 L 691.746,874.769 L 709.503,867.382 L 717.5,869.854 L 713.196,863.674 L 692.343,863.674 L 700.937,865.507 L 684.374,872.311z"/>
    <path style="fill: #ffffff" d="M 681.305 879.073 L 673.919,876.615 L 656.744,884.002 L 648.164,881.544 L 652.454,888.32 L 673.919,888.32 L 664.728,885.849 L 681.305,879.073z"/>
    <path style="fill: #ffffff" d="M 650.011 865.507 L 657.369,863.078 L 675.169,869.854 L 683.138,867.978 L 678.862,874.172 L 657.98,874.172 L 666.589,872.311 L 650.011,865.507z"/>
    <path style="fill: #ffffff" d="M 716.25 886.488 L 708.92,888.945 L 691.746,881.544 L 683.138,884.002 L 687.428,877.865 L 708.92,877.865 L 699.715,879.698 L 716.25,886.488z"/>
    <path style="fill: none; fill-opacity:0; stroke-width: 0.02; stroke: #aae6ff" d="M 632.226 875.394 L 632.226,900.011"/>
    <path style="fill: none; fill-opacity:0; stroke-width: 0.02; stroke: #aae6ff" d="M 732.828 875.394 L 732.828,900.011"/>
  </g>
  <image x="939.868" y="932.43" width="115.2" height="86.688" xlink:href="file:///home/kebenson/Documents/Research/images/models/devices/computer.svg"/>
  <image x="328.472" y="918.87" width="115.2" height="86.688" xlink:href="file:///home/kebenson/Documents/Research/images/models/devices/computer.svg"/>
  <line style="fill: none; fill-opacity:0; stroke-width: 6; stroke: #000000" x1="732.576" y1="901.86" x2="938.159" y2="959.225"/>
  <line style="fill: none; fill-opacity:0; stroke-width: 6; stroke: #000000" x1="632.22" y1="900.623" x2="445.655" y2="947.305"/>
  <g>
    <rect style="fill: #ffffff" x="664.744" y="862.82" width="36.1" height="31.55"/>
    <text font-size="27.0933" style="fill: #000000;text-anchor:middle;font-family:sans-serif;font-style:normal;font-weight:normal" x="682.794" y="887.97">
      <tspan x="682.794" y="887.97">R3</tspan>
    </text>
  </g>
  <line style="fill: none; fill-opacity:0; stroke-width: 6; stroke: #000000" x1="733.424" y1="887.994" x2="900.769" y2="742.222"/>
  <line style="fill: none; fill-opacity:0; stroke-width: 6; stroke: #000000" x1="534.228" y1="736.04" x2="656.678" y2="861.263"/>
  <g>
    <path style="fill: #0078aa" d="M 981.718 728.168 L 981.633,727.273 L 981.448,726.378 L 981.136,725.497 L 980.695,724.631 L 980.099,723.75 L 979.403,722.898 L 978.565,722.059 L 977.627,721.236 L 976.548,720.426 L 975.354,719.645 L 974.062,718.892 L 972.655,718.125 L 971.135,717.4 L 969.516,716.718 L 967.783,716.065 L 965.965,715.44 L 964.075,714.829 L 962.087,714.275 L 960.027,713.749 L 957.882,713.252 L 955.666,712.798 L 953.379,712.414 L 951.049,712.016 L 948.691,711.704 L 946.262,711.406 L 943.79,711.178 L 941.29,710.965 L 938.762,710.823 L 936.233,710.681 L 933.676,710.638 L 931.119,710.596 L 931.119,710.596 L 928.548,710.638 L 925.991,710.681 L 923.463,710.823 L 920.934,710.965 L 918.434,711.178 L 915.962,711.406 L 913.533,711.704 L 911.161,712.016 L 908.831,712.414 L 906.558,712.798 L 904.342,713.252 L 902.197,713.749 L 900.138,714.275 L 898.149,714.829 L 896.245,715.44 L 894.441,716.065 L 892.708,716.718 L 891.089,717.4 L 889.569,718.125 L 888.163,718.892 L 886.87,719.645 L 885.677,720.426 L 884.597,721.236 L 883.66,722.059 L 882.821,722.898 L 882.125,723.75 L 881.529,724.631 L 881.074,725.497 L 880.747,726.378 L 880.577,727.273 L 880.506,728.168 L 880.506,728.168 L 880.577,729.048 L 880.747,729.943 L 881.074,730.824 L 881.529,731.691 L 882.125,732.571 L 882.821,733.424 L 883.66,734.262 L 884.597,735.086 L 885.677,735.895 L 886.87,736.677 L 888.163,737.458 L 889.569,738.197 L 891.089,738.921 L 892.708,739.603 L 894.441,740.285 L 896.245,740.91 L 898.149,741.492 L 900.138,742.06 L 902.197,742.572 L 904.342,743.069 L 906.558,743.524 L 908.831,743.936 L 911.161,744.305 L 913.533,744.646 L 915.962,744.916 L 918.434,745.171 L 920.934,745.356 L 923.463,745.527 L 925.991,745.64 L 928.548,745.711 L 931.119,745.725 L 931.119,745.725 L 933.676,745.711 L 936.233,745.64 L 938.762,745.527 L 941.29,745.356 L 943.79,745.171 L 946.262,744.916 L 948.691,744.646 L 951.049,744.305 L 953.379,743.936 L 955.666,743.524 L 957.882,743.069 L 960.027,742.572 L 962.087,742.06 L 964.075,741.492 L 965.965,740.91 L 967.783,740.285 L 969.516,739.603 L 971.135,738.921 L 972.655,738.197 L 974.062,737.458 L 975.354,736.677 L 976.548,735.895 L 977.627,735.086 L 978.565,734.262 L 979.403,733.424 L 980.099,732.571 L 980.695,731.691 L 981.136,730.824 L 981.448,729.943 L 981.633,729.048 L 981.718,728.168z"/>
    <path style="fill: none; fill-opacity:0; stroke-width: 0.02; stroke: #aae6ff" d="M 981.122 727.884 L 981.051,726.989 L 980.88,726.136 L 980.553,725.256 L 980.113,724.403 L 979.531,723.551 L 978.792,722.713 L 978.025,721.903 L 977.059,721.079 L 975.994,720.284 L 974.815,719.488 L 973.508,718.75 L 972.116,718.011 L 970.61,717.301 L 969.005,716.619 L 967.3,715.965 L 965.482,715.369 L 963.578,714.801 L 961.618,714.218 L 959.572,713.735 L 957.442,713.224 L 955.226,712.783 L 952.981,712.386 L 950.68,712.016 L 948.308,711.704 L 945.907,711.406 L 943.435,711.178 L 940.963,710.965 L 938.449,710.823 L 935.921,710.724 L 933.378,710.638 L 930.835,710.638 L 930.835,710.638 L 928.264,710.638 L 925.735,710.724 L 923.193,710.823 L 920.707,710.965 L 918.221,711.178 L 915.763,711.406 L 913.348,711.704 L 910.976,712.016 L 908.661,712.386 L 906.416,712.783 L 904.2,713.224 L 902.07,713.735 L 900.038,714.218 L 898.064,714.801 L 896.16,715.369 L 894.356,715.965 L 892.666,716.619 L 891.06,717.301 L 889.541,718.011 L 888.12,718.75 L 886.856,719.488 L 885.662,720.284 L 884.597,721.079 L 883.66,721.903 L 882.836,722.713 L 882.125,723.551 L 881.557,724.403 L 881.103,725.256 L 880.776,726.136 L 880.591,726.989 L 880.52,727.884 L 880.52,727.884 L 880.591,728.75 L 880.776,729.645 L 881.103,730.483 L 881.557,731.35 L 882.125,732.216 L 882.836,733.04 L 883.66,733.864 L 884.597,734.688 L 885.662,735.469 L 886.856,736.265 L 888.12,737.018 L 889.541,737.728 L 891.06,738.452 L 892.666,739.148 L 894.356,739.773 L 896.16,740.384 L 898.064,740.967 L 900.038,741.535 L 902.07,742.032 L 904.2,742.515 L 906.416,742.97 L 908.661,743.367 L 910.976,743.722 L 913.348,744.063 L 915.763,744.347 L 918.221,744.575 L 920.707,744.774 L 923.193,744.916 L 925.735,745.044 L 928.264,745.115 L 930.835,745.129 L 930.835,745.129 L 933.378,745.115 L 935.921,745.044 L 938.449,744.916 L 940.963,744.774 L 943.435,744.575 L 945.907,744.347 L 948.308,744.063 L 950.68,743.722 L 952.981,743.367 L 955.226,742.97 L 957.442,742.515 L 959.572,742.032 L 961.618,741.535 L 963.578,740.967 L 965.482,740.384 L 967.3,739.773 L 969.005,739.148 L 970.61,738.452 L 972.116,737.728 L 973.508,737.018 L 974.815,736.265 L 975.994,735.469 L 977.059,734.688 L 978.025,733.864 L 978.792,733.04 L 979.531,732.216 L 980.113,731.35 L 980.553,730.483 L 980.88,729.645 L 981.051,728.75 L 981.122,727.884"/>
    <path style="fill: #0078aa" d="M 880.52 703.834 L 880.52,728.494 L 981.122,728.494 L 981.122,703.834 L 880.52,703.834z"/>
    <path style="fill: #00b4ff" d="M 981.718 703.536 L 981.633,702.641 L 981.448,701.732 L 981.136,700.865 L 980.695,699.985 L 980.099,699.104 L 979.403,698.252 L 978.565,697.413 L 977.627,696.604 L 976.548,695.78 L 975.354,695.013 L 974.062,694.231 L 972.655,693.493 L 971.135,692.754 L 969.516,692.086 L 967.783,691.419 L 965.965,690.78 L 964.075,690.183 L 962.087,689.629 L 960.027,689.103 L 957.882,688.62 L 955.666,688.18 L 953.379,687.754 L 951.049,687.385 L 948.691,687.044 L 946.262,686.759 L 943.79,686.518 L 941.29,686.319 L 938.762,686.163 L 936.233,686.049 L 933.676,685.978 L 931.119,685.964 L 931.119,685.964 L 928.548,685.978 L 925.991,686.049 L 923.463,686.163 L 920.934,686.319 L 918.434,686.518 L 915.962,686.759 L 913.533,687.044 L 911.161,687.385 L 908.831,687.754 L 906.558,688.18 L 904.342,688.62 L 902.197,689.103 L 900.138,689.629 L 898.149,690.183 L 896.245,690.78 L 894.441,691.419 L 892.708,692.086 L 891.089,692.754 L 889.569,693.493 L 888.163,694.231 L 886.87,695.013 L 885.677,695.78 L 884.597,696.604 L 883.66,697.413 L 882.821,698.252 L 882.125,699.104 L 881.529,699.985 L 881.074,700.865 L 880.747,701.732 L 880.577,702.641 L 880.506,703.536 L 880.506,703.536 L 880.577,704.417 L 880.747,705.312 L 881.074,706.192 L 881.529,707.045 L 882.125,707.925 L 882.821,708.778 L 883.66,709.616 L 884.597,710.454 L 885.677,711.264 L 886.87,712.031 L 888.163,712.798 L 889.569,713.565 L 891.089,714.275 L 892.708,714.957 L 894.441,715.625 L 896.245,716.25 L 898.149,716.86 L 900.138,717.4 L 902.197,717.926 L 904.342,718.423 L 906.558,718.892 L 908.831,719.275 L 911.161,719.659 L 913.533,720 L 915.962,720.27 L 918.434,720.511 L 920.934,720.71 L 923.463,720.866 L 925.991,720.994 L 928.548,721.065 L 931.119,721.079 L 931.119,721.079 L 933.676,721.065 L 936.233,720.994 L 938.762,720.866 L 941.29,720.71 L 943.79,720.511 L 946.262,720.27 L 948.691,720 L 951.049,719.659 L 953.379,719.275 L 955.666,718.892 L 957.882,718.423 L 960.027,717.926 L 962.087,717.4 L 964.075,716.86 L 965.965,716.25 L 967.783,715.625 L 969.516,714.957 L 971.135,714.275 L 972.655,713.565 L 974.062,712.798 L 975.354,712.031 L 976.548,711.264 L 977.627,710.454 L 978.565,709.616 L 979.403,708.778 L 980.099,707.925 L 980.695,707.045 L 981.136,706.192 L 981.448,705.312 L 981.633,704.417 L 981.718,703.536z"/>
    <path style="fill: none; fill-opacity:0; stroke-width: 0.02; stroke: #aae6ff" d="M 981.122 703.238 L 981.051,702.343 L 980.88,701.49 L 980.553,700.624 L 980.113,699.757 L 979.531,698.919 L 978.792,698.053 L 978.025,697.257 L 977.059,696.433 L 975.994,695.652 L 974.815,694.842 L 973.508,694.118 L 972.116,693.365 L 970.61,692.655 L 969.005,692.001 L 967.3,691.319 L 965.482,690.751 L 963.578,690.14 L 961.618,689.586 L 959.572,689.075 L 957.442,688.578 L 955.226,688.137 L 952.981,687.74 L 950.68,687.385 L 948.308,687.044 L 945.907,686.759 L 943.435,686.532 L 940.963,686.319 L 938.449,686.177 L 935.921,686.063 L 933.378,685.992 L 930.835,685.978 L 930.835,685.978 L 928.264,685.992 L 925.735,686.063 L 923.193,686.177 L 920.707,686.319 L 918.221,686.532 L 915.763,686.759 L 913.348,687.044 L 910.976,687.385 L 908.661,687.74 L 906.416,688.137 L 904.2,688.578 L 902.07,689.075 L 900.038,689.586 L 898.064,690.14 L 896.16,690.751 L 894.356,691.319 L 892.666,692.001 L 891.06,692.655 L 889.541,693.365 L 888.12,694.118 L 886.856,694.842 L 885.662,695.652 L 884.597,696.433 L 883.66,697.257 L 882.836,698.053 L 882.125,698.919 L 881.557,699.757 L 881.103,700.624 L 880.776,701.49 L 880.591,702.343 L 880.52,703.238 L 880.52,703.238 L 880.591,704.118 L 880.776,704.985 L 881.103,705.851 L 881.557,706.704 L 882.125,707.556 L 882.836,708.408 L 883.66,709.218 L 884.597,710.042 L 885.662,710.823 L 886.856,711.619 L 888.12,712.372 L 889.541,713.082 L 891.06,713.806 L 892.666,714.488 L 894.356,715.127 L 896.16,715.738 L 898.064,716.321 L 900.038,716.875 L 902.07,717.386 L 904.2,717.883 L 906.416,718.352 L 908.661,718.721 L 910.976,719.105 L 913.348,719.432 L 915.763,719.701 L 918.221,719.957 L 920.707,720.156 L 923.193,720.284 L 925.735,720.412 L 928.264,720.483 L 930.835,720.497 L 930.835,720.497 L 933.378,720.483 L 935.921,720.412 L 938.449,720.284 L 940.963,720.156 L 943.435,719.957 L 945.907,719.701 L 948.308,719.432 L 950.68,719.105 L 952.981,718.721 L 955.226,718.352 L 957.442,717.883 L 959.572,717.386 L 961.618,716.875 L 963.578,716.321 L 965.482,715.738 L 967.3,715.127 L 969.005,714.488 L 970.61,713.806 L 972.116,713.082 L 973.508,712.372 L 974.815,711.619 L 975.994,710.823 L 977.059,710.042 L 978.025,709.218 L 978.792,708.408 L 979.531,707.556 L 980.113,706.704 L 980.553,705.851 L 980.88,704.985 L 981.051,704.118 L 981.122,703.238"/>
    <path style="fill: #000000" d="M 932.057 699.544 L 939.415,702.016 L 957.214,694.601 L 965.183,697.058 L 960.879,690.922 L 940.04,690.922 L 948.606,692.754 L 932.057,699.544z"/>
    <path style="fill: #000000" d="M 928.974 706.32 L 921.63,703.834 L 904.442,711.264 L 895.862,708.778 L 900.138,715.553 L 921.63,715.553 L 912.411,713.082 L 928.974,706.32z"/>
    <path style="fill: #000000" d="M 897.694 692.754 L 905.038,690.297 L 922.852,697.058 L 930.835,695.226 L 926.545,701.362 L 905.663,701.362 L 914.243,699.544 L 897.694,692.754z"/>
    <path style="fill: #000000" d="M 963.948 713.693 L 956.575,716.164 L 939.415,708.778 L 930.835,711.264 L 935.125,705.07 L 956.575,705.07 L 947.384,706.917 L 963.948,713.693z"/>
    <path style="fill: #ffffff" d="M 932.668 700.155 L 940.04,702.613 L 957.797,695.226 L 965.794,697.698 L 961.49,691.518 L 940.637,691.518 L 949.231,693.351 L 932.668,700.155z"/>
    <path style="fill: #ffffff" d="M 929.599 706.917 L 922.213,704.459 L 905.038,711.846 L 896.458,709.388 L 900.748,716.164 L 922.213,716.164 L 913.022,713.693 L 929.599,706.917z"/>
    <path style="fill: #ffffff" d="M 898.305 693.351 L 905.663,690.922 L 923.463,697.698 L 931.432,695.822 L 927.156,702.016 L 906.274,702.016 L 914.883,700.155 L 898.305,693.351z"/>
    <path style="fill: #ffffff" d="M 964.544 714.332 L 957.214,716.789 L 940.04,709.388 L 931.432,711.846 L 935.722,705.709 L 957.214,705.709 L 948.009,707.542 L 964.544,714.332z"/>
    <path style="fill: none; fill-opacity:0; stroke-width: 0.02; stroke: #aae6ff" d="M 880.52 703.238 L 880.52,727.855"/>
    <path style="fill: none; fill-opacity:0; stroke-width: 0.02; stroke: #aae6ff" d="M 981.122 703.238 L 981.122,727.855"/>
  </g>
  <g>
    <rect style="fill: #ffffff" x="913.038" y="690.662" width="36.1" height="31.55"/>
    <text font-size="27.0933" style="fill: #000000;text-anchor:middle;font-family:sans-serif;font-style:normal;font-weight:normal" x="931.088" y="715.812">
      <tspan x="931.088" y="715.812">R2</tspan>
    </text>
  </g>
  <line style="fill: none; fill-opacity:0; stroke-width: 6; stroke: #000000" x1="584.233" y1="707.348" x2="880.606" y2="714.581"/>
  <image x="1167.89" y="245.686" width="101.823" height="69.084" xlink:href="file:///home/kyle/Documents/Research/images/models/devices/wireless_sensor.svg"/>
  <image x="481.35" y="90.9378" width="101.823" height="69.084" xlink:href="file:///home/kyle/Documents/Research/images/models/devices/wireless_sensor.svg"/>
  <image x="171.797" y="189.65" width="101.823" height="69.084" xlink:href="file:///home/kyle/Documents/Research/images/models/devices/wireless_sensor.svg"/>
  <image x="335.956" y="393.014" width="99.0112" height="67.176" xlink:href="file:///home/kyle/Documents/Research/images/models/devices/wireless_sensor.svg"/>
  <image x="950.02" y="344.648" width="101.823" height="69.084" xlink:href="file:///home/kyle/Documents/Research/images/models/devices/wireless_sensor.svg"/>
  <image x="819.63" y="84.1496" width="101.823" height="69.084" xlink:href="file:///home/kyle/Documents/Research/images/models/devices/wireless_sensor.svg"/>
  <line style="fill: none; fill-opacity:0; stroke-width: 5; stroke-dasharray: 4; stroke: #000000" x1="222.751" y1="261.736" x2="223.084" y2="560.785"/>
  <line style="fill: none; fill-opacity:0; stroke-width: 5; stroke-dasharray: 4; stroke: #000000" x1="385.507" y1="463.168" x2="386.072" y2="918.87"/>
  <line style="fill: none; fill-opacity:0; stroke-width: 5; stroke-dasharray: 4; stroke: #000000" x1="532.203" y1="163.024" x2="531.711" y2="475.853"/>
  <line style="fill: none; fill-opacity:0; stroke-width: 5; stroke-dasharray: 4; stroke: #000000" x1="870.542" y1="153.234" x2="868.148" y2="468.445"/>
  <line style="fill: none; fill-opacity:0; stroke-width: 5; stroke-dasharray: 4; stroke: #000000" x1="1000.71" y1="416.741" x2="997.731" y2="930.431"/>
  <line style="fill: none; fill-opacity:0; stroke-width: 5; stroke-dasharray: 4; stroke: #000000" x1="1218.8" y1="314.77" x2="1218.23" y2="652.473"/>
  <g>
    <path style="fill: #a5a585" d="M 803.322 354.977 L 803.188,353.255 L 802.811,351.561 L 802.165,349.866 L 801.278,348.199 L 800.175,346.531 L 798.803,344.89 L 797.189,343.276 L 795.333,341.689 L 793.235,340.129 L 790.922,338.65 L 788.394,337.17 L 785.677,335.718 L 782.691,334.346 L 779.544,333.028 L 776.209,331.764 L 772.658,330.553 L 768.973,329.424 L 765.1,328.348 L 761.092,327.353 L 756.896,326.411 L 752.619,325.523 L 748.181,324.743 L 743.635,323.99 L 739.035,323.372 L 734.301,322.834 L 729.487,322.376 L 724.645,321.973 L 719.723,321.704 L 714.773,321.462 L 709.797,321.3 L 704.821,321.3 L 704.821,321.3 L 699.818,321.3 L 694.842,321.462 L 689.893,321.704 L 684.97,321.973 L 680.129,322.376 L 675.314,322.834 L 670.607,323.372 L 665.98,323.99 L 661.434,324.743 L 656.996,325.523 L 652.719,326.411 L 648.55,327.353 L 644.542,328.348 L 640.669,329.424 L 636.957,330.553 L 633.406,331.764 L 630.098,333.028 L 626.924,334.346 L 623.965,335.718 L 621.222,337.17 L 618.693,338.65 L 616.38,340.129 L 614.282,341.689 L 612.426,343.276 L 610.812,344.89 L 609.44,346.531 L 608.337,348.199 L 607.45,349.866 L 606.804,351.561 L 606.454,353.255 L 606.32,354.977 L 606.32,354.977 L 606.454,356.698 L 606.804,358.366 L 607.45,360.088 L 608.337,361.755 L 609.44,363.423 L 610.812,365.064 L 612.426,366.678 L 614.282,368.265 L 616.38,369.798 L 618.693,371.304 L 621.222,372.783 L 623.965,374.236 L 626.924,375.608 L 630.098,376.926 L 633.406,378.19 L 636.957,379.4 L 640.669,380.53 L 644.542,381.606 L 648.55,382.601 L 652.719,383.543 L 656.996,384.43 L 661.434,385.21 L 665.98,385.937 L 670.607,386.582 L 675.314,387.12 L 680.129,387.577 L 684.97,387.954 L 689.893,388.25 L 694.842,388.465 L 699.818,388.627 L 704.821,388.653 L 704.821,388.653 L 709.797,388.627 L 714.773,388.465 L 719.723,388.25 L 724.645,387.954 L 729.487,387.577 L 734.301,387.12 L 739.035,386.582 L 743.635,385.937 L 748.181,385.21 L 752.619,384.43 L 756.896,383.543 L 761.092,382.601 L 765.1,381.606 L 768.973,380.53 L 772.658,379.4 L 776.209,378.19 L 779.544,376.926 L 782.691,375.608 L 785.677,374.236 L 788.394,372.783 L 790.922,371.304 L 793.235,369.798 L 795.333,368.265 L 797.189,366.678 L 798.803,365.064 L 800.175,363.423 L 801.278,361.755 L 802.165,360.088 L 802.811,358.366 L 803.188,356.698 L 803.322,354.977z"/>
    <path style="fill: none; fill-opacity:0; stroke-width: 0.03; stroke: #494936" d="M 802.165 354.439 L 802.031,352.717 L 801.681,351.077 L 801.063,349.409 L 800.202,347.768 L 799.045,346.101 L 797.647,344.514 L 796.113,342.9 L 794.23,341.393 L 792.159,339.86 L 789.873,338.354 L 787.345,336.928 L 784.628,335.503 L 781.696,334.158 L 778.603,332.813 L 775.214,331.602 L 771.69,330.419 L 768.005,329.289 L 764.185,328.24 L 760.204,327.272 L 756.062,326.33 L 751.758,325.497 L 747.374,324.716 L 742.855,323.99 L 738.282,323.372 L 733.602,322.834 L 728.787,322.403 L 723.973,321.973 L 719.077,321.731 L 714.182,321.516 L 709.179,321.381 L 704.229,321.3 L 704.229,321.3 L 699.28,321.381 L 694.331,321.516 L 689.381,321.731 L 684.54,321.973 L 679.698,322.403 L 674.91,322.834 L 670.203,323.372 L 665.604,323.99 L 661.112,324.716 L 656.727,325.497 L 652.423,326.33 L 648.281,327.272 L 644.327,328.24 L 640.454,329.289 L 636.742,330.419 L 633.245,331.602 L 629.91,332.813 L 626.816,334.158 L 623.858,335.503 L 621.114,336.928 L 618.639,338.354 L 616.353,339.86 L 614.228,341.393 L 612.399,342.9 L 610.812,344.514 L 609.44,346.101 L 608.31,347.768 L 607.423,349.409 L 606.804,351.077 L 606.454,352.717 L 606.32,354.439 L 606.32,354.439 L 606.454,356.107 L 606.804,357.747 L 607.423,359.442 L 608.31,361.083 L 609.44,362.724 L 610.812,364.337 L 612.399,365.924 L 614.228,367.458 L 616.353,368.964 L 618.639,370.497 L 621.114,371.95 L 623.858,373.321 L 626.816,374.693 L 629.91,376.011 L 633.245,377.249 L 636.742,378.432 L 640.454,379.535 L 644.327,380.611 L 648.281,381.579 L 652.423,382.521 L 656.727,383.381 L 661.112,384.135 L 665.604,384.834 L 670.203,385.453 L 674.91,385.99 L 679.698,386.448 L 684.54,386.851 L 689.381,387.12 L 694.331,387.335 L 699.28,387.47 L 704.229,387.524 L 704.229,387.524 L 709.179,387.47 L 714.182,387.335 L 719.077,387.12 L 723.973,386.851 L 728.787,386.448 L 733.602,385.99 L 738.282,385.453 L 742.855,384.834 L 747.374,384.135 L 751.758,383.381 L 756.062,382.521 L 760.204,381.579 L 764.185,380.611 L 768.005,379.535 L 771.69,378.432 L 775.214,377.249 L 778.603,376.011 L 781.696,374.693 L 784.628,373.321 L 787.345,371.95 L 789.873,370.497 L 792.159,368.964 L 794.23,367.458 L 796.113,365.924 L 797.647,364.337 L 799.045,362.724 L 800.202,361.083 L 801.063,359.442 L 801.681,357.747 L 802.031,356.107 L 802.165,354.439"/>
    <path style="fill: #a5a585" d="M 606.32 284.638 L 606.32,355.569 L 802.165,355.569 L 802.165,284.638 L 606.32,284.638z"/>
    <path style="fill: #c9c9b6" d="M 803.322 284.046 L 803.188,282.298 L 802.811,280.604 L 802.165,278.936 L 801.278,277.268 L 800.175,275.574 L 798.803,273.933 L 797.189,272.292 L 795.333,270.759 L 793.235,269.226 L 790.922,267.666 L 788.394,266.24 L 785.677,264.787 L 782.691,263.389 L 779.544,262.098 L 776.209,260.833 L 772.658,259.596 L 768.973,258.466 L 765.1,257.417 L 761.092,256.395 L 756.896,255.454 L 752.619,254.593 L 748.181,253.813 L 743.635,253.087 L 739.035,252.441 L 734.301,251.903 L 729.487,251.446 L 724.645,251.069 L 719.723,250.773 L 714.773,250.531 L 709.797,250.397 L 704.821,250.37 L 704.821,250.37 L 699.818,250.397 L 694.842,250.531 L 689.893,250.773 L 684.97,251.069 L 680.129,251.446 L 675.314,251.903 L 670.607,252.441 L 665.98,253.087 L 661.434,253.813 L 656.996,254.593 L 652.719,255.454 L 648.55,256.395 L 644.542,257.417 L 640.669,258.466 L 636.957,259.596 L 633.406,260.833 L 630.098,262.098 L 626.924,263.389 L 623.965,264.787 L 621.222,266.24 L 618.693,267.666 L 616.38,269.226 L 614.282,270.759 L 612.426,272.292 L 610.812,273.933 L 609.44,275.574 L 608.337,277.268 L 607.45,278.936 L 606.804,280.604 L 606.454,282.298 L 606.32,284.046 L 606.32,284.046 L 606.454,285.741 L 606.804,287.463 L 607.45,289.103 L 608.337,290.825 L 609.44,292.466 L 610.812,294.133 L 612.426,295.747 L 614.282,297.307 L 616.38,298.867 L 618.693,300.374 L 621.222,301.853 L 623.965,303.279 L 626.924,304.65 L 630.098,305.968 L 633.406,307.26 L 636.957,308.443 L 640.669,309.6 L 644.542,310.676 L 648.55,311.671 L 652.719,312.612 L 656.996,313.5 L 661.434,314.253 L 665.98,315.006 L 670.607,315.625 L 675.314,316.163 L 680.129,316.647 L 684.97,316.997 L 689.893,317.32 L 694.842,317.535 L 699.818,317.669 L 704.821,317.723 L 704.821,317.723 L 709.797,317.669 L 714.773,317.535 L 719.723,317.32 L 724.645,316.997 L 729.487,316.647 L 734.301,316.163 L 739.035,315.625 L 743.635,315.006 L 748.181,314.253 L 752.619,313.5 L 756.896,312.612 L 761.092,311.671 L 765.1,310.676 L 768.973,309.6 L 772.658,308.443 L 776.209,307.26 L 779.544,305.968 L 782.691,304.65 L 785.677,303.279 L 788.394,301.853 L 790.922,300.374 L 793.235,298.867 L 795.333,297.307 L 797.189,295.747 L 798.803,294.133 L 800.175,292.466 L 801.278,290.825 L 802.165,289.103 L 802.811,287.463 L 803.188,285.741 L 803.322,284.046z"/>
    <path style="fill: none; fill-opacity:0; stroke-width: 0.03; stroke: #494936" d="M 802.165 283.509 L 802.031,281.787 L 801.681,280.146 L 801.063,278.505 L 800.202,276.838 L 799.045,275.143 L 797.647,273.556 L 796.113,272.023 L 794.23,270.436 L 792.159,268.93 L 789.873,267.397 L 787.345,265.998 L 784.628,264.572 L 781.696,263.2 L 778.603,261.936 L 775.214,260.672 L 771.69,259.515 L 768.005,258.386 L 764.185,257.31 L 760.204,256.314 L 756.062,255.4 L 751.758,254.566 L 747.374,253.786 L 742.855,253.087 L 738.282,252.441 L 733.602,251.903 L 728.787,251.446 L 723.973,251.069 L 719.077,250.773 L 717.436,250.693 L 691.022,250.693 L 689.381,250.773 L 684.54,251.069 L 679.698,251.446 L 674.91,251.903 L 670.203,252.441 L 665.604,253.087 L 661.112,253.786 L 656.727,254.566 L 652.423,255.4 L 648.281,256.314 L 644.327,257.31 L 640.454,258.386 L 636.742,259.515 L 633.245,260.672 L 629.91,261.936 L 626.816,263.2 L 623.858,264.572 L 621.114,265.998 L 618.639,267.397 L 616.353,268.93 L 614.228,270.436 L 612.399,272.023 L 610.812,273.556 L 609.44,275.143 L 608.31,276.838 L 607.423,278.505 L 606.804,280.146 L 606.454,281.787 L 606.32,283.509 L 606.32,283.509 L 606.454,285.149 L 606.804,286.844 L 607.423,288.512 L 608.31,290.152 L 609.44,291.793 L 610.812,293.407 L 612.399,294.967 L 614.228,296.554 L 616.353,298.06 L 618.639,299.567 L 621.114,301.019 L 623.858,302.391 L 626.816,303.736 L 629.91,305.081 L 633.245,306.318 L 636.742,307.475 L 640.454,308.578 L 644.327,309.654 L 648.281,310.622 L 652.423,311.563 L 656.727,312.451 L 661.112,313.15 L 665.604,313.903 L 670.203,314.495 L 674.91,315.06 L 679.698,315.544 L 684.54,315.921 L 689.381,316.217 L 694.331,316.405 L 699.28,316.513 L 704.229,316.593 L 704.229,316.593 L 709.179,316.513 L 714.182,316.405 L 719.077,316.217 L 723.973,315.921 L 728.787,315.544 L 733.602,315.06 L 738.282,314.495 L 742.855,313.903 L 747.374,313.15 L 751.758,312.451 L 756.062,311.563 L 760.204,310.622 L 764.185,309.654 L 768.005,308.578 L 771.69,307.475 L 775.214,306.318 L 778.603,305.081 L 781.696,303.736 L 784.628,302.391 L 787.345,301.019 L 789.873,299.567 L 792.159,298.06 L 794.23,296.554 L 796.113,294.967 L 797.647,293.407 L 799.045,291.793 L 800.202,290.152 L 801.063,288.512 L 801.681,286.844 L 802.031,285.149 L 802.165,283.509"/>
    <path style="fill: none; fill-opacity:0; stroke-width: 0.03; stroke: #000000" d="M 606.32 283.509 L 606.32,354.385"/>
    <path style="fill: none; fill-opacity:0; stroke-width: 0.03; stroke: #000000" d="M 802.165 283.509 L 802.165,354.385"/>
  </g>
  <g>
    <rect style="fill: #ffffff" x="619.406" y="297.29" width="169.4" height="57.2833"/>
    <text font-size="23.7067" style="fill: #000000;text-anchor:middle;font-family:sans-serif;font-style:normal;font-weight:normal" x="704.106" y="319.34">
      <tspan x="704.106" y="319.34">Network State</tspan>
      <tspan x="704.106" y="348.973"> Information</tspan>
    </text>
  </g>
  <line style="fill: none; fill-opacity:0; stroke-width: 3; stroke: #000000" x1="276.61" y1="234.846" x2="606.307" y2="300.011"/>
  <line style="fill: none; fill-opacity:0; stroke-width: 3; stroke: #000000" x1="565.542" y1="163.024" x2="648.307" y2="256.393"/>
  <line style="fill: none; fill-opacity:0; stroke-width: 3; stroke: #000000" x1="839.406" y1="156.228" x2="756.93" y2="255.658"/>
  <line style="fill: none; fill-opacity:0; stroke-width: 3; stroke: #000000" x1="947.306" y1="368.377" x2="802.172" y2="339.114"/>
  <line style="fill: none; fill-opacity:0; stroke-width: 3; stroke: #000000" x1="1164.89" y1="284.325" x2="802.15" y2="311.89"/>
  <line style="fill: none; fill-opacity:0; stroke-width: 3; stroke: #000000" x1="437.934" y1="408.939" x2="606.309" y2="352.261"/>
</svg>
