<?xml version="1.0" encoding="UTF-8" standalone="no"?>
<!DOCTYPE svg PUBLIC "-//W3C//DTD SVG 1.0//EN" "http://www.w3.org/TR/2001/PR-SVG-20010719/DTD/svg10.dtd">
<svg width="67cm" height="47cm" viewBox="68 170 1338 937" xmlns="http://www.w3.org/2000/svg" xmlns:xlink="http://www.w3.org/1999/xlink">
  <line style="fill: none; fill-opacity:0; stroke-width: 6; stroke: #000000" x1="1280.75" y1="972.274" x2="1211.14" y2="921.378"/>
  <g>
    <path style="fill: #0078aa" d="M 386.024 385.702 L 385.939,384.807 L 385.754,383.912 L 385.442,383.031 L 385.001,382.165 L 384.405,381.284 L 383.709,380.432 L 382.871,379.593 L 381.933,378.77 L 380.854,377.96 L 379.66,377.179 L 378.368,376.426 L 376.961,375.659 L 375.441,374.934 L 373.822,374.252 L 372.089,373.599 L 370.271,372.974 L 368.381,372.363 L 366.393,371.809 L 364.333,371.283 L 362.188,370.786 L 359.972,370.332 L 357.685,369.948 L 355.355,369.55 L 352.997,369.238 L 350.568,368.94 L 348.096,368.712 L 345.596,368.499 L 343.068,368.357 L 340.539,368.215 L 337.982,368.172 L 335.425,368.13 L 335.425,368.13 L 332.854,368.172 L 330.297,368.215 L 327.769,368.357 L 325.24,368.499 L 322.74,368.712 L 320.268,368.94 L 317.839,369.238 L 315.467,369.55 L 313.137,369.948 L 310.864,370.332 L 308.648,370.786 L 306.503,371.283 L 304.444,371.809 L 302.455,372.363 L 300.551,372.974 L 298.747,373.599 L 297.014,374.252 L 295.395,374.934 L 293.875,375.659 L 292.469,376.426 L 291.176,377.179 L 289.983,377.96 L 288.903,378.77 L 287.966,379.593 L 287.127,380.432 L 286.431,381.284 L 285.835,382.165 L 285.38,383.031 L 285.053,383.912 L 284.883,384.807 L 284.812,385.702 L 284.812,385.702 L 284.883,386.582 L 285.053,387.477 L 285.38,388.358 L 285.835,389.225 L 286.431,390.105 L 287.127,390.958 L 287.966,391.796 L 288.903,392.62 L 289.983,393.429 L 291.176,394.211 L 292.469,394.992 L 293.875,395.731 L 295.395,396.455 L 297.014,397.137 L 298.747,397.819 L 300.551,398.444 L 302.455,399.026 L 304.444,399.594 L 306.503,400.106 L 308.648,400.603 L 310.864,401.058 L 313.137,401.47 L 315.467,401.839 L 317.839,402.18 L 320.268,402.45 L 322.74,402.705 L 325.24,402.89 L 327.769,403.061 L 330.297,403.174 L 332.854,403.245 L 335.425,403.259 L 335.425,403.259 L 337.982,403.245 L 340.539,403.174 L 343.068,403.061 L 345.596,402.89 L 348.096,402.705 L 350.568,402.45 L 352.997,402.18 L 355.355,401.839 L 357.685,401.47 L 359.972,401.058 L 362.188,400.603 L 364.333,400.106 L 366.393,399.594 L 368.381,399.026 L 370.271,398.444 L 372.089,397.819 L 373.822,397.137 L 375.441,396.455 L 376.961,395.731 L 378.368,394.992 L 379.66,394.211 L 380.854,393.429 L 381.933,392.62 L 382.871,391.796 L 383.709,390.958 L 384.405,390.105 L 385.001,389.225 L 385.442,388.358 L 385.754,387.477 L 385.939,386.582 L 386.024,385.702z"/>
    <path style="fill: none; fill-opacity:0; stroke-width: 0.02; stroke: #aae6ff" d="M 385.428 385.418 L 385.357,384.523 L 385.186,383.67 L 384.859,382.79 L 384.419,381.937 L 383.837,381.085 L 383.098,380.247 L 382.331,379.437 L 381.365,378.613 L 380.3,377.818 L 379.121,377.022 L 377.814,376.284 L 376.422,375.545 L 374.916,374.835 L 373.311,374.153 L 371.606,373.499 L 369.788,372.903 L 367.884,372.335 L 365.924,371.752 L 363.878,371.269 L 361.748,370.758 L 359.532,370.317 L 357.287,369.92 L 354.986,369.55 L 352.614,369.238 L 350.213,368.94 L 347.741,368.712 L 345.269,368.499 L 342.755,368.357 L 340.227,368.258 L 337.684,368.172 L 335.141,368.172 L 335.141,368.172 L 332.57,368.172 L 330.041,368.258 L 327.499,368.357 L 325.013,368.499 L 322.527,368.712 L 320.069,368.94 L 317.654,369.238 L 315.282,369.55 L 312.967,369.92 L 310.722,370.317 L 308.506,370.758 L 306.376,371.269 L 304.344,371.752 L 302.37,372.335 L 300.466,372.903 L 298.662,373.499 L 296.972,374.153 L 295.366,374.835 L 293.847,375.545 L 292.426,376.284 L 291.162,377.022 L 289.968,377.818 L 288.903,378.613 L 287.966,379.437 L 287.142,380.247 L 286.431,381.085 L 285.863,381.937 L 285.409,382.79 L 285.082,383.67 L 284.897,384.523 L 284.826,385.418 L 284.826,385.418 L 284.897,386.284 L 285.082,387.179 L 285.409,388.017 L 285.863,388.884 L 286.431,389.75 L 287.142,390.574 L 287.966,391.398 L 288.903,392.222 L 289.968,393.003 L 291.162,393.799 L 292.426,394.552 L 293.847,395.262 L 295.366,395.986 L 296.972,396.682 L 298.662,397.307 L 300.466,397.918 L 302.37,398.501 L 304.344,399.069 L 306.376,399.566 L 308.506,400.049 L 310.722,400.504 L 312.967,400.901 L 315.282,401.256 L 317.654,401.597 L 320.069,401.881 L 322.527,402.109 L 325.013,402.308 L 327.499,402.45 L 330.041,402.578 L 332.57,402.649 L 335.141,402.663 L 335.141,402.663 L 337.684,402.649 L 340.227,402.578 L 342.755,402.45 L 345.269,402.308 L 347.741,402.109 L 350.213,401.881 L 352.614,401.597 L 354.986,401.256 L 357.287,400.901 L 359.532,400.504 L 361.748,400.049 L 363.878,399.566 L 365.924,399.069 L 367.884,398.501 L 369.788,397.918 L 371.606,397.307 L 373.311,396.682 L 374.916,395.986 L 376.422,395.262 L 377.814,394.552 L 379.121,393.799 L 380.3,393.003 L 381.365,392.222 L 382.331,391.398 L 383.098,390.574 L 383.837,389.75 L 384.419,388.884 L 384.859,388.017 L 385.186,387.179 L 385.357,386.284 L 385.428,385.418"/>
    <path style="fill: #0078aa" d="M 284.826 361.368 L 284.826,386.028 L 385.428,386.028 L 385.428,361.368 L 284.826,361.368z"/>
    <path style="fill: #00b4ff" d="M 386.024 361.07 L 385.939,360.175 L 385.754,359.266 L 385.442,358.399 L 385.001,357.519 L 384.405,356.638 L 383.709,355.786 L 382.871,354.947 L 381.933,354.138 L 380.854,353.314 L 379.66,352.547 L 378.368,351.765 L 376.961,351.027 L 375.441,350.288 L 373.822,349.62 L 372.089,348.953 L 370.271,348.314 L 368.381,347.717 L 366.393,347.163 L 364.333,346.637 L 362.188,346.154 L 359.972,345.714 L 357.685,345.288 L 355.355,344.919 L 352.997,344.578 L 350.568,344.293 L 348.096,344.052 L 345.596,343.853 L 343.068,343.697 L 340.539,343.583 L 337.982,343.512 L 335.425,343.498 L 335.425,343.498 L 332.854,343.512 L 330.297,343.583 L 327.769,343.697 L 325.24,343.853 L 322.74,344.052 L 320.268,344.293 L 317.839,344.578 L 315.467,344.919 L 313.137,345.288 L 310.864,345.714 L 308.648,346.154 L 306.503,346.637 L 304.444,347.163 L 302.455,347.717 L 300.551,348.314 L 298.747,348.953 L 297.014,349.62 L 295.395,350.288 L 293.875,351.027 L 292.469,351.765 L 291.176,352.547 L 289.983,353.314 L 288.903,354.138 L 287.966,354.947 L 287.127,355.786 L 286.431,356.638 L 285.835,357.519 L 285.38,358.399 L 285.053,359.266 L 284.883,360.175 L 284.812,361.07 L 284.812,361.07 L 284.883,361.951 L 285.053,362.846 L 285.38,363.726 L 285.835,364.579 L 286.431,365.459 L 287.127,366.312 L 287.966,367.15 L 288.903,367.988 L 289.983,368.798 L 291.176,369.565 L 292.469,370.332 L 293.875,371.099 L 295.395,371.809 L 297.014,372.491 L 298.747,373.159 L 300.551,373.784 L 302.455,374.394 L 304.444,374.934 L 306.503,375.46 L 308.648,375.957 L 310.864,376.426 L 313.137,376.809 L 315.467,377.193 L 317.839,377.534 L 320.268,377.804 L 322.74,378.045 L 325.24,378.244 L 327.769,378.4 L 330.297,378.528 L 332.854,378.599 L 335.425,378.613 L 335.425,378.613 L 337.982,378.599 L 340.539,378.528 L 343.068,378.4 L 345.596,378.244 L 348.096,378.045 L 350.568,377.804 L 352.997,377.534 L 355.355,377.193 L 357.685,376.809 L 359.972,376.426 L 362.188,375.957 L 364.333,375.46 L 366.393,374.934 L 368.381,374.394 L 370.271,373.784 L 372.089,373.159 L 373.822,372.491 L 375.441,371.809 L 376.961,371.099 L 378.368,370.332 L 379.66,369.565 L 380.854,368.798 L 381.933,367.988 L 382.871,367.15 L 383.709,366.312 L 384.405,365.459 L 385.001,364.579 L 385.442,363.726 L 385.754,362.846 L 385.939,361.951 L 386.024,361.07z"/>
    <path style="fill: none; fill-opacity:0; stroke-width: 0.02; stroke: #aae6ff" d="M 385.428 360.772 L 385.357,359.877 L 385.186,359.024 L 384.859,358.158 L 384.419,357.291 L 383.837,356.453 L 383.098,355.587 L 382.331,354.791 L 381.365,353.967 L 380.3,353.186 L 379.121,352.376 L 377.814,351.652 L 376.422,350.899 L 374.916,350.189 L 373.311,349.535 L 371.606,348.853 L 369.788,348.285 L 367.884,347.674 L 365.924,347.12 L 363.878,346.609 L 361.748,346.112 L 359.532,345.671 L 357.287,345.274 L 354.986,344.919 L 352.614,344.578 L 350.213,344.293 L 347.741,344.066 L 345.269,343.853 L 342.755,343.711 L 340.227,343.597 L 337.684,343.526 L 335.141,343.512 L 335.141,343.512 L 332.57,343.526 L 330.041,343.597 L 327.499,343.711 L 325.013,343.853 L 322.527,344.066 L 320.069,344.293 L 317.654,344.578 L 315.282,344.919 L 312.967,345.274 L 310.722,345.671 L 308.506,346.112 L 306.376,346.609 L 304.344,347.12 L 302.37,347.674 L 300.466,348.285 L 298.662,348.853 L 296.972,349.535 L 295.366,350.189 L 293.847,350.899 L 292.426,351.652 L 291.162,352.376 L 289.968,353.186 L 288.903,353.967 L 287.966,354.791 L 287.142,355.587 L 286.431,356.453 L 285.863,357.291 L 285.409,358.158 L 285.082,359.024 L 284.897,359.877 L 284.826,360.772 L 284.826,360.772 L 284.897,361.652 L 285.082,362.519 L 285.409,363.385 L 285.863,364.238 L 286.431,365.09 L 287.142,365.942 L 287.966,366.752 L 288.903,367.576 L 289.968,368.357 L 291.162,369.153 L 292.426,369.906 L 293.847,370.616 L 295.366,371.34 L 296.972,372.022 L 298.662,372.661 L 300.466,373.272 L 302.37,373.855 L 304.344,374.409 L 306.376,374.92 L 308.506,375.417 L 310.722,375.886 L 312.967,376.255 L 315.282,376.639 L 317.654,376.966 L 320.069,377.235 L 322.527,377.491 L 325.013,377.69 L 327.499,377.818 L 330.041,377.946 L 332.57,378.017 L 335.141,378.031 L 335.141,378.031 L 337.684,378.017 L 340.227,377.946 L 342.755,377.818 L 345.269,377.69 L 347.741,377.491 L 350.213,377.235 L 352.614,376.966 L 354.986,376.639 L 357.287,376.255 L 359.532,375.886 L 361.748,375.417 L 363.878,374.92 L 365.924,374.409 L 367.884,373.855 L 369.788,373.272 L 371.606,372.661 L 373.311,372.022 L 374.916,371.34 L 376.422,370.616 L 377.814,369.906 L 379.121,369.153 L 380.3,368.357 L 381.365,367.576 L 382.331,366.752 L 383.098,365.942 L 383.837,365.09 L 384.419,364.238 L 384.859,363.385 L 385.186,362.519 L 385.357,361.652 L 385.428,360.772"/>
    <path style="fill: #000000" d="M 336.363 357.078 L 343.721,359.55 L 361.52,352.135 L 369.489,354.592 L 365.185,348.456 L 344.346,348.456 L 352.912,350.288 L 336.363,357.078z"/>
    <path style="fill: #000000" d="M 333.28 363.854 L 325.936,361.368 L 308.748,368.798 L 300.168,366.312 L 304.444,373.087 L 325.936,373.087 L 316.717,370.616 L 333.28,363.854z"/>
    <path style="fill: #000000" d="M 302 350.288 L 309.344,347.831 L 327.158,354.592 L 335.141,352.76 L 330.851,358.896 L 309.969,358.896 L 318.549,357.078 L 302,350.288z"/>
    <path style="fill: #000000" d="M 368.254 371.227 L 360.881,373.698 L 343.721,366.312 L 335.141,368.798 L 339.431,362.604 L 360.881,362.604 L 351.69,364.451 L 368.254,371.227z"/>
    <path style="fill: #ffffff" d="M 336.974 357.689 L 344.346,360.147 L 362.103,352.76 L 370.1,355.232 L 365.796,349.052 L 344.943,349.052 L 353.537,350.885 L 336.974,357.689z"/>
    <path style="fill: #ffffff" d="M 333.905 364.451 L 326.519,361.993 L 309.344,369.38 L 300.764,366.922 L 305.054,373.698 L 326.519,373.698 L 317.328,371.227 L 333.905,364.451z"/>
    <path style="fill: #ffffff" d="M 302.611 350.885 L 309.969,348.456 L 327.769,355.232 L 335.738,353.356 L 331.462,359.55 L 310.58,359.55 L 319.189,357.689 L 302.611,350.885z"/>
    <path style="fill: #ffffff" d="M 368.85 371.866 L 361.52,374.323 L 344.346,366.922 L 335.738,369.38 L 340.028,363.243 L 361.52,363.243 L 352.315,365.076 L 368.85,371.866z"/>
    <path style="fill: none; fill-opacity:0; stroke-width: 0.02; stroke: #aae6ff" d="M 284.826 360.772 L 284.826,385.389"/>
    <path style="fill: none; fill-opacity:0; stroke-width: 0.02; stroke: #aae6ff" d="M 385.428 360.772 L 385.428,385.389"/>
  </g>
  <image x="368.354" y="227.178" width="115.2" height="86.688" xlink:href="file:///home/kebenson/Documents/Research/images/models/devices/computer.svg"/>
  <image x="110.571" y="418.382" width="115.2" height="86.688" xlink:href="file:///home/kebenson/Documents/Research/images/models/devices/computer.svg"/>
  <image x="133.973" y="219.572" width="115.2" height="86.688" xlink:href="file:///home/kebenson/Documents/Research/images/models/devices/computer.svg"/>
  <image x="546.752" y="405.276" width="115.2" height="86.688" xlink:href="file:///home/kebenson/Documents/Research/images/models/devices/computer.svg"/>
  <line style="fill: none; fill-opacity:0; stroke-width: 6; stroke: #000000" x1="359.769" y1="345.67" x2="386.013" y2="315.872"/>
  <line style="fill: none; fill-opacity:0; stroke-width: 6; stroke: #000000" x1="302.063" y1="347.754" x2="250.597" y2="308.237"/>
  <line style="fill: none; fill-opacity:0; stroke-width: 6; stroke: #000000" x1="227.695" y1="430.267" x2="293.506" y2="395.485"/>
  <line style="fill: none; fill-opacity:0; stroke-width: 6; stroke: #000000" x1="544.754" y1="431.94" x2="385.774" y2="387.447"/>
  <g>
    <rect style="fill: #ffffff" x="317.342" y="348.198" width="36.1" height="31.55"/>
    <text font-size="27.0933" style="fill: #000000;text-anchor:middle;font-family:sans-serif;font-style:normal;font-weight:normal" x="335.392" y="373.348">
      <tspan x="335.392" y="373.348">R2</tspan>
    </text>
  </g>
  <g>
    <rect style="fill: #ffffff" x="172.773" y="237.766" width="37.6" height="31.55"/>
    <text font-size="27.0933" style="fill: #000000;text-anchor:middle;font-family:sans-serif;font-style:normal;font-weight:normal" x="191.573" y="262.916">
      <tspan x="191.573" y="262.916">H3</tspan>
    </text>
  </g>
  <g>
    <rect style="fill: #ffffff" x="149.371" y="436.576" width="37.6" height="31.55"/>
    <text font-size="27.0933" style="fill: #000000;text-anchor:middle;font-family:sans-serif;font-style:normal;font-weight:normal" x="168.171" y="461.726">
      <tspan x="168.171" y="461.726">H4</tspan>
    </text>
  </g>
  <g>
    <rect style="fill: #ffffff" x="407.154" y="245.372" width="37.6" height="31.55"/>
    <text font-size="27.0933" style="fill: #000000;text-anchor:middle;font-family:sans-serif;font-style:normal;font-weight:normal" x="425.954" y="270.522">
      <tspan x="425.954" y="270.522">H2</tspan>
    </text>
  </g>
  <g>
    <rect style="fill: #ffffff" x="585.552" y="423.47" width="37.6" height="31.55"/>
    <text font-size="27.0933" style="fill: #000000;text-anchor:middle;font-family:sans-serif;font-style:normal;font-weight:normal" x="604.352" y="448.62">
      <tspan x="604.352" y="448.62">H1</tspan>
    </text>
  </g>
  <g>
    <path style="fill: #0078aa" d="M 1101.02 401.702 L 1100.94,400.807 L 1100.75,399.912 L 1100.44,399.031 L 1100,398.165 L 1099.4,397.284 L 1098.71,396.432 L 1097.87,395.593 L 1096.93,394.77 L 1095.85,393.96 L 1094.66,393.179 L 1093.37,392.426 L 1091.96,391.659 L 1090.44,390.934 L 1088.82,390.252 L 1087.09,389.599 L 1085.27,388.974 L 1083.38,388.363 L 1081.39,387.809 L 1079.33,387.283 L 1077.19,386.786 L 1074.97,386.332 L 1072.68,385.948 L 1070.36,385.55 L 1068,385.238 L 1065.57,384.94 L 1063.1,384.712 L 1060.6,384.499 L 1058.07,384.357 L 1055.54,384.215 L 1052.98,384.172 L 1050.43,384.13 L 1050.43,384.13 L 1047.85,384.172 L 1045.3,384.215 L 1042.77,384.357 L 1040.24,384.499 L 1037.74,384.712 L 1035.27,384.94 L 1032.84,385.238 L 1030.47,385.55 L 1028.14,385.948 L 1025.86,386.332 L 1023.65,386.786 L 1021.5,387.283 L 1019.44,387.809 L 1017.45,388.363 L 1015.55,388.974 L 1013.75,389.599 L 1012.01,390.252 L 1010.39,390.934 L 1008.87,391.659 L 1007.47,392.426 L 1006.18,393.179 L 1004.98,393.96 L 1003.9,394.77 L 1002.97,395.593 L 1002.13,396.432 L 1001.43,397.284 L 1000.83,398.165 L 1000.38,399.031 L 1000.05,399.912 L 999.883,400.807 L 999.812,401.702 L 999.812,401.702 L 999.883,402.582 L 1000.05,403.477 L 1000.38,404.358 L 1000.83,405.225 L 1001.43,406.105 L 1002.13,406.958 L 1002.97,407.796 L 1003.9,408.62 L 1004.98,409.429 L 1006.18,410.211 L 1007.47,410.992 L 1008.87,411.731 L 1010.39,412.455 L 1012.01,413.137 L 1013.75,413.819 L 1015.55,414.444 L 1017.45,415.026 L 1019.44,415.594 L 1021.5,416.106 L 1023.65,416.603 L 1025.86,417.058 L 1028.14,417.47 L 1030.47,417.839 L 1032.84,418.18 L 1035.27,418.45 L 1037.74,418.705 L 1040.24,418.89 L 1042.77,419.061 L 1045.3,419.174 L 1047.85,419.245 L 1050.43,419.259 L 1050.43,419.259 L 1052.98,419.245 L 1055.54,419.174 L 1058.07,419.061 L 1060.6,418.89 L 1063.1,418.705 L 1065.57,418.45 L 1068,418.18 L 1070.36,417.839 L 1072.68,417.47 L 1074.97,417.058 L 1077.19,416.603 L 1079.33,416.106 L 1081.39,415.594 L 1083.38,415.026 L 1085.27,414.444 L 1087.09,413.819 L 1088.82,413.137 L 1090.44,412.455 L 1091.96,411.731 L 1093.37,410.992 L 1094.66,410.211 L 1095.85,409.429 L 1096.93,408.62 L 1097.87,407.796 L 1098.71,406.958 L 1099.4,406.105 L 1100,405.225 L 1100.44,404.358 L 1100.75,403.477 L 1100.94,402.582 L 1101.02,401.702z"/>
    <path style="fill: none; fill-opacity:0; stroke-width: 0.02; stroke: #aae6ff" d="M 1100.43 401.418 L 1100.36,400.523 L 1100.19,399.67 L 1099.86,398.79 L 1099.42,397.937 L 1098.84,397.085 L 1098.1,396.247 L 1097.33,395.437 L 1096.36,394.613 L 1095.3,393.818 L 1094.12,393.022 L 1092.81,392.284 L 1091.42,391.545 L 1089.92,390.835 L 1088.31,390.153 L 1086.61,389.499 L 1084.79,388.903 L 1082.88,388.335 L 1080.92,387.752 L 1078.88,387.269 L 1076.75,386.758 L 1074.53,386.317 L 1072.29,385.92 L 1069.99,385.55 L 1067.61,385.238 L 1065.21,384.94 L 1062.74,384.712 L 1060.27,384.499 L 1057.76,384.357 L 1055.23,384.258 L 1052.68,384.172 L 1050.14,384.172 L 1050.14,384.172 L 1047.57,384.172 L 1045.04,384.258 L 1042.5,384.357 L 1040.01,384.499 L 1037.53,384.712 L 1035.07,384.94 L 1032.65,385.238 L 1030.28,385.55 L 1027.97,385.92 L 1025.72,386.317 L 1023.51,386.758 L 1021.38,387.269 L 1019.34,387.752 L 1017.37,388.335 L 1015.47,388.903 L 1013.66,389.499 L 1011.97,390.153 L 1010.37,390.835 L 1008.85,391.545 L 1007.43,392.284 L 1006.16,393.022 L 1004.97,393.818 L 1003.9,394.613 L 1002.97,395.437 L 1002.14,396.247 L 1001.43,397.085 L 1000.86,397.937 L 1000.41,398.79 L 1000.08,399.67 L 999.897,400.523 L 999.826,401.418 L 999.826,401.418 L 999.897,402.284 L 1000.08,403.179 L 1000.41,404.017 L 1000.86,404.884 L 1001.43,405.75 L 1002.14,406.574 L 1002.97,407.398 L 1003.9,408.222 L 1004.97,409.003 L 1006.16,409.799 L 1007.43,410.552 L 1008.85,411.262 L 1010.37,411.986 L 1011.97,412.682 L 1013.66,413.307 L 1015.47,413.918 L 1017.37,414.501 L 1019.34,415.069 L 1021.38,415.566 L 1023.51,416.049 L 1025.72,416.504 L 1027.97,416.901 L 1030.28,417.256 L 1032.65,417.597 L 1035.07,417.881 L 1037.53,418.109 L 1040.01,418.308 L 1042.5,418.45 L 1045.04,418.578 L 1047.57,418.649 L 1050.14,418.663 L 1050.14,418.663 L 1052.68,418.649 L 1055.23,418.578 L 1057.76,418.45 L 1060.27,418.308 L 1062.74,418.109 L 1065.21,417.881 L 1067.61,417.597 L 1069.99,417.256 L 1072.29,416.901 L 1074.53,416.504 L 1076.75,416.049 L 1078.88,415.566 L 1080.92,415.069 L 1082.88,414.501 L 1084.79,413.918 L 1086.61,413.307 L 1088.31,412.682 L 1089.92,411.986 L 1091.42,411.262 L 1092.81,410.552 L 1094.12,409.799 L 1095.3,409.003 L 1096.36,408.222 L 1097.33,407.398 L 1098.1,406.574 L 1098.84,405.75 L 1099.42,404.884 L 1099.86,404.017 L 1100.19,403.179 L 1100.36,402.284 L 1100.43,401.418"/>
    <path style="fill: #0078aa" d="M 999.826 377.368 L 999.826,402.028 L 1100.43,402.028 L 1100.43,377.368 L 999.826,377.368z"/>
    <path style="fill: #00b4ff" d="M 1101.02 377.07 L 1100.94,376.175 L 1100.75,375.266 L 1100.44,374.399 L 1100,373.519 L 1099.4,372.638 L 1098.71,371.786 L 1097.87,370.947 L 1096.93,370.138 L 1095.85,369.314 L 1094.66,368.547 L 1093.37,367.765 L 1091.96,367.027 L 1090.44,366.288 L 1088.82,365.62 L 1087.09,364.953 L 1085.27,364.314 L 1083.38,363.717 L 1081.39,363.163 L 1079.33,362.637 L 1077.19,362.154 L 1074.97,361.714 L 1072.68,361.288 L 1070.36,360.919 L 1068,360.578 L 1065.57,360.293 L 1063.1,360.052 L 1060.6,359.853 L 1058.07,359.697 L 1055.54,359.583 L 1052.98,359.512 L 1050.43,359.498 L 1050.43,359.498 L 1047.85,359.512 L 1045.3,359.583 L 1042.77,359.697 L 1040.24,359.853 L 1037.74,360.052 L 1035.27,360.293 L 1032.84,360.578 L 1030.47,360.919 L 1028.14,361.288 L 1025.86,361.714 L 1023.65,362.154 L 1021.5,362.637 L 1019.44,363.163 L 1017.45,363.717 L 1015.55,364.314 L 1013.75,364.953 L 1012.01,365.62 L 1010.39,366.288 L 1008.87,367.027 L 1007.47,367.765 L 1006.18,368.547 L 1004.98,369.314 L 1003.9,370.138 L 1002.97,370.947 L 1002.13,371.786 L 1001.43,372.638 L 1000.83,373.519 L 1000.38,374.399 L 1000.05,375.266 L 999.883,376.175 L 999.812,377.07 L 999.812,377.07 L 999.883,377.951 L 1000.05,378.846 L 1000.38,379.726 L 1000.83,380.579 L 1001.43,381.459 L 1002.13,382.312 L 1002.97,383.15 L 1003.9,383.988 L 1004.98,384.798 L 1006.18,385.565 L 1007.47,386.332 L 1008.87,387.099 L 1010.39,387.809 L 1012.01,388.491 L 1013.75,389.159 L 1015.55,389.784 L 1017.45,390.394 L 1019.44,390.934 L 1021.5,391.46 L 1023.65,391.957 L 1025.86,392.426 L 1028.14,392.809 L 1030.47,393.193 L 1032.84,393.534 L 1035.27,393.804 L 1037.74,394.045 L 1040.24,394.244 L 1042.77,394.4 L 1045.3,394.528 L 1047.85,394.599 L 1050.43,394.613 L 1050.43,394.613 L 1052.98,394.599 L 1055.54,394.528 L 1058.07,394.4 L 1060.6,394.244 L 1063.1,394.045 L 1065.57,393.804 L 1068,393.534 L 1070.36,393.193 L 1072.68,392.809 L 1074.97,392.426 L 1077.19,391.957 L 1079.33,391.46 L 1081.39,390.934 L 1083.38,390.394 L 1085.27,389.784 L 1087.09,389.159 L 1088.82,388.491 L 1090.44,387.809 L 1091.96,387.099 L 1093.37,386.332 L 1094.66,385.565 L 1095.85,384.798 L 1096.93,383.988 L 1097.87,383.15 L 1098.71,382.312 L 1099.4,381.459 L 1100,380.579 L 1100.44,379.726 L 1100.75,378.846 L 1100.94,377.951 L 1101.02,377.07z"/>
    <path style="fill: none; fill-opacity:0; stroke-width: 0.02; stroke: #aae6ff" d="M 1100.43 376.772 L 1100.36,375.877 L 1100.19,375.024 L 1099.86,374.158 L 1099.42,373.291 L 1098.84,372.453 L 1098.1,371.587 L 1097.33,370.791 L 1096.36,369.967 L 1095.3,369.186 L 1094.12,368.376 L 1092.81,367.652 L 1091.42,366.899 L 1089.92,366.189 L 1088.31,365.535 L 1086.61,364.853 L 1084.79,364.285 L 1082.88,363.674 L 1080.92,363.12 L 1078.88,362.609 L 1076.75,362.112 L 1074.53,361.671 L 1072.29,361.274 L 1069.99,360.919 L 1067.61,360.578 L 1065.21,360.293 L 1062.74,360.066 L 1060.27,359.853 L 1057.76,359.711 L 1055.23,359.597 L 1052.68,359.526 L 1050.14,359.512 L 1050.14,359.512 L 1047.57,359.526 L 1045.04,359.597 L 1042.5,359.711 L 1040.01,359.853 L 1037.53,360.066 L 1035.07,360.293 L 1032.65,360.578 L 1030.28,360.919 L 1027.97,361.274 L 1025.72,361.671 L 1023.51,362.112 L 1021.38,362.609 L 1019.34,363.12 L 1017.37,363.674 L 1015.47,364.285 L 1013.66,364.853 L 1011.97,365.535 L 1010.37,366.189 L 1008.85,366.899 L 1007.43,367.652 L 1006.16,368.376 L 1004.97,369.186 L 1003.9,369.967 L 1002.97,370.791 L 1002.14,371.587 L 1001.43,372.453 L 1000.86,373.291 L 1000.41,374.158 L 1000.08,375.024 L 999.897,375.877 L 999.826,376.772 L 999.826,376.772 L 999.897,377.652 L 1000.08,378.519 L 1000.41,379.385 L 1000.86,380.238 L 1001.43,381.09 L 1002.14,381.942 L 1002.97,382.752 L 1003.9,383.576 L 1004.97,384.357 L 1006.16,385.153 L 1007.43,385.906 L 1008.85,386.616 L 1010.37,387.34 L 1011.97,388.022 L 1013.66,388.661 L 1015.47,389.272 L 1017.37,389.855 L 1019.34,390.409 L 1021.38,390.92 L 1023.51,391.417 L 1025.72,391.886 L 1027.97,392.255 L 1030.28,392.639 L 1032.65,392.966 L 1035.07,393.235 L 1037.53,393.491 L 1040.01,393.69 L 1042.5,393.818 L 1045.04,393.946 L 1047.57,394.017 L 1050.14,394.031 L 1050.14,394.031 L 1052.68,394.017 L 1055.23,393.946 L 1057.76,393.818 L 1060.27,393.69 L 1062.74,393.491 L 1065.21,393.235 L 1067.61,392.966 L 1069.99,392.639 L 1072.29,392.255 L 1074.53,391.886 L 1076.75,391.417 L 1078.88,390.92 L 1080.92,390.409 L 1082.88,389.855 L 1084.79,389.272 L 1086.61,388.661 L 1088.31,388.022 L 1089.92,387.34 L 1091.42,386.616 L 1092.81,385.906 L 1094.12,385.153 L 1095.3,384.357 L 1096.36,383.576 L 1097.33,382.752 L 1098.1,381.942 L 1098.84,381.09 L 1099.42,380.238 L 1099.86,379.385 L 1100.19,378.519 L 1100.36,377.652 L 1100.43,376.772"/>
    <path style="fill: #000000" d="M 1051.36 373.078 L 1058.72,375.55 L 1076.52,368.135 L 1084.49,370.592 L 1080.19,364.456 L 1059.35,364.456 L 1067.91,366.288 L 1051.36,373.078z"/>
    <path style="fill: #000000" d="M 1048.28 379.854 L 1040.94,377.368 L 1023.75,384.798 L 1015.17,382.312 L 1019.44,389.087 L 1040.94,389.087 L 1031.72,386.616 L 1048.28,379.854z"/>
    <path style="fill: #000000" d="M 1017 366.288 L 1024.34,363.831 L 1042.16,370.592 L 1050.14,368.76 L 1045.85,374.896 L 1024.97,374.896 L 1033.55,373.078 L 1017,366.288z"/>
    <path style="fill: #000000" d="M 1083.25 387.227 L 1075.88,389.698 L 1058.72,382.312 L 1050.14,384.798 L 1054.43,378.604 L 1075.88,378.604 L 1066.69,380.451 L 1083.25,387.227z"/>
    <path style="fill: #ffffff" d="M 1051.97 373.689 L 1059.35,376.147 L 1077.1,368.76 L 1085.1,371.232 L 1080.8,365.052 L 1059.94,365.052 L 1068.54,366.885 L 1051.97,373.689z"/>
    <path style="fill: #ffffff" d="M 1048.91 380.451 L 1041.52,377.993 L 1024.34,385.38 L 1015.76,382.922 L 1020.05,389.698 L 1041.52,389.698 L 1032.33,387.227 L 1048.91,380.451z"/>
    <path style="fill: #ffffff" d="M 1017.61 366.885 L 1024.97,364.456 L 1042.77,371.232 L 1050.74,369.356 L 1046.46,375.55 L 1025.58,375.55 L 1034.19,373.689 L 1017.61,366.885z"/>
    <path style="fill: #ffffff" d="M 1083.85 387.866 L 1076.52,390.323 L 1059.35,382.922 L 1050.74,385.38 L 1055.03,379.243 L 1076.52,379.243 L 1067.32,381.076 L 1083.85,387.866z"/>
    <path style="fill: none; fill-opacity:0; stroke-width: 0.02; stroke: #aae6ff" d="M 999.826 376.772 L 999.826,401.389"/>
    <path style="fill: none; fill-opacity:0; stroke-width: 0.02; stroke: #aae6ff" d="M 1100.43 376.772 L 1100.43,401.389"/>
  </g>
  <image x="1128.11" y="225.91" width="115.2" height="86.688" xlink:href="file:///home/kebenson/Documents/Research/images/models/devices/computer.svg"/>
  <image x="848.974" y="287.572" width="115.2" height="86.688" xlink:href="file:///home/kebenson/Documents/Research/images/models/devices/computer.svg"/>
  <image x="1142.75" y="443.276" width="115.2" height="86.688" xlink:href="file:///home/kebenson/Documents/Research/images/models/devices/computer.svg"/>
  <line style="fill: none; fill-opacity:0; stroke-width: 6; stroke: #000000" x1="1080.23" y1="362.864" x2="1134.62" y2="314.597"/>
  <line style="fill: none; fill-opacity:0; stroke-width: 6; stroke: #000000" x1="1003.51" y1="370.299" x2="966.168" y2="355.128"/>
  <line style="fill: none; fill-opacity:0; stroke-width: 6; stroke: #000000" x1="1140.82" y1="448.005" x2="1087.75" y2="413.576"/>
  <g>
    <rect style="fill: #ffffff" x="1032.34" y="364.198" width="36.1" height="31.55"/>
    <text font-size="27.0933" style="fill: #000000;text-anchor:middle;font-family:sans-serif;font-style:normal;font-weight:normal" x="1050.39" y="389.348">
      <tspan x="1050.39" y="389.348">R2</tspan>
    </text>
  </g>
  <g>
    <rect style="fill: #ffffff" x="887.774" y="305.766" width="37.6" height="31.55"/>
    <text font-size="27.0933" style="fill: #000000;text-anchor:middle;font-family:sans-serif;font-style:normal;font-weight:normal" x="906.574" y="330.916">
      <tspan x="906.574" y="330.916">H5</tspan>
    </text>
  </g>
  <g>
    <rect style="fill: #ffffff" x="1166.91" y="244.104" width="37.6" height="31.55"/>
    <text font-size="27.0933" style="fill: #000000;text-anchor:middle;font-family:sans-serif;font-style:normal;font-weight:normal" x="1185.71" y="269.254">
      <tspan x="1185.71" y="269.254">H6</tspan>
    </text>
  </g>
  <g>
    <rect style="fill: #ffffff" x="1181.55" y="461.47" width="37.6" height="31.55"/>
    <text font-size="27.0933" style="fill: #000000;text-anchor:middle;font-family:sans-serif;font-style:normal;font-weight:normal" x="1200.35" y="486.62">
      <tspan x="1200.35" y="486.62">H7</tspan>
    </text>
  </g>
  <text font-size="12.8" style="fill: #000000;text-anchor:start;font-family:sans-serif;font-style:normal;font-weight:normal" x="409.572" y="368.412">
    <tspan x="409.572" y="368.412"></tspan>
  </text>
  <g>
    <path style="fill: #0078aa" d="M 526.122 822.102 L 526.037,821.207 L 525.852,820.312 L 525.54,819.431 L 525.099,818.565 L 524.503,817.684 L 523.807,816.832 L 522.969,815.993 L 522.031,815.17 L 520.952,814.36 L 519.758,813.579 L 518.466,812.826 L 517.059,812.059 L 515.539,811.334 L 513.92,810.652 L 512.187,809.999 L 510.369,809.374 L 508.479,808.763 L 506.491,808.209 L 504.431,807.683 L 502.286,807.186 L 500.07,806.732 L 497.783,806.348 L 495.453,805.95 L 493.095,805.638 L 490.666,805.34 L 488.194,805.112 L 485.694,804.899 L 483.166,804.757 L 480.637,804.615 L 478.08,804.572 L 475.523,804.53 L 475.523,804.53 L 472.952,804.572 L 470.395,804.615 L 467.867,804.757 L 465.338,804.899 L 462.838,805.112 L 460.366,805.34 L 457.937,805.638 L 455.565,805.95 L 453.235,806.348 L 450.962,806.732 L 448.746,807.186 L 446.601,807.683 L 444.542,808.209 L 442.553,808.763 L 440.649,809.374 L 438.845,809.999 L 437.112,810.652 L 435.493,811.334 L 433.973,812.059 L 432.567,812.826 L 431.274,813.579 L 430.081,814.36 L 429.001,815.17 L 428.064,815.993 L 427.225,816.832 L 426.529,817.684 L 425.933,818.565 L 425.478,819.431 L 425.151,820.312 L 424.981,821.207 L 424.91,822.102 L 424.91,822.102 L 424.981,822.982 L 425.151,823.877 L 425.478,824.758 L 425.933,825.625 L 426.529,826.505 L 427.225,827.358 L 428.064,828.196 L 429.001,829.02 L 430.081,829.829 L 431.274,830.611 L 432.567,831.392 L 433.973,832.131 L 435.493,832.855 L 437.112,833.537 L 438.845,834.219 L 440.649,834.844 L 442.553,835.426 L 444.542,835.994 L 446.601,836.506 L 448.746,837.003 L 450.962,837.458 L 453.235,837.87 L 455.565,838.239 L 457.937,838.58 L 460.366,838.85 L 462.838,839.105 L 465.338,839.29 L 467.867,839.461 L 470.395,839.574 L 472.952,839.645 L 475.523,839.659 L 475.523,839.659 L 478.08,839.645 L 480.637,839.574 L 483.166,839.461 L 485.694,839.29 L 488.194,839.105 L 490.666,838.85 L 493.095,838.58 L 495.453,838.239 L 497.783,837.87 L 500.07,837.458 L 502.286,837.003 L 504.431,836.506 L 506.491,835.994 L 508.479,835.426 L 510.369,834.844 L 512.187,834.219 L 513.92,833.537 L 515.539,832.855 L 517.059,832.131 L 518.466,831.392 L 519.758,830.611 L 520.952,829.829 L 522.031,829.02 L 522.969,828.196 L 523.807,827.358 L 524.503,826.505 L 525.099,825.625 L 525.54,824.758 L 525.852,823.877 L 526.037,822.982 L 526.122,822.102z"/>
    <path style="fill: none; fill-opacity:0; stroke-width: 0.02; stroke: #aae6ff" d="M 525.526 821.818 L 525.455,820.923 L 525.284,820.07 L 524.957,819.19 L 524.517,818.337 L 523.935,817.485 L 523.196,816.647 L 522.429,815.837 L 521.463,815.013 L 520.398,814.218 L 519.219,813.422 L 517.912,812.684 L 516.52,811.945 L 515.014,811.235 L 513.409,810.553 L 511.704,809.899 L 509.886,809.303 L 507.982,808.735 L 506.022,808.152 L 503.976,807.669 L 501.846,807.158 L 499.63,806.717 L 497.385,806.32 L 495.084,805.95 L 492.712,805.638 L 490.311,805.34 L 487.839,805.112 L 485.367,804.899 L 482.853,804.757 L 480.325,804.658 L 477.782,804.572 L 475.239,804.572 L 475.239,804.572 L 472.668,804.572 L 470.139,804.658 L 467.597,804.757 L 465.111,804.899 L 462.625,805.112 L 460.167,805.34 L 457.752,805.638 L 455.38,805.95 L 453.065,806.32 L 450.82,806.717 L 448.604,807.158 L 446.474,807.669 L 444.442,808.152 L 442.468,808.735 L 440.564,809.303 L 438.76,809.899 L 437.07,810.553 L 435.464,811.235 L 433.945,811.945 L 432.524,812.684 L 431.26,813.422 L 430.066,814.218 L 429.001,815.013 L 428.064,815.837 L 427.24,816.647 L 426.529,817.485 L 425.961,818.337 L 425.507,819.19 L 425.18,820.07 L 424.995,820.923 L 424.924,821.818 L 424.924,821.818 L 424.995,822.684 L 425.18,823.579 L 425.507,824.417 L 425.961,825.284 L 426.529,826.15 L 427.24,826.974 L 428.064,827.798 L 429.001,828.622 L 430.066,829.403 L 431.26,830.199 L 432.524,830.952 L 433.945,831.662 L 435.464,832.386 L 437.07,833.082 L 438.76,833.707 L 440.564,834.318 L 442.468,834.901 L 444.442,835.469 L 446.474,835.966 L 448.604,836.449 L 450.82,836.904 L 453.065,837.301 L 455.38,837.656 L 457.752,837.997 L 460.167,838.281 L 462.625,838.509 L 465.111,838.708 L 467.597,838.85 L 470.139,838.978 L 472.668,839.049 L 475.239,839.063 L 475.239,839.063 L 477.782,839.049 L 480.325,838.978 L 482.853,838.85 L 485.367,838.708 L 487.839,838.509 L 490.311,838.281 L 492.712,837.997 L 495.084,837.656 L 497.385,837.301 L 499.63,836.904 L 501.846,836.449 L 503.976,835.966 L 506.022,835.469 L 507.982,834.901 L 509.886,834.318 L 511.704,833.707 L 513.409,833.082 L 515.014,832.386 L 516.52,831.662 L 517.912,830.952 L 519.219,830.199 L 520.398,829.403 L 521.463,828.622 L 522.429,827.798 L 523.196,826.974 L 523.935,826.15 L 524.517,825.284 L 524.957,824.417 L 525.284,823.579 L 525.455,822.684 L 525.526,821.818"/>
    <path style="fill: #0078aa" d="M 424.924 797.768 L 424.924,822.428 L 525.526,822.428 L 525.526,797.768 L 424.924,797.768z"/>
    <path style="fill: #00b4ff" d="M 526.122 797.47 L 526.037,796.575 L 525.852,795.666 L 525.54,794.799 L 525.099,793.919 L 524.503,793.038 L 523.807,792.186 L 522.969,791.347 L 522.031,790.538 L 520.952,789.714 L 519.758,788.947 L 518.466,788.165 L 517.059,787.427 L 515.539,786.688 L 513.92,786.02 L 512.187,785.353 L 510.369,784.714 L 508.479,784.117 L 506.491,783.563 L 504.431,783.037 L 502.286,782.554 L 500.07,782.114 L 497.783,781.688 L 495.453,781.319 L 493.095,780.978 L 490.666,780.693 L 488.194,780.452 L 485.694,780.253 L 483.166,780.097 L 480.637,779.983 L 478.08,779.912 L 475.523,779.898 L 475.523,779.898 L 472.952,779.912 L 470.395,779.983 L 467.867,780.097 L 465.338,780.253 L 462.838,780.452 L 460.366,780.693 L 457.937,780.978 L 455.565,781.319 L 453.235,781.688 L 450.962,782.114 L 448.746,782.554 L 446.601,783.037 L 444.542,783.563 L 442.553,784.117 L 440.649,784.714 L 438.845,785.353 L 437.112,786.02 L 435.493,786.688 L 433.973,787.427 L 432.567,788.165 L 431.274,788.947 L 430.081,789.714 L 429.001,790.538 L 428.064,791.347 L 427.225,792.186 L 426.529,793.038 L 425.933,793.919 L 425.478,794.799 L 425.151,795.666 L 424.981,796.575 L 424.91,797.47 L 424.91,797.47 L 424.981,798.351 L 425.151,799.246 L 425.478,800.126 L 425.933,800.979 L 426.529,801.859 L 427.225,802.712 L 428.064,803.55 L 429.001,804.388 L 430.081,805.198 L 431.274,805.965 L 432.567,806.732 L 433.973,807.499 L 435.493,808.209 L 437.112,808.891 L 438.845,809.559 L 440.649,810.184 L 442.553,810.794 L 444.542,811.334 L 446.601,811.86 L 448.746,812.357 L 450.962,812.826 L 453.235,813.209 L 455.565,813.593 L 457.937,813.934 L 460.366,814.204 L 462.838,814.445 L 465.338,814.644 L 467.867,814.8 L 470.395,814.928 L 472.952,814.999 L 475.523,815.013 L 475.523,815.013 L 478.08,814.999 L 480.637,814.928 L 483.166,814.8 L 485.694,814.644 L 488.194,814.445 L 490.666,814.204 L 493.095,813.934 L 495.453,813.593 L 497.783,813.209 L 500.07,812.826 L 502.286,812.357 L 504.431,811.86 L 506.491,811.334 L 508.479,810.794 L 510.369,810.184 L 512.187,809.559 L 513.92,808.891 L 515.539,808.209 L 517.059,807.499 L 518.466,806.732 L 519.758,805.965 L 520.952,805.198 L 522.031,804.388 L 522.969,803.55 L 523.807,802.712 L 524.503,801.859 L 525.099,800.979 L 525.54,800.126 L 525.852,799.246 L 526.037,798.351 L 526.122,797.47z"/>
    <path style="fill: none; fill-opacity:0; stroke-width: 0.02; stroke: #aae6ff" d="M 525.526 797.172 L 525.455,796.277 L 525.284,795.424 L 524.957,794.558 L 524.517,793.691 L 523.935,792.853 L 523.196,791.987 L 522.429,791.191 L 521.463,790.367 L 520.398,789.586 L 519.219,788.776 L 517.912,788.052 L 516.52,787.299 L 515.014,786.589 L 513.409,785.935 L 511.704,785.253 L 509.886,784.685 L 507.982,784.074 L 506.022,783.52 L 503.976,783.009 L 501.846,782.512 L 499.63,782.071 L 497.385,781.674 L 495.084,781.319 L 492.712,780.978 L 490.311,780.693 L 487.839,780.466 L 485.367,780.253 L 482.853,780.111 L 480.325,779.997 L 477.782,779.926 L 475.239,779.912 L 475.239,779.912 L 472.668,779.926 L 470.139,779.997 L 467.597,780.111 L 465.111,780.253 L 462.625,780.466 L 460.167,780.693 L 457.752,780.978 L 455.38,781.319 L 453.065,781.674 L 450.82,782.071 L 448.604,782.512 L 446.474,783.009 L 444.442,783.52 L 442.468,784.074 L 440.564,784.685 L 438.76,785.253 L 437.07,785.935 L 435.464,786.589 L 433.945,787.299 L 432.524,788.052 L 431.26,788.776 L 430.066,789.586 L 429.001,790.367 L 428.064,791.191 L 427.24,791.987 L 426.529,792.853 L 425.961,793.691 L 425.507,794.558 L 425.18,795.424 L 424.995,796.277 L 424.924,797.172 L 424.924,797.172 L 424.995,798.052 L 425.18,798.919 L 425.507,799.785 L 425.961,800.638 L 426.529,801.49 L 427.24,802.342 L 428.064,803.152 L 429.001,803.976 L 430.066,804.757 L 431.26,805.553 L 432.524,806.306 L 433.945,807.016 L 435.464,807.74 L 437.07,808.422 L 438.76,809.061 L 440.564,809.672 L 442.468,810.255 L 444.442,810.809 L 446.474,811.32 L 448.604,811.817 L 450.82,812.286 L 453.065,812.655 L 455.38,813.039 L 457.752,813.366 L 460.167,813.635 L 462.625,813.891 L 465.111,814.09 L 467.597,814.218 L 470.139,814.346 L 472.668,814.417 L 475.239,814.431 L 475.239,814.431 L 477.782,814.417 L 480.325,814.346 L 482.853,814.218 L 485.367,814.09 L 487.839,813.891 L 490.311,813.635 L 492.712,813.366 L 495.084,813.039 L 497.385,812.655 L 499.63,812.286 L 501.846,811.817 L 503.976,811.32 L 506.022,810.809 L 507.982,810.255 L 509.886,809.672 L 511.704,809.061 L 513.409,808.422 L 515.014,807.74 L 516.52,807.016 L 517.912,806.306 L 519.219,805.553 L 520.398,804.757 L 521.463,803.976 L 522.429,803.152 L 523.196,802.342 L 523.935,801.49 L 524.517,800.638 L 524.957,799.785 L 525.284,798.919 L 525.455,798.052 L 525.526,797.172"/>
    <path style="fill: #000000" d="M 476.461 793.478 L 483.819,795.95 L 501.618,788.535 L 509.587,790.992 L 505.283,784.856 L 484.444,784.856 L 493.01,786.688 L 476.461,793.478z"/>
    <path style="fill: #000000" d="M 473.378 800.254 L 466.034,797.768 L 448.846,805.198 L 440.266,802.712 L 444.542,809.487 L 466.034,809.487 L 456.815,807.016 L 473.378,800.254z"/>
    <path style="fill: #000000" d="M 442.098 786.688 L 449.442,784.231 L 467.256,790.992 L 475.239,789.16 L 470.949,795.296 L 450.067,795.296 L 458.647,793.478 L 442.098,786.688z"/>
    <path style="fill: #000000" d="M 508.352 807.627 L 500.979,810.098 L 483.819,802.712 L 475.239,805.198 L 479.529,799.004 L 500.979,799.004 L 491.788,800.851 L 508.352,807.627z"/>
    <path style="fill: #ffffff" d="M 477.072 794.089 L 484.444,796.547 L 502.201,789.16 L 510.198,791.632 L 505.894,785.452 L 485.041,785.452 L 493.635,787.285 L 477.072,794.089z"/>
    <path style="fill: #ffffff" d="M 474.003 800.851 L 466.617,798.393 L 449.442,805.78 L 440.862,803.322 L 445.152,810.098 L 466.617,810.098 L 457.426,807.627 L 474.003,800.851z"/>
    <path style="fill: #ffffff" d="M 442.709 787.285 L 450.067,784.856 L 467.867,791.632 L 475.836,789.756 L 471.56,795.95 L 450.678,795.95 L 459.287,794.089 L 442.709,787.285z"/>
    <path style="fill: #ffffff" d="M 508.948 808.266 L 501.618,810.723 L 484.444,803.322 L 475.836,805.78 L 480.126,799.643 L 501.618,799.643 L 492.413,801.476 L 508.948,808.266z"/>
    <path style="fill: none; fill-opacity:0; stroke-width: 0.02; stroke: #aae6ff" d="M 424.924 797.172 L 424.924,821.789"/>
    <path style="fill: none; fill-opacity:0; stroke-width: 0.02; stroke: #aae6ff" d="M 525.526 797.172 L 525.526,821.789"/>
  </g>
  <image x="591.21" y="666.31" width="115.2" height="86.688" xlink:href="file:///home/kebenson/Documents/Research/images/models/devices/computer.svg"/>
  <image x="370.072" y="653.972" width="115.2" height="86.688" xlink:href="file:///home/kebenson/Documents/Research/images/models/devices/computer.svg"/>
  <image x="587.85" y="843.676" width="115.2" height="86.688" xlink:href="file:///home/kebenson/Documents/Research/images/models/devices/computer.svg"/>
  <line style="fill: none; fill-opacity:0; stroke-width: 6; stroke: #000000" x1="515.489" y1="786.648" x2="589.205" y2="744.076"/>
  <line style="fill: none; fill-opacity:0; stroke-width: 6; stroke: #000000" x1="463.017" y1="780.418" x2="446.935" y2="742.607"/>
  <line style="fill: none; fill-opacity:0; stroke-width: 6; stroke: #000000" x1="585.854" y1="859.924" x2="520.439" y2="830.183"/>
  <g>
    <rect style="fill: #ffffff" x="457.44" y="784.598" width="36.1" height="31.55"/>
    <text font-size="27.0933" style="fill: #000000;text-anchor:middle;font-family:sans-serif;font-style:normal;font-weight:normal" x="475.49" y="809.748">
      <tspan x="475.49" y="809.748">R2</tspan>
    </text>
  </g>
  <g>
    <rect style="fill: #ffffff" x="400.247" y="672.166" width="54.85" height="31.55"/>
    <text font-size="27.0933" style="fill: #000000;text-anchor:middle;font-family:sans-serif;font-style:normal;font-weight:normal" x="427.672" y="697.316">
      <tspan x="427.672" y="697.316">H11</tspan>
    </text>
  </g>
  <g>
    <rect style="fill: #ffffff" x="630.01" y="684.504" width="37.6" height="31.55"/>
    <text font-size="27.0933" style="fill: #000000;text-anchor:middle;font-family:sans-serif;font-style:normal;font-weight:normal" x="648.81" y="709.654">
      <tspan x="648.81" y="709.654">H9</tspan>
    </text>
  </g>
  <g>
    <rect style="fill: #ffffff" x="626.65" y="861.87" width="37.6" height="31.55"/>
    <text font-size="27.0933" style="fill: #000000;text-anchor:middle;font-family:sans-serif;font-style:normal;font-weight:normal" x="645.45" y="887.02">
      <tspan x="645.45" y="887.02">H8</tspan>
    </text>
  </g>
  <g>
    <path style="fill: #0078aa" d="M 353.988 887.958 L 353.903,887.063 L 353.718,886.168 L 353.406,885.287 L 352.965,884.421 L 352.369,883.54 L 351.673,882.688 L 350.835,881.849 L 349.897,881.026 L 348.818,880.216 L 347.624,879.435 L 346.332,878.682 L 344.925,877.915 L 343.405,877.19 L 341.786,876.508 L 340.053,875.855 L 338.235,875.23 L 336.345,874.619 L 334.357,874.065 L 332.297,873.539 L 330.152,873.042 L 327.936,872.588 L 325.649,872.204 L 323.319,871.806 L 320.961,871.494 L 318.532,871.196 L 316.06,870.968 L 313.56,870.755 L 311.032,870.613 L 308.503,870.471 L 305.946,870.428 L 303.389,870.386 L 303.389,870.386 L 300.818,870.428 L 298.261,870.471 L 295.733,870.613 L 293.204,870.755 L 290.704,870.968 L 288.232,871.196 L 285.803,871.494 L 283.431,871.806 L 281.101,872.204 L 278.828,872.588 L 276.612,873.042 L 274.467,873.539 L 272.408,874.065 L 270.419,874.619 L 268.515,875.23 L 266.711,875.855 L 264.978,876.508 L 263.359,877.19 L 261.839,877.915 L 260.433,878.682 L 259.14,879.435 L 257.947,880.216 L 256.867,881.026 L 255.93,881.849 L 255.091,882.688 L 254.395,883.54 L 253.799,884.421 L 253.344,885.287 L 253.017,886.168 L 252.847,887.063 L 252.776,887.958 L 252.776,887.958 L 252.847,888.838 L 253.017,889.733 L 253.344,890.614 L 253.799,891.481 L 254.395,892.361 L 255.091,893.214 L 255.93,894.052 L 256.867,894.876 L 257.947,895.685 L 259.14,896.467 L 260.433,897.248 L 261.839,897.987 L 263.359,898.711 L 264.978,899.393 L 266.711,900.075 L 268.515,900.7 L 270.419,901.282 L 272.408,901.85 L 274.467,902.362 L 276.612,902.859 L 278.828,903.314 L 281.101,903.726 L 283.431,904.095 L 285.803,904.436 L 288.232,904.706 L 290.704,904.961 L 293.204,905.146 L 295.733,905.317 L 298.261,905.43 L 300.818,905.501 L 303.389,905.515 L 303.389,905.515 L 305.946,905.501 L 308.503,905.43 L 311.032,905.317 L 313.56,905.146 L 316.06,904.961 L 318.532,904.706 L 320.961,904.436 L 323.319,904.095 L 325.649,903.726 L 327.936,903.314 L 330.152,902.859 L 332.297,902.362 L 334.357,901.85 L 336.345,901.282 L 338.235,900.7 L 340.053,900.075 L 341.786,899.393 L 343.405,898.711 L 344.925,897.987 L 346.332,897.248 L 347.624,896.467 L 348.818,895.685 L 349.897,894.876 L 350.835,894.052 L 351.673,893.214 L 352.369,892.361 L 352.965,891.481 L 353.406,890.614 L 353.718,889.733 L 353.903,888.838 L 353.988,887.958z"/>
    <path style="fill: none; fill-opacity:0; stroke-width: 0.02; stroke: #aae6ff" d="M 353.392 887.674 L 353.321,886.779 L 353.15,885.926 L 352.823,885.046 L 352.383,884.193 L 351.801,883.341 L 351.062,882.503 L 350.295,881.693 L 349.329,880.869 L 348.264,880.074 L 347.085,879.278 L 345.778,878.54 L 344.386,877.801 L 342.88,877.091 L 341.275,876.409 L 339.57,875.755 L 337.752,875.159 L 335.848,874.591 L 333.888,874.008 L 331.842,873.525 L 329.712,873.014 L 327.496,872.573 L 325.251,872.176 L 322.95,871.806 L 320.578,871.494 L 318.177,871.196 L 315.705,870.968 L 313.233,870.755 L 310.719,870.613 L 308.191,870.514 L 305.648,870.428 L 303.105,870.428 L 303.105,870.428 L 300.534,870.428 L 298.005,870.514 L 295.463,870.613 L 292.977,870.755 L 290.491,870.968 L 288.033,871.196 L 285.618,871.494 L 283.246,871.806 L 280.931,872.176 L 278.686,872.573 L 276.47,873.014 L 274.34,873.525 L 272.308,874.008 L 270.334,874.591 L 268.43,875.159 L 266.626,875.755 L 264.936,876.409 L 263.33,877.091 L 261.811,877.801 L 260.39,878.54 L 259.126,879.278 L 257.932,880.074 L 256.867,880.869 L 255.93,881.693 L 255.106,882.503 L 254.395,883.341 L 253.827,884.193 L 253.373,885.046 L 253.046,885.926 L 252.861,886.779 L 252.79,887.674 L 252.79,887.674 L 252.861,888.54 L 253.046,889.435 L 253.373,890.273 L 253.827,891.14 L 254.395,892.006 L 255.106,892.83 L 255.93,893.654 L 256.867,894.478 L 257.932,895.259 L 259.126,896.055 L 260.39,896.808 L 261.811,897.518 L 263.33,898.242 L 264.936,898.938 L 266.626,899.563 L 268.43,900.174 L 270.334,900.757 L 272.308,901.325 L 274.34,901.822 L 276.47,902.305 L 278.686,902.76 L 280.931,903.157 L 283.246,903.512 L 285.618,903.853 L 288.033,904.137 L 290.491,904.365 L 292.977,904.564 L 295.463,904.706 L 298.005,904.834 L 300.534,904.905 L 303.105,904.919 L 303.105,904.919 L 305.648,904.905 L 308.191,904.834 L 310.719,904.706 L 313.233,904.564 L 315.705,904.365 L 318.177,904.137 L 320.578,903.853 L 322.95,903.512 L 325.251,903.157 L 327.496,902.76 L 329.712,902.305 L 331.842,901.822 L 333.888,901.325 L 335.848,900.757 L 337.752,900.174 L 339.57,899.563 L 341.275,898.938 L 342.88,898.242 L 344.386,897.518 L 345.778,896.808 L 347.085,896.055 L 348.264,895.259 L 349.329,894.478 L 350.295,893.654 L 351.062,892.83 L 351.801,892.006 L 352.383,891.14 L 352.823,890.273 L 353.15,889.435 L 353.321,888.54 L 353.392,887.674"/>
    <path style="fill: #0078aa" d="M 252.79 863.624 L 252.79,888.284 L 353.392,888.284 L 353.392,863.624 L 252.79,863.624z"/>
    <path style="fill: #00b4ff" d="M 353.988 863.326 L 353.903,862.431 L 353.718,861.522 L 353.406,860.655 L 352.965,859.775 L 352.369,858.894 L 351.673,858.042 L 350.835,857.203 L 349.897,856.394 L 348.818,855.57 L 347.624,854.803 L 346.332,854.021 L 344.925,853.283 L 343.405,852.544 L 341.786,851.876 L 340.053,851.209 L 338.235,850.57 L 336.345,849.973 L 334.357,849.419 L 332.297,848.893 L 330.152,848.41 L 327.936,847.97 L 325.649,847.544 L 323.319,847.175 L 320.961,846.834 L 318.532,846.549 L 316.06,846.308 L 313.56,846.109 L 311.032,845.953 L 308.503,845.839 L 305.946,845.768 L 303.389,845.754 L 303.389,845.754 L 300.818,845.768 L 298.261,845.839 L 295.733,845.953 L 293.204,846.109 L 290.704,846.308 L 288.232,846.549 L 285.803,846.834 L 283.431,847.175 L 281.101,847.544 L 278.828,847.97 L 276.612,848.41 L 274.467,848.893 L 272.408,849.419 L 270.419,849.973 L 268.515,850.57 L 266.711,851.209 L 264.978,851.876 L 263.359,852.544 L 261.839,853.283 L 260.433,854.021 L 259.14,854.803 L 257.947,855.57 L 256.867,856.394 L 255.93,857.203 L 255.091,858.042 L 254.395,858.894 L 253.799,859.775 L 253.344,860.655 L 253.017,861.522 L 252.847,862.431 L 252.776,863.326 L 252.776,863.326 L 252.847,864.207 L 253.017,865.102 L 253.344,865.982 L 253.799,866.835 L 254.395,867.715 L 255.091,868.568 L 255.93,869.406 L 256.867,870.244 L 257.947,871.054 L 259.14,871.821 L 260.433,872.588 L 261.839,873.355 L 263.359,874.065 L 264.978,874.747 L 266.711,875.415 L 268.515,876.04 L 270.419,876.65 L 272.408,877.19 L 274.467,877.716 L 276.612,878.213 L 278.828,878.682 L 281.101,879.065 L 283.431,879.449 L 285.803,879.79 L 288.232,880.06 L 290.704,880.301 L 293.204,880.5 L 295.733,880.656 L 298.261,880.784 L 300.818,880.855 L 303.389,880.869 L 303.389,880.869 L 305.946,880.855 L 308.503,880.784 L 311.032,880.656 L 313.56,880.5 L 316.06,880.301 L 318.532,880.06 L 320.961,879.79 L 323.319,879.449 L 325.649,879.065 L 327.936,878.682 L 330.152,878.213 L 332.297,877.716 L 334.357,877.19 L 336.345,876.65 L 338.235,876.04 L 340.053,875.415 L 341.786,874.747 L 343.405,874.065 L 344.925,873.355 L 346.332,872.588 L 347.624,871.821 L 348.818,871.054 L 349.897,870.244 L 350.835,869.406 L 351.673,868.568 L 352.369,867.715 L 352.965,866.835 L 353.406,865.982 L 353.718,865.102 L 353.903,864.207 L 353.988,863.326z"/>
    <path style="fill: none; fill-opacity:0; stroke-width: 0.02; stroke: #aae6ff" d="M 353.392 863.028 L 353.321,862.133 L 353.15,861.28 L 352.823,860.414 L 352.383,859.547 L 351.801,858.709 L 351.062,857.843 L 350.295,857.047 L 349.329,856.223 L 348.264,855.442 L 347.085,854.632 L 345.778,853.908 L 344.386,853.155 L 342.88,852.445 L 341.275,851.791 L 339.57,851.109 L 337.752,850.541 L 335.848,849.93 L 333.888,849.376 L 331.842,848.865 L 329.712,848.368 L 327.496,847.927 L 325.251,847.53 L 322.95,847.175 L 320.578,846.834 L 318.177,846.549 L 315.705,846.322 L 313.233,846.109 L 310.719,845.967 L 308.191,845.853 L 305.648,845.782 L 303.105,845.768 L 303.105,845.768 L 300.534,845.782 L 298.005,845.853 L 295.463,845.967 L 292.977,846.109 L 290.491,846.322 L 288.033,846.549 L 285.618,846.834 L 283.246,847.175 L 280.931,847.53 L 278.686,847.927 L 276.47,848.368 L 274.34,848.865 L 272.308,849.376 L 270.334,849.93 L 268.43,850.541 L 266.626,851.109 L 264.936,851.791 L 263.33,852.445 L 261.811,853.155 L 260.39,853.908 L 259.126,854.632 L 257.932,855.442 L 256.867,856.223 L 255.93,857.047 L 255.106,857.843 L 254.395,858.709 L 253.827,859.547 L 253.373,860.414 L 253.046,861.28 L 252.861,862.133 L 252.79,863.028 L 252.79,863.028 L 252.861,863.908 L 253.046,864.775 L 253.373,865.641 L 253.827,866.494 L 254.395,867.346 L 255.106,868.198 L 255.93,869.008 L 256.867,869.832 L 257.932,870.613 L 259.126,871.409 L 260.39,872.162 L 261.811,872.872 L 263.33,873.596 L 264.936,874.278 L 266.626,874.917 L 268.43,875.528 L 270.334,876.111 L 272.308,876.665 L 274.34,877.176 L 276.47,877.673 L 278.686,878.142 L 280.931,878.511 L 283.246,878.895 L 285.618,879.222 L 288.033,879.491 L 290.491,879.747 L 292.977,879.946 L 295.463,880.074 L 298.005,880.202 L 300.534,880.273 L 303.105,880.287 L 303.105,880.287 L 305.648,880.273 L 308.191,880.202 L 310.719,880.074 L 313.233,879.946 L 315.705,879.747 L 318.177,879.491 L 320.578,879.222 L 322.95,878.895 L 325.251,878.511 L 327.496,878.142 L 329.712,877.673 L 331.842,877.176 L 333.888,876.665 L 335.848,876.111 L 337.752,875.528 L 339.57,874.917 L 341.275,874.278 L 342.88,873.596 L 344.386,872.872 L 345.778,872.162 L 347.085,871.409 L 348.264,870.613 L 349.329,869.832 L 350.295,869.008 L 351.062,868.198 L 351.801,867.346 L 352.383,866.494 L 352.823,865.641 L 353.15,864.775 L 353.321,863.908 L 353.392,863.028"/>
    <path style="fill: #000000" d="M 304.327 859.334 L 311.685,861.806 L 329.484,854.391 L 337.453,856.848 L 333.149,850.712 L 312.31,850.712 L 320.876,852.544 L 304.327,859.334z"/>
    <path style="fill: #000000" d="M 301.244 866.11 L 293.9,863.624 L 276.712,871.054 L 268.132,868.568 L 272.408,875.343 L 293.9,875.343 L 284.681,872.872 L 301.244,866.11z"/>
    <path style="fill: #000000" d="M 269.964 852.544 L 277.308,850.087 L 295.122,856.848 L 303.105,855.016 L 298.815,861.152 L 277.933,861.152 L 286.513,859.334 L 269.964,852.544z"/>
    <path style="fill: #000000" d="M 336.218 873.483 L 328.845,875.954 L 311.685,868.568 L 303.105,871.054 L 307.395,864.86 L 328.845,864.86 L 319.654,866.707 L 336.218,873.483z"/>
    <path style="fill: #ffffff" d="M 304.938 859.945 L 312.31,862.403 L 330.067,855.016 L 338.064,857.488 L 333.76,851.308 L 312.907,851.308 L 321.501,853.141 L 304.938,859.945z"/>
    <path style="fill: #ffffff" d="M 301.869 866.707 L 294.483,864.249 L 277.308,871.636 L 268.728,869.178 L 273.018,875.954 L 294.483,875.954 L 285.292,873.483 L 301.869,866.707z"/>
    <path style="fill: #ffffff" d="M 270.575 853.141 L 277.933,850.712 L 295.733,857.488 L 303.702,855.612 L 299.426,861.806 L 278.544,861.806 L 287.153,859.945 L 270.575,853.141z"/>
    <path style="fill: #ffffff" d="M 336.814 874.122 L 329.484,876.579 L 312.31,869.178 L 303.702,871.636 L 307.992,865.499 L 329.484,865.499 L 320.279,867.332 L 336.814,874.122z"/>
    <path style="fill: none; fill-opacity:0; stroke-width: 0.02; stroke: #aae6ff" d="M 252.79 863.028 L 252.79,887.645"/>
    <path style="fill: none; fill-opacity:0; stroke-width: 0.02; stroke: #aae6ff" d="M 353.392 863.028 L 353.392,887.645"/>
  </g>
  <image x="95.0708" y="926.372" width="115.2" height="86.688" xlink:href="file:///home/kebenson/Documents/Research/images/models/devices/computer.svg"/>
  <image x="396.85" y="930.076" width="115.2" height="86.688" xlink:href="file:///home/kebenson/Documents/Research/images/models/devices/computer.svg"/>
  <line style="fill: none; fill-opacity:0; stroke-width: 6; stroke: #000000" x1="351.024" y1="857.366" x2="427.825" y2="827.983"/>
  <line style="fill: none; fill-opacity:0; stroke-width: 6; stroke: #000000" x1="265.152" y1="899.464" x2="212.278" y2="932.488"/>
  <line style="fill: none; fill-opacity:0; stroke-width: 6; stroke: #000000" x1="395.134" y1="935.019" x2="340.725" y2="899.794"/>
  <g>
    <rect style="fill: #ffffff" x="285.306" y="850.454" width="36.1" height="31.55"/>
    <text font-size="27.0933" style="fill: #000000;text-anchor:middle;font-family:sans-serif;font-style:normal;font-weight:normal" x="303.356" y="875.604">
      <tspan x="303.356" y="875.604">R2</tspan>
    </text>
  </g>
  <g>
    <rect style="fill: #ffffff" x="125.246" y="944.566" width="54.85" height="31.55"/>
    <text font-size="27.0933" style="fill: #000000;text-anchor:middle;font-family:sans-serif;font-style:normal;font-weight:normal" x="152.671" y="969.716">
      <tspan x="152.671" y="969.716">H12</tspan>
    </text>
  </g>
  <g>
    <rect style="fill: #ffffff" x="427.025" y="948.27" width="54.85" height="31.55"/>
    <text font-size="27.0933" style="fill: #000000;text-anchor:middle;font-family:sans-serif;font-style:normal;font-weight:normal" x="454.45" y="973.42">
      <tspan x="454.45" y="973.42">H10</tspan>
    </text>
  </g>
  <image x="146.071" y="689.822" width="115.2" height="86.688" xlink:href="file:///home/kebenson/Documents/Research/images/models/devices/computer.svg"/>
  <g>
    <rect style="fill: #ffffff" x="176.245" y="708.016" width="54.85" height="31.55"/>
    <text font-size="27.0933" style="fill: #000000;text-anchor:middle;font-family:sans-serif;font-style:normal;font-weight:normal" x="203.67" y="733.166">
      <tspan x="203.67" y="733.166">H13</tspan>
    </text>
  </g>
  <line style="fill: none; fill-opacity:0; stroke-width: 6; stroke: #000000" x1="235.31" y1="778.373" x2="283.437" y2="847.14"/>
  <line style="fill: none; fill-opacity:0; stroke-width: 6; stroke: #000000" x1="526.122" y1="809.772" x2="825.39" y2="832.62"/>
  <line style="fill: none; fill-opacity:0; stroke-width: 6; stroke: #000000" x1="1051.92" y1="419.264" x2="1063.54" y2="647.19"/>
  <image x="1226.56" y="852.334" width="179.023" height="253.135" xlink:href="file:///home/kebenson/Documents/Research/images/models/devices/server2.svg"/>
  <g>
    <rect style="fill: #ffffff" x="1271.64" y="953.752" width="88.85" height="31.55"/>
    <text font-size="27.0933" style="fill: #000000;text-anchor:middle;font-family:sans-serif;font-style:normal;font-weight:normal" x="1316.07" y="978.902">
      <tspan x="1316.07" y="978.902">Server</tspan>
    </text>
  </g>
  <g>
    <path style="fill: #ffe9aa" d="M 1153.99 712.499 L 1153.89,709.265 L 1153.57,706.03 L 1152.98,702.853 L 1152.15,699.675 L 1151.05,696.441 L 1149.81,693.32 L 1148.25,690.313 L 1146.51,687.249 L 1144.63,684.299 L 1142.42,681.405 L 1140.08,678.625 L 1137.51,675.901 L 1134.71,673.291 L 1131.78,670.794 L 1128.66,668.354 L 1125.31,666.028 L 1121.87,663.815 L 1118.29,661.772 L 1114.52,659.9 L 1110.62,658.084 L 1106.58,656.382 L 1102.41,654.907 L 1098.23,653.545 L 1093.87,652.353 L 1089.42,651.332 L 1084.97,650.367 L 1080.43,649.63 L 1075.84,649.062 L 1071.21,648.665 L 1066.53,648.438 L 1061.85,648.325 L 1061.85,648.325 L 1057.21,648.438 L 1052.48,648.665 L 1047.9,649.062 L 1043.31,649.63 L 1038.72,650.367 L 1034.27,651.332 L 1029.82,652.353 L 1025.5,653.545 L 1021.24,654.907 L 1017.15,656.382 L 1013.11,658.084 L 1009.26,659.9 L 1005.45,661.772 L 1001.87,663.815 L 998.384,666.028 L 995.034,668.354 L 991.914,670.794 L 988.977,673.291 L 986.178,675.901 L 983.608,678.625 L 981.268,681.405 L 979.111,684.299 L 977.138,687.249 L 975.486,690.313 L 973.926,693.32 L 972.641,696.441 L 971.54,699.675 L 970.806,702.853 L 970.209,706.03 L 969.796,709.265 L 969.75,712.499 L 969.75,712.499 L 969.796,715.733 L 970.209,719.081 L 970.806,722.258 L 971.54,725.493 L 972.641,728.67 L 973.926,731.791 L 975.486,734.798 L 977.138,737.862 L 979.111,740.813 L 981.268,743.65 L 983.608,746.487 L 986.178,749.21 L 988.977,751.764 L 991.914,754.317 L 995.034,756.757 L 998.384,759.083 L 1001.87,761.239 L 1005.45,763.225 L 1009.26,765.268 L 1013.11,767.027 L 1017.15,768.673 L 1021.24,770.205 L 1025.5,771.566 L 1029.82,772.701 L 1034.27,773.779 L 1038.72,774.687 L 1043.31,775.425 L 1047.9,775.935 L 1052.48,776.446 L 1057.21,776.616 L 1061.85,776.673 L 1061.85,776.673 L 1066.53,776.616 L 1071.21,776.446 L 1075.84,775.935 L 1080.43,775.425 L 1084.97,774.687 L 1089.42,773.779 L 1093.87,772.701 L 1098.23,771.566 L 1102.41,770.205 L 1106.58,768.673 L 1110.62,767.027 L 1114.52,765.268 L 1118.29,763.225 L 1121.87,761.239 L 1125.31,759.083 L 1128.66,756.757 L 1131.78,754.317 L 1134.71,751.764 L 1137.51,749.21 L 1140.08,746.487 L 1142.42,743.65 L 1144.63,740.813 L 1146.51,737.862 L 1148.25,734.798 L 1149.81,731.791 L 1151.05,728.67 L 1152.15,725.493 L 1152.98,722.258 L 1153.57,719.081 L 1153.89,715.733 L 1153.99,712.499z"/>
    <path style="fill: #ffe9aa" d="M 1009.58 746.203 L 1009.49,742.969 L 1009.17,739.735 L 1008.8,736.557 L 1008.16,733.323 L 1007.33,730.145 L 1006.32,727.025 L 1005.13,723.961 L 1003.84,720.953 L 1002.38,718.003 L 1000.72,715.109 L 998.934,712.329 L 996.961,709.605 L 994.759,706.995 L 992.51,704.385 L 990.124,702.059 L 987.554,699.732 L 984.985,697.519 L 982.14,695.477 L 979.295,693.547 L 976.266,691.788 L 973.238,690.086 L 970.071,688.611 L 966.768,687.249 L 963.464,686.058 L 960.068,685.036 L 956.627,684.072 L 953.139,683.334 L 949.606,682.823 L 946.118,682.369 L 942.539,682.142 L 938.96,682.029 L 938.96,682.029 L 935.381,682.142 L 931.802,682.369 L 928.223,682.823 L 924.735,683.334 L 921.202,684.072 L 917.76,685.036 L 914.411,686.058 L 911.107,687.249 L 907.849,688.611 L 904.683,690.086 L 901.562,691.788 L 898.625,693.547 L 895.689,695.477 L 892.936,697.519 L 890.32,699.732 L 887.75,702.059 L 885.364,704.385 L 883.07,706.995 L 880.913,709.605 L 878.986,712.329 L 877.15,715.109 L 875.544,718.003 L 874.03,720.953 L 872.699,723.961 L 871.552,727.025 L 870.543,730.145 L 869.717,733.323 L 869.12,736.557 L 868.661,739.735 L 868.386,742.969 L 868.294,746.203 L 868.294,746.203 L 868.386,749.494 L 868.661,752.785 L 869.12,755.963 L 869.717,759.14 L 870.543,762.374 L 871.552,765.382 L 872.699,768.502 L 874.03,771.566 L 875.544,774.517 L 877.15,777.354 L 878.986,780.191 L 880.913,782.914 L 883.07,785.468 L 885.364,788.021 L 887.75,790.461 L 890.32,792.674 L 892.936,794.944 L 895.689,796.93 L 898.625,798.972 L 901.562,800.731 L 904.683,802.377 L 907.849,803.909 L 911.107,805.214 L 914.411,806.405 L 917.76,807.483 L 921.202,808.391 L 924.735,809.129 L 928.223,809.64 L 931.802,810.037 L 935.381,810.32 L 938.96,810.377 L 938.96,810.377 L 942.539,810.32 L 946.118,810.037 L 949.606,809.64 L 953.139,809.129 L 956.627,808.391 L 960.068,807.483 L 963.464,806.405 L 966.768,805.214 L 970.071,803.909 L 973.238,802.377 L 976.266,800.731 L 979.295,798.972 L 982.14,796.93 L 984.985,794.944 L 987.554,792.674 L 990.124,790.461 L 992.51,788.021 L 994.759,785.468 L 996.961,782.914 L 998.934,780.191 L 1000.72,777.354 L 1002.38,774.517 L 1003.84,771.566 L 1005.13,768.502 L 1006.32,765.382 L 1007.33,762.374 L 1008.16,759.14 L 1008.8,755.963 L 1009.17,752.785 L 1009.49,749.494 L 1009.58,746.203z"/>
    <path style="fill: #ffe9aa" d="M 920.514 811.682 L 920.468,809.072 L 920.33,806.405 L 920.009,803.795 L 919.596,801.128 L 918.999,798.575 L 918.311,796.022 L 917.577,793.525 L 916.705,791.085 L 915.695,788.645 L 914.548,786.205 L 913.309,784.049 L 911.979,781.78 L 910.556,779.567 L 909.042,777.581 L 907.39,775.595 L 905.692,773.779 L 903.948,771.963 L 902.113,770.261 L 900.14,768.729 L 898.121,767.254 L 896.056,765.892 L 893.899,764.644 L 891.742,763.509 L 889.494,762.544 L 887.2,761.693 L 884.905,761.012 L 882.565,760.332 L 880.133,759.934 L 877.747,759.594 L 875.407,759.424 L 872.975,759.31 L 872.975,759.31 L 870.543,759.424 L 868.111,759.594 L 865.725,759.934 L 863.384,760.332 L 860.998,761.012 L 858.658,761.693 L 856.41,762.544 L 854.207,763.509 L 851.959,764.644 L 849.802,765.892 L 847.737,767.254 L 845.718,768.729 L 843.791,770.261 L 841.909,771.963 L 840.166,773.779 L 838.468,775.595 L 836.862,777.581 L 835.302,779.567 L 833.879,781.78 L 832.548,784.049 L 831.309,786.205 L 830.254,788.645 L 829.244,791.085 L 828.373,793.525 L 827.547,796.022 L 826.858,798.575 L 826.354,801.128 L 825.941,803.795 L 825.574,806.405 L 825.39,809.072 L 825.39,811.682 L 825.39,811.682 L 825.39,814.292 L 825.574,817.016 L 825.941,819.569 L 826.354,822.236 L 826.858,824.846 L 827.547,827.343 L 828.373,829.839 L 829.244,832.279 L 830.254,834.776 L 831.309,837.159 L 832.548,839.372 L 833.879,841.585 L 835.302,843.741 L 836.862,845.784 L 838.468,847.769 L 840.166,849.642 L 841.909,851.458 L 843.791,853.103 L 845.718,854.635 L 847.737,856.11 L 849.802,857.472 L 851.959,858.72 L 854.207,859.855 L 856.41,860.763 L 858.658,861.671 L 860.998,862.409 L 863.384,863.033 L 865.725,863.487 L 868.111,863.77 L 870.543,863.941 L 872.975,864.054 L 872.975,864.054 L 875.407,863.941 L 877.747,863.77 L 880.133,863.487 L 882.565,863.033 L 884.905,862.409 L 887.2,861.671 L 889.494,860.763 L 891.742,859.855 L 893.899,858.72 L 896.056,857.472 L 898.121,856.11 L 900.14,854.635 L 902.113,853.103 L 903.948,851.458 L 905.692,849.642 L 907.39,847.769 L 909.042,845.784 L 910.556,843.741 L 911.979,841.585 L 913.309,839.372 L 914.548,837.159 L 915.695,834.776 L 916.705,832.279 L 917.577,829.839 L 918.311,827.343 L 918.999,824.846 L 919.596,822.236 L 920.009,819.569 L 920.33,817.016 L 920.468,814.292 L 920.514,811.682z"/>
    <path style="fill: #ffe9aa" d="M 997.328 862.125 L 997.282,859.288 L 996.961,856.394 L 996.456,853.557 L 995.86,850.72 L 995.034,847.94 L 994.07,845.159 L 992.831,842.493 L 991.546,839.769 L 989.986,837.216 L 988.334,834.719 L 986.453,832.222 L 984.48,829.839 L 982.369,827.399 L 980.075,825.187 L 977.643,823.087 L 975.073,821.044 L 972.366,819.172 L 969.521,817.356 L 966.63,815.654 L 963.601,814.065 L 960.435,812.647 L 957.223,811.285 L 953.919,810.037 L 950.569,808.959 L 947.128,808.108 L 943.595,807.313 L 940.107,806.632 L 936.528,806.065 L 932.949,805.724 L 929.324,805.554 L 925.653,805.441 L 925.653,805.441 L 922.028,805.554 L 918.449,805.724 L 914.778,806.065 L 911.244,806.632 L 907.665,807.313 L 904.224,808.108 L 900.782,808.959 L 897.387,810.037 L 894.083,811.285 L 890.916,812.647 L 887.75,814.065 L 884.722,815.654 L 881.785,817.356 L 878.986,819.172 L 876.279,821.044 L 873.709,823.087 L 871.277,825.187 L 868.983,827.399 L 866.826,829.839 L 864.853,832.222 L 862.971,834.719 L 861.274,837.216 L 859.805,839.769 L 858.474,842.493 L 857.236,845.159 L 856.226,847.94 L 855.492,850.72 L 854.804,853.557 L 854.345,856.394 L 854.069,859.288 L 853.978,862.125 L 853.978,862.125 L 854.069,865.019 L 854.345,867.856 L 854.804,870.806 L 855.492,873.643 L 856.226,876.367 L 857.236,879.091 L 858.474,881.871 L 859.805,884.538 L 861.274,887.148 L 862.971,889.701 L 864.853,892.198 L 866.826,894.581 L 868.983,896.964 L 871.277,899.234 L 873.709,901.276 L 876.279,903.262 L 878.986,905.248 L 881.785,907.064 L 884.722,908.766 L 887.75,910.355 L 890.916,911.773 L 894.083,913.135 L 897.387,914.27 L 900.782,915.348 L 904.224,916.313 L 907.665,917.05 L 911.244,917.731 L 914.778,918.299 L 918.449,918.582 L 922.028,918.866 L 925.653,918.866 L 925.653,918.866 L 929.324,918.866 L 932.949,918.582 L 936.528,918.299 L 940.107,917.731 L 943.595,917.05 L 947.128,916.313 L 950.569,915.348 L 953.919,914.27 L 957.223,913.135 L 960.435,911.773 L 963.601,910.355 L 966.63,908.766 L 969.521,907.064 L 972.366,905.248 L 975.073,903.262 L 977.643,901.276 L 980.075,899.177 L 982.369,896.85 L 984.48,894.581 L 986.453,892.198 L 988.334,889.701 L 989.986,887.148 L 991.546,884.538 L 992.831,881.871 L 994.07,879.091 L 995.034,876.367 L 995.86,873.643 L 996.456,870.806 L 996.961,867.856 L 997.282,865.019 L 997.328,862.125z"/>
    <path style="fill: #ffe9aa" d="M 1169.36 891.46 L 1169.17,888.056 L 1168.81,884.651 L 1168.07,881.247 L 1167.11,877.956 L 1165.92,874.551 L 1164.45,871.317 L 1162.7,868.083 L 1160.69,864.905 L 1158.39,861.784 L 1155.91,858.834 L 1153.11,855.883 L 1150.18,852.933 L 1146.97,850.266 L 1143.57,847.599 L 1139.85,845.046 L 1136.09,842.606 L 1132.05,840.393 L 1127.83,838.237 L 1123.52,836.194 L 1118.93,834.322 L 1114.29,832.62 L 1109.48,830.974 L 1104.57,829.556 L 1099.47,828.364 L 1094.38,827.229 L 1089.15,826.265 L 1083.92,825.527 L 1078.5,824.903 L 1073.23,824.506 L 1067.76,824.165 L 1062.35,824.165 L 1062.35,824.165 L 1056.94,824.165 L 1051.52,824.506 L 1046.15,824.903 L 1040.83,825.527 L 1035.51,826.265 L 1030.32,827.229 L 1025.18,828.364 L 1020.18,829.556 L 1015.18,830.974 L 1010.45,832.62 L 1005.73,834.322 L 1001.23,836.194 L 996.869,838.237 L 992.694,840.393 L 988.656,842.606 L 984.801,845.046 L 981.176,847.599 L 977.78,850.266 L 974.522,852.933 L 971.54,855.883 L 968.787,858.834 L 966.355,861.784 L 964.06,864.905 L 962.041,868.083 L 960.297,871.317 L 958.783,874.551 L 957.59,877.956 L 956.581,881.247 L 955.892,884.651 L 955.479,888.056 L 955.342,891.46 L 955.342,891.46 L 955.479,894.808 L 955.892,898.269 L 956.581,901.673 L 957.59,905.021 L 958.783,908.369 L 960.297,911.66 L 962.041,914.837 L 964.06,918.015 L 966.355,921.136 L 968.787,924.143 L 971.54,927.037 L 974.522,929.874 L 977.78,932.654 L 981.176,935.321 L 984.801,937.874 L 988.656,940.201 L 992.694,942.584 L 996.869,944.74 L 1001.23,946.726 L 1005.73,948.598 L 1010.45,950.357 L 1015.18,951.832 L 1020.18,953.308 L 1025.18,954.613 L 1030.32,955.748 L 1035.51,956.655 L 1040.83,957.45 L 1046.15,958.017 L 1051.52,958.471 L 1056.94,958.755 L 1062.35,958.812 L 1062.35,958.812 L 1067.76,958.755 L 1073.23,958.471 L 1078.5,958.017 L 1083.92,957.45 L 1089.15,956.655 L 1094.38,955.748 L 1099.47,954.613 L 1104.57,953.308 L 1109.48,951.832 L 1114.29,950.357 L 1118.93,948.598 L 1123.52,946.726 L 1127.83,944.74 L 1132.05,942.584 L 1136.09,940.201 L 1139.85,937.874 L 1143.57,935.321 L 1146.97,932.654 L 1150.18,929.874 L 1153.11,927.037 L 1155.91,924.143 L 1158.39,921.136 L 1160.69,918.015 L 1162.7,914.837 L 1164.45,911.66 L 1165.92,908.369 L 1167.11,905.021 L 1168.07,901.673 L 1168.81,898.269 L 1169.17,894.808 L 1169.36,891.46z"/>
    <path style="fill: #ffe9aa" d="M 1228.74 736.217 L 1228.69,733.72 L 1228.41,731.167 L 1227.91,728.613 L 1227.36,726.117 L 1226.53,723.62 L 1225.62,721.18 L 1224.47,718.74 L 1223.14,716.301 L 1221.72,714.031 L 1220.16,711.705 L 1218.37,709.548 L 1216.44,707.392 L 1214.42,705.35 L 1212.17,703.307 L 1209.88,701.434 L 1207.35,699.675 L 1204.78,697.86 L 1202.12,696.328 L 1199.28,694.739 L 1196.39,693.32 L 1193.45,692.072 L 1190.33,690.881 L 1187.16,689.802 L 1183.95,688.895 L 1180.65,687.987 L 1177.34,687.306 L 1173.95,686.795 L 1170.55,686.285 L 1167.06,685.944 L 1163.62,685.831 L 1160.13,685.774 L 1160.13,685.774 L 1156.6,685.831 L 1153.16,685.944 L 1149.67,686.285 L 1146.28,686.795 L 1142.93,687.306 L 1139.58,687.987 L 1136.32,688.895 L 1133.06,689.802 L 1129.9,690.881 L 1126.78,692.072 L 1123.79,693.32 L 1120.95,694.739 L 1118.1,696.328 L 1115.44,697.86 L 1112.87,699.675 L 1110.39,701.434 L 1108.05,703.307 L 1105.8,705.35 L 1103.79,707.392 L 1101.9,709.548 L 1100.07,711.705 L 1098.51,714.031 L 1097.09,716.301 L 1095.76,718.74 L 1094.61,721.18 L 1093.69,723.62 L 1092.91,726.117 L 1092.27,728.613 L 1091.86,731.167 L 1091.63,733.72 L 1091.49,736.217 L 1091.49,736.217 L 1091.63,738.77 L 1091.86,741.267 L 1092.27,743.877 L 1092.91,746.373 L 1093.69,748.927 L 1094.61,751.366 L 1095.76,753.806 L 1097.09,756.076 L 1098.51,758.516 L 1100.07,760.729 L 1101.9,762.885 L 1103.79,765.098 L 1105.8,767.084 L 1108.05,769.126 L 1110.39,770.999 L 1112.87,772.815 L 1115.44,774.517 L 1118.1,776.162 L 1120.95,777.694 L 1123.79,779.113 L 1126.78,780.418 L 1129.9,781.609 L 1133.06,782.631 L 1136.32,783.595 L 1139.58,784.447 L 1142.93,785.127 L 1146.28,785.695 L 1149.67,786.205 L 1153.16,786.489 L 1156.6,786.603 L 1160.13,786.773 L 1160.13,786.773 L 1163.62,786.603 L 1167.06,786.489 L 1170.55,786.205 L 1173.95,785.695 L 1177.34,785.127 L 1180.65,784.447 L 1183.95,783.595 L 1187.16,782.631 L 1190.33,781.609 L 1193.45,780.418 L 1196.39,779.113 L 1199.28,777.694 L 1202.12,776.162 L 1204.78,774.517 L 1207.35,772.815 L 1209.88,770.999 L 1212.17,769.126 L 1214.42,767.084 L 1216.44,765.098 L 1218.37,762.885 L 1220.16,760.729 L 1221.72,758.516 L 1223.14,756.076 L 1224.47,753.806 L 1225.62,751.366 L 1226.53,748.927 L 1227.36,746.373 L 1227.91,743.877 L 1228.41,741.267 L 1228.69,738.77 L 1228.74,736.217z"/>
    <path style="fill: #ffe9aa" d="M 1248.19 801.072 L 1248.05,798.575 L 1247.87,796.022 L 1247.41,793.468 L 1246.82,790.915 L 1245.99,788.362 L 1245.07,785.922 L 1243.97,783.539 L 1242.64,781.212 L 1241.22,778.829 L 1239.66,776.616 L 1237.87,774.403 L 1235.94,772.304 L 1233.97,770.261 L 1231.72,768.162 L 1229.42,766.346 L 1227.04,764.53 L 1224.47,762.771 L 1221.72,761.239 L 1219.01,759.651 L 1216.12,758.232 L 1213.18,756.984 L 1210.11,755.736 L 1206.99,754.714 L 1203.77,753.806 L 1200.47,752.898 L 1197.17,752.218 L 1193.82,751.65 L 1190.37,751.14 L 1186.98,750.913 L 1183.54,750.742 L 1180.1,750.629 L 1180.1,750.629 L 1176.61,750.742 L 1173.21,750.913 L 1169.77,751.14 L 1166.42,751.65 L 1163.07,752.218 L 1159.72,752.898 L 1156.46,753.806 L 1153.3,754.714 L 1150.13,755.736 L 1147.06,756.984 L 1144.12,758.232 L 1141.23,759.651 L 1138.43,761.239 L 1135.81,762.771 L 1133.25,764.53 L 1130.72,766.346 L 1128.43,768.162 L 1126.27,770.261 L 1124.3,772.304 L 1122.37,774.403 L 1120.63,776.616 L 1118.97,778.829 L 1117.55,781.212 L 1116.31,783.539 L 1115.17,785.922 L 1114.16,788.362 L 1113.42,790.915 L 1112.83,793.468 L 1112.37,796.022 L 1112.09,798.575 L 1112.05,801.072 L 1112.05,801.072 L 1112.09,803.568 L 1112.37,806.122 L 1112.83,808.732 L 1113.42,811.228 L 1114.16,813.782 L 1115.17,816.221 L 1116.31,818.661 L 1117.55,820.931 L 1118.97,823.314 L 1120.63,825.584 L 1122.37,827.74 L 1124.3,829.839 L 1126.27,831.939 L 1128.43,833.981 L 1130.72,835.854 L 1133.25,837.613 L 1135.81,839.372 L 1138.43,840.904 L 1141.23,842.493 L 1144.12,843.911 L 1147.06,845.159 L 1150.13,846.408 L 1153.3,847.486 L 1156.46,848.337 L 1159.72,849.245 L 1163.07,849.926 L 1166.42,850.493 L 1169.77,851.004 L 1173.21,851.287 L 1176.61,851.458 L 1180.1,851.514 L 1180.1,851.514 L 1183.54,851.458 L 1186.98,851.287 L 1190.37,851.004 L 1193.82,850.493 L 1197.17,849.926 L 1200.47,849.245 L 1203.77,848.337 L 1206.99,847.486 L 1210.11,846.408 L 1213.18,845.159 L 1216.12,843.911 L 1219.01,842.493 L 1221.72,840.904 L 1224.47,839.372 L 1227.04,837.613 L 1229.42,835.854 L 1231.72,833.981 L 1233.97,831.939 L 1235.94,829.839 L 1237.87,827.74 L 1239.66,825.584 L 1241.22,823.314 L 1242.64,820.931 L 1243.97,818.661 L 1245.07,816.221 L 1245.99,813.782 L 1246.82,811.228 L 1247.41,808.732 L 1247.87,806.122 L 1248.05,803.568 L 1248.19,801.072z"/>
    <path style="fill: #ffe9aa" d="M 1234.88 854.692 L 1234.79,850.493 L 1234.52,846.351 L 1234.15,842.209 L 1233.55,838.01 L 1232.77,833.925 L 1231.81,829.839 L 1230.71,825.924 L 1229.38,822.009 L 1227.96,818.207 L 1226.44,814.519 L 1224.7,810.888 L 1222.77,807.37 L 1220.75,803.965 L 1218.55,800.731 L 1216.25,797.554 L 1213.87,794.66 L 1211.3,791.823 L 1208.68,789.213 L 1205.88,786.659 L 1203.04,784.39 L 1200.1,782.29 L 1197.12,780.361 L 1194,778.602 L 1190.83,776.957 L 1187.53,775.595 L 1184.27,774.517 L 1180.88,773.495 L 1177.53,772.758 L 1174.18,772.304 L 1170.78,771.963 L 1167.34,771.85 L 1167.34,771.85 L 1163.9,771.963 L 1160.5,772.304 L 1157.06,772.758 L 1153.71,773.495 L 1150.41,774.517 L 1147.06,775.595 L 1143.85,776.957 L 1140.68,778.602 L 1137.56,780.361 L 1134.48,782.29 L 1131.55,784.39 L 1128.7,786.659 L 1126,789.213 L 1123.29,791.823 L 1120.76,794.66 L 1118.33,797.554 L 1116.04,800.731 L 1113.88,803.965 L 1111.82,807.37 L 1109.98,810.888 L 1108.24,814.519 L 1106.63,818.207 L 1105.21,822.009 L 1103.97,825.924 L 1102.87,829.839 L 1101.9,833.925 L 1101.12,838.01 L 1100.53,842.209 L 1100.07,846.351 L 1099.79,850.493 L 1099.7,854.692 L 1099.7,854.692 L 1099.79,858.891 L 1100.07,863.146 L 1100.53,867.288 L 1101.12,871.374 L 1101.9,875.516 L 1102.87,879.488 L 1103.97,883.46 L 1105.21,887.375 L 1106.63,891.176 L 1108.24,894.978 L 1109.98,898.609 L 1111.82,902.071 L 1113.88,905.418 L 1116.04,908.653 L 1118.33,911.773 L 1120.76,914.837 L 1123.29,917.674 L 1126,920.284 L 1128.7,922.724 L 1131.55,925.051 L 1134.48,927.207 L 1137.56,929.136 L 1140.68,930.895 L 1143.85,932.484 L 1147.06,933.789 L 1150.41,934.98 L 1153.71,935.888 L 1157.06,936.626 L 1160.5,937.193 L 1163.9,937.534 L 1167.34,937.647 L 1167.34,937.647 L 1170.78,937.534 L 1174.18,937.193 L 1177.53,936.626 L 1180.88,935.888 L 1184.27,934.98 L 1187.53,933.789 L 1190.83,932.484 L 1194,930.895 L 1197.12,929.136 L 1200.1,927.207 L 1203.04,925.051 L 1205.88,922.724 L 1208.68,920.284 L 1211.3,917.674 L 1213.87,914.837 L 1216.25,911.773 L 1218.55,908.653 L 1220.75,905.418 L 1222.77,899.177 L 1224.7,898.609 L 1226.44,894.978 L 1227.96,891.176 L 1229.38,887.375 L 1230.71,883.46 L 1231.81,879.488 L 1232.77,875.516 L 1233.55,871.374 L 1234.15,867.288 L 1234.52,863.146 L 1234.79,858.891 L 1234.88,854.692z"/>
    <path style="fill: #ffe9aa" d="M 1176.52 804.817 L 1176.33,800.618 L 1175.78,796.419 L 1174.91,792.22 L 1173.72,788.078 L 1172.16,784.049 L 1170.23,780.021 L 1167.98,775.992 L 1165.37,772.077 L 1162.52,768.219 L 1159.31,764.587 L 1155.73,760.956 L 1151.92,757.438 L 1147.79,754.033 L 1143.39,750.742 L 1138.71,747.622 L 1133.84,744.671 L 1128.66,741.834 L 1123.24,739.281 L 1117.69,736.727 L 1111.86,734.401 L 1105.85,732.302 L 1099.7,730.372 L 1093.42,728.613 L 1086.99,727.025 L 1080.38,725.663 L 1073.68,724.471 L 1066.94,723.62 L 1060.1,722.769 L 1053.22,722.315 L 1046.29,721.975 L 1039.27,721.918 L 1039.27,721.918 L 1032.34,721.975 L 1025.41,722.315 L 1018.53,722.769 L 1011.64,723.62 L 1004.9,724.471 L 998.2,725.663 L 991.638,727.025 L 985.214,728.613 L 978.836,730.372 L 972.779,732.302 L 966.768,734.401 L 960.894,736.727 L 955.296,739.281 L 949.973,741.834 L 944.742,744.671 L 939.832,747.622 L 935.243,750.742 L 930.792,754.033 L 926.662,757.438 L 922.9,760.956 L 919.32,764.587 L 916.154,768.219 L 913.263,772.077 L 910.602,775.992 L 908.399,780.021 L 906.518,784.049 L 904.866,788.078 L 903.673,792.22 L 902.801,796.419 L 902.251,800.618 L 902.113,804.817 L 902.113,804.817 L 902.251,808.959 L 902.801,813.157 L 903.673,817.356 L 904.866,821.498 L 906.518,825.584 L 908.399,829.556 L 910.602,833.584 L 913.263,837.499 L 916.154,841.358 L 919.32,845.046 L 922.9,848.621 L 926.662,852.139 L 930.792,855.543 L 935.243,858.834 L 939.832,861.955 L 944.742,864.905 L 949.973,867.742 L 955.296,870.296 L 960.894,872.906 L 966.768,875.175 L 972.779,877.275 L 978.836,879.204 L 985.214,880.963 L 991.638,882.552 L 998.2,883.913 L 1004.9,885.105 L 1011.64,885.956 L 1018.53,886.751 L 1025.41,887.261 L 1032.34,887.602 L 1039.27,887.658 L 1039.27,887.658 L 1046.29,887.602 L 1053.22,887.261 L 1060.1,886.751 L 1066.94,885.956 L 1073.68,885.105 L 1080.38,883.913 L 1086.99,882.552 L 1093.42,880.963 L 1099.7,879.204 L 1105.85,877.275 L 1111.86,875.175 L 1117.69,872.906 L 1123.24,870.296 L 1128.66,867.742 L 1133.84,864.905 L 1138.71,861.955 L 1143.39,858.834 L 1147.79,855.543 L 1151.92,852.139 L 1155.73,848.621 L 1159.31,845.046 L 1162.52,841.358 L 1165.37,837.499 L 1167.98,833.584 L 1170.23,829.556 L 1172.16,825.584 L 1173.72,821.498 L 1174.91,817.356 L 1175.78,813.157 L 1176.33,808.959 L 1176.52,804.817z"/>
    <path style="fill: #ffe9aa" d="M 1062.9 711.988 L 1153.71,697.633 L 1152.56,694.455 L 1151.14,691.391 L 1149.58,688.27 L 1147.7,685.206 L 1145.68,682.256 L 1143.39,679.419 L 1141,676.582 L 1138.25,673.972 L 1135.45,671.305 L 1132.42,668.808 L 1129.16,666.425 L 1125.77,664.212 L 1122.19,662.056 L 1118.47,659.957 L 1114.62,658.084 L 1110.62,656.382 L 1106.58,654.68 L 1102.32,653.261 L 1098,652.013 L 1093.64,650.765 L 1089.1,649.743 L 1084.56,648.949 L 1079.97,648.211 L 1075.34,647.757 L 1070.66,647.417 L 1065.93,647.19 L 1061.25,647.19 L 1056.52,647.247 L 1051.8,647.587 L 1047.21,648.098 L 1042.57,648.665 L 1037.98,649.573 L 1033.44,650.424 L 1028.99,651.616 L 1024.68,652.864 L 1020.46,654.283 L 1016.28,655.871 L 1012.24,657.517 L 1008.43,659.446 L 1004.67,661.375 L 1001.05,663.475 L 997.604,665.688 L 994.346,668.071 L 991.271,670.567 L 988.334,673.064 L 985.581,675.844 L 983.012,678.568 L 980.671,681.462 L 978.652,684.355 L 976.679,687.306 L 974.981,690.427 L 973.559,693.547 L 972.366,696.725 L 971.356,699.902 L 1062.9,711.988z"/>
    <path style="fill: none; fill-opacity:0; stroke-width: 0.03; stroke: #805d00" d="M 1153.71 697.519 L 1152.52,694.342 L 1151.14,691.221 L 1149.54,688.157 L 1147.7,685.15 L 1145.59,682.199 L 1143.34,679.362 L 1140.91,676.582 L 1138.16,673.802 L 1135.31,671.305 L 1132.37,668.808 L 1129.07,666.312 L 1125.77,664.099 L 1122.14,661.943 L 1118.42,659.957 L 1114.62,658.028 L 1110.62,656.325 L 1106.54,654.68 L 1102.27,653.205 L 1097.96,651.843 L 1093.64,650.708 L 1089.1,649.743 L 1084.51,648.949 L 1079.92,648.211 L 1075.29,647.757 L 1070.66,647.417 L 1065.88,647.19 L 1061.2,647.19 L 1056.52,647.247 L 1051.84,647.587 L 1047.16,648.098 L 1042.57,648.665 L 1037.98,649.516 L 1033.49,650.424 L 1029.08,651.616 L 1024.68,652.864 L 1020.5,654.283 L 1016.33,655.871 L 1012.33,657.46 L 1008.43,659.333 L 1004.72,661.375 L 1001.09,663.475 L 997.649,665.631 L 994.391,668.071 L 991.271,670.511 L 988.334,673.064 L 985.581,675.787 L 983.103,678.454 L 980.717,681.291 L 978.652,684.299 L 976.725,687.249 L 975.073,690.313 L 973.559,693.377 L 972.366,696.555 L 971.402,699.732"/>
    <path style="fill: #ffe9aa" d="M 939.419 745.636 L 985.214,695.874 L 982.369,693.945 L 979.386,691.959 L 976.358,690.143 L 973.238,688.611 L 970.071,687.079 L 966.768,685.774 L 963.372,684.526 L 960.022,683.561 L 956.489,682.653 L 953.001,681.915 L 949.422,681.462 L 945.843,681.064 L 942.264,680.837 L 938.685,680.837 L 935.06,680.837 L 931.481,681.235 L 927.901,681.575 L 924.368,682.256 L 920.881,682.994 L 917.439,684.015 L 913.998,685.093 L 910.694,686.285 L 907.39,687.703 L 904.224,689.292 L 901.149,690.994 L 898.213,692.81 L 895.276,694.739 L 892.523,696.838 L 889.907,699.051 L 887.337,701.434 L 884.951,703.931 L 882.749,706.428 L 880.638,709.151 L 878.711,711.931 L 876.875,714.769 L 875.269,717.662 L 873.755,720.613 L 872.47,723.734 L 871.323,726.854 L 870.405,730.032 L 869.671,733.209 L 869.028,736.444 L 868.57,739.735 L 868.386,742.969 L 868.294,746.203 L 868.432,749.551 L 868.707,752.842 L 869.258,756.019 L 939.419,745.636z"/>
    <path style="fill: none; fill-opacity:0; stroke-width: 0.03; stroke: #805d00" d="M 984.985 695.76 L 982.14,693.718 L 979.249,691.845 L 976.22,690.086 L 973.054,688.497 L 969.796,686.965 L 966.538,685.717 L 963.188,684.469 L 959.747,683.448 L 956.305,682.653 L 952.726,681.915 L 949.193,681.405 L 945.66,681.064 L 942.08,680.837 L 938.409,680.837 L 934.922,680.894 L 931.343,681.235 L 927.672,681.632 L 924.184,682.256 L 920.743,683.05 L 917.21,684.072 L 913.86,685.093 L 910.556,686.455 L 907.298,687.873 L 904.086,689.349 L 901.012,691.108 L 898.075,692.923 L 895.23,694.909 L 892.477,696.895 L 889.769,699.222 L 887.337,701.548 L 884.905,703.988 L 882.657,706.598 L 880.592,709.208 L 878.619,711.988 L 876.875,714.882 L 875.269,717.719 L 873.755,720.783 L 872.424,723.79 L 871.323,726.968 L 870.405,730.089 L 869.579,733.323 L 869.028,736.557 L 868.57,739.791 L 868.386,742.969 L 868.294,746.373 L 868.524,749.608 L 868.799,752.842 L 869.258,756.076"/>
    <path style="fill: #ffe9aa" d="M 926.662 861.558 L 852.968,859.855 L 852.968,862.749 L 853.106,865.643 L 853.473,868.65 L 854.069,871.544 L 854.758,874.438 L 855.629,877.275 L 856.777,880.112 L 857.97,882.892 L 859.484,885.502 L 861.09,888.226 L 862.788,890.836 L 864.807,893.332 L 866.826,895.772 L 869.12,898.155 L 871.46,900.368 L 873.984,902.525 L 876.692,904.567 L 879.445,906.44 L 882.336,908.369 L 885.364,910.014 L 888.484,911.66 L 891.742,913.135 L 895.046,914.44 L 898.35,915.632 L 901.838,916.71 L 905.371,917.618 L 908.95,918.412 L 912.575,919.036 L 916.2,919.547 L 919.871,919.887 L 923.588,920.114 L 927.351,920.114 L 930.976,919.944 L 934.693,919.774 L 938.364,919.377 L 941.989,918.866 L 945.66,918.128 L 949.147,917.334 L 952.726,916.369 L 956.076,915.235 L 959.472,913.929 L 962.775,912.624 L 965.896,911.092 L 969.062,909.504 L 971.953,907.745 L 974.844,905.816 L 926.662,861.558z"/>
    <path style="fill: none; fill-opacity:0; stroke-width: 0.03; stroke: #805d00" d="M 853.06 859.855 L 852.922,862.749 L 853.197,865.643 L 853.473,868.537 L 854.069,871.487 L 854.758,874.381 L 855.675,877.275 L 856.777,880.112 L 858.061,882.835 L 859.484,885.502 L 860.998,888.169 L 862.788,890.779 L 864.669,893.276 L 866.826,895.716 L 869.028,898.099 L 871.415,900.312 L 873.892,902.468 L 876.554,904.51 L 879.307,906.44 L 882.198,908.255 L 885.227,909.958 L 888.347,911.603 L 891.513,913.022 L 894.817,914.327 L 898.258,915.575 L 901.654,916.653 L 905.141,917.504 L 908.721,918.412 L 912.392,918.923 L 916.017,919.547 L 919.642,919.831 L 923.359,920.114 L 927.075,920.114 L 930.746,920.001 L 934.417,919.831 L 938.088,919.433 L 941.713,918.866 L 945.384,918.128 L 948.872,917.391 L 952.451,916.369 L 955.846,915.291 L 959.15,914.1 L 962.454,912.738 L 965.62,911.206 L 968.787,909.617 L 971.769,907.858 L 974.568,906.042"/>
    <path style="fill: #ffe9aa" d="M 1161.14 735.025 L 1225.98,751.423 L 1227.08,748.983 L 1227.91,746.544 L 1228.69,743.99 L 1229.15,741.494 L 1229.61,738.997 L 1229.7,736.444 L 1229.7,733.777 L 1229.61,731.223 L 1229.24,728.727 L 1228.74,726.23 L 1228,723.677 L 1227.13,721.237 L 1226.12,718.797 L 1224.93,716.301 L 1223.55,714.031 L 1221.99,711.705 L 1220.25,709.492 L 1218.46,707.222 L 1216.48,705.236 L 1214.37,703.137 L 1212.12,701.151 L 1209.65,699.335 L 1207.17,697.576 L 1204.46,695.874 L 1201.75,694.342 L 1198.91,692.923 L 1195.97,691.505 L 1192.9,690.313 L 1189.78,689.122 L 1186.57,688.157 L 1183.26,687.249 L 1180,686.512 L 1176.56,685.831 L 1173.17,685.377 L 1169.73,684.98 L 1166.24,684.753 L 1162.8,684.526 L 1159.35,684.639 L 1155.87,684.753 L 1152.38,685.036 L 1148.98,685.433 L 1145.54,685.887 L 1142.15,686.512 L 1138.8,687.306 L 1161.14,735.025z"/>
    <path style="fill: none; fill-opacity:0; stroke-width: 0.03; stroke: #805d00" d="M 1220.02 760.672 L 1225.94,751.537 L 1227.04,749.04 L 1227.91,746.657 L 1228.6,744.104 L 1229.15,741.55 L 1229.52,739.054 L 1229.65,736.557 L 1229.7,733.947 L 1229.56,731.337 L 1229.24,728.784 L 1228.74,726.287 L 1228,723.79 L 1227.13,721.294 L 1226.17,718.854 L 1224.97,716.414 L 1223.55,714.144 L 1221.99,711.761 L 1220.38,709.548 L 1218.5,707.392 L 1216.53,705.293 L 1214.42,703.193 L 1212.17,701.321 L 1209.78,699.505 L 1207.26,697.633 L 1204.65,695.987 L 1201.85,694.342 L 1199,692.923 L 1196.06,691.561 L 1192.99,690.37 L 1189.87,689.235 L 1186.7,688.214 L 1183.45,687.249 L 1180.1,686.512 L 1176.79,685.831 L 1173.4,685.377 L 1169.95,685.036 L 1166.47,684.753 L 1162.98,684.526 L 1159.45,684.526 L 1156.01,684.753 L 1152.52,685.036 L 1149.08,685.377 L 1145.68,685.831 L 1142.33,686.512 L 1138.98,687.249"/>
    <path style="fill: #ffe9aa" d="M 1170.37 801.753 L 1243.37,822.463 L 1244.84,819.796 L 1246.04,817.073 L 1247.14,814.236 L 1248.01,811.398 L 1248.6,808.561 L 1249.02,805.724 L 1249.16,802.774 L 1249.16,799.937 L 1248.88,797.043 L 1248.47,794.092 L 1247.73,791.255 L 1246.86,788.532 L 1245.71,785.695 L 1244.48,782.971 L 1242.91,780.191 L 1241.17,777.638 L 1239.29,775.141 L 1237.13,772.588 L 1234.84,770.205 L 1170.37,801.753z"/>
    <path style="fill: none; fill-opacity:0; stroke-width: 0.03; stroke: #805d00" d="M 1234.1 831.882 L 1243.28,822.633 L 1244.66,819.91 L 1246.04,817.073 L 1247.09,814.292 L 1247.96,811.398 L 1248.56,808.561 L 1249.02,805.724 L 1249.2,802.774 L 1249.16,799.937 L 1248.88,796.93 L 1248.38,794.092 L 1247.73,791.199 L 1246.86,788.362 L 1245.71,785.581 L 1244.43,782.858 L 1242.82,780.134 L 1241.13,777.524 L 1239.11,774.914 L 1237.04,772.417 L 1234.7,769.978 L 1220.02,760.672"/>
    <path style="fill: #ffe9aa" d="M 1167.29 856.508 L 1144.26,935.321 L 1147.65,936.569 L 1151.1,937.647 L 1154.54,938.612 L 1158.12,939.293 L 1161.6,939.747 L 1165.09,939.974 L 1168.72,940.03 L 1172.25,939.747 L 1175.74,939.406 L 1179.27,938.725 L 1182.71,937.931 L 1186.15,936.91 L 1189.55,935.605 L 1192.9,934.129 L 1196.11,932.484 L 1199.32,930.611 L 1202.44,928.625 L 1205.47,926.299 L 1208.41,923.859 L 1211.21,921.306 L 1213.87,918.526 L 1216.44,915.632 L 1218.92,912.511 L 1221.26,909.277 L 1223.37,905.986 L 1225.39,902.468 L 1227.31,898.893 L 1229.01,895.091 L 1230.53,891.347 L 1231.95,887.375 L 1233.14,883.403 L 1234.24,879.374 L 1235.11,875.232 L 1235.85,871.033 L 1236.31,866.891 L 1236.72,862.636 L 1236.81,858.38 L 1236.81,854.124 L 1236.63,849.926 L 1236.26,845.67 L 1235.71,841.471 L 1235.02,837.272 L 1234.1,833.187 L 1167.29,856.508z"/>
    <path style="fill: none; fill-opacity:0; stroke-width: 0.03; stroke: #805d00" d="M 1144.44 935.434 L 1147.88,936.626 L 1151.28,937.817 L 1154.77,938.669 L 1158.25,939.349 L 1161.83,939.747 L 1165.32,940.03 L 1168.85,940.087 L 1172.39,939.747 L 1175.97,939.406 L 1179.45,938.725 L 1182.89,937.931 L 1186.34,936.853 L 1189.73,935.491 L 1193.04,934.073 L 1196.34,932.37 L 1199.51,930.555 L 1202.58,928.455 L 1205.56,926.299 L 1208.5,923.802 L 1211.3,921.192 L 1213.96,918.412 L 1216.53,915.518 L 1219.01,912.454 L 1221.3,909.22 L 1223.5,905.759 L 1225.43,902.354 L 1227.36,898.609 L 1229.06,894.978 L 1230.57,891.176 L 1231.95,887.261 L 1233.19,883.233 L 1234.29,879.091 L 1235.11,875.062 L 1235.85,870.92 L 1236.4,866.721 L 1236.72,862.465 L 1236.81,858.21 L 1236.81,853.954 L 1236.58,849.699 L 1236.26,845.443 L 1235.66,841.188 L 1234.88,837.102 L 1234.1,833.017"/>
    <path style="fill: #ffe9aa" d="M 875.453 811.682 L 871.965,758.232 L 869.396,758.516 L 866.964,758.856 L 864.394,759.424 L 861.916,760.048 L 859.484,760.956 L 857.098,761.807 L 854.758,762.885 L 852.463,764.133 L 850.169,765.382 L 848.012,766.8 L 845.901,768.446 L 843.882,770.148 L 841.909,771.907 L 840.12,773.779 L 838.33,775.765 L 836.678,777.751 L 835.118,779.907 L 833.696,782.234 L 832.273,784.447 L 831.034,786.886 L 829.979,789.383 L 828.969,791.88 L 828.006,794.376 L 827.271,797.043 L 826.675,799.653 L 826.124,802.377 L 825.711,804.987 L 825.528,807.767 L 825.39,810.491 L 825.39,813.157 L 825.528,815.938 L 825.803,818.661 L 826.216,821.328 L 826.675,824.052 L 827.363,826.662 L 828.097,829.215 L 829.015,831.882 L 830.025,834.322 L 831.172,836.762 L 832.411,839.145 L 833.833,841.471 L 835.256,843.627 L 836.862,845.784 L 838.56,847.883 L 840.303,849.926 L 842.185,851.741 L 844.158,853.5 L 846.177,855.089 L 848.333,856.735 L 850.444,858.153 L 852.739,859.458 L 875.453,811.682z"/>
    <path style="fill: none; fill-opacity:0; stroke-width: 0.03; stroke: #805d00" d="M 871.965 758.232 L 869.533,758.516 L 867.009,758.856 L 864.532,759.424 L 862.145,760.048 L 859.713,760.842 L 857.327,761.693 L 855.033,762.771 L 852.784,763.906 L 850.536,765.211 L 848.471,766.63 L 846.314,768.105 L 844.341,769.751 L 842.414,771.396 L 840.579,773.269 L 838.743,775.198 L 837.137,777.184 L 835.531,779.283 L 834.109,781.496 L 832.732,783.709 L 831.539,786.035 L 830.392,788.362 L 829.29,790.801 L 828.373,793.298 L 827.547,795.795 L 826.858,798.462 L 826.354,801.072 L 825.849,803.682 L 825.574,806.349 L 825.39,809.072 L 825.39,811.739 L 825.39,814.406 L 825.665,817.073 L 825.941,819.796 L 826.354,822.349 L 826.95,824.96 L 827.547,827.57 L 828.373,830.123 L 829.382,832.62 L 830.392,835.059 L 831.539,837.499 L 832.824,839.769 L 834.154,841.982 L 835.577,844.252 L 837.137,846.237 L 838.835,848.28 L 840.624,850.209 L 842.46,852.082 L 844.433,853.671 L 846.36,855.316 L 848.471,856.791 L 850.628,858.21 L 852.83,859.572"/>
    <path style="fill: #ffe9aa" d="M 1061.34 897.645 L 956.902,903.886 L 957.59,907.007 L 958.462,910.071 L 959.655,913.135 L 961.169,916.086 L 962.775,919.15 L 964.749,922.043 L 966.905,924.88 L 969.337,927.661 L 972.045,930.384 L 974.935,933.051 L 977.964,935.491 L 981.314,937.988 L 984.801,940.371 L 988.518,942.584 L 992.418,944.683 L 996.456,946.669 L 1000.77,948.541 L 1005.08,950.3 L 1009.63,951.832 L 1014.26,953.421 L 1019.12,954.67 L 1023.99,955.918 L 1028.9,956.882 L 1034.04,957.847 L 1039.18,958.585 L 1044.36,959.209 L 1049.5,959.606 L 1054.78,959.89 L 1060.1,960.003 L 1065.33,959.946 L 1070.66,959.719 L 1075.89,959.322 L 1081.07,958.925 L 1086.21,958.187 L 1091.35,957.45 L 1096.31,956.428 L 1101.26,955.294 L 1106.08,953.989 L 1110.85,952.57 L 1115.44,951.095 L 1119.85,949.393 L 1124.16,947.577 L 1128.34,945.648 L 1132.33,943.605 L 1136.14,941.449 L 1139.67,939.066 L 1143.11,936.739 L 1146.28,934.186 L 1149.31,931.633 L 1152.1,929.023 L 1154.58,926.299 L 1156.88,923.462 L 1158.99,920.568 L 1160.78,917.618 L 1061.34,897.645z"/>
    <path style="fill: none; fill-opacity:0; stroke-width: 0.03; stroke: #805d00" d="M 956.994 903.943 L 957.59,907.064 L 958.508,910.071 L 959.655,913.192 L 961.169,916.256 L 962.867,919.206 L 964.749,922.043 L 966.951,924.88 L 969.337,927.718 L 972.045,930.384 L 974.935,933.051 L 977.964,935.491 L 981.314,937.988 L 984.893,940.371 L 988.518,942.584 L 992.418,944.683 L 996.456,946.669 L 1000.77,948.541 L 1005.08,950.3 L 1009.63,951.832 L 1014.26,953.421 L 1019.03,954.67 L 1023.9,955.918 L 1028.85,956.882 L 1033.99,957.79 L 1039.09,958.585 L 1044.27,959.152 L 1049.46,959.606 L 1054.69,959.89 L 1059.96,960.003 L 1065.24,959.946 L 1070.47,959.719 L 1075.7,959.322 L 1080.98,958.925 L 1086.12,958.187 L 1091.17,957.393 L 1096.21,956.428 L 1101.12,955.35 L 1105.94,953.989 L 1110.67,952.627 L 1115.21,951.095 L 1119.71,949.393 L 1124.02,947.634 L 1128.15,945.704 L 1132.14,943.662 L 1135.91,941.506 L 1139.58,939.236 L 1142.97,936.796 L 1146.19,934.356 L 1149.21,931.689 L 1151.92,929.136 L 1154.49,926.299 L 1156.79,923.519 L 1158.8,920.625 L 1160.69,917.731"/>
  </g>
  <g>
    <rect style="fill: #ffffff" x="999.091" y="780.464" width="107.45" height="31.55"/>
    <text font-size="27.0933" style="fill: #000000;text-anchor:middle;font-family:sans-serif;font-style:normal;font-weight:normal" x="1052.82" y="805.614">
      <tspan x="1052.82" y="805.614">Internet</tspan>
    </text>
  </g>
  <line style="fill: none; fill-opacity:0; stroke-width: 6; stroke: #000000" x1="335.412" y1="403.26" x2="880.678" y2="709.072"/>
  <rect style="fill: none; fill-opacity:0; stroke-width: 2; stroke-dasharray: 20 8 4 8; stroke: #000000" x="815.642" y="175.574" width="470" height="396.2"/>
  <rect style="fill: none; fill-opacity:0; stroke-width: 2; stroke-dasharray: 20 8 4 8; stroke: #000000" x="78.071" y="171.114" width="663" height="394.597"/>
  <ellipse style="fill: none; fill-opacity:0; stroke-width: 2; stroke: #000000" cx="635.072" cy="234.71" rx="77" ry="31"/>
  <ellipse style="fill: none; fill-opacity:0; stroke-width: 2; stroke: #000000" cx="1027.99" cy="236.668" rx="72.5" ry="33.2"/>
  <rect style="fill: none; fill-opacity:0; stroke-width: 2; stroke-dasharray: 20 8 4 8; stroke: #000000" x="69.8208" y="638.11" width="663" height="402"/>
  <ellipse style="fill: none; fill-opacity:0; stroke-width: 2; stroke: #000000" cx="630.667" cy="981.802" rx="81.3194" ry="32.9121"/>
  <g>
    <rect style="fill: #ffffff" x="575.747" y="218.935" width="118.65" height="31.55"/>
    <text font-size="27.0933" style="fill: #000000;text-anchor:middle;font-family:sans-serif;font-style:normal;font-weight:normal" x="635.072" y="244.085">
      <tspan x="635.072" y="244.085">Region 1</tspan>
    </text>
  </g>
  <g>
    <rect style="fill: #ffffff" x="968.665" y="220.893" width="118.65" height="31.55"/>
    <text font-size="27.0933" style="fill: #000000;text-anchor:middle;font-family:sans-serif;font-style:normal;font-weight:normal" x="1027.99" y="246.043">
      <tspan x="1027.99" y="246.043">Region 2</tspan>
    </text>
  </g>
  <g>
    <rect style="fill: #ffffff" x="571.341" y="966.027" width="118.65" height="31.55"/>
    <text font-size="27.0933" style="fill: #000000;text-anchor:middle;font-family:sans-serif;font-style:normal;font-weight:normal" x="630.666" y="991.177">
      <tspan x="630.666" y="991.177">Region 3</tspan>
    </text>
  </g>
  <ellipse style="fill: none; fill-opacity:0; stroke-width: 6; stroke: #00ff00" cx="609.169" cy="440.459" rx="81.4908" ry="79.4353"/>
  <line style="fill: none; fill-opacity:0; stroke-width: 3; stroke-dasharray: 8; stroke: #000000" x1="621.185" y1="522.061" x2="642.142" y2="664.372"/>
  <line style="fill: none; fill-opacity:0; stroke-width: 3; stroke-dasharray: 8; stroke: #000000" x1="541.243" y1="489.491" x2="263.274" y2="690.142"/>
  <line style="fill: none; fill-opacity:0; stroke-width: 3; stroke-dasharray: 8; stroke: #000000" x1="688.212" y1="411.345" x2="846.999" y2="352.859"/>
  <line style="fill: none; fill-opacity:0; stroke-width: 3; stroke-dasharray: 8; stroke: #000000" x1="547.956" y1="383.682" x2="474.822" y2="315.848"/>
  <path style="fill: none; fill-opacity:0; stroke-width: 3; stroke-dasharray: 8; stroke: #000000" d="M 593.843,359.404 A 248.735,248.735 0 0 0 251.174,222.074"/>
</svg>
